<?xml version="1.0" encoding="UTF-8" standalone="no"?>
<svg
   xmlns:dc="http://purl.org/dc/elements/1.1/"
   xmlns:cc="http://creativecommons.org/ns#"
   xmlns:rdf="http://www.w3.org/1999/02/22-rdf-syntax-ns#"
   xmlns:svg="http://www.w3.org/2000/svg"
   xmlns="http://www.w3.org/2000/svg"
   xmlns:sodipodi="http://sodipodi.sourceforge.net/DTD/sodipodi-0.dtd"
   xmlns:inkscape="http://www.inkscape.org/namespaces/inkscape"
   width="225.16774"
   height="333.01233"
   viewBox="0 0 225.16774 333.01233"
   id="svg2"
   version="1.1"
   inkscape:version="0.91 r13725"
   sodipodi:docname="by-length.svg">
  <metadata
     id="metadata62">
    <rdf:RDF>
      <cc:Work
         rdf:about="">
        <dc:format>image/svg+xml</dc:format>
        <dc:type
           rdf:resource="http://purl.org/dc/dcmitype/StillImage" />
        <dc:title>VTK GL2PS Export</dc:title>
      </cc:Work>
    </rdf:RDF>
  </metadata>
  <sodipodi:namedview
     pagecolor="#ffffff"
     bordercolor="#666666"
     borderopacity="1"
     objecttolerance="10"
     gridtolerance="10"
     guidetolerance="10"
     inkscape:pageopacity="0"
     inkscape:pageshadow="2"
     inkscape:window-width="1600"
     inkscape:window-height="836"
     id="namedview60"
     showgrid="false"
     fit-margin-top="0"
     fit-margin-left="0"
     fit-margin-right="0"
     fit-margin-bottom="0"
     inkscape:zoom="3.0849673"
     inkscape:cx="60.072015"
     inkscape:cy="232.47361"
     inkscape:window-x="0"
     inkscape:window-y="32"
     inkscape:window-maximized="1"
     inkscape:current-layer="g10" />
  <title
     id="title4">VTK GL2PS Export</title>
  <desc
     id="desc6">
Creator: GL2PS 1.3.8, (C) 1999-2012 C. Geuzaine
For: VTK
CreationDate: Thu Aug 13 14:51:35 2015
</desc>
  <defs
     id="defs8" />
  <g
     id="g10"
     style="shape-rendering:crispEdges"
     transform="translate(-87.414549,-139.49162)">
    <polyline
       points="306.043,320.608 306.181,320.362 308.229,315.812 309.593,311.491 310.503,309.671 310.958,306.714 310.958,303.757 311.413,299.89 311.413,295.568 311.868,292.839 311.868,289.199 311.64,286.242 311.64,283.058 311.185,278.509 310.958,275.097 310.731,270.548 310.276,267.818 309.821,265.089 309.821,260.539 309.593,255.763 309.366,251.668 309.366,248.029 309.366,244.162 308.683,240.523 307.774,236.428 306.864,233.017 305.954,229.15 305.271,225.283 304.589,222.098 304.134,218.686 303.224,215.275 302.315,211.18 302.542,208.223 302.087,205.039 301.86,201.627 301.632,199.807 301.177,197.76 300.722,194.576 300.04,191.391 299.812,187.979 299.358,182.975 299.358,181.61 298.675,178.426 297.993,175.014 297.31,169.1 296.855,167.508 294.808,161.821 294.126,160.001 293.444,158.409 293.216,157.272 292.306,154.997 287.757,148.628 284.345,145.899 280.706,142.942 277.521,141.35 273.882,140.212 269.788,140.44 264.783,141.805 260.007,143.852 256.822,145.671 253.865,148.173 250.681,150.675 246.586,154.087 242.72,157.044 238.853,160.684 235.668,163.641 232.029,166.598 228.617,168.645 224.75,171.829 223.613,172.739 220.883,173.649 215.879,176.606 212.012,178.426 209.51,179.563 207.236,180.928 205.416,181.838 200.639,183.43 198.82,184.112 194.043,185.022 189.039,187.069 186.764,187.752 181.078,189.799 175.391,190.026 169.022,188.889 162.653,186.842 157.194,183.657 154.692,182.293 148.096,177.743 144.911,174.786 138.997,170.92 132.856,167.28 128.079,164.323 123.075,162.049 118.981,161.139 114.886,160.911 112.157,161.594 110.11,162.276 107.153,163.186 103.286,165.915 99.1914,170.01 96.2344,173.422 94.4147,177.288 93.2774,180.245 92.5951,182.975 91.0028,186.842 89.8655,190.254 89.1831,192.756 88.5007,196.168 88.5007,198.215 88.7282,200.717 88.7282,205.266 88.2733,207.313 88.2733,209.133 88.5007,211.863 88.7282,214.82 88.9557,217.549 88.5007,220.051 88.7282,222.326 88.9557,224.373 88.7282,228.24 88.7282,231.424 88.9557,235.291 89.1831,238.476 89.4106,242.115 89.1831,245.754 89.4106,247.574 89.4106,250.304 89.4106,253.033 90.093,258.947 90.5479,262.814 90.5479,266.226 90.5479,268.501 90.7754,271.23 91.2303,272.367 93.2774,275.097 93.7324,278.964 94.6422,281.693 95.0971,286.015 94.8697,288.745 94.6422,290.792 95.552,294.659 96.4619,298.07 97.1443,302.62 97.8267,305.349 98.0541,308.761 97.1443,311.491 95.552,314.448 93.7324,317.632 92.5951,319.679 91.9127,321.727 90.7754,324.229 90.093,327.413 89.8655,330.598 90.093,333.1 90.3204,334.919 91.0028,336.966 93.05,338.104 96.2344,340.151 98.509,341.743 99.8738,344.473 100.101,346.975 101.239,350.614 102.148,355.846 102.376,360.85 102.831,365.172 103.286,370.176 103.286,374.043 103.286,376.772 103.513,380.639 103.058,383.369 103.058,386.553 102.831,389.51 102.603,392.24 101.921,395.879 101.466,398.154 100.784,401.565 100.329,404.75 99.8738,407.252 98.964,410.891 98.509,413.393 97.5992,416.805 97.3717,419.307 96.6894,422.264 96.007,425.221 95.552,427.951 94.6422,431.818 94.1873,435.002 93.5049,437.277 92.8225,439.779 92.8225,442.509 92.1401,444.328 91.9127,447.285 91.4577,449.56 91.6852,451.834 92.1401,453.427 92.1401,455.701 91.9127,457.748 92.5951,459.568 93.5049,460.25 94.6422,460.933 97.1443,462.07 100.329,463.435 103.286,464.572 104.196,464.8 107.38,465.482 118.753,466.847 130.126,467.074 134.448,466.847 137.632,466.392 144.001,464.572 149.46,462.298 153.782,460.478 156.967,458.886 160.833,457.748 164.245,456.384 167.202,455.474 168.112,455.019 173.116,453.654 174.254,453.427 177.438,452.744 180.85,452.517 184.944,452.972 188.811,453.654 192.223,454.337 196.545,455.701 199.729,456.839 201.549,457.521 204.734,458.658 207.236,460.023 208.373,460.478 210.42,461.16 213.832,461.615 217.471,462.298 221.338,462.98 224.295,463.435 226.57,464.345 229.754,465.255 232.256,466.392 233.849,466.847 236.806,467.529 239.763,468.212 243.629,468.894 247.724,469.576 251.591,470.031 265.238,470.486 270.47,470.714 277.066,470.486 281.388,470.941 286.165,470.714 290.714,470.031 295.036,469.349 300.495,466.619 302.087,465.482 304.134,463.662 305.499,460.933 305.954,460.25 306.864,458.658 308.456,452.744 309.593,448.65 310.503,444.328 310.503,443.191 310.731,440.916 310.731,435.457 310.958,432.045 310.731,425.904 309.821,421.355 308.911,416.123 307.774,414.758 306.864,413.393 302.315,411.346 300.95,408.389 300.04,405.432 298.903,400.656 297.538,397.016 296.855,393.832 296.401,391.102 296.173,387.918 295.718,386.098 295.036,383.823 293.898,379.502 292.989,377 291.851,373.588 291.396,372.678 289.804,368.811 288.894,366.536 288.439,362.215 288.439,359.713 288.667,355.618 288.439,351.979 288.212,348.567 288.439,344.928 289.122,342.653 290.259,339.468 291.169,336.966 292.761,333.555 295.036,331.962 295.718,331.735 298.22,329.46 299.13,328.095 300.95,326.503 302.315,325.821 306.043,320.608"
       id="polyline14"
       style="fill:none;stroke:#000003;stroke-width:3;stroke-miterlimit:4;stroke-dasharray:none;stroke-opacity:1" />
    <path
       style="fill:none;fill-rule:evenodd;stroke:#000000;stroke-width:3;stroke-linecap:butt;stroke-linejoin:miter;stroke-opacity:1;stroke-miterlimit:4;stroke-dasharray:3,3;stroke-dashoffset:0"
       d="m 199.41455,139.50395 0,167"
       id="path4137"
       inkscape:connector-curvature="0"
       sodipodi:nodetypes="cc" />
    <path
       style="fill:none;fill-rule:evenodd;stroke:#000000;stroke-width:3;stroke-linecap:butt;stroke-linejoin:miter;stroke-miterlimit:4;stroke-dasharray:none;stroke-opacity:1"
       d="m 136.36158,176.55268 7.77966,-10.04873 0,0 0,0"
       id="path4186"
       inkscape:connector-curvature="0" />
    <path
       style="fill:none;fill-rule:evenodd;stroke:#000000;stroke-width:3;stroke-linecap:butt;stroke-linejoin:miter;stroke-opacity:1;stroke-miterlimit:4;stroke-dasharray:none"
       d="m 242.68362,148.67556 8.75212,10.37288"
       id="path4188"
       inkscape:connector-curvature="0" />
  </g>
</svg>
