<?xml version="1.0" encoding="UTF-8" standalone="no"?>
<svg
   xmlns:dc="http://purl.org/dc/elements/1.1/"
   xmlns:cc="http://creativecommons.org/ns#"
   xmlns:rdf="http://www.w3.org/1999/02/22-rdf-syntax-ns#"
   xmlns:svg="http://www.w3.org/2000/svg"
   xmlns="http://www.w3.org/2000/svg"
   xmlns:sodipodi="http://sodipodi.sourceforge.net/DTD/sodipodi-0.dtd"
   xmlns:inkscape="http://www.inkscape.org/namespaces/inkscape"
   width="346.547"
   height="172.94917"
   viewBox="0 0 346.547 172.94917"
   id="svg2"
   version="1.1"
   inkscape:version="0.91 r13725"
   sodipodi:docname="windows.svg">
  <metadata
     id="metadata172">
    <rdf:RDF>
      <cc:Work
         rdf:about="">
        <dc:format>image/svg+xml</dc:format>
        <dc:type
           rdf:resource="http://purl.org/dc/dcmitype/StillImage" />
        <dc:title>VTK GL2PS Export</dc:title>
      </cc:Work>
    </rdf:RDF>
  </metadata>
  <sodipodi:namedview
     pagecolor="#ffffff"
     bordercolor="#666666"
     borderopacity="1"
     objecttolerance="10"
     gridtolerance="10"
     guidetolerance="10"
     inkscape:pageopacity="0"
     inkscape:pageshadow="2"
     inkscape:window-width="1920"
     inkscape:window-height="1016"
     id="namedview170"
     showgrid="false"
     fit-margin-top="0"
     fit-margin-left="0"
     fit-margin-right="0"
     fit-margin-bottom="0"
     inkscape:zoom="0.59"
     inkscape:cx="-314.82454"
     inkscape:cy="86.542852"
     inkscape:window-x="0"
     inkscape:window-y="32"
     inkscape:window-maximized="1"
     inkscape:current-layer="g10" />
  <title
     id="title4">VTK GL2PS Export</title>
  <desc
     id="desc6">
Creator: GL2PS 1.3.8, (C) 1999-2012 C. Geuzaine
For: VTK
CreationDate: Tue Aug 18 19:49:25 2015
</desc>
  <defs
     id="defs8" />
  <g
     id="g10"
     style="shape-rendering:crispEdges"
     transform="translate(-26.68895,-113.59368)">
    <polyline
       points="355.884,187.659 343.494,191.452 332.148,198.333 319.852,204.849 302.498,208.654 292.882,211.813 281.734,216.389 264.287,222.034 247.769,226.101 233.607,228.939 221.509,229.736 210.108,228.25 196.664,226.581 182.323,224.684 170.313,221.083 159.382,215.629 146.881,208.698 133.083,200.805 119.628,192.377 106.789,182.442 94.3859,170.139 83.7363,159.164 75.0555,151.66 65.8326,144.541 53.7713,135.555"
       id="polyline12"
       style="fill:none;stroke:#e6b500;stroke-width:1.07142997" />
    <polyline
       points="358.179,188.02 345.568,194.007 326.441,203.859 309.279,210.667 295.816,218.088 292.246,219.58 263.778,227.993 264.434,227.624 254.024,228.268 225.07,238.099 218.386,239.962 213.031,241.328 196.142,246.597 182.684,248.089 170.33,245.846 156.029,242.463 144.503,240.639 129.687,234.753 103.812,218.386 99.0189,215.831 96.4213,214.057 75.0625,198.068 63.0557,187.688 60.0796,183.714 51.2346,176.801"
       id="polyline14"
       style="fill:none;stroke:#0000e6;stroke-width:1.07142997" />
    <polyline
       points="361.881,174.664 349.241,179.23 332.434,184.457 319.703,190.554 311.266,194.363 301.859,195.879 279,200.71 263.006,203.365 250.407,207.268 238.134,214.216 232.785,218.169 212.561,231.541 199.462,236.491 182.783,237.199 169.069,235.49 158.725,233.359 152.62,229.781 137.153,221.155 123.955,211.796 113.336,203.949 101.817,194.758 90.4562,183.291 81.0991,173.219 71.455,164.779 59.7738,155.738"
       id="polyline16"
       style="fill:none;stroke:#2300e6;stroke-width:1.07142997" />
    <polyline
       points="358.217,204.949 345.559,211.297 336.014,217.673 324.677,225.169 307.173,233.534 291.228,238.219 280.158,238.316 265.868,239.887 249.213,243.995 238.699,246.497 228.823,245.816 210.307,241.693 190.92,236.914 180.54,233.495 168.374,226.948 150.723,216.384 138.417,207.581 131.94,202.363 126.448,198.419 114.978,190.334 95.9976,176.872 82.1508,167.861 73.1554,162.278 59.3446,151.45 45.9027,140.123"
       id="polyline18"
       style="fill:none;stroke:#e6a000;stroke-width:1.07142997" />
    <polyline
       points="352.459,206.555 334.696,217.769 331.309,224.107 329.202,225.916 299.297,228.867 272.698,232.528 267.776,234.196 253.709,238.128 238.923,243.255 238.893,244.12 237.246,243.284 215.934,243.855 185.397,244.653 170.088,241.757 159.75,235.788 151.853,228.003 142.438,219.797 132.65,211.759 125.721,203.919 120.549,196.326 114.325,187.396 102.034,172.275 86.8116,154.673 81.0424,147.939 75.3854,141.692"
       id="polyline20"
       style="fill:none;stroke:#cfe600;stroke-width:1.07142997" />
    <polyline
       points="362.907,199.713 350.347,206.317 340.108,211.31 327.296,216.392 315.44,220.969 309.4,223.942 305.86,225.793 299.34,227.426 284.402,229.737 260.51,232.841 236.634,235.343 220.299,236.135 206.792,236.339 188.662,237.511 168.583,238.68 153.03,237.81 140.022,234.542 127.638,227.85 116.412,216.089 106.341,204.199 97.2173,196.246 89.1434,187.331 80.7695,175.766 69.394,164.602 56.9574,155.14"
       id="polyline22"
       style="fill:none;stroke:#e6c900;stroke-width:1.07142997" />
    <polyline
       points="356.656,197.09 345.706,205.328 333.094,210.21 322.502,213.128 310.669,216.501 292.368,222.148 275.014,226.391 262.228,228.324 249.916,231.257 235.65,237.05 223.88,243.844 221.05,247.783 216.734,249.697 195.852,251.728 162.088,252.891 149.018,247.586 142.586,239.687 130.921,232.054 118.464,223.834 107.741,214.976 96.9801,204.953 79.1664,191.883 66.4858,179.271 60.7047,172.286 53.369,168.237"
       id="polyline24"
       style="fill:none;stroke:#0000e6;stroke-width:1.07142997" />
    <polyline
       points="359.339,178.918 344.558,186.526 326.769,195.648 319.366,199.667 312.095,202.531 299.093,207.905 282.253,217.202 268.589,225.89 260.497,230.581 245.795,237.028 225.11,245.214 210.892,249.062 196.919,250.542 184.328,250.094 172.715,248.025 159.986,244.713 145.786,239.761 130.186,231.044 116.428,219.485 108.604,210.962 96.4363,200.779 84.0144,191.975 75.1196,186.053 65.9806,179.703 52.406,170.593"
       id="polyline26"
       style="fill:none;stroke:#0007e6;stroke-width:1.07142997" />
    <polyline
       points="352.212,185.778 343.167,193.466 327.61,207.038 314.939,215.523 305.068,219.749 293.349,225.057 279.537,232.381 272.003,236.95 263.998,240.462 237.297,249.936 218.659,253.996 204.797,253.846 190.891,251.88 183.45,248.096 176.239,243.563 162.387,237.081 146.744,228.125 135.211,217.727 127.051,208.331 116.832,198.048 103.986,186.492 95.9839,177.381 86.5076,168.258 72.0743,157.881 58.788,149.209"
       id="polyline28"
       style="fill:none;stroke:#e6c900;stroke-width:1.07142997" />
    <polyline
       points="325.561,217.227 315.282,223.519 303.147,229.664 288.299,234.635 274.207,237.677 261.469,240.94 247.943,246.429 230.863,250.014 215.478,250.948 208.16,251.136 208.714,251.714 208.198,252.467 196.039,252.928 164.582,252.6 136.042,250.74 127.224,246.885 118.474,241.313 105.768,234.789 97.2842,228.031 88.7659,219.646 73.5096,208.333 58.7403,198.097 47.6346,187.474 36.4312,174.943 27.002,168.153"
       id="polyline30"
       style="fill:none;stroke:#1a00e6;stroke-width:1.07142997" />
    <polyline
       points="367.545,207.299 353.671,208.182 337.21,212.126 325.054,216.004 314.412,219.567 298.751,225.442 279.148,233.482 269.679,236.184 252.918,242.854 238.453,248.442 228.202,250.933 214.818,253.751 197.759,256.596 182.207,256.076 168.147,253.016 154.417,245.344 144.197,237.239 135.555,230.596 126.148,224.287 115.951,216.733 105.7,208.491 96.1251,200.474 86.8871,191.756 76.8928,180.97 61.4103,167.127"
       id="polyline32"
       style="fill:none;stroke:#0002e6;stroke-width:1.07142997" />
    <polyline
       points="356.673,200.136 340.227,208.978 332.462,213.491 323.91,217.828 309.519,224.264 298.053,229.098 283.553,234.351 267.513,240.376 252.174,246.099 238.272,250.812 228.871,255.902 209.432,264.485 198.336,266.474 187.605,266.692 170.403,266.107 155.543,260.754 141.435,252.26 130.624,244.726 118.092,235.746 106.569,222.859 99.8987,215.258 87.9967,201.675 80.7036,192.314 70.3496,183.51 59.6339,174.377"
       id="polyline34"
       style="fill:none;stroke:#dfe600;stroke-width:1.07142997" />
    <polyline
       points="348.208,179.265 337.302,185.508 323.821,190.65 309.822,195.271 303.296,199.262 299.15,203.954 288.834,211.041 270.845,220.319 255.248,228.461 242.875,234.437 222.628,240.204 206.284,241.976 198.81,238.701 186.05,235.039 171.306,230.825 159.111,225.078 148.359,218.013 139.005,211.02 130.974,204.811 122.874,197.546 113.188,187.504 100.696,175.144 85.4564,161.482 71.8416,147.986 64.3742,140.274"
       id="polyline36"
       style="fill:none;stroke:#0007e6;stroke-width:1.07142997" />
    <polyline
       points="348.738,192.203 335.849,197.573 324.891,204.353 312.636,209.67 299.115,214.449 285.447,219.794 269.802,223.672 249.36,226.067 242.983,227.424 229.141,236.595 217.448,245.66 215.531,247.031 194.925,248.669 170.011,249.889 163.191,245.407 149.803,237.616 135.826,228.598 126.31,220.598 118.691,213.284 108.731,204.056 95.7994,193.018 82.0287,181.845 70.2851,172.386 59.0354,164.25 48.5677,157.214"
       id="polyline38"
       style="fill:none;stroke:#0500e6;stroke-width:1.07142997" />
    <polyline
       points="351.491,226.45 346.64,229.841 305.29,256.697 309.265,252.036 299.024,257.424 283.766,264.098 274.162,269.593 264.164,274.349 246.744,277.919 232.462,280.45 222.13,280.997 202.304,278.135 194.014,275.965 183.958,272.493 173.942,268.31 162.663,263.595 153.746,257.727 144.229,250.847 130.709,242.46 117.856,230.635 106.258,221.531 102.163,214.9 97.038,204.889 88.1276,194.338 78.7145,186.713"
       id="polyline40"
       style="fill:none;stroke:#b5e600;stroke-width:1.07142997" />
    <polyline
       points="360.302,196.823 344.465,204.091 329.966,209.904 317.982,213.634 304.706,217.776 288.859,224.336 279.801,226.661 259.242,235.976 244.138,245.093 246.51,244.854 244.907,241.916 223.104,241.734 196.73,241.962 180.785,239.731 168.902,235.593 155.925,227.522 144.09,218.269 137.194,212.07 131.629,206.832 123.453,199.894 109.37,188.743 91.3001,174.544 80.3143,164.996 74.8815,159.105 68.2876,152.781"
       id="polyline42"
       style="fill:none;stroke:#dae600;stroke-width:1.07142997" />
    <polyline
       points="363.523,190.236 349.964,200.395 337.112,209.034 323.952,217.443 310.04,226.153 297.025,233.024 285.52,236.861 272.075,240.529 253.842,246.553 235.673,251.278 221.908,251.939 209.834,252.409 196.916,253.642 182.075,251.888 166.584,245.426 154.11,235.49 144.4,224.965 134.806,216.794 124.097,209.256 112.009,200.096 100.639,191.543 91.7188,185.886 82.6464,180.272 69.8853,170.717 54.2081,157.842"
       id="polyline44"
       style="fill:none;stroke:#e6cf00;stroke-width:1.07142997" />
    <polyline
       points="372.998,196.719 354.719,205.781 339.728,210.591 328.451,215.721 313.446,222.112 296.928,227.687 288.536,229.678 278.135,232.056 257.878,238.216 242.314,244.513 231.007,249.144 213.114,252.8 197.42,255.563 183.237,258.875 167.866,260.854 153.978,258.905 140.891,256.051 127.44,248.378 114.771,242.343 102.314,239.274 88.4857,230.794 78.7474,221.57 71.2315,212.822 62.0892,203.198 52.5068,192.557"
       id="polyline46"
       style="fill:none;stroke:#1e00e6;stroke-width:1.07142997" />
    <polyline
       points="348.238,196.768 335.758,199.41 327.134,205.058 313.831,210.052 299.856,211.979 286.559,215.223 270.058,219.36 260.538,223.583 248.944,227.925 233.318,234.694 221.496,242.652 219.166,246.222 213.025,246.804 188.28,246.95 161.176,246.646 149.899,243.062 140.222,234.227 126.119,223.699 114.951,215.046 106.89,207.722 97.3739,200.171 85.8842,192.097 71.3337,180.214 58.493,168.046 50.5247,160.956"
       id="polyline48"
       style="fill:none;stroke:#0a00e6;stroke-width:1.07142997" />
    <polyline
       points="355.564,180.634 341.817,188.319 327.218,195.184 315.358,199.304 301.657,203.693 285.139,211.126 271.791,221.475 262.32,231.126 252.117,234.129 238.426,234.468 223.73,235.266 207.219,236.93 188.207,237.192 180.014,232.933 169.3,224.412 156.377,214.293 146.955,204.557 138.839,195.067 129.609,186.032 119.185,177.472 109.326,169.084 99.2124,160.332 87.4382,150.648 75.0695,139.742 62.4344,128.134"
       id="polyline50"
       style="fill:none;stroke:#e6a000;stroke-width:1.07142997" />
    <polyline
       points="355.706,192.126 338.517,196.326 325.581,200.371 314.254,204.83 301.277,210.117 287.68,215.974 275.187,222.133 263.801,229.015 252.895,237.014 240.825,244.997 225.793,251.401 209.036,257.066 193.57,263.522 181.788,268.08 173.195,268.271 162.075,264.758 144.389,258.701 128.121,251.944 120.361,245.304 114.056,235.93 101.317,221.345 86.7813,206.581 77.1572,196.716 71.9318,190.047 67.1732,183.211"
       id="polyline52"
       style="fill:none;stroke:#0000e6;stroke-width:1.07142997" />
    <polyline
       points="361.656,182.203 344.985,192.098 330.823,197.865 320.901,201.8 316.782,204.895 311.462,208.367 290.648,214.316 262.323,221.346 250.43,225.209 238.089,227.748 226.559,229.294 214.101,230.902 198.276,233.024 182.09,233.939 169.203,232.995 159.405,229.659 146.193,222.485 130.029,212.455 118.176,202.516 108.649,191.385 99.3777,180.815 90.3425,173.902 79.8628,164.793 67.7574,152.062 56.443,143.319"
       id="polyline54"
       style="fill:none;stroke:#0015e6;stroke-width:1.07142997" />
    <polyline
       points="361.773,213.185 344.578,217.794 329.716,220.456 319.661,223.459 311.777,228.341 299.411,234.33 281.102,239.048 261.971,239.986 235.527,249.879 231.678,252.561 223.258,254.117 204.935,255.873 185.408,256.293 178.488,256.789 170.589,256.394 154.46,254.061 140.523,249.691 129.325,242.141 116.916,230.622 105.728,217.998 92.8288,206.184 80.4342,196.569 75.2047,188.708 68.046,178.411 57.8742,167.34"
       id="polyline56"
       style="fill:none;stroke:#0007e6;stroke-width:1.07142997" />
    <polyline
       points="358.348,218.873 345.286,228.102 336.7,234.574 326.969,241.542 313.272,250.05 297.646,257.748 283.683,263.484 272.933,268.363 249.728,279.384 232.33,285.978 223.555,283.387 207.519,282.46 201.091,280.381 190.5,275.217 172.115,267.652 159.648,261.263 151.76,255.952 141.506,249.748 126.261,238.76 108.454,222.34 99.4713,210.937 95.3667,204.682 88.9181,198.427 75.6253,186.459 59.3358,170.642"
       id="polyline58"
       style="fill:none;stroke:#b5e600;stroke-width:1.07142997" />
    <polyline
       points="359.583,194.496 346.103,203.389 334.608,209.216 327.95,210.715 318.055,214.591 292.822,226.611 277.685,235.019 264.745,241.466 255.781,246.208 244.18,249.973 236.485,253.932 229.99,257.498 209.366,259.066 184.744,258.801 168.913,255.589 153.453,248.413 147.132,240.601 137.543,229.255 128.489,218.589 119.696,208.238 108.86,193.801 104.924,184.703 94.8445,174.771 79.9569,159.928 72.9046,151.242"
       id="polyline60"
       style="fill:none;stroke:#bce600;stroke-width:1.07142997" />
    <polyline
       points="356.6,200.941 341.513,208.805 330.574,213.87 320.301,220.949 309.348,228.999 297.216,234.988 283.434,239.083 267.635,243.198 251.195,247.561 236.578,251.025 221.502,253.765 202.67,256.468 187.346,257.991 178.192,257.132 169.57,253.306 158.484,246.783 145.272,238.746 131.329,230.252 119.916,221.99 112.808,214.243 106.884,206.275 98.185,197.175 85.0782,186.748 70.1737,176.094 56.092,166.194"
       id="polyline62"
       style="fill:none;stroke:#cfe600;stroke-width:1.07142997" />
    <polyline
       points="351.851,191.55 338.851,199.68 328.648,207.192 317.676,214.114 302.948,220.072 290.101,223.813 277.779,226.519 262.51,233.523 246.566,242.306 234.947,245.045 222.905,248.744 207.152,250.228 192.558,251.427 182.056,250.594 165.39,246.053 156.187,242.999 142.639,235.696 127.868,226.49 119.026,217.564 110.054,207.977 98.2632,200.614 89.8263,192.996 78.5464,182.078 69.8298,173.552 58.2212,161.934"
       id="polyline64"
       style="fill:none;stroke:#000ae6;stroke-width:1.07142997" />
    <polyline
       points="348.927,194.462 336.558,200.819 336.224,202.896 323.875,206.29 295.895,210.413 287.451,207.876 265.898,219.832 260.546,222.128 249.835,220.204 243.133,226.11 223.355,231.414 206.267,229.915 183.406,236.984 192.025,233.201 176.727,232.528 156.498,230.639 145.512,229.771 141.098,228.671 134.375,223.145 123.215,213.091 111.487,202.01 101.047,191.614 91.0957,181.302 81.6555,170.818 73.4903,160.405"
       id="polyline66"
       style="fill:none;stroke:#0000e6;stroke-width:1.07142997" />
    <polyline
       points="350.487,204.959 335.921,208.139 323.259,209.269 311.421,213.599 295.017,225.618 279.632,235.789 272.413,241.211 261.931,242.989 245.662,246.069 230.936,250.477 221.553,251.66 213.11,251.531 197.109,247.43 177.781,240.958 169.522,237.991 160.357,233.517 145.473,223.49 131.599,211.956 126.514,207.494 120.031,199.413 107.421,185.751 93.8718,175.546 83.3798,166.347 70.7315,155.683 61.9469,147.941"
       id="polyline68"
       style="fill:none;stroke:#e6b500;stroke-width:1.07142997" />
    <polyline
       points="356.61,188.7 345.262,196.662 327.745,206.387 312.542,213.536 301.145,217.916 289.499,222.448 276.68,228.024 262.9,234.451 248.638,240.188 234.621,244.227 221.79,246.934 209.166,248.748 194.361,249.959 178.691,249.387 165.656,245.231 154.82,238.921 143.939,232.696 130.247,224.012 112.309,209.78 98.2561,197.562 91.235,191.023 86.9421,186.903 79.5091,180.435 65.4855,168.555 52.6791,156.265"
       id="polyline70"
       style="fill:none;stroke:#e6bc00;stroke-width:1.07142997" />
    <polyline
       points="356.333,211.407 350.174,221.341 339.657,226.84 324.462,228.3 307.538,228.945 292.921,233.639 280.769,239.448 269.079,241.341 256.468,240.299 241.573,238.977 223.521,240.431 206.902,241.437 193.781,238.283 179.519,231.953 167.333,223.907 156.559,215.195 144.372,206.383 132.741,197.591 121.971,188.322 111.126,178.798 98.6459,169.57 84.9249,160.545 75.0163,151.411 66.5746,142.706 52.6301,132.226"
       id="polyline72"
       style="fill:none;stroke:#a7e600;stroke-width:1.07142997" />
    <polyline
       points="357.143,188.672 340.584,194.844 329.374,203.078 321.743,208.804 312.942,211.781 298.805,215.34 282.37,220.947 268.636,228.086 254.282,233.515 239.982,237.761 226.934,242.279 209.953,243.362 200.539,243.228 187.827,242.274 166.363,241.108 158.658,240.509 152.607,230.778 144.763,215.37 141.128,205.898 136.147,197.766 124.755,186.533 108.401,174.881 95.3765,163.029 89.4819,152.891 83.7176,147.405"
       id="polyline74"
       style="fill:none;stroke:#0000e6;stroke-width:1.07142997" />
    <polyline
       points="361.468,195.273 321.995,212.051 314.269,220.545 319.276,218.594 314.626,218.407 287.412,228.79 267.367,238.22 256.055,245.262 235.464,254.505 228.576,253.916 221.529,254.454 209.444,257.61 194.418,259.283 179.441,258.296 166.98,254.856 155.016,249.678 140.863,243.525 126.704,236.434 115.689,228.221 105.941,219.061 94.7507,209.232 83.5745,198.969 74.3628,188.559 64.5853,178.62 51.7842,169.881"
       id="polyline76"
       style="fill:none;stroke:#0002e6;stroke-width:1.07142997" />
    <polyline
       points="353.969,168.909 339.116,178.604 320.643,190.357 309.359,195.104 294.834,201.291 277.002,209.524 268.508,212.048 267.548,213.907 266.345,216.419 255.016,218.543 226.184,219.349 198.755,219.211 188.371,218.439 181.501,215.894 171.387,209.379 157.023,197.175 144.299,185.73 136.883,179.266 129.575,172.119 120.167,162.637 110.751,154.695 101.744,148.742 91.2574,140.729 77.3318,128.118 58.5672,114.022"
       id="polyline78"
       style="fill:none;stroke:#000ae6;stroke-width:1.07142997" />
    <polyline
       points="371.402,179.149 344.46,193.603 325.321,198.802 314.627,203.934 298.042,208.463 289.555,211.333 274.5,217.583 263.676,223.127 253.878,227.414 237.095,232.706 227.612,237.994 220.503,242.206 202.331,244.662 181.746,246.699 170.794,249.052 160.491,248.667 144.229,244.246 124.204,238.012 108.708,229.764 99.594,219.307 90.6808,209.335 86.4512,202.891 82.5496,196.278 69.1913,182.415 51.1281,165.662"
       id="polyline80"
       style="fill:none;stroke:#0003e6;stroke-width:1.07142997" />
    <polyline
       points="358.951,202.126 334.22,213.33 328.386,214.516 313.357,218.613 295.95,224.48 288.588,231.106 274.566,237.881 257.619,245.87 250.75,247.124 236.896,253.613 219.332,263.698 205.385,267.717 193.877,266.82 182.573,264.047 173.524,261.486 159.047,256.974 136.515,248.722 129.871,244.469 116.573,235.694 106.68,229.677 96.5098,223.483 81.6617,212.937 70.2661,199.484 62.8583,183.815 55.2348,172.916"
       id="polyline82"
       style="fill:none;stroke:#2900e6;stroke-width:1.07142997" />
    <polyline
       points="364.938,199.227 343.022,206.454 323.196,211.05 320.806,210.278 313.422,215.018 285.249,231.867 270.935,240.543 272.523,239.496 239.591,252.494 232.805,253.615 225.299,253.832 212.584,257.057 201.468,258.587 188.003,256.384 170.794,251.93 156.069,247.786 151.257,244.672 142.742,237.922 121.668,225.35 108.159,216.247 101.279,210.016 93.6615,202.487 85.419,192.349 76.9547,180.983 68.3709,170.529"
       id="polyline84"
       style="fill:none;stroke:#0000e6;stroke-width:1.07142997" />
    <polyline
       points="366.285,204.01 355.059,208.96 340.602,215.918 326.475,223.035 315.094,228.61 303.16,233.183 286.981,237.597 268.957,241.54 253.398,244.292 238.78,245.988 223.094,246.837 208.071,246.517 194.928,244.706 183.694,241.25 173.562,236.64 163.388,231.61 152.634,225.959 141.267,218.707 129.489,209.304 118.331,198.86 108.87,188.777 99.9866,179.058 88.8174,168.598 74.1381,156.967 60.1534,146.013"
       id="polyline86"
       style="fill:none;stroke:#b5e600;stroke-width:1.07142997" />
    <polyline
       points="362.126,210.379 347.595,223.395 332.541,234.73 322.23,239.807 309.834,247.514 298.983,254.648 290.978,258.003 280.235,259.551 265.499,260.55 250.782,261.102 236.589,260.143 219.808,255.704 202.864,249.342 186.76,246.619 169.002,250.23 162.89,248.009 151.947,240.038 139.382,230.678 135.357,222.493 129.833,213.079 118.981,201.321 107.523,188.373 98.4426,178.151 91.3863,171.701 82.6664,164.283"
       id="polyline88"
       style="fill:none;stroke:#e6e400;stroke-width:1.07142997" />
    <polyline
       points="360.276,183.547 340,198.33 331.871,203.611 322.288,208.242 305.03,217.18 288.917,225.906 277.467,229.756 263.567,234.267 248.75,242.093 245.457,245.801 240.096,246.968 217.91,248.234 193.965,247.676 182.205,242.877 169.9,235.078 157.659,226.655 147.405,218.384 137.435,209.594 126.109,200.268 114.678,191.357 104.352,182.883 91.0167,171.273 79.1603,160.785 70.1715,153.439 56.8441,143.722"
       id="polyline90"
       style="fill:none;stroke:#e6ae00;stroke-width:1.07142997" />
    <polyline
       points="341.466,209.753 332.032,215.799 320.933,225.104 307.694,233.991 296.061,244.032 289.303,250.425 276.569,257.787 262.317,264.806 248.667,269.808 229.618,277.21 220.356,282.117 209.663,284.396 196.066,282.586 184.205,274.113 172.725,264.76 160.943,258.117 153.156,248.57 143.613,237.319 131.457,227.523 125.357,220.584 116.615,210.643 97.0526,193.583 88.0258,182.937 82.1298,176.515 70.1613,168.043"
       id="polyline92"
       style="fill:none;stroke:#dae600;stroke-width:1.07142997" />
    <polyline
       points="368.753,181.954 351.272,188.815 333.384,197.8 317.866,200.798 303.656,204.354 299.459,208.112 291.574,213.005 276.214,219.375 264.166,223.129 255.081,226.512 243.063,234.079 218.231,245.397 197.505,251.514 188.04,249.868 176.156,247.962 165.29,245.225 150.083,239.719 134.512,235.499 122.577,230.166 114.002,222.547 105.205,215.298 92.3661,205.67 76.9502,193.128 67.6485,183.093 56.5823,172.31"
       id="polyline94"
       style="fill:none;stroke:#0003e6;stroke-width:1.07142997" />
    <polyline
       points="363.911,208.321 349.332,215.462 337.036,219.917 325.167,223.26 311.805,228.389 297.371,234.923 283.888,240.251 271.984,244.228 261.349,248.212 250.261,252.736 235.603,257.482 215.702,261.677 193.862,263.211 175.361,262.028 164.364,260.429 158.05,258.205 151.775,254.106 139.685,245.702 118.323,231.635 102.016,219.077 96.9263,211.742 90.6264,204.886 78.3619,195.463 64.4994,182.943 52.4001,170.425"
       id="polyline96"
       style="fill:none;stroke:#e6cf00;stroke-width:1.07142997" />
    <polyline
       points="349.824,217.997 336.895,225.41 324.403,228.351 311.696,231.297 297.669,235.161 284.18,238.017 275.987,238.91 266.78,241.255 246.641,249.717 229.478,258.641 224.729,262.164 210.726,264.73 186.151,267.429 176.729,266.04 164.672,263.212 144.078,260.467 132.371,255.826 124.685,248.512 114.985,238.181 101.896,226.545 90.5095,218.526 80.6298,210.256 69.9479,199.552 56.6046,188.597 42.0226,177.105"
       id="polyline98"
       style="fill:none;stroke:#0015e6;stroke-width:1.07142997" />
    <polyline
       points="366.587,196.442 354.36,201.982 335.877,212.064 321.208,220.24 312.255,224.481 299.657,228.981 278.095,236.654 260.584,243.865 250.847,248.616 239.014,252.228 224.767,254.985 212.77,256.605 201.639,257.576 188.028,258.584 172.045,259.191 156.158,258.188 142.038,254.659 130.527,248.006 119.928,238.886 106.688,228.98 91.9534,219.691 80.424,211.95 72.1506,205.475 65.2384,199.44 56.9984,192.375"
       id="polyline100"
       style="fill:none;stroke:#99e600;stroke-width:1.07142997" />
    <polyline
       points="348.219,200.669 337.085,206.631 328.379,211.026 316.183,215.324 301.551,219.321 290.698,222.352 279.957,225.811 264.555,231 253.041,235.69 236.866,242.137 219.344,249.476 223.551,249.934 210.69,249.426 174.05,250.055 169.064,244.643 156.882,238.024 146.664,230.679 137.555,222.963 126.313,209.714 119.124,199.64 108.587,188.044 98.3174,176.536 89.292,167.727 81.647,157.939 75.9625,150.768"
       id="polyline102"
       style="fill:none;stroke:#e6a700;stroke-width:1.07142997" />
    <polyline
       points="353.403,193.982 352.275,195.562 334.295,197.022 312.648,199.08 306.768,199.849 299.008,200.56 284.875,200.082 265.827,200.698 248.702,204.158 239.31,206.701 230.801,208.752 218.834,213.364 202.288,222.561 181.441,226.922 180.181,231.31 146.676,221.856 150.8,223.546 133.979,210.605 122.344,199.425 118.519,195.691 115.94,194.114 111.596,189.834 91.8952,168.068 73.8167,149.352 64.8166,141.067"
       id="polyline104"
       style="fill:none;stroke:#0000e6;stroke-width:1.07142997" />
    <polyline
       points="349.267,191.787 337.582,198.102 326.75,204.664 315.841,211.356 302.18,217.451 285.92,222.525 272.468,226.793 261.757,231.17 245.661,237.387 225.779,244.48 212.6,248.196 197.51,246.84 182.941,244.086 173.683,241.394 166.276,235.774 156.541,227.901 142.481,218.717 128.928,207.25 118.702,195.682 110.958,187.054 103.748,179.162 95.9368,171.013 87.0397,162.896 76.425,154.459 63.5146,145.058"
       id="polyline106"
       style="fill:none;stroke:#e69900;stroke-width:1.07142997" />
    <polyline
       points="364.612,194.459 353.059,203.601 336.501,213.874 325.16,220.296 318.369,223.132 307.406,226.428 290.611,231.181 271.931,235.968 255.232,239.394 241.52,240.987 227.183,241.696 211.916,241.079 197.801,239.1 186.263,236.554 169.58,227.794 153.791,215.635 148.64,208.459 137.745,200.354 129.095,192.781 123.11,184.498 110.942,171.351 97.1013,156.409 87.9612,144.844 80.4281,137.034 69.4729,129.067"
       id="polyline108"
       style="fill:none;stroke:#2900e6;stroke-width:1.07142997" />
    <polyline
       points="256.6,208.451 249.355,209.437 238.487,211.67 226.126,215.1 220.176,218.459 228.83,220.413 251.635,220.549 269.496,220.443 260.889,221.928 204.29,226.839 146.615,231.445 164.743,229.225 174.442,226.538 165.15,224.377 152.052,221.841 143.974,218.432 138.468,214.372 132.375,209.986 125.86,205.817 120.592,202.508 117.298,200.258 114.515,198.239 110.47,195.478 103.397,191.005 92.9093,184.522"
       id="polyline110"
       style="fill:none;stroke:#1500e6;stroke-width:1.07142997" />
    <polyline
       points="336.123,203.056 321.588,211.011 312.329,213.827 296.823,213.764 285.829,213.769 269.253,214.106 260.966,219.148 257.038,219.005 237.321,229.112 213.027,241.361 215.025,241.894 205.769,241.372 183.735,242.103 174.818,238.978 154.431,229.961 145.58,223.685 137.165,215.865 127.069,208.341 117.149,200.211 104.495,188.224 96.9194,180.36 86.9958,169.012 77.2758,157.629 68.1296,149.75 53.0799,141.768"
       id="polyline112"
       style="fill:none;stroke:#000ee6;stroke-width:1.07142997" />
    <polyline
       points="352.096,199.085 345.096,205.373 330.016,209.86 315.431,215.576 306.999,221.015 300.139,223.602 287.74,227.095 268.859,233.729 252.095,242.387 242.388,249.818 230.321,255.014 202.223,259.338 194.549,257.519 187.376,255.882 171.51,249.184 154.249,237.999 145.915,231.169 140.571,224.047 132.398,213.372 119.84,198.826 108.445,184.688 96.8776,174.415 87.0269,165.785 78.8074,157.362 69.3681,150.265"
       id="polyline114"
       style="fill:none;stroke:#e6c900;stroke-width:1.07142997" />
    <polyline
       points="355.626,192.322 345.112,198.881 334.209,206.026 321.906,213.892 306.551,222.462 289.384,230.766 276.129,236.428 266.779,239.914 256.791,243.835 243.462,248.933 226.206,254.002 208.413,256.959 195.649,255.87 186.309,252.636 177.56,249.246 167.886,245.864 156.122,242.26 142.51,236.991 127.97,228.208 114.649,217.527 105.654,209.81 98.7529,203.824 87.2481,193.15 70.953,177.547 61.3744,167.973"
       id="polyline116"
       style="fill:none;stroke:#e6d500;stroke-width:1.07142997" />
    <polyline
       points="359.373,197.225 345.157,203.695 331.097,210.068 316.918,215.371 304.83,219.435 291.941,223.35 275.934,227.697 270.332,229.901 269.059,230.98 255.776,233.856 224.454,239.558 206.826,242.094 204.488,240.09 194.176,236.184 167.681,232.243 149.95,227.965 138.403,221.282 124.195,211.839 112.307,202.323 102.84,193.419 94.8033,184.508 85.0665,173.694 73.3559,161.718 66.7117,154.754 57.522,147.238"
       id="polyline118"
       style="fill:none;stroke:#cfe600;stroke-width:1.07142997" />
    <polyline
       points="345.043,189.222 331.839,197.271 314.802,208.698 297.899,219.458 285.114,226.322 277.604,231.114 271.602,235.74 255.508,240.951 227.685,246.148 216.725,247.253 216.388,244.178 207.354,238.37 186.166,231.673 171.666,226.27 166.284,221.297 159.75,213.751 146.409,202.597 132.957,191.903 124.487,184.463 118.287,178.503 110.759,171.748 100.418,163.472 87.3367,154.084 72.3509,144.381 58.7688,136.373"
       id="polyline120"
       style="fill:none;stroke:#d5e600;stroke-width:1.07142997" />
    <polyline
       points="360.018,202.953 347.141,212.317 334.571,219.303 329.582,222.774 318.564,228.477 293.233,240.056 283.381,246.537 273.179,248.781 259.903,250.533 246.367,253.352 230.276,256.184 211.645,257.842 197.054,258.554 186.651,258.751 168.443,257.365 154.947,254.181 147.58,248.42 137.594,239.399 126.922,229.218 117.792,219.183 107.202,207.454 95.3384,194.544 86.6455,184.037 77.3287,173.856 63.7427,161.849"
       id="polyline122"
       style="fill:none;stroke:#e6ae00;stroke-width:1.07142997" />
    <polyline
       points="357.321,187.909 346.272,191.145 333.755,195.127 318.457,199.684 301.704,205.423 286.723,212.308 277.914,217.201 270.595,221.379 253.237,229.873 234.219,237.816 224.846,240.522 211.852,247.222 196.831,251.178 183.095,248.438 169.543,244.258 159.494,237.937 149.5,229.449 139.75,221.162 132.695,214.868 123.333,205.978 110.256,193.055 100.684,182.201 91.4861,171.015 81.2573,158.647 75.1776,150.096"
       id="polyline124"
       style="fill:none;stroke:#0700e6;stroke-width:1.07142997" />
  </g>
</svg>
