<?xml version="1.0" encoding="UTF-8" standalone="no"?>
<!-- Created with matplotlib (http://matplotlib.org/) -->

<svg
   xmlns:dc="http://purl.org/dc/elements/1.1/"
   xmlns:cc="http://creativecommons.org/ns#"
   xmlns:rdf="http://www.w3.org/1999/02/22-rdf-syntax-ns#"
   xmlns:svg="http://www.w3.org/2000/svg"
   xmlns="http://www.w3.org/2000/svg"
   xmlns:xlink="http://www.w3.org/1999/xlink"
   xmlns:sodipodi="http://sodipodi.sourceforge.net/DTD/sodipodi-0.dtd"
   xmlns:inkscape="http://www.inkscape.org/namespaces/inkscape"
   height="305.51999pt"
   version="1.1"
   viewBox="0 0 423.69 305.51999"
   width="423.69pt"
   id="svg2"
   inkscape:version="0.91 r13725"
   sodipodi:docname="svm.svg">
  <metadata
     id="metadata407">
    <rdf:RDF>
      <cc:Work
         rdf:about="">
        <dc:format>image/svg+xml</dc:format>
        <dc:type
           rdf:resource="http://purl.org/dc/dcmitype/StillImage" />
        <dc:title></dc:title>
      </cc:Work>
    </rdf:RDF>
  </metadata>
  <sodipodi:namedview
     pagecolor="#ffffff"
     bordercolor="#666666"
     borderopacity="1"
     objecttolerance="10"
     gridtolerance="10"
     guidetolerance="10"
     inkscape:pageopacity="0"
     inkscape:pageshadow="2"
     inkscape:window-width="1920"
     inkscape:window-height="1016"
     id="namedview405"
     showgrid="false"
     fit-margin-top="0"
     fit-margin-left="0"
     fit-margin-right="0"
     fit-margin-bottom="0"
     inkscape:zoom="1.412717"
     inkscape:cx="157.88562"
     inkscape:cy="258.14589"
     inkscape:window-x="0"
     inkscape:window-y="32"
     inkscape:window-maximized="1"
     inkscape:current-layer="axes_1" />
  <defs
     id="defs4"
     style="stroke-linecap:butt;stroke-linejoin:round">
    <style
       type="text/css"
       id="style6">
*{stroke-linecap:butt;stroke-linejoin:round;}
  </style>
  </defs>
  <g
     id="figure_1"
     style="stroke-linecap:butt;stroke-linejoin:round"
     transform="translate(-66.75,-36.69)">
    <g
       id="axes_1"
       style="stroke-linecap:butt;stroke-linejoin:round">
      <g
         id="patch_2"
         style="stroke-linecap:butt;stroke-linejoin:round">
        <path
           d="m 67.95,341.01 421.29,0 0,-303.12 -421.29,0 z"
           style="fill:#ffffff;stroke-linecap:butt;stroke-linejoin:round"
           id="path14"
           inkscape:connector-curvature="0" />
      </g>
      <g
         id="line2d_1"
         style="stroke-linecap:butt;stroke-linejoin:round">
        <path
           clip-path="url(#p04c34eb386)"
           d="m 103.058,138.251 7.164,2.8 7.165,2.801 7.165,2.801 7.165,2.801 7.164,2.801 7.165,2.8 7.165,2.801 7.165,2.801 7.165,2.801 7.164,2.801 7.165,2.8 7.165,2.801 7.165,2.801 7.165,2.801 7.164,2.801 7.165,2.801 7.165,2.8 7.165,2.801 7.165,2.801 7.164,2.801 7.165,2.801 7.165,2.8 7.165,2.801 7.165,2.801 7.164,2.801 7.165,2.801 7.165,2.801 7.165,2.8 7.165,2.801 7.164,2.801 7.165,2.801 7.165,2.801 7.165,2.8 7.165,2.801 7.164,2.801 7.165,2.801 7.165,2.801 7.165,2.8 7.165,2.801 7.164,2.801 7.165,2.801 7.165,2.801 7.165,2.801 7.165,2.8 7.164,2.801 7.165,2.801 7.165,2.801 7.165,2.801 7.165,2.8"
           style="fill:none;stroke:#000000;stroke-width:3;stroke-linecap:square;stroke-linejoin:round"
           id="path17"
           inkscape:connector-curvature="0" />
      </g>
      <g
         id="line2d_2"
         style="stroke-linecap:butt;stroke-linejoin:round">
        <path
           clip-path="url(#p04c34eb386)"
           d="m 103.058,149.809 7.164,2.801 7.165,2.801 7.165,2.801 7.165,2.801 7.164,2.8 7.165,2.801 7.165,2.801 7.165,2.801 7.165,2.801 7.164,2.801 7.165,2.8 7.165,2.801 7.165,2.801 7.165,2.801 7.164,2.801 7.165,2.8 7.165,2.801 7.165,2.801 7.165,2.801 7.164,2.801 7.165,2.801 7.165,2.8 7.165,2.801 7.165,2.801 7.164,2.801 7.165,2.801 7.165,2.8 7.165,2.801 7.165,2.801 7.164,2.801 7.165,2.801 7.165,2.8 7.165,2.801 7.165,2.801 7.164,2.801 7.165,2.801 7.165,2.801 7.165,2.8 7.165,2.801 7.164,2.801 7.165,2.801 7.165,2.801 7.165,2.8 7.165,2.801 7.164,2.801 7.165,2.801 7.165,2.801 7.165,2.801 7.165,2.8"
           style="fill:none;stroke:#000000;stroke-width:3;stroke-linecap:butt;stroke-linejoin:round;stroke-dasharray:6, 6;stroke-dashoffset:0"
           id="path20"
           inkscape:connector-curvature="0" />
      </g>
      <g
         id="line2d_3"
         style="stroke-linecap:butt;stroke-linejoin:round">
        <path
           clip-path="url(#p04c34eb386)"
           d="m 103.058,126.692 7.164,2.8 7.165,2.801 7.165,2.801 7.165,2.801 7.164,2.801 7.165,2.801 7.165,2.8 7.165,2.801 7.165,2.801 7.164,2.801 7.165,2.801 7.165,2.8 7.165,2.801 7.165,2.801 7.164,2.801 7.165,2.801 7.165,2.8 7.165,2.801 7.165,2.801 7.164,2.801 7.165,2.801 7.165,2.801 7.165,2.8 7.165,2.801 7.164,2.801 7.165,2.801 7.165,2.801 7.165,2.8 7.165,2.801 7.164,2.801 7.165,2.801 7.165,2.801 7.165,2.801 7.165,2.8 7.164,2.801 7.165,2.801 7.165,2.801 7.165,2.801 7.165,2.8 7.164,2.801 7.165,2.801 7.165,2.801 7.165,2.801 7.165,2.8 7.164,2.801 7.165,2.801 7.165,2.801 7.165,2.801 7.165,2.801"
           style="fill:none;stroke:#000000;stroke-width:3;stroke-linecap:butt;stroke-linejoin:round;stroke-dasharray:6, 6;stroke-dashoffset:0"
           id="path23"
           inkscape:connector-curvature="0" />
      </g>
      <g
         id="patch_3"
         style="stroke-width:2.4000001;stroke-linecap:butt;stroke-linejoin:round;stroke-miterlimit:4;stroke-dasharray:none">
        <path
           d="m 67.95,37.89 421.29,0"
           style="fill:none;stroke:#000000;stroke-width:2.4000001;stroke-linecap:square;stroke-linejoin:miter;stroke-miterlimit:4;stroke-dasharray:none"
           id="path26"
           inkscape:connector-curvature="0" />
      </g>
      <g
         id="patch_4"
         style="stroke-width:2.4000001;stroke-linecap:butt;stroke-linejoin:round;stroke-miterlimit:4;stroke-dasharray:none">
        <path
           d="m 489.24,341.01 0,-303.12"
           style="fill:none;stroke:#000000;stroke-width:2.4000001;stroke-linecap:square;stroke-linejoin:miter;stroke-miterlimit:4;stroke-dasharray:none"
           id="path29"
           inkscape:connector-curvature="0" />
      </g>
      <g
         id="patch_5"
         style="stroke-width:2.4000001;stroke-linecap:butt;stroke-linejoin:round;stroke-miterlimit:4;stroke-dasharray:none">
        <path
           d="m 67.95,341.01 421.29,0"
           style="fill:none;stroke:#000000;stroke-width:2.4000001;stroke-linecap:square;stroke-linejoin:miter;stroke-miterlimit:4;stroke-dasharray:none"
           id="path32"
           inkscape:connector-curvature="0" />
      </g>
      <g
         id="patch_6"
         style="stroke-width:2.4000001;stroke-linecap:butt;stroke-linejoin:round;stroke-miterlimit:4;stroke-dasharray:none">
        <path
           d="m 67.95,341.01 0,-303.12"
           style="fill:none;stroke:#000000;stroke-width:2.4000001;stroke-linecap:square;stroke-linejoin:miter;stroke-miterlimit:4;stroke-dasharray:none"
           id="path35"
           inkscape:connector-curvature="0" />
      </g>
      <g
         id="PathCollection_1"
         style="stroke-linecap:butt;stroke-linejoin:round">
        <defs
           id="defs301">
          <path
             d="m 0,10.9545 c 2.90515,0 5.69171,-1.15428 7.74597,-3.20853 C 9.80022,5.69171 10.9545,2.90515 10.9545,0 10.9545,-2.90515 9.80022,-5.69171 7.74597,-7.74597 5.69171,-9.80022 2.90515,-10.9545 0,-10.9545 c -2.90515,0 -5.69171,1.15428 -7.74597,3.20853 -2.05425,2.05426 -3.20853,4.84082 -3.20853,7.74597 0,2.90515 1.15428,5.69171 3.20853,7.74597 C -5.69171,9.80022 -2.90515,10.9545 0,10.9545 Z"
             id="C0_0_6ab53033a7"
             inkscape:connector-curvature="0"
             style="stroke-linecap:butt;stroke-linejoin:round" />
        </defs>
        <g
           clip-path="url(#p04c34eb386)"
           id="g304"
           style="stroke-linecap:butt;stroke-linejoin:round">
          <use
             style="fill:none;stroke:#000000;stroke-linecap:butt;stroke-linejoin:round"
             x="255.12868"
             xlink:href="#C0_0_6ab53033a7"
             y="221.90205"
             id="use306"
             width="100%"
             height="100%" />
        </g>
        <g
           clip-path="url(#p04c34eb386)"
           id="g308"
           style="stroke-linecap:butt;stroke-linejoin:round">
          <use
             style="fill:none;stroke:#000000;stroke-linecap:butt;stroke-linejoin:round"
             x="223.58247"
             xlink:href="#C0_0_6ab53033a7"
             y="209.58127"
             id="use310"
             width="100%"
             height="100%" />
        </g>
        <g
           clip-path="url(#p04c34eb386)"
           id="g312"
           style="stroke-linecap:butt;stroke-linejoin:round">
          <use
             style="fill:none;stroke:#000000;stroke-linecap:butt;stroke-linejoin:round"
             x="279.37689"
             xlink:href="#C0_0_6ab53033a7"
             y="182.96759"
             id="use314"
             width="100%"
             height="100%" />
        </g>
      </g>
      <g
         id="PathCollection_2"
         style="stroke-linecap:butt;stroke-linejoin:round">
        <defs
           id="defs317">
          <path
             d="m 0,7.74597 c 2.05425,0 4.02465,-0.81617 5.47723,-2.26874 C 6.9298,4.02465 7.74597,2.05425 7.74597,0 7.74597,-2.05425 6.9298,-4.02465 5.47723,-5.47723 4.02465,-6.9298 2.05425,-7.74597 0,-7.74597 c -2.05425,0 -4.02465,0.81617 -5.47723,2.26874 C -6.9298,-4.02465 -7.74597,-2.05425 -7.74597,0 c 0,2.05425 0.81617,4.02465 2.26874,5.47723 C -4.02465,6.9298 -2.05425,7.74597 0,7.74597 Z"
             id="C1_0_f82ae99ce6"
             inkscape:connector-curvature="0"
             style="stroke-linecap:butt;stroke-linejoin:round" />
        </defs>
        <g
           clip-path="url(#p04c34eb386)"
           id="g320"
           style="stroke-linecap:butt;stroke-linejoin:round">
          <use
             style="fill:#a6cee3;stroke:#000000;stroke-linecap:butt;stroke-linejoin:round"
             x="255.12868"
             xlink:href="#C1_0_f82ae99ce6"
             y="221.90205"
             id="use322"
             width="100%"
             height="100%" />
        </g>
        <g
           clip-path="url(#p04c34eb386)"
           id="g324"
           style="stroke-linecap:butt;stroke-linejoin:round">
          <use
             style="fill:#a6cee3;stroke:#000000;stroke-linecap:butt;stroke-linejoin:round"
             x="154.12486"
             xlink:href="#C1_0_f82ae99ce6"
             y="240.18178"
             id="use326"
             width="100%"
             height="100%" />
        </g>
        <g
           clip-path="url(#p04c34eb386)"
           id="g328"
           style="stroke-linecap:butt;stroke-linejoin:round">
          <use
             style="fill:#a6cee3;stroke:#000000;stroke-linecap:butt;stroke-linejoin:round"
             x="230.19356"
             xlink:href="#C1_0_f82ae99ce6"
             y="258.15936"
             id="use330"
             width="100%"
             height="100%" />
        </g>
        <g
           clip-path="url(#p04c34eb386)"
           id="g332"
           style="stroke-linecap:butt;stroke-linejoin:round">
          <use
             style="fill:#a6cee3;stroke:#000000;stroke-linecap:butt;stroke-linejoin:round"
             x="217.70145"
             xlink:href="#C1_0_f82ae99ce6"
             y="237.22806"
             id="use334"
             width="100%"
             height="100%" />
        </g>
        <g
           clip-path="url(#p04c34eb386)"
           id="g336"
           style="stroke-linecap:butt;stroke-linejoin:round">
          <use
             style="fill:#a6cee3;stroke:#000000;stroke-linecap:butt;stroke-linejoin:round"
             x="208.53065"
             xlink:href="#C1_0_f82ae99ce6"
             y="244.3804"
             id="use338"
             width="100%"
             height="100%" />
        </g>
        <g
           clip-path="url(#p04c34eb386)"
           id="g340"
           style="stroke-linecap:butt;stroke-linejoin:round">
          <use
             style="fill:#a6cee3;stroke:#000000;stroke-linecap:butt;stroke-linejoin:round"
             x="223.58247"
             xlink:href="#C1_0_f82ae99ce6"
             y="209.58127"
             id="use342"
             width="100%"
             height="100%" />
        </g>
        <g
           clip-path="url(#p04c34eb386)"
           id="g344"
           style="stroke-linecap:butt;stroke-linejoin:round">
          <use
             style="fill:#a6cee3;stroke:#000000;stroke-linecap:butt;stroke-linejoin:round"
             x="174.49896"
             xlink:href="#C1_0_f82ae99ce6"
             y="213.9958"
             id="use346"
             width="100%"
             height="100%" />
        </g>
        <g
           clip-path="url(#p04c34eb386)"
           id="g348"
           style="stroke-linecap:butt;stroke-linejoin:round">
          <use
             style="fill:#a6cee3;stroke:#000000;stroke-linecap:butt;stroke-linejoin:round"
             x="216.40663"
             xlink:href="#C1_0_f82ae99ce6"
             y="228.72583"
             id="use350"
             width="100%"
             height="100%" />
        </g>
        <g
           clip-path="url(#p04c34eb386)"
           id="g352"
           style="stroke-linecap:butt;stroke-linejoin:round">
          <use
             style="fill:#a6cee3;stroke:#000000;stroke-linecap:butt;stroke-linejoin:round"
             x="168.47673"
             xlink:href="#C1_0_f82ae99ce6"
             y="236.55644"
             id="use354"
             width="100%"
             height="100%" />
        </g>
        <g
           clip-path="url(#p04c34eb386)"
           id="g356"
           style="stroke-linecap:butt;stroke-linejoin:round">
          <use
             style="fill:#a6cee3;stroke:#000000;stroke-linecap:butt;stroke-linejoin:round"
             x="260.49838"
             xlink:href="#C1_0_f82ae99ce6"
             y="267.24588"
             id="use358"
             width="100%"
             height="100%" />
        </g>
        <g
           clip-path="url(#p04c34eb386)"
           id="g360"
           style="stroke-linecap:butt;stroke-linejoin:round">
          <use
             style="fill:#b15928;stroke:#000000;stroke-linecap:butt;stroke-linejoin:round"
             x="279.37689"
             xlink:href="#C1_0_f82ae99ce6"
             y="182.96759"
             id="use362"
             width="100%"
             height="100%" />
        </g>
        <g
           clip-path="url(#p04c34eb386)"
           id="g364"
           style="stroke-linecap:butt;stroke-linejoin:round">
          <use
             style="fill:#b15928;stroke:#000000;stroke-linecap:butt;stroke-linejoin:round"
             x="358.15106"
             xlink:href="#C1_0_f82ae99ce6"
             y="78.685722"
             id="use366"
             width="100%"
             height="100%" />
        </g>
        <g
           clip-path="url(#p04c34eb386)"
           id="g368"
           style="stroke-linecap:butt;stroke-linejoin:round">
          <use
             style="fill:#b15928;stroke:#000000;stroke-linecap:butt;stroke-linejoin:round"
             x="388.25998"
             xlink:href="#C1_0_f82ae99ce6"
             y="96.679565"
             id="use370"
             width="100%"
             height="100%" />
        </g>
        <g
           clip-path="url(#p04c34eb386)"
           id="g372"
           style="stroke-linecap:butt;stroke-linejoin:round">
          <use
             style="fill:#b15928;stroke:#000000;stroke-linecap:butt;stroke-linejoin:round"
             x="352.29089"
             xlink:href="#C1_0_f82ae99ce6"
             y="103.61662"
             id="use374"
             width="100%"
             height="100%" />
        </g>
        <g
           clip-path="url(#p04c34eb386)"
           id="g376"
           style="stroke-linecap:butt;stroke-linejoin:round">
          <use
             style="fill:#b15928;stroke:#000000;stroke-linecap:butt;stroke-linejoin:round"
             x="339.28717"
             xlink:href="#C1_0_f82ae99ce6"
             y="123.44046"
             id="use378"
             width="100%"
             height="100%" />
        </g>
        <g
           clip-path="url(#p04c34eb386)"
           id="g380"
           style="stroke-linecap:butt;stroke-linejoin:round">
          <use
             style="fill:#b15928;stroke:#000000;stroke-linecap:butt;stroke-linejoin:round"
             x="339.42517"
             xlink:href="#C1_0_f82ae99ce6"
             y="152.80554"
             id="use382"
             width="100%"
             height="100%" />
        </g>
        <g
           clip-path="url(#p04c34eb386)"
           id="g384"
           style="stroke-linecap:butt;stroke-linejoin:round">
          <use
             style="fill:#b15928;stroke:#000000;stroke-linecap:butt;stroke-linejoin:round"
             x="353.46906"
             xlink:href="#C1_0_f82ae99ce6"
             y="150.95735"
             id="use386"
             width="100%"
             height="100%" />
        </g>
        <g
           clip-path="url(#p04c34eb386)"
           id="g388"
           style="stroke-linecap:butt;stroke-linejoin:round">
          <use
             style="fill:#b15928;stroke:#000000;stroke-linecap:butt;stroke-linejoin:round"
             x="394.74722"
             xlink:href="#C1_0_f82ae99ce6"
             y="134.00397"
             id="use390"
             width="100%"
             height="100%" />
        </g>
        <g
           clip-path="url(#p04c34eb386)"
           id="g392"
           style="stroke-linecap:butt;stroke-linejoin:round">
          <use
             style="fill:#b15928;stroke:#000000;stroke-linecap:butt;stroke-linejoin:round"
             x="362.86038"
             xlink:href="#C1_0_f82ae99ce6"
             y="147.45859"
             id="use394"
             width="100%"
             height="100%" />
        </g>
        <g
           clip-path="url(#p04c34eb386)"
           id="g396"
           style="stroke-linecap:butt;stroke-linejoin:round">
          <use
             style="fill:#b15928;stroke:#000000;stroke-linecap:butt;stroke-linejoin:round"
             x="392.9216"
             xlink:href="#C1_0_f82ae99ce6"
             y="157.41956"
             id="use398"
             width="100%"
             height="100%" />
        </g>
      </g>
    </g>
  </g>
  <defs
     id="defs400">
    <clipPath
       id="p04c34eb386"
       style="stroke-linecap:butt;stroke-linejoin:round">
      <rect
         height="303.12"
         width="421.29001"
         x="67.949997"
         y="37.889999"
         id="rect403"
         style="stroke-linecap:butt;stroke-linejoin:round" />
    </clipPath>
  </defs>
</svg>
