<?xml version="1.0" encoding="UTF-8" standalone="no"?>
<svg xmlns="http://www.w3.org/2000/svg" xmlns:xlink="http://www.w3.org/1999/xlink" width="640px" height="360px" viewBox="0 0 640 360">
<title>VTK GL2PS Export</title>
<desc>
Creator: GL2PS 1.3.8, (C) 1999-2012 C. Geuzaine
For: VTK
CreationDate: Sun Aug 23 20:29:24 2015
</desc>
<defs>
</defs>
<g shape-rendering="crispEdges">
<text fill="#000000" x="65.6025" y="323.398" font-size="30" text-anchor="end" baseline-shift="-15" font-family="Helvetica">0</text>
<text fill="#000000" x="65.6025" y="19.5543" font-size="30" text-anchor="end" baseline-shift="-15" font-family="Helvetica">0.06</text>
<text fill="#000000" x="72.6134" y="330.418" font-size="30" text-anchor="middle" baseline-shift="-30" font-family="Helvetica">0</text>
<text fill="#000000" x="208.826" y="330.418" font-size="30" text-anchor="middle" baseline-shift="-30" font-family="Helvetica">90</text>
<text fill="#000000" x="346.041" y="330.418" font-size="30" text-anchor="middle" baseline-shift="-30" font-family="Helvetica">180</text>
<text fill="#000000" x="483.255" y="330.418" font-size="30" text-anchor="middle" baseline-shift="-30" font-family="Helvetica">270</text>
<text fill="#000000" x="620.469" y="330.418" font-size="30" text-anchor="middle" baseline-shift="-30" font-family="Helvetica">360</text>
<polyline fill="none" stroke="#000000" stroke-width="5.0" points="73.6649,243.72 77.9713,231.497 82.1951,226.69 86.3426,228.061 90.4169,234.282 94.4184,243.896 98.345,255.215 102.193,266.146 105.955,274.109 109.625,276.819 113.195,274.268 116.658,269.023 120.007,263.859 123.236,260.283 126.342,258.738 129.323,258.925 132.183,260.341 134.924,262.421 137.551,264.58 140.072,266.403 142.496,267.675 144.834,268.304 147.099,268.333 149.311,267.703 151.491,266.046 153.659,262.402 155.839,256.122 158.048,247.451 160.291,237.408 162.559,227.058 164.828,217.984 167.068,212.509 169.243,211.221 171.324,212.914 173.294,216.11 175.15,219.668 176.911,222.261 178.617,222.501 180.324,219.862 182.099,214.82 184.016,208.08 186.144,200.531 188.541,193.697 191.236,189.376 194.233,189.193 197.51,194.882 201.011,207.574 204.652,226.836 208.328,251.157 211.931,278.028 215.366,302.214 218.57,302.425 221.514,283.098 224.209,264.799 226.688,249.812 229.004,238.372 231.219,230.516 233.391,225.111 235.57,220.853 237.793,217.13 240.079,213.317 242.441,207.27 244.879,196.316 247.384,179.13 249.947,156.741 252.556,132.688 255.198,110.13 257.859,91.5188 260.527,78.5876 263.196,71.4433 265.866,68.657 268.539,68.5517 271.227,70.2458 273.945,73.4823 276.711,78.4375 279.536,84.9053 282.432,91.8457 285.401,97.8205 288.446,101.838 291.573,103.8 294.795,104.387 298.138,104.516 301.641,104.701 305.354,105.236 309.324,106.241 313.589,107.869 318.167,110.353 323.04,113.835 328.15,118.043 333.399,121.67 338.667,122.521 343.845,118.404 348.866,109.79 353.733,101.787 358.507,99.1011 363.278,103.862 368.128,117.402 373.063,135.258 378.013,153.877 382.867,169.515 387.505,180.79 391.837,188.078 395.817,191.54 399.436,191.71 402.711,189.12 405.675,184.207 408.377,177.888 410.867,171.785 413.199,167.619 415.423,166.571 417.588,169.18 419.734,176.354 421.89,188.596 424.081,204.33 426.329,219.893 428.656,228.569 431.082,222.55 433.617,203.165 436.259,179.502 438.996,158.335 441.814,142.941 444.698,134.051 447.632,131.04 450.604,132.538 453.609,136.176 456.662,140.325 459.781,144.2 462.983,147.838 466.278,151.445 469.663,154.895 473.123,157.877 476.633,160.022 480.158,161.226 483.654,161.64 487.081,161.716 490.404,161.761 493.602,161.855 496.666,162.053 499.604,162.446 502.433,163.151 505.18,164.406 507.873,166.315 510.539,168.817 513.2,171.494 515.87,173.72 518.557,174.92 521.257,174.964 523.961,174.198 526.655,173.221 529.324,173.106 531.952,175.343 534.519,181.031 537.008,190.83 539.402,204.193 541.694,218.628 543.874,230.047 545.939,235.185 547.893,234.12 549.75,229.955 551.528,226.204 553.257,225.077 554.985,227.101 556.758,231.834 558.625,238.008 560.644,244.003 562.872,248.918 565.365,252.439 568.165,254.58 571.294,255.713 574.752,256.111 578.522,255.689 582.569,253.967 586.843,250.832 591.284,246.926 595.826,243.221 600.396,240.83 604.922,240.549 609.342,242.256 613.603,245.097 617.667,246.886"/>
<polyline fill="none" stroke="#000000" stroke-width="5.0" points="72.6134,323.398 72.6134,19.5543"/>
<polyline fill="none" stroke="#000000" stroke-width="5.0" points="67.6056,323.398 72.6134,323.398"/>
<polyline fill="none" stroke="#000000" stroke-width="5.0" points="67.6056,19.5543 72.6134,19.5543"/>
<polyline fill="none" stroke="#000000" stroke-width="5.0" points="72.6134,323.398 620.469,323.398"/>
<polyline fill="none" stroke="#000000" stroke-width="5.0" points="72.6134,328.412 72.6134,323.398"/>
<polyline fill="none" stroke="#000000" stroke-width="5.0" points="208.826,328.412 208.826,323.398"/>
<polyline fill="none" stroke="#000000" stroke-width="5.0" points="346.041,328.412 346.041,323.398"/>
<polyline fill="none" stroke="#000000" stroke-width="5.0" points="483.255,328.412 483.255,323.398"/>
<polyline fill="none" stroke="#000000" stroke-width="5.0" points="620.469,328.412 620.469,323.398"/>
</g>
</svg>
