<?xml version="1.0" encoding="UTF-8" standalone="no"?>
<svg
   xmlns:dc="http://purl.org/dc/elements/1.1/"
   xmlns:cc="http://creativecommons.org/ns#"
   xmlns:rdf="http://www.w3.org/1999/02/22-rdf-syntax-ns#"
   xmlns:svg="http://www.w3.org/2000/svg"
   xmlns="http://www.w3.org/2000/svg"
   xmlns:sodipodi="http://sodipodi.sourceforge.net/DTD/sodipodi-0.dtd"
   xmlns:inkscape="http://www.inkscape.org/namespaces/inkscape"
   width="636.88306"
   height="371.97769"
   viewBox="0 0 636.88306 371.9777"
   id="svg2"
   version="1.1"
   inkscape:version="0.91 r13725"
   sodipodi:docname="result_edited.svg">
  <metadata
     id="metadata48">
    <rdf:RDF>
      <cc:Work
         rdf:about="">
        <dc:format>image/svg+xml</dc:format>
        <dc:type
           rdf:resource="http://purl.org/dc/dcmitype/StillImage" />
        <dc:title>VTK GL2PS Export</dc:title>
      </cc:Work>
    </rdf:RDF>
  </metadata>
  <sodipodi:namedview
     pagecolor="#ffffff"
     bordercolor="#666666"
     borderopacity="1"
     objecttolerance="10"
     gridtolerance="10"
     guidetolerance="10"
     inkscape:pageopacity="0"
     inkscape:pageshadow="2"
     inkscape:window-width="1600"
     inkscape:window-height="836"
     id="namedview46"
     showgrid="false"
     inkscape:zoom="1.3111111"
     inkscape:cx="83.049515"
     inkscape:cy="203.47755"
     inkscape:window-x="0"
     inkscape:window-y="32"
     inkscape:window-maximized="1"
     inkscape:current-layer="svg2"
     fit-margin-top="0"
     fit-margin-left="0"
     fit-margin-right="0"
     fit-margin-bottom="0" />
  <title
     id="title4">VTK GL2PS Export</title>
  <desc
     id="desc6">
Creator: GL2PS 1.3.8, (C) 1999-2012 C. Geuzaine
For: VTK
CreationDate: Mon Aug 17 19:28:43 2015
</desc>
  <defs
     id="defs8" />
  <g
     id="g10"
     style="shape-rendering:crispEdges"
     transform="translate(-7.1455489,10.869682)">
    <text
       x="47.574299"
       y="323.39801"
       font-size="30"
       baseline-shift="-15"
       id="text12"
       style="font-size:30px;font-family:Helvetica;baseline-shift:-15px;text-anchor:end;fill:#000000">0</text>
    <text
       x="47.574299"
       y="27.576599"
       font-size="30"
       baseline-shift="-15"
       id="text14"
       style="font-size:30px;font-family:Helvetica;baseline-shift:-15px;text-anchor:end;fill:#000000">0.3</text>
    <text
       x="54.5853"
       y="330.418"
       font-size="30"
       baseline-shift="-30"
       id="text16"
       style="font-size:30px;font-family:Helvetica;baseline-shift:-30px;text-anchor:middle;fill:#000000">0</text>
    <text
       x="195.806"
       y="330.418"
       font-size="30"
       baseline-shift="-30"
       id="text18"
       style="font-size:30px;font-family:Helvetica;baseline-shift:-30px;text-anchor:middle;fill:#000000">90</text>
    <text
       x="337.02701"
       y="330.418"
       font-size="30"
       baseline-shift="-30"
       id="text20"
       style="font-size:30px;font-family:Helvetica;baseline-shift:-30px;text-anchor:middle;fill:#000000">180</text>
    <text
       x="478.24701"
       y="330.418"
       font-size="30"
       baseline-shift="-30"
       id="text22"
       style="font-size:30px;font-family:Helvetica;baseline-shift:-30px;text-anchor:middle;fill:#000000">270</text>
    <text
       x="620.46899"
       y="330.418"
       font-size="30"
       baseline-shift="-30"
       id="text24"
       style="font-size:30px;font-family:Helvetica;baseline-shift:-30px;text-anchor:middle;fill:#000000">360</text>
    <polyline
       points="56.1572,291.997 59.301,314.527 62.4448,288.359 65.5886,288.944 68.7324,291.725 71.8762,299.003 75.02,307.512 78.1638,311.088 81.3076,315.715 84.4514,320.227 87.5952,325.636 90.739,324.961 93.8828,317.72 97.0266,304.986 100.17,303.674 103.314,307.972 106.458,311.067 109.602,308.89 112.746,312.536 115.889,310.808 119.033,310.645 122.177,332.247 125.321,332.946 128.465,330.589 131.608,330.714 134.752,329.22 137.896,321.677 141.04,296.615 144.184,269.886 147.327,259.235 150.471,258.161 153.615,267.854 156.759,274.27 159.903,285.759 163.046,280.732 166.19,260.674 169.334,248.974 172.478,227.721 175.622,207.033 178.765,201.982 181.909,202.22 185.053,200.788 188.197,203.163 191.341,208.595 194.484,217.509 197.628,232.281 200.772,257.789 203.916,275.551 207.06,279.357 210.203,287.456 213.347,290.149 216.491,279.367 219.635,263.408 222.779,240.554 225.922,201.41 229.066,165.913 232.21,136.788 235.354,110.624 238.498,78.5281 241.641,58.7328 244.785,47.7857 247.929,47.1765 251.073,51.9012 254.217,73.7258 257.36,132.501 260.504,159.195 263.648,190.813 266.792,216.239 269.936,235.773 273.079,251.938 276.223,266.186 279.367,285.999 282.511,296.077 285.655,299.708 288.798,293.062 291.942,298.303 295.086,306.661 298.23,311.319 301.374,308.146 304.517,310.442 307.661,297.38 310.805,298.495 313.949,311.567 317.093,331.117 320.236,338.598 323.38,345.464 326.524,344.847 329.668,337.677 332.812,318.017 335.955,285.562 339.099,268.452 342.243,241.502 345.387,210.381 348.531,188.812 351.674,180.98 354.818,176.493 357.962,170.643 361.106,158.109 364.25,166.047 367.393,180.214 370.537,195.452 373.681,208.832 376.825,230.149 379.969,255.581 383.112,277.469 386.256,295.53 389.4,303.843 392.544,300.63 395.688,291.249 398.831,296.155 401.975,287.81 405.119,288.805 408.263,283.852 411.407,288.804 414.55,315.475 417.694,333.298 420.838,339.383 423.982,328.175 427.126,316.123 430.27,309.289 433.413,297.08 436.557,287.125 439.701,298.498 442.845,304.89 445.988,315.865 449.132,319.346 452.276,324.738 455.42,327.663 458.564,327.991 461.707,328.775 464.851,329.601 467.995,331.831 471.139,331.121 474.283,328.959 477.427,326.958 480.57,329.024 483.714,328.23 486.858,329.053 490.002,327.748 493.146,326.534 496.289,327.594 499.433,329.681 502.577,334.904 505.721,342.785 508.865,343.688 512.008,322.52 515.152,323.216 518.296,318.542 521.44,324.313 524.583,331.506 527.727,331.647 530.871,327.341 534.015,323.779 537.159,308.845 540.303,312.268 543.446,336.052 546.59,328.286 549.734,331.484 552.878,341.427 556.022,344.546 559.165,344.57 562.309,339.397 565.453,337.92 568.597,324.23 571.741,338.19 574.884,325.851 578.028,305.83 581.172,299.399 584.316,301.855 587.46,302.049 590.603,310.222 593.747,310.222 596.891,310.222 600.035,310.222 603.179,310.222 606.322,310.222 609.466,336.074 612.61,292.167 615.754,313.193 618.898,315.698"
       id="polyline26"
       style="fill:none;stroke:#000000;stroke-width:5" />
    <polyline
       points="54.5853,323.398 54.5853,19.5543"
       id="polyline28"
       style="fill:none;stroke:#000000;stroke-width:5" />
    <polyline
       points="49.5775,323.398 54.5853,323.398"
       id="polyline30"
       style="fill:none;stroke:#000000;stroke-width:5" />
    <polyline
       points="49.5775,27.5766 54.5853,27.5766"
       id="polyline32"
       style="fill:none;stroke:#000000;stroke-width:5" />
    <polyline
       points="54.5853,323.398 620.469,323.398"
       id="polyline34"
       style="fill:none;stroke:#000000;stroke-width:5" />
    <polyline
       points="54.5853,328.412 54.5853,323.398"
       id="polyline36"
       style="fill:none;stroke:#000000;stroke-width:5" />
    <polyline
       points="195.806,328.412 195.806,323.398"
       id="polyline38"
       style="fill:none;stroke:#000000;stroke-width:5" />
    <polyline
       points="337.027,328.412 337.027,323.398"
       id="polyline40"
       style="fill:none;stroke:#000000;stroke-width:5" />
    <polyline
       points="478.247,328.412 478.247,323.398"
       id="polyline42"
       style="fill:none;stroke:#000000;stroke-width:5" />
    <polyline
       points="620.469,328.412 620.469,323.398"
       id="polyline44"
       style="fill:none;stroke:#000000;stroke-width:5" />
    <polyline
       transform="translate(94.923175,-1.8575061)"
       style="fill:none;stroke:#ef0000;stroke-width:2.5;stroke-miterlimit:4;stroke-dasharray:none;stroke-opacity:1"
       points="54.5853,323.398 54.5853,19.5543"
       id="polyline28-6" />
    <polyline
       transform="translate(128.8808,-2.08632)"
       style="fill:none;stroke:#ef0000;stroke-width:2.5;stroke-miterlimit:4;stroke-dasharray:none;stroke-opacity:1"
       points="54.5853,323.398 54.5853,19.5543"
       id="polyline28-6-1" />
    <polyline
       transform="translate(191.60962,-1.993099)"
       style="fill:none;stroke:#ef0000;stroke-width:2.5;stroke-miterlimit:4;stroke-dasharray:none;stroke-opacity:1"
       points="54.5853,323.398 54.5853,19.5543"
       id="polyline28-6-1-3" />
    <polyline
       transform="translate(306.83843,-1.459201)"
       style="fill:none;stroke:#ef0000;stroke-width:2.5;stroke-miterlimit:4;stroke-dasharray:none;stroke-opacity:1"
       points="54.5853,323.398 54.5853,19.5543"
       id="polyline28-6-1-3-7" />
  </g>
  <text
     style="font-size:30px;font-family:Helvetica;baseline-shift:-15px;text-anchor:end;fill:#fb0000;fill-opacity:1"
     x="186.42885"
     y="-4.0037923"
     font-size="30"
     baseline-shift="-15"
     id="text14-0-0">
    <tspan
       style="font-size:35px"
       id="tspan4162">2</tspan>
  </text>
  <text
     style="font-size:27.26775932px;font-family:Helvetica;baseline-shift:-15px;text-anchor:end;fill:#fb0000;fill-opacity:1"
     x="249.15207"
     y="-5.1849999"
     font-size="30"
     baseline-shift="-15"
     id="text14-0-0-4">
    <tspan
       style="font-size:35px"
       id="tspan4164">3</tspan>
  </text>
  <text
     style="font-size:30px;font-family:Helvetica;baseline-shift:-15px;text-anchor:end;fill:#fb0000;fill-opacity:1"
     x="362.90411"
     y="-4.4444709"
     font-size="30"
     baseline-shift="-15"
     id="text14-0-0-8">
    <tspan
       style="font-size:35px"
       id="tspan4166">4</tspan>
  </text>
  <text
     style="font-size:30px;font-family:Helvetica;baseline-shift:-15px;text-anchor:end;fill:#fb0000;fill-opacity:1"
     x="151.49367"
     y="-4.7326059"
     font-size="30"
     baseline-shift="-15"
     id="text14-0">
    <tspan
       style="font-size:35px"
       id="tspan4160">1</tspan>
  </text>
</svg>
