<?xml version="1.0" encoding="UTF-8" standalone="no"?>
<svg xmlns="http://www.w3.org/2000/svg" xmlns:xlink="http://www.w3.org/1999/xlink" width="640px" height="360px" viewBox="0 0 640 360">
<title>VTK GL2PS Export</title>
<desc>
Creator: GL2PS 1.3.8, (C) 1999-2012 C. Geuzaine
For: VTK
CreationDate: Mon Aug 17 19:36:01 2015
</desc>
<defs>
</defs>
<g shape-rendering="crispEdges">
<text fill="#000000" x="47.5743" y="323.398" font-size="30" text-anchor="end" baseline-shift="-15" font-family="Helvetica">0</text>
<text fill="#000000" x="47.5743" y="42.6184" font-size="30" text-anchor="end" baseline-shift="-15" font-family="Helvetica">0.3</text>
<text fill="#000000" x="54.5853" y="330.418" font-size="30" text-anchor="middle" baseline-shift="-30" font-family="Helvetica">0</text>
<text fill="#000000" x="195.806" y="330.418" font-size="30" text-anchor="middle" baseline-shift="-30" font-family="Helvetica">90</text>
<text fill="#000000" x="337.027" y="330.418" font-size="30" text-anchor="middle" baseline-shift="-30" font-family="Helvetica">180</text>
<text fill="#000000" x="478.247" y="330.418" font-size="30" text-anchor="middle" baseline-shift="-30" font-family="Helvetica">270</text>
<text fill="#000000" x="620.469" y="330.418" font-size="30" text-anchor="middle" baseline-shift="-30" font-family="Helvetica">360</text>
<polyline fill="none" stroke="#000000" stroke-width="5.0" points="56.1572,299.584 59.301,334.825 62.4448,280.905 65.5886,287.985 68.7324,292.051 71.8762,300.334 75.02,305.039 78.1638,312.949 81.3076,313.47 84.4514,323.394 87.5952,331.179 90.739,339.667 93.8828,334.724 97.0266,332.257 100.17,327.53 103.314,309.892 106.458,290.628 109.602,293.636 112.746,306.371 115.889,318.086 119.033,335.631 122.177,329.685 125.321,336.745 128.465,334.233 131.608,330.672 134.752,327.166 137.896,328.484 141.04,330.741 144.184,299.52 147.327,261.895 150.471,261.668 153.615,279.477 156.759,282.988 159.903,291.802 163.046,281.011 166.19,277.612 169.334,258.649 172.478,253.17 175.622,231.048 178.765,204.227 181.909,181.684 185.053,177.314 188.197,192.072 191.341,228.469 194.484,271.843 197.628,280.361 200.772,314.57 203.916,318.488 207.06,313.537 210.203,296.299 213.347,278.322 216.491,286.241 219.635,285.096 222.779,262.231 225.922,231.448 229.066,188.656 232.21,156.996 235.354,150.823 238.498,107.553 241.641,62.3266 244.785,54.9129 247.929,70.1115 251.073,79.7226 254.217,109.222 257.36,133.834 260.504,172.652 263.648,204.856 266.792,213.625 269.936,234.697 273.079,266.399 276.223,291.507 279.367,316.285 282.511,327.369 285.655,333.502 288.798,331.107 291.942,311.736 295.086,294.747 298.23,295.097 301.374,297.028 304.517,307.637 307.661,323.146 310.805,334.457 313.949,332.966 317.093,329.545 320.236,327.623 323.38,337.7 326.524,338.77 329.668,340.835 332.812,343.482 335.955,323.6 339.099,321.645 342.243,301.985 345.387,273.942 348.531,234.768 351.674,192.504 354.818,157.698 357.962,152.717 361.106,146.973 364.25,163.68 367.393,191.915 370.537,227.331 373.681,258.11 376.825,278.578 379.969,288.982 383.112,305.426 386.256,309.554 389.4,316.086 392.544,296.932 395.688,282.982 398.831,299.572 401.975,301.134 405.119,275.676 408.263,282.887 411.407,296.639 414.55,323.047 417.694,333.837 420.838,336.415 423.982,331.854 427.126,312.467 430.27,287.366 433.413,312.322 436.557,294.205 439.701,288.574 442.845,314.569 445.988,318.309 449.132,316.491 452.276,322.408 455.42,323.394 458.564,321.909 461.707,329.214 464.851,332.333 467.995,333.724 471.139,327.64 474.283,322.096 477.427,322.728 480.57,323.701 483.714,326.854 486.858,330.226 490.002,331.224 493.146,329.87 496.289,327.921 499.433,325.327 502.577,328.926 505.721,342.282 508.865,337.25 512.008,310.768 515.152,317.71 518.296,314.54 521.44,329.128 524.583,331.062 527.727,327.571 530.871,320.166 534.015,322.779 537.159,314.095 540.303,311.008 543.446,340.894 546.59,336.671 549.734,339.113 552.878,338.028 556.022,338.402 559.165,344.282 562.309,330.392 565.453,331.063 568.597,337.461 571.741,336.909 574.884,330.998 578.028,310.399 581.172,302.467 584.316,309.344 587.46,308.115 590.603,313.369 593.747,313.369 596.891,313.369 600.035,313.369 603.179,313.369 606.322,313.369 609.466,329.914 612.61,312.517 615.754,316.703 618.898,294.338"/>
<polyline fill="none" stroke="#000000" stroke-width="5.0" points="54.5853,323.398 54.5853,19.5543"/>
<polyline fill="none" stroke="#000000" stroke-width="5.0" points="49.5775,323.398 54.5853,323.398"/>
<polyline fill="none" stroke="#000000" stroke-width="5.0" points="49.5775,42.6184 54.5853,42.6184"/>
<polyline fill="none" stroke="#000000" stroke-width="5.0" points="54.5853,323.398 620.469,323.398"/>
<polyline fill="none" stroke="#000000" stroke-width="5.0" points="54.5853,328.412 54.5853,323.398"/>
<polyline fill="none" stroke="#000000" stroke-width="5.0" points="195.806,328.412 195.806,323.398"/>
<polyline fill="none" stroke="#000000" stroke-width="5.0" points="337.027,328.412 337.027,323.398"/>
<polyline fill="none" stroke="#000000" stroke-width="5.0" points="478.247,328.412 478.247,323.398"/>
<polyline fill="none" stroke="#000000" stroke-width="5.0" points="620.469,328.412 620.469,323.398"/>
</g>
</svg>
