<?xml version="1.0" encoding="UTF-8" standalone="no"?>
<svg xmlns="http://www.w3.org/2000/svg" xmlns:xlink="http://www.w3.org/1999/xlink" width="640px" height="360px" viewBox="0 0 640 360">
<title>VTK GL2PS Export</title>
<desc>
Creator: GL2PS 1.3.8, (C) 1999-2012 C. Geuzaine
For: VTK
CreationDate: Mon Aug 17 19:36:01 2015
</desc>
<defs>
</defs>
<g shape-rendering="crispEdges">
<text fill="#000000" x="47.5743" y="323.398" font-size="30" text-anchor="end" baseline-shift="-15" font-family="Helvetica">0</text>
<text fill="#000000" x="47.5743" y="42.6184" font-size="30" text-anchor="end" baseline-shift="-15" font-family="Helvetica">0.3</text>
<text fill="#000000" x="54.5853" y="330.418" font-size="30" text-anchor="middle" baseline-shift="-30" font-family="Helvetica">0</text>
<text fill="#000000" x="195.806" y="330.418" font-size="30" text-anchor="middle" baseline-shift="-30" font-family="Helvetica">90</text>
<text fill="#000000" x="337.027" y="330.418" font-size="30" text-anchor="middle" baseline-shift="-30" font-family="Helvetica">180</text>
<text fill="#000000" x="478.247" y="330.418" font-size="30" text-anchor="middle" baseline-shift="-30" font-family="Helvetica">270</text>
<text fill="#000000" x="620.469" y="330.418" font-size="30" text-anchor="middle" baseline-shift="-30" font-family="Helvetica">360</text>
<polyline fill="none" stroke="#000000" stroke-width="5.0" points="56.1572,287.561 59.301,323.505 62.4448,285.424 65.5886,286.907 68.7324,294.216 71.8762,301.819 75.02,305.352 78.1638,313.787 81.3076,314.351 84.4514,326.025 87.5952,332.068 90.739,337.058 93.8828,337.143 97.0266,324.918 100.17,326.633 103.314,310.683 106.458,295.42 109.602,292.632 112.746,306.657 115.889,320.793 119.033,332.379 122.177,329.143 125.321,334.95 128.465,336.033 131.608,330.093 134.752,327.44 137.896,329.749 141.04,324.105 144.184,295.593 147.327,263.908 150.471,262.589 153.615,275.891 156.759,283.314 159.903,293.147 163.046,283.197 166.19,271.125 169.334,259.019 172.478,245.827 175.622,228.084 178.765,204.307 181.909,185.245 185.053,180.849 188.197,196.417 191.341,222.546 194.484,259.529 197.628,277.78 200.772,303.103 203.916,315.591 207.06,309.986 210.203,295.268 213.347,283.409 216.491,284.186 219.635,281.933 222.779,260.401 225.922,224.322 229.066,188.701 232.21,161.426 235.354,140.003 238.498,103.62 241.641,62.1553 244.785,56.2162 247.929,67.6485 251.073,73.0676 254.217,102.281 257.36,135.513 260.504,175.668 263.648,200.481 266.792,217.892 269.936,234.274 273.079,263.693 276.223,288.133 279.367,308.256 282.511,325.635 285.655,331.18 288.798,324.276 291.942,315.296 295.086,295.107 298.23,294.249 301.374,298.793 304.517,306.115 307.661,317.42 310.805,325.596 313.949,329.552 317.093,329.914 320.236,332.472 323.38,337.35 326.524,339.674 329.668,340.342 332.812,338.795 335.955,325.823 339.099,313.35 342.243,292.883 345.387,260.178 348.531,219.866 351.674,183.914 354.818,162.598 357.962,148.533 361.106,152.413 364.25,166.488 367.393,189.539 370.537,218.076 373.681,252.235 376.825,273.417 379.969,286.08 383.112,302.138 386.256,306.655 389.4,312.513 392.544,296.97 395.688,289.451 398.831,300.092 401.975,297.492 405.119,283.904 408.263,280.247 411.407,294.069 414.55,322.948 417.694,334.061 420.838,337.568 423.982,330.4 427.126,314.474 430.27,296.021 433.413,306.337 436.557,298.363 439.701,296.728 442.845,315.896 445.988,311.422 449.132,319.641 452.276,321.7 455.42,324.195 458.564,323.684 461.707,327.382 464.851,330.369 467.995,335.222 471.139,327.906 474.283,320.247 477.427,323.216 480.57,322.591 483.714,326.728 486.858,329.319 490.002,329.785 493.146,329.438 496.289,327.116 499.433,326.264 502.577,329.867 505.721,340.995 508.865,336.172 512.008,310.611 515.152,317.058 518.296,319.109 521.44,327.668 524.583,331.641 527.727,328.664 530.871,322.764 534.015,322.343 537.159,313.211 540.303,312.243 543.446,341.392 546.59,327.348 549.734,338.804 552.878,338.022 556.022,338.957 559.165,344.481 562.309,328.377 565.453,341.68 568.597,338.654 571.741,336.122 574.884,329.144 578.028,311.362 581.172,300.685 584.316,305.962 587.46,304.7 590.603,310.608 593.747,310.608 596.891,310.607 600.035,310.607 603.179,310.608 606.322,310.608 609.466,338.183 612.61,324.73 615.754,322.058 618.898,298.7"/>
<polyline fill="none" stroke="#000000" stroke-width="5.0" points="54.5853,323.398 54.5853,19.5543"/>
<polyline fill="none" stroke="#000000" stroke-width="5.0" points="49.5775,323.398 54.5853,323.398"/>
<polyline fill="none" stroke="#000000" stroke-width="5.0" points="49.5775,42.6184 54.5853,42.6184"/>
<polyline fill="none" stroke="#000000" stroke-width="5.0" points="54.5853,323.398 620.469,323.398"/>
<polyline fill="none" stroke="#000000" stroke-width="5.0" points="54.5853,328.412 54.5853,323.398"/>
<polyline fill="none" stroke="#000000" stroke-width="5.0" points="195.806,328.412 195.806,323.398"/>
<polyline fill="none" stroke="#000000" stroke-width="5.0" points="337.027,328.412 337.027,323.398"/>
<polyline fill="none" stroke="#000000" stroke-width="5.0" points="478.247,328.412 478.247,323.398"/>
<polyline fill="none" stroke="#000000" stroke-width="5.0" points="620.469,328.412 620.469,323.398"/>
</g>
</svg>
