<?xml version="1.0" encoding="UTF-8" standalone="no"?>
<svg xmlns="http://www.w3.org/2000/svg" xmlns:xlink="http://www.w3.org/1999/xlink" width="640px" height="360px" viewBox="0 0 640 360">
<title>VTK GL2PS Export</title>
<desc>
Creator: GL2PS 1.3.8, (C) 1999-2012 C. Geuzaine
For: VTK
CreationDate: Mon Aug 17 19:36:02 2015
</desc>
<defs>
</defs>
<g shape-rendering="crispEdges">
<text fill="#000000" x="47.5743" y="323.398" font-size="30" text-anchor="end" baseline-shift="-15" font-family="Helvetica">0</text>
<text fill="#000000" x="47.5743" y="42.6184" font-size="30" text-anchor="end" baseline-shift="-15" font-family="Helvetica">0.3</text>
<text fill="#000000" x="54.5853" y="330.418" font-size="30" text-anchor="middle" baseline-shift="-30" font-family="Helvetica">0</text>
<text fill="#000000" x="195.806" y="330.418" font-size="30" text-anchor="middle" baseline-shift="-30" font-family="Helvetica">90</text>
<text fill="#000000" x="337.027" y="330.418" font-size="30" text-anchor="middle" baseline-shift="-30" font-family="Helvetica">180</text>
<text fill="#000000" x="478.247" y="330.418" font-size="30" text-anchor="middle" baseline-shift="-30" font-family="Helvetica">270</text>
<text fill="#000000" x="620.469" y="330.418" font-size="30" text-anchor="middle" baseline-shift="-30" font-family="Helvetica">360</text>
<polyline fill="none" stroke="#000000" stroke-width="5.0" points="56.1572,306.893 59.301,325.226 62.4448,290.657 65.5886,287.245 68.7324,292.68 71.8762,300.495 75.02,309.523 78.1638,312.842 81.3076,316.878 84.4514,324.297 87.5952,330.242 90.739,335.506 93.8828,323.955 97.0266,310.838 100.17,308.418 103.314,305.816 106.458,303.314 109.602,305.182 112.746,310.854 115.889,316.855 119.033,323.622 122.177,325.289 125.321,336.815 128.465,328.591 131.608,329.976 134.752,328.33 137.896,324.25 141.04,302.576 144.184,270.893 147.327,268.771 150.471,262.661 153.615,269.492 156.759,279.765 159.903,286.588 163.046,281.09 166.19,267.641 169.334,256.029 172.478,240.395 175.622,214.164 178.765,205.113 181.909,196.85 185.053,200.185 188.197,204.341 191.341,214.717 194.484,228.546 197.628,248.704 200.772,281.877 203.916,290.711 207.06,292.006 210.203,290.472 213.347,291.355 216.491,280.785 219.635,270.416 222.779,253.138 225.922,216.669 229.066,174.789 232.21,149.05 235.354,132.43 238.498,91.5904 241.641,70.358 244.785,59.2207 247.929,59.7397 251.073,65.2404 254.217,90.0653 257.36,141.479 260.504,173.05 263.648,199.698 266.792,223.763 269.936,238.63 273.079,255.66 276.223,274.973 279.367,298.517 282.511,312.926 285.655,310.215 288.798,303.838 291.942,295.088 295.086,298.843 298.23,310.438 301.374,307.374 304.517,307.321 307.661,301.935 310.805,308.615 313.949,319.004 317.093,325.72 320.236,333.185 323.38,339.089 326.524,342.159 329.668,343.74 332.812,326.041 335.955,303.965 339.099,288.151 342.243,257.632 345.387,227.558 348.531,202.574 351.674,183.825 354.818,169.459 357.962,172.8 361.106,169.022 364.25,172.287 367.393,187.074 370.537,203.504 373.681,227.418 376.825,249.132 379.969,276.323 383.112,287.194 386.256,302.227 389.4,304.724 392.544,300.004 395.688,293.408 398.831,296.768 401.975,285.482 405.119,287.035 408.263,283.739 411.407,294.104 414.55,315.375 417.694,333.185 420.838,338.466 423.982,328.251 427.126,315.504 430.27,306.287 433.413,305.545 436.557,292.034 439.701,299.855 442.845,308.716 445.988,313.6 449.132,321.466 452.276,320.797 455.42,324.238 458.564,324.355 461.707,328.392 464.851,330.517 467.995,333.148 471.139,330.076 474.283,323.805 477.427,325.552 480.57,325.634 483.714,327.115 486.858,327.899 490.002,328.1 493.146,326.433 496.289,327.039 499.433,328.494 502.577,331.501 505.721,339.587 508.865,341.518 512.008,322.832 515.152,319.348 518.296,313.403 521.44,317.666 524.583,332.561 527.727,330.179 530.871,324.009 534.015,324.243 537.159,310.334 540.303,313.091 543.446,329.7 546.59,324.095 549.734,334.494 552.878,338.737 556.022,341.596 559.165,347.288 562.309,336.046 565.453,334.731 568.597,332.736 571.741,336.076 574.884,328.701 578.028,305.9 581.172,300.259 584.316,303.984 587.46,304.303 590.603,311.514 593.747,311.514 596.891,311.514 600.035,311.514 603.179,311.514 606.322,311.514 609.466,336.138 612.61,298.219 615.754,315.481 618.898,308.744"/>
<polyline fill="none" stroke="#000000" stroke-width="5.0" points="54.5853,323.398 54.5853,19.5543"/>
<polyline fill="none" stroke="#000000" stroke-width="5.0" points="49.5775,323.398 54.5853,323.398"/>
<polyline fill="none" stroke="#000000" stroke-width="5.0" points="49.5775,42.6184 54.5853,42.6184"/>
<polyline fill="none" stroke="#000000" stroke-width="5.0" points="54.5853,323.398 620.469,323.398"/>
<polyline fill="none" stroke="#000000" stroke-width="5.0" points="54.5853,328.412 54.5853,323.398"/>
<polyline fill="none" stroke="#000000" stroke-width="5.0" points="195.806,328.412 195.806,323.398"/>
<polyline fill="none" stroke="#000000" stroke-width="5.0" points="337.027,328.412 337.027,323.398"/>
<polyline fill="none" stroke="#000000" stroke-width="5.0" points="478.247,328.412 478.247,323.398"/>
<polyline fill="none" stroke="#000000" stroke-width="5.0" points="620.469,328.412 620.469,323.398"/>
</g>
</svg>
