<?xml version="1.0" encoding="UTF-8" standalone="no"?>
<svg xmlns="http://www.w3.org/2000/svg" xmlns:xlink="http://www.w3.org/1999/xlink" width="640px" height="360px" viewBox="0 0 640 360">
<title>VTK GL2PS Export</title>
<desc>
Creator: GL2PS 1.3.8, (C) 1999-2012 C. Geuzaine
For: VTK
CreationDate: Mon Aug 17 16:27:12 2015
</desc>
<defs>
</defs>
<g shape-rendering="crispEdges">
<text fill="#000000" x="47.5743" y="323.398" font-size="30" text-anchor="end" baseline-shift="-15" font-family="Helvetica">0</text>
<text fill="#000000" x="47.5743" y="42.6184" font-size="30" text-anchor="end" baseline-shift="-15" font-family="Helvetica">0.3</text>
<text fill="#000000" x="54.5853" y="330.418" font-size="30" text-anchor="middle" baseline-shift="-30" font-family="Helvetica">0</text>
<text fill="#000000" x="195.806" y="330.418" font-size="30" text-anchor="middle" baseline-shift="-30" font-family="Helvetica">90</text>
<text fill="#000000" x="337.027" y="330.418" font-size="30" text-anchor="middle" baseline-shift="-30" font-family="Helvetica">180</text>
<text fill="#000000" x="478.247" y="330.418" font-size="30" text-anchor="middle" baseline-shift="-30" font-family="Helvetica">270</text>
<text fill="#000000" x="620.469" y="330.418" font-size="30" text-anchor="middle" baseline-shift="-30" font-family="Helvetica">360</text>
<polyline fill="none" stroke="#000000" stroke-width="5.0" points="56.1572,311.301 59.301,298.593 62.4448,302.311 65.5886,274.064 68.7324,303.922 71.8762,291.559 75.02,325.97 78.1638,320.504 81.3076,305.449 84.4514,309.132 87.5952,302.587 90.739,300.75 93.8828,306.62 97.0266,302.571 100.17,307.755 103.314,306.865 106.458,321.941 109.602,320.573 112.746,321.801 115.889,323.01 119.033,321.514 122.177,323.567 125.321,326.492 128.465,326.409 131.608,333.931 134.752,330.066 137.896,298.719 141.04,277.97 144.184,274.769 147.327,263.881 150.471,263.324 153.615,270.875 156.759,267.443 159.903,273.916 163.046,282.853 166.19,263.563 169.334,239.072 172.478,222.83 175.622,217.968 178.765,229.369 181.909,233.668 185.053,233.238 188.197,222.711 191.341,216.481 194.484,209.072 197.628,214.829 200.772,226.698 203.916,239.277 207.06,260.962 210.203,271.008 213.347,276.901 216.491,265.925 219.635,249.176 222.779,220.552 225.922,181.595 229.066,153.969 232.21,144.161 235.354,101.906 238.498,80.2986 241.641,78.5061 244.785,68.1127 247.929,65.5017 251.073,70.1495 254.217,84.9606 257.36,124.933 260.504,167.088 263.648,191.2 266.792,210.809 269.936,233.314 273.079,245.469 276.223,253.691 279.367,258.492 282.511,266.087 285.655,272.574 288.798,285.407 291.942,295.312 295.086,315.903 298.23,311.719 301.374,301.08 304.517,304.323 307.661,286.906 310.805,314.79 313.949,319.896 317.093,325.071 320.236,332.638 323.38,334.073 326.524,320.191 329.668,286.424 332.812,265.081 335.955,247.831 339.099,224.125 342.243,220.29 345.387,214.54 348.531,214.967 351.674,212.912 354.818,199.225 357.962,203.147 361.106,198.969 364.25,203.922 367.393,207.809 370.537,196.08 373.681,200.846 376.825,213.66 379.969,234.468 383.112,249.125 386.256,267.696 389.4,291.444 392.544,292.482 395.688,298.554 398.831,292.878 401.975,296.915 405.119,291.181 408.263,284.944 411.407,296.316 414.55,317.434 417.694,332.655 420.838,319.351 423.982,329.745 427.126,322.619 430.27,294.328 433.413,307.758 436.557,299.235 439.701,300.404 442.845,306.624 445.988,314.438 449.132,322.137 452.276,324.013 455.42,326.1 458.564,328.609 461.707,329.755 464.851,329.678 467.995,329.128 471.139,328.92 474.283,328.124 477.427,328.976 480.57,327.666 483.714,329.083 486.858,332.365 490.002,329.662 493.146,329.368 496.289,328.764 499.433,331.848 502.577,340.543 505.721,345.148 508.865,343.393 512.008,329.914 515.152,326.888 518.296,321.419 521.44,318.801 524.583,315.634 527.727,326.401 530.871,333.708 534.015,326.117 537.159,310.379 540.303,307.538 543.446,329.013 546.59,335.484 549.734,332.165 552.878,336.8 556.022,346.085 559.165,344.278 562.309,343.594 565.453,341.01 568.597,340.397 571.741,332.675 574.884,319.348 578.028,306.318 581.172,299.525 584.316,307.18 587.46,310.168 590.603,317.115 593.747,317.115 596.891,317.115 600.035,317.115 603.179,317.114 606.322,317.114 609.466,339.784 612.61,295.282 615.754,323.148 618.898,331.899"/>
<polyline fill="none" stroke="#000000" stroke-width="5.0" points="54.5853,323.398 54.5853,19.5543"/>
<polyline fill="none" stroke="#000000" stroke-width="5.0" points="49.5775,323.398 54.5853,323.398"/>
<polyline fill="none" stroke="#000000" stroke-width="5.0" points="49.5775,42.6184 54.5853,42.6184"/>
<polyline fill="none" stroke="#000000" stroke-width="5.0" points="54.5853,323.398 620.469,323.398"/>
<polyline fill="none" stroke="#000000" stroke-width="5.0" points="54.5853,328.412 54.5853,323.398"/>
<polyline fill="none" stroke="#000000" stroke-width="5.0" points="195.806,328.412 195.806,323.398"/>
<polyline fill="none" stroke="#000000" stroke-width="5.0" points="337.027,328.412 337.027,323.398"/>
<polyline fill="none" stroke="#000000" stroke-width="5.0" points="478.247,328.412 478.247,323.398"/>
<polyline fill="none" stroke="#000000" stroke-width="5.0" points="620.469,328.412 620.469,323.398"/>
</g>
</svg>
