<?xml version="1.0" encoding="UTF-8" standalone="no"?>
<svg xmlns="http://www.w3.org/2000/svg" xmlns:xlink="http://www.w3.org/1999/xlink" width="640px" height="360px" viewBox="0 0 640 360">
<title>VTK GL2PS Export</title>
<desc>
Creator: GL2PS 1.3.8, (C) 1999-2012 C. Geuzaine
For: VTK
CreationDate: Mon Aug 17 16:27:12 2015
</desc>
<defs>
</defs>
<g shape-rendering="crispEdges">
<text fill="#000000" x="47.5743" y="323.398" font-size="30" text-anchor="end" baseline-shift="-15" font-family="Helvetica">0</text>
<text fill="#000000" x="47.5743" y="42.6184" font-size="30" text-anchor="end" baseline-shift="-15" font-family="Helvetica">0.3</text>
<text fill="#000000" x="54.5853" y="330.418" font-size="30" text-anchor="middle" baseline-shift="-30" font-family="Helvetica">0</text>
<text fill="#000000" x="195.806" y="330.418" font-size="30" text-anchor="middle" baseline-shift="-30" font-family="Helvetica">90</text>
<text fill="#000000" x="337.027" y="330.418" font-size="30" text-anchor="middle" baseline-shift="-30" font-family="Helvetica">180</text>
<text fill="#000000" x="478.247" y="330.418" font-size="30" text-anchor="middle" baseline-shift="-30" font-family="Helvetica">270</text>
<text fill="#000000" x="620.469" y="330.418" font-size="30" text-anchor="middle" baseline-shift="-30" font-family="Helvetica">360</text>
<polyline fill="none" stroke="#000000" stroke-width="5.0" points="56.1572,312.401 59.301,336.772 62.4448,334.695 65.5886,330.379 68.7324,333.695 71.8762,329.884 75.02,326.404 78.1638,337.588 81.3076,330.747 84.4514,311.556 87.5952,321.834 90.739,329.884 93.8828,347.129 97.0266,319.969 100.17,320.072 103.314,327.519 106.458,326.97 109.602,324.997 112.746,321.537 115.889,328.096 119.033,324.22 122.177,330.289 125.321,320.105 128.465,298.175 131.608,292.526 134.752,270.232 137.896,273.07 141.04,280.6 144.184,269.787 147.327,273.425 150.471,269.204 153.615,273.659 156.759,262.978 159.903,260.489 163.046,248.27 166.19,239.227 169.334,234.036 172.478,246.119 175.622,244.02 178.765,249.906 181.909,247.441 185.053,234.283 188.197,230.647 191.341,231.06 194.484,227.98 197.628,226.266 200.772,217.783 203.916,212.634 207.06,201.85 210.203,190.27 213.347,181.681 216.491,162.226 219.635,145.364 222.779,134.721 225.922,119.534 229.066,115.225 232.21,112.047 235.354,87.6143 238.498,71.7262 241.641,59.3023 244.785,50.3068 247.929,47.1765 251.073,88.3254 254.217,103.429 257.36,129.103 260.504,143.752 263.648,161.329 266.792,174.434 269.936,181.806 273.079,199.182 276.223,212.241 279.367,220.983 282.511,236.641 285.655,239.844 288.798,254.521 291.942,257.372 295.086,263.642 298.23,268.554 301.374,266.166 304.517,263.347 307.661,252.146 310.805,242.034 313.949,225.833 317.093,243.915 320.236,239.459 323.38,245.262 326.524,239.399 329.668,247.319 332.812,241.788 335.955,249.667 339.099,233.458 342.243,249.98 345.387,242.781 348.531,251.35 351.674,245.656 354.818,246.437 357.962,243.935 361.106,245.225 364.25,255.853 367.393,257.6 370.537,246.725 373.681,256.11 376.825,256.079 379.969,243.33 383.112,255.516 386.256,258.856 389.4,251.997 392.544,245.736 395.688,259.339 398.831,275.588 401.975,287.323 405.119,290.082 408.263,290.563 411.407,288.597 414.55,303.567 417.694,320.446 420.838,321.278 423.982,316.857 427.126,311.342 430.27,305.813 433.413,295.297 436.557,313.296 439.701,313.232 442.845,318.801 445.988,313.675 449.132,309.672 452.276,318.379 455.42,320.717 458.564,324.295 461.707,326.401 464.851,328.87 467.995,330.045 471.139,331.031 474.283,329.985 477.427,323.977 480.57,321.175 483.714,319.735 486.858,329.19 490.002,334.15 493.146,331.317 496.289,333.128 499.433,331.612 502.577,328.965 505.721,338.548 508.865,344.75 512.008,333.353 515.152,326.578 518.296,316.858 521.44,312.172 524.583,315.695 527.727,291.74 530.871,314.19 534.015,333.25 537.159,322.058 540.303,319.549 543.446,326.883 546.59,334.923 549.734,322.667 552.878,331.078 556.022,345.83 559.165,333.003 562.309,320.659 565.453,340.425 568.597,340.472 571.741,345.079 574.884,316.33 578.028,296.504 581.172,285.628 584.316,307.112 587.46,306.943 590.603,312.313 593.747,312.313 596.891,312.313 600.035,312.314 603.179,312.313 606.322,312.313 609.466,349.995 612.61,330.85 615.754,332.057 618.898,335.363"/>
<polyline fill="none" stroke="#000000" stroke-width="5.0" points="54.5853,323.398 54.5853,19.5543"/>
<polyline fill="none" stroke="#000000" stroke-width="5.0" points="49.5775,323.398 54.5853,323.398"/>
<polyline fill="none" stroke="#000000" stroke-width="5.0" points="49.5775,42.6184 54.5853,42.6184"/>
<polyline fill="none" stroke="#000000" stroke-width="5.0" points="54.5853,323.398 620.469,323.398"/>
<polyline fill="none" stroke="#000000" stroke-width="5.0" points="54.5853,328.412 54.5853,323.398"/>
<polyline fill="none" stroke="#000000" stroke-width="5.0" points="195.806,328.412 195.806,323.398"/>
<polyline fill="none" stroke="#000000" stroke-width="5.0" points="337.027,328.412 337.027,323.398"/>
<polyline fill="none" stroke="#000000" stroke-width="5.0" points="478.247,328.412 478.247,323.398"/>
<polyline fill="none" stroke="#000000" stroke-width="5.0" points="620.469,328.412 620.469,323.398"/>
</g>
</svg>
