<?xml version="1.0" encoding="UTF-8" standalone="no"?>
<svg xmlns="http://www.w3.org/2000/svg" xmlns:xlink="http://www.w3.org/1999/xlink" width="640px" height="360px" viewBox="0 0 640 360">
<title>VTK GL2PS Export</title>
<desc>
Creator: GL2PS 1.3.8, (C) 1999-2012 C. Geuzaine
For: VTK
CreationDate: Mon Aug 17 16:27:13 2015
</desc>
<defs>
</defs>
<g shape-rendering="crispEdges">
<text fill="#000000" x="47.5743" y="323.398" font-size="30" text-anchor="end" baseline-shift="-15" font-family="Helvetica">0</text>
<text fill="#000000" x="47.5743" y="42.6184" font-size="30" text-anchor="end" baseline-shift="-15" font-family="Helvetica">0.3</text>
<text fill="#000000" x="54.5853" y="330.418" font-size="30" text-anchor="middle" baseline-shift="-30" font-family="Helvetica">0</text>
<text fill="#000000" x="195.806" y="330.418" font-size="30" text-anchor="middle" baseline-shift="-30" font-family="Helvetica">90</text>
<text fill="#000000" x="337.027" y="330.418" font-size="30" text-anchor="middle" baseline-shift="-30" font-family="Helvetica">180</text>
<text fill="#000000" x="478.247" y="330.418" font-size="30" text-anchor="middle" baseline-shift="-30" font-family="Helvetica">270</text>
<text fill="#000000" x="620.469" y="330.418" font-size="30" text-anchor="middle" baseline-shift="-30" font-family="Helvetica">360</text>
<polyline fill="none" stroke="#000000" stroke-width="5.0" points="56.1572,345.387 58.0247,360"/>
<polyline fill="none" stroke="#000000" stroke-width="5.0" points="60.3455,360 62.4448,339.928 65.5886,318.264 68.7324,337.619 71.8762,339.146 75.02,326.904 78.1638,331.319 81.3076,332.953 84.4514,331.621 87.5952,345.977 90.739,346.003 93.8828,327.061 97.0266,323.728 100.17,334.698 103.314,337.848 106.458,344.968 109.602,323.701 112.746,327.008 115.889,323.226 119.033,332.16 122.177,301.845 125.321,304.068 128.465,275.422 131.608,273.75 134.752,279.584 137.896,269.763 141.04,259.5 144.184,260.879 147.327,279.992 150.471,280.307 153.615,278.514 156.759,284.267 159.903,282.647 163.046,263.747 166.19,264.963 169.334,243.223 172.478,229.146 175.622,219.759 178.765,209.835 181.909,211.936 185.053,186.343 188.197,185.958 191.341,169.179 194.484,164.004 197.628,170.692 200.772,135.4 203.916,155.967 207.06,119.827 210.203,109.176 213.347,97.9729 216.491,84.1338 219.635,82.1696 222.779,79.199 225.922,57.4266 229.066,99.6548 232.21,103.062 235.354,107.371 238.498,101.564 241.641,84.3834 244.785,100.569 247.929,98.5121 251.073,130.126 254.217,98.3299 257.36,140.129 260.504,126.474 263.648,139.612 266.792,132.13 269.936,119.061 273.079,131.775 276.223,136.346 279.367,141.663 282.511,144.386 285.655,143.322 288.798,141.619 291.942,144.804 295.086,151.186 298.23,151.187 301.374,161.269 304.517,172.907 307.661,179.639 310.805,195.405 313.949,205.062 317.093,205.022 320.236,213.554 323.38,222.375 326.524,214.72 329.668,222.673 332.812,240.899 335.955,246.548 339.099,237.89 342.243,249.283 345.387,250.828 348.531,244.143 351.674,245.887 354.818,246.089 357.962,252.589 361.106,264.73 364.25,255.627 367.393,253.671 370.537,262.776 373.681,264.824 376.825,251.485 379.969,249.805 383.112,254.306 386.256,260.989 389.4,254.848 392.544,255.396 395.688,250.013 398.831,245.968 401.975,243.123 405.119,250.285 408.263,246.362 411.407,246.414 414.55,261.884 417.694,281.415 420.838,284.88 423.982,285.954 427.126,308.184 430.27,308.122 433.413,312.478 436.557,311.182 439.701,317.794 442.845,325.33 445.988,319.085 449.132,329.965 452.276,326.991 455.42,325.845 458.564,325.671 461.707,331.263 464.851,334.592 467.995,336.863 471.139,338.537 474.283,341.486 477.427,337.857 480.57,339.9 483.714,331.709 486.858,333.071 490.002,338.061 493.146,331.756 496.289,332.363 499.433,323.317 502.577,320.397 505.721,323.591 508.865,328.119 512.008,335.963 515.152,332.208 518.296,342.035 521.44,341.286 524.583,343.602 527.727,333.653 530.871,338.56 534.015,332.162 537.159,320.411 540.303,322.028 543.446,326.342 546.59,334.123 549.734,337.254 552.878,344.529 556.022,349.812 559.165,358.352 559.866,360"/>
<polyline fill="none" stroke="#000000" stroke-width="5.0" points="569.072,360 571.741,346.443 574.884,335.518 578.028,295.09 581.172,288.638 584.316,305.531 587.46,304.913 590.603,316.944 593.747,316.944 596.891,316.944 600.035,316.943 603.179,316.945 606.322,316.944 609.466,348.021 612.61,341.86 615.754,337.788 618.898,329.041"/>
<polyline fill="none" stroke="#000000" stroke-width="5.0" points="54.5853,323.398 54.5853,19.5543"/>
<polyline fill="none" stroke="#000000" stroke-width="5.0" points="49.5775,323.398 54.5853,323.398"/>
<polyline fill="none" stroke="#000000" stroke-width="5.0" points="49.5775,42.6184 54.5853,42.6184"/>
<polyline fill="none" stroke="#000000" stroke-width="5.0" points="54.5853,323.398 620.469,323.398"/>
<polyline fill="none" stroke="#000000" stroke-width="5.0" points="54.5853,328.412 54.5853,323.398"/>
<polyline fill="none" stroke="#000000" stroke-width="5.0" points="195.806,328.412 195.806,323.398"/>
<polyline fill="none" stroke="#000000" stroke-width="5.0" points="337.027,328.412 337.027,323.398"/>
<polyline fill="none" stroke="#000000" stroke-width="5.0" points="478.247,328.412 478.247,323.398"/>
<polyline fill="none" stroke="#000000" stroke-width="5.0" points="620.469,328.412 620.469,323.398"/>
</g>
</svg>
