<?xml version="1.0" encoding="UTF-8" standalone="no"?>
<svg
   xmlns:dc="http://purl.org/dc/elements/1.1/"
   xmlns:cc="http://creativecommons.org/ns#"
   xmlns:rdf="http://www.w3.org/1999/02/22-rdf-syntax-ns#"
   xmlns:svg="http://www.w3.org/2000/svg"
   xmlns="http://www.w3.org/2000/svg"
   xmlns:sodipodi="http://sodipodi.sourceforge.net/DTD/sodipodi-0.dtd"
   xmlns:inkscape="http://www.inkscape.org/namespaces/inkscape"
   width="225.16774"
   height="333.01233"
   viewBox="0 0 225.16774 333.01233"
   id="svg2"
   version="1.1"
   inkscape:version="0.91 r13725"
   sodipodi:docname="single-procrustes.svg">
  <metadata
     id="metadata62">
    <rdf:RDF>
      <cc:Work
         rdf:about="">
        <dc:format>image/svg+xml</dc:format>
        <dc:type
           rdf:resource="http://purl.org/dc/dcmitype/StillImage" />
        <dc:title>VTK GL2PS Export</dc:title>
      </cc:Work>
    </rdf:RDF>
  </metadata>
  <sodipodi:namedview
     pagecolor="#ffffff"
     bordercolor="#666666"
     borderopacity="1"
     objecttolerance="10"
     gridtolerance="10"
     guidetolerance="10"
     inkscape:pageopacity="0"
     inkscape:pageshadow="2"
     inkscape:window-width="1920"
     inkscape:window-height="1021"
     id="namedview60"
     showgrid="false"
     fit-margin-top="0"
     fit-margin-left="0"
     fit-margin-right="0"
     fit-margin-bottom="0"
     inkscape:zoom="8.7256052"
     inkscape:cx="90.263229"
     inkscape:cy="268.51942"
     inkscape:window-x="0"
     inkscape:window-y="27"
     inkscape:window-maximized="1"
     inkscape:current-layer="g10" />
  <title
     id="title4">VTK GL2PS Export</title>
  <desc
     id="desc6">
Creator: GL2PS 1.3.8, (C) 1999-2012 C. Geuzaine
For: VTK
CreationDate: Thu Aug 13 14:51:35 2015
</desc>
  <defs
     id="defs8" />
  <g
     id="g10"
     style="shape-rendering:crispEdges"
     transform="translate(-87.414549,-139.49162)">
    <polyline
       points="297.625,311.65 298.056,308.785 298.215,306.71 298.311,303.346 298.383,299.466 299.055,291.939 299.298,286.242 299.1,282.116 299.197,278.752 299.355,276.677 298.936,273.338 298.468,268.967 298.27,264.841 298.28,259.672 298.351,255.792 297.501,248.855 297.132,246.547 296.185,242.975 295.865,241.698 294.648,237.88 294.573,236.333 294.229,234.54 293.664,233.534 292.372,228.169 291.018,221.515 290.513,216.37 289.982,210.71 289.501,206.082 289.278,201.44 289.177,193.951 289.211,189.297 289.038,185.688 288.976,184.398 288.2,179.009 288.113,177.204 287.3,171.04 286.745,164.865 285.932,158.701 283.351,153.398 279.801,149.434 276.03,146.256 270.479,143.68 265.481,141.852 259.513,141.364 253.866,142.152 248.538,144.217 242.548,148.64 238.314,151.945 234.141,156.539 230.95,160.052 226.066,165.972 224.606,167.852 219.414,172.753 216.407,174.706 212.356,176.452 208.612,179.216 203.518,180.753 199.467,182.498 193.635,184.846 188.541,186.383 183.937,187.38 178.755,187.112 172.272,186.648 165.96,184.367 158.813,180.834 152.414,176.749 147.279,172.085 142.452,168.441 136.054,164.355 129.937,160.772 124.902,158.172 114.747,156.592 110.181,158.362 105.21,162.478 102.423,163.645 99.9439,165.832 96.5821,171.162 94.435,174.884 91.9706,182.755 89.9971,190.086 89.2756,196.582 89.206,205.889 90.3638,213.844 90.8942,219.504 91.4371,225.422 90.9958,226.994 89.2454,238.966 88.4495,243.915 88.1321,248.065 88.5634,251.662 88.9948,255.259 90.5319,260.354 91.4541,263.411 92.6094,265.94 94.8084,268.677 96.8363,273.231 97.0098,276.841 97.994,281.187 98.7576,286.319 99.2633,291.463 99.707,295.319 99.9797,300.991 100.178,305.116 100.106,308.996 99.8978,310.04 98.9656,312.152 98.549,314.24 97.654,317.126 96.7342,319.496 96.2681,320.552 94.9194,324.752 93.7665,327.65 92.8715,330.536 91.1905,333.201 90.2955,336.087 89.6583,338.96 89.7203,340.249 90.0401,341.526 90.6053,342.533 91.6863,343.514 93.0002,343.968 94.8299,344.397 96.6719,345.084 98.0107,346.053 99.9271,348.287 101.623,351.307 101.98,353.357 102.067,355.162 102.24,358.771 102.106,361.362 101.997,364.469 101.876,367.317 101.595,372.241 101.806,376.624 102.042,381.523 101.945,384.887 101.541,387.233 100.633,389.861 99.7878,393.778 99.753,398.431 99.3017,405.172 99.0091,409.838 98.1265,412.982 97.0108,416.653 96.1902,421.086 94.596,425.556 93.5299,430.259 92.4514,434.705 91.9133,439.641 91.6083,444.049 92.0273,447.388 92.4958,451.759 92.7065,456.142 93.4205,460.243 93.827,463.325 94.6749,464.834 96.0261,466.062 98.3962,466.981 101.527,467.606 105.69,468.181 110.381,468.99 122.769,468.653 137.221,468.216 142.843,466.912 148.932,464.552 154.714,461.173 159.243,458.63 166.032,454.685 173.152,452.276 184.693,450.429 190.12,450.426 197.438,452.142 201.638,453.491 205.322,454.864 209.019,456.496 214.274,458.31 217.959,459.684 224.553,462.468 229.834,464.799 235.422,468.148 242.778,470.637 251.103,471.788 269.164,471.178 276.138,471.101 282.559,470.276 289.508,469.683 295.401,468.625 299.844,464.276 304.042,460.198 307.723,456.145 308.973,449.882 309.793,445.449 309.521,439.777 309.36,436.425 308.522,429.746 308.336,425.878 307.83,420.734 306.392,417.702 303.935,414.977 300.522,413.849 297.708,409.074 297.081,406.778 295.556,401.941 295.469,400.137 296.119,397.521 296.337,391.308 295.033,385.685 294.307,381.327 293.372,378.012 293.236,375.176 293.37,372.585 292.643,368.227 292.789,365.894 292.42,363.586 292.688,358.404 292.968,353.48 294.109,350.324 294.55,348.753 295.284,342.515 294.999,336.585 294.505,331.698 293.043,328.15 292.611,324.553 293.432,320.12 294.401,318.781 295.088,316.939 297.625,311.65"
       id="polyline12"
       style="fill:none;stroke:#ff0000;stroke-width:3;stroke-miterlimit:4;stroke-dasharray:none;stroke-opacity:1" />
    <polyline
       points="306.043,320.608 306.181,320.362 308.229,315.812 309.593,311.491 310.503,309.671 310.958,306.714 310.958,303.757 311.413,299.89 311.413,295.568 311.868,292.839 311.868,289.199 311.64,286.242 311.64,283.058 311.185,278.509 310.958,275.097 310.731,270.548 310.276,267.818 309.821,265.089 309.821,260.539 309.593,255.763 309.366,251.668 309.366,248.029 309.366,244.162 308.683,240.523 307.774,236.428 306.864,233.017 305.954,229.15 305.271,225.283 304.589,222.098 304.134,218.686 303.224,215.275 302.315,211.18 302.542,208.223 302.087,205.039 301.86,201.627 301.632,199.807 301.177,197.76 300.722,194.576 300.04,191.391 299.812,187.979 299.358,182.975 299.358,181.61 298.675,178.426 297.993,175.014 297.31,169.1 296.855,167.508 294.808,161.821 294.126,160.001 293.444,158.409 293.216,157.272 292.306,154.997 287.757,148.628 284.345,145.899 280.706,142.942 277.521,141.35 273.882,140.212 269.788,140.44 264.783,141.805 260.007,143.852 256.822,145.671 253.865,148.173 250.681,150.675 246.586,154.087 242.72,157.044 238.853,160.684 235.668,163.641 232.029,166.598 228.617,168.645 224.75,171.829 223.613,172.739 220.883,173.649 215.879,176.606 212.012,178.426 209.51,179.563 207.236,180.928 205.416,181.838 200.639,183.43 198.82,184.112 194.043,185.022 189.039,187.069 186.764,187.752 181.078,189.799 175.391,190.026 169.022,188.889 162.653,186.842 157.194,183.657 154.692,182.293 148.096,177.743 144.911,174.786 138.997,170.92 132.856,167.28 128.079,164.323 123.075,162.049 118.981,161.139 114.886,160.911 112.157,161.594 110.11,162.276 107.153,163.186 103.286,165.915 99.1914,170.01 96.2344,173.422 94.4147,177.288 93.2774,180.245 92.5951,182.975 91.0028,186.842 89.8655,190.254 89.1831,192.756 88.5007,196.168 88.5007,198.215 88.7282,200.717 88.7282,205.266 88.2733,207.313 88.2733,209.133 88.5007,211.863 88.7282,214.82 88.9557,217.549 88.5007,220.051 88.7282,222.326 88.9557,224.373 88.7282,228.24 88.7282,231.424 88.9557,235.291 89.1831,238.476 89.4106,242.115 89.1831,245.754 89.4106,247.574 89.4106,250.304 89.4106,253.033 90.093,258.947 90.5479,262.814 90.5479,266.226 90.5479,268.501 90.7754,271.23 91.2303,272.367 93.2774,275.097 93.7324,278.964 94.6422,281.693 95.0971,286.015 94.8697,288.745 94.6422,290.792 95.552,294.659 96.4619,298.07 97.1443,302.62 97.8267,305.349 98.0541,308.761 97.1443,311.491 95.552,314.448 93.7324,317.632 92.5951,319.679 91.9127,321.727 90.7754,324.229 90.093,327.413 89.8655,330.598 90.093,333.1 90.3204,334.919 91.0028,336.966 93.05,338.104 96.2344,340.151 98.509,341.743 99.8738,344.473 100.101,346.975 101.239,350.614 102.148,355.846 102.376,360.85 102.831,365.172 103.286,370.176 103.286,374.043 103.286,376.772 103.513,380.639 103.058,383.369 103.058,386.553 102.831,389.51 102.603,392.24 101.921,395.879 101.466,398.154 100.784,401.565 100.329,404.75 99.8738,407.252 98.964,410.891 98.509,413.393 97.5992,416.805 97.3717,419.307 96.6894,422.264 96.007,425.221 95.552,427.951 94.6422,431.818 94.1873,435.002 93.5049,437.277 92.8225,439.779 92.8225,442.509 92.1401,444.328 91.9127,447.285 91.4577,449.56 91.6852,451.834 92.1401,453.427 92.1401,455.701 91.9127,457.748 92.5951,459.568 93.5049,460.25 94.6422,460.933 97.1443,462.07 100.329,463.435 103.286,464.572 104.196,464.8 107.38,465.482 118.753,466.847 130.126,467.074 134.448,466.847 137.632,466.392 144.001,464.572 149.46,462.298 153.782,460.478 156.967,458.886 160.833,457.748 164.245,456.384 167.202,455.474 168.112,455.019 173.116,453.654 174.254,453.427 177.438,452.744 180.85,452.517 184.944,452.972 188.811,453.654 192.223,454.337 196.545,455.701 199.729,456.839 201.549,457.521 204.734,458.658 207.236,460.023 208.373,460.478 210.42,461.16 213.832,461.615 217.471,462.298 221.338,462.98 224.295,463.435 226.57,464.345 229.754,465.255 232.256,466.392 233.849,466.847 236.806,467.529 239.763,468.212 243.629,468.894 247.724,469.576 251.591,470.031 265.238,470.486 270.47,470.714 277.066,470.486 281.388,470.941 286.165,470.714 290.714,470.031 295.036,469.349 300.495,466.619 302.087,465.482 304.134,463.662 305.499,460.933 305.954,460.25 306.864,458.658 308.456,452.744 309.593,448.65 310.503,444.328 310.503,443.191 310.731,440.916 310.731,435.457 310.958,432.045 310.731,425.904 309.821,421.355 308.911,416.123 307.774,414.758 306.864,413.393 302.315,411.346 300.95,408.389 300.04,405.432 298.903,400.656 297.538,397.016 296.855,393.832 296.401,391.102 296.173,387.918 295.718,386.098 295.036,383.823 293.898,379.502 292.989,377 291.851,373.588 291.396,372.678 289.804,368.811 288.894,366.536 288.439,362.215 288.439,359.713 288.667,355.618 288.439,351.979 288.212,348.567 288.439,344.928 289.122,342.653 290.259,339.468 291.169,336.966 292.761,333.555 295.036,331.962 295.718,331.735 298.22,329.46 299.13,328.095 300.95,326.503 302.315,325.821 306.043,320.608"
       id="polyline14"
       style="fill:none;stroke:#0000e6;stroke-width:3;stroke-miterlimit:4;stroke-dasharray:none" />
  </g>
</svg>
