<?xml version="1.0" encoding="UTF-8" standalone="no"?>
<svg
   xmlns:dc="http://purl.org/dc/elements/1.1/"
   xmlns:cc="http://creativecommons.org/ns#"
   xmlns:rdf="http://www.w3.org/1999/02/22-rdf-syntax-ns#"
   xmlns:svg="http://www.w3.org/2000/svg"
   xmlns="http://www.w3.org/2000/svg"
   xmlns:sodipodi="http://sodipodi.sourceforge.net/DTD/sodipodi-0.dtd"
   xmlns:inkscape="http://www.inkscape.org/namespaces/inkscape"
   width="230.71272"
   height="329.19901"
   viewBox="0 0 230.71272 329.19901"
   id="svg2"
   version="1.1"
   inkscape:version="0.91 r13725"
   sodipodi:docname="single-projective.svg">
  <metadata
     id="metadata62">
    <rdf:RDF>
      <cc:Work
         rdf:about="">
        <dc:format>image/svg+xml</dc:format>
        <dc:type
           rdf:resource="http://purl.org/dc/dcmitype/StillImage" />
        <dc:title>VTK GL2PS Export</dc:title>
      </cc:Work>
    </rdf:RDF>
  </metadata>
  <sodipodi:namedview
     pagecolor="#ffffff"
     bordercolor="#666666"
     borderopacity="1"
     objecttolerance="10"
     gridtolerance="10"
     guidetolerance="10"
     inkscape:pageopacity="0"
     inkscape:pageshadow="2"
     inkscape:window-width="1920"
     inkscape:window-height="1021"
     id="namedview60"
     showgrid="false"
     fit-margin-top="0"
     fit-margin-left="0"
     fit-margin-right="0"
     fit-margin-bottom="0"
     inkscape:zoom="6.1699346"
     inkscape:cx="149.17246"
     inkscape:cy="284.9253"
     inkscape:window-x="0"
     inkscape:window-y="27"
     inkscape:window-maximized="1"
     inkscape:current-layer="g10" />
  <title
     id="title4">VTK GL2PS Export</title>
  <desc
     id="desc6">
Creator: GL2PS 1.3.8, (C) 1999-2012 C. Geuzaine
For: VTK
CreationDate: Thu Aug 13 14:52:25 2015
</desc>
  <defs
     id="defs8" />
  <g
     id="g10"
     style="shape-rendering:crispEdges"
     transform="translate(-84.643653,-141.39991)">
    <polyline
       points="303.084,313.11 303.592,310.237 303.792,308.157 303.94,304.783 304.068,300.89 304.9,293.323 305.239,287.591 305.073,283.442 305.222,280.053 305.423,277.96 305.005,274.601 304.546,270.201 304.38,266.042 304.456,260.821 304.584,256.898 303.736,249.901 303.359,247.574 302.361,243.98 302.025,242.695 300.733,238.86 300.67,237.294 300.313,235.487 299.704,234.483 298.349,229.08 296.941,222.369 296.446,217.162 295.93,211.427 295.457,206.737 295.266,202.021 295.244,194.395 295.337,189.648 295.189,185.971 295.136,184.657 294.345,179.185 294.271,177.344 293.447,171.078 292.908,164.783 292.083,158.509 289.299,153.201 285.435,149.317 281.324,146.255 275.263,143.907 269.813,142.301 263.307,142.116 257.158,143.216 251.364,145.595 244.856,150.393 240.27,153.954 235.754,158.805 232.309,162.505 227.049,168.7 225.479,170.657 219.922,175.813 216.716,177.903 212.411,179.824 208.437,182.747 203.053,184.492 198.781,186.397 192.65,188.969 187.312,190.697 182.503,191.865 177.107,191.799 170.375,191.59 163.843,189.579 156.47,186.371 149.887,182.597 144.616,178.211 139.67,174.824 133.13,171.077 126.895,167.822 121.775,165.491 111.496,164.397 106.9,166.334 101.922,170.575 99.1322,171.835 96.6599,174.073 93.3263,179.403 91.2036,183.108 88.7918,190.846 86.8708,198.024 86.1919,204.335 86.1773,213.331 87.372,220.972 87.9307,226.414 88.5027,232.1 88.074,233.626 86.409,245.182 85.6507,249.95 85.3613,253.937 85.8087,257.376 86.256,260.813 87.8044,265.662 88.7334,268.57 89.89,270.97 92.0809,273.551 94.1131,277.876 94.3036,281.326 95.3007,285.467 96.0829,290.361 96.6094,295.267 97.0679,298.941 97.3658,304.348 97.5823,308.278 97.53,311.973 97.3291,312.968 96.4177,314.985 96.0164,316.973 95.1468,319.721 94.2509,321.977 93.7964,322.982 92.4884,326.972 91.3681,329.723 90.5025,332.459 88.8638,334.985 88.0004,337.716 87.3909,340.432 87.459,341.65 87.7803,342.857 88.341,343.808 89.4082,344.736 90.7021,345.166 92.504,345.573 94.3209,346.225 95.6447,347.143 97.545,349.259 99.2323,352.12 99.5943,354.06 99.6884,355.767 99.8764,359.179 99.7565,361.626 99.6635,364.558 99.5571,367.246 99.3042,371.887 99.5323,376.019 99.7872,380.634 99.7077,383.799 99.321,386.001 98.441,388.461 97.6288,392.13 97.6172,396.497 97.2069,402.811 96.9426,407.177 96.0926,410.105 95.0178,413.519 94.2368,417.646 92.7006,421.788 91.6837,426.151 90.6546,430.269 90.1564,434.85 89.883,438.942 90.3094,442.055 90.7895,446.127 91.0183,450.201 91.7357,454.025 92.148,456.894 92.9821,458.318 94.3055,459.495 96.6225,460.417 99.6844,461.09 103.761,461.747 108.364,462.639 120.564,462.699 134.891,462.728 140.492,461.676 146.576,459.642 152.371,456.633 156.926,454.367 163.774,450.833 170.986,448.748 182.732,447.307 188.278,447.45 195.776,449.283 200.089,450.684 203.879,452.098 207.686,453.76 213.113,455.646 216.924,457.067 223.759,459.93 229.247,462.324 235.062,465.712 242.75,468.339 251.496,469.719 270.622,469.727 278.054,469.884 284.929,469.296 292.393,468.951 298.75,468.115 303.601,464.019 308.197,460.167 312.245,456.312 313.686,450.211 314.639,445.884 314.418,440.306 314.287,437.007 313.463,430.418 313.312,426.606 312.829,421.528 311.302,418.511 308.662,415.777 304.964,414.6 301.967,409.846 301.315,407.574 299.719,402.783 299.647,401.003 300.384,398.435 300.696,392.307 299.348,386.737 298.612,382.421 297.637,379.135 297.522,376.328 297.699,373.766 296.962,369.445 297.148,367.135 296.774,364.846 297.127,359.71 297.491,354.825 298.77,351.694 299.27,350.133 300.145,343.929 299.907,338.024 299.428,333.154 297.875,329.621 297.448,326.034 298.397,321.606 299.471,320.263 300.244,318.418 303.084,313.11"
       id="polyline12"
       style="fill:none;stroke:#ff0000;stroke-width:3;stroke-miterlimit:4;stroke-dasharray:none;stroke-opacity:1" />
    <polyline
       points="304.257,321.153 304.394,320.909 306.418,316.411 307.768,312.137 308.668,310.338 309.118,307.414 309.118,304.49 309.567,300.666 309.567,296.392 310.017,293.693 310.017,290.094 309.792,287.17 309.792,284.021 309.343,279.522 309.118,276.148 308.893,271.65 308.443,268.951 307.993,266.252 307.993,261.753 307.768,257.03 307.543,252.981 307.543,249.382 307.543,245.558 306.868,241.959 305.969,237.911 305.069,234.537 304.169,230.713 303.494,226.889 302.82,223.74 302.37,220.366 301.47,216.992 300.57,212.943 300.795,210.019 300.345,206.87 300.12,203.496 299.896,201.697 299.446,199.673 298.996,196.524 298.321,193.375 298.096,190.001 297.646,185.052 297.646,183.703 296.971,180.554 296.297,177.18 295.622,171.332 295.172,169.757 293.148,164.134 292.473,162.334 291.798,160.76 291.573,159.635 290.673,157.386 286.175,151.088 282.801,148.389 279.202,145.465 276.053,143.89 272.454,142.766 268.405,142.99 263.457,144.34 258.733,146.364 255.585,148.164 252.66,150.638 249.511,153.112 245.463,156.486 241.639,159.41 237.815,163.009 234.666,165.933 231.067,168.857 227.693,170.882 223.87,174.031 222.745,174.93 220.046,175.83 215.097,178.754 211.273,180.554 208.799,181.678 206.55,183.028 204.751,183.928 200.027,185.502 198.228,186.177 193.504,187.077 188.556,189.101 186.306,189.776 180.683,191.8 175.06,192.025 168.762,190.9 162.464,188.876 157.066,185.727 154.591,184.377 148.068,179.879 144.919,176.955 139.071,173.131 132.998,169.532 128.275,166.608 123.326,164.359 119.278,163.459 115.229,163.234 112.53,163.909 110.505,164.584 107.581,165.483 103.757,168.183 99.7087,172.231 96.7846,175.605 94.9852,179.429 93.8605,182.353 93.1858,185.052 91.6113,188.876 90.4866,192.25 89.8118,194.724 89.137,198.098 89.137,200.122 89.362,202.597 89.362,207.095 88.9121,209.12 88.9121,210.919 89.137,213.618 89.362,216.542 89.5869,219.241 89.137,221.716 89.362,223.965 89.5869,225.989 89.362,229.813 89.362,232.962 89.5869,236.786 89.8118,239.935 90.0368,243.534 89.8118,247.133 90.0368,248.932 90.0368,251.631 90.0368,254.33 90.7115,260.178 91.1614,264.002 91.1614,267.376 91.1614,269.626 91.3863,272.325 91.8362,273.449 93.8605,276.148 94.3104,279.972 95.2101,282.671 95.66,286.945 95.435,289.644 95.2101,291.669 96.1098,295.492 97.0096,298.866 97.6843,303.365 98.3591,306.064 98.5841,309.438 97.6843,312.137 96.1098,315.061 94.3104,318.21 93.1858,320.235 92.511,322.259 91.3863,324.733 90.7115,327.882 90.4866,331.031 90.7115,333.505 90.9365,335.305 91.6113,337.329 93.6356,338.454 96.7846,340.478 99.0339,342.053 100.383,344.752 100.608,347.226 101.733,350.825 102.633,355.998 102.858,360.947 103.308,365.22 103.757,370.169 103.757,373.993 103.757,376.692 103.982,380.516 103.532,383.215 103.532,386.364 103.308,389.288 103.083,391.987 102.408,395.586 101.958,397.835 101.283,401.209 100.833,404.358 100.383,406.832 99.4838,410.431 99.0339,412.905 98.1342,416.279 97.9093,418.753 97.2345,421.678 96.5597,424.602 96.1098,427.301 95.2101,431.125 94.7603,434.274 94.0855,436.523 93.4107,438.997 93.4107,441.696 92.7359,443.496 92.511,446.42 92.0611,448.669 92.286,450.918 92.7359,452.493 92.7359,454.742 92.511,456.766 93.1858,458.566 94.0855,459.241 95.2101,459.915 97.6843,461.04 100.833,462.39 103.757,463.514 104.657,463.739 107.806,464.414 119.053,465.764 130.299,465.989 134.573,465.764 137.722,465.314 144.02,463.514 149.418,461.265 153.692,459.466 156.841,457.891 160.664,456.766 164.038,455.417 166.962,454.517 167.862,454.067 172.811,452.718 173.935,452.493 177.084,451.818 180.458,451.593 184.507,452.043 188.331,452.718 191.705,453.393 195.978,454.742 199.127,455.867 200.927,456.542 204.076,457.666 206.55,459.016 207.675,459.466 209.699,460.14 213.073,460.59 216.672,461.265 220.496,461.94 223.42,462.39 225.669,463.289 228.818,464.189 231.292,465.314 232.867,465.764 235.791,466.438 238.715,467.113 242.539,467.788 246.587,468.463 250.411,468.913 263.907,469.362 269.08,469.587 275.603,469.362 279.877,469.812 284.6,469.587 289.099,468.913 293.373,468.238 298.771,465.539 300.345,464.414 302.37,462.615 303.719,459.915 304.169,459.241 305.069,457.666 306.643,451.818 307.768,447.769 308.668,443.496 308.668,442.371 308.893,440.122 308.893,434.723 309.118,431.349 308.893,425.276 307.993,420.778 307.093,415.604 305.969,414.255 305.069,412.905 300.57,410.881 299.221,407.957 298.321,405.033 297.196,400.309 295.847,396.71 295.172,393.561 294.722,390.862 294.497,387.713 294.047,385.914 293.373,383.665 292.248,379.391 291.348,376.917 290.224,373.543 289.774,372.643 288.199,368.819 287.299,366.57 286.85,362.296 286.85,359.822 287.075,355.773 286.85,352.174 286.625,348.801 286.85,345.202 287.524,342.952 288.649,339.803 289.549,337.329 291.123,333.955 293.373,332.381 294.047,332.156 296.522,329.906 297.421,328.557 299.221,326.982 300.57,326.308 304.257,321.153"
       id="polyline14"
       style="fill:none;stroke:#0000e6;stroke-width:3;stroke-miterlimit:4;stroke-dasharray:none" />
  </g>
</svg>
