<?xml version="1.0" encoding="UTF-8" standalone="no"?>
<svg
   xmlns:dc="http://purl.org/dc/elements/1.1/"
   xmlns:cc="http://creativecommons.org/ns#"
   xmlns:rdf="http://www.w3.org/1999/02/22-rdf-syntax-ns#"
   xmlns:svg="http://www.w3.org/2000/svg"
   xmlns="http://www.w3.org/2000/svg"
   xmlns:sodipodi="http://sodipodi.sourceforge.net/DTD/sodipodi-0.dtd"
   xmlns:inkscape="http://www.inkscape.org/namespaces/inkscape"
   width="205.2126"
   height="311.5947"
   viewBox="0 0 205.2126 311.5947"
   id="svg2"
   version="1.1"
   inkscape:version="0.91 r13725"
   sodipodi:docname="single-before.svg">
  <metadata
     id="metadata62">
    <rdf:RDF>
      <cc:Work
         rdf:about="">
        <dc:format>image/svg+xml</dc:format>
        <dc:type
           rdf:resource="http://purl.org/dc/dcmitype/StillImage" />
        <dc:title>VTK GL2PS Export</dc:title>
      </cc:Work>
    </rdf:RDF>
  </metadata>
  <sodipodi:namedview
     pagecolor="#ffffff"
     bordercolor="#666666"
     borderopacity="1"
     objecttolerance="10"
     gridtolerance="10"
     guidetolerance="10"
     inkscape:pageopacity="0"
     inkscape:pageshadow="2"
     inkscape:window-width="1920"
     inkscape:window-height="1021"
     id="namedview60"
     showgrid="false"
     fit-margin-top="0"
     fit-margin-left="0"
     fit-margin-right="0"
     fit-margin-bottom="0"
     inkscape:zoom="1.0907007"
     inkscape:cx="325.56269"
     inkscape:cy="81.756962"
     inkscape:window-x="0"
     inkscape:window-y="27"
     inkscape:window-maximized="1"
     inkscape:current-layer="g10" />
  <title
     id="title4">VTK GL2PS Export</title>
  <desc
     id="desc6">
Creator: GL2PS 1.3.8, (C) 1999-2012 C. Geuzaine
For: VTK
CreationDate: Thu Aug 13 14:51:11 2015
</desc>
  <defs
     id="defs8" />
  <g
     id="g10"
     style="shape-rendering:crispEdges"
     transform="translate(-98.284691,-145.22364)">
    <polyline
       points="296.772,308.583 297.302,305.935 297.542,304.01 297.783,300.881 298.024,297.271 298.986,290.292 299.468,284.998 299.468,281.147 299.708,278.019 299.949,276.094 299.708,272.965 299.468,268.874 299.468,265.024 299.708,260.21 299.949,256.601 299.468,250.103 299.227,247.937 298.505,244.568 298.264,243.365 297.302,239.755 297.302,238.311 297.061,236.626 296.58,235.664 295.617,230.61 294.654,224.353 294.414,219.54 294.173,214.245 293.932,209.914 293.932,205.582 294.173,198.603 294.414,194.271 294.414,190.902 294.414,189.699 293.932,184.645 293.932,182.96 293.451,177.185 293.211,171.409 292.729,165.633 290.563,160.579 287.435,156.729 284.066,153.601 279.012,150.953 274.439,149.028 268.904,148.306 263.61,148.787 258.556,150.472 252.781,154.322 248.689,157.21 244.598,161.301 241.47,164.43 236.657,169.724 235.213,171.409 230.159,175.741 227.271,177.425 223.421,178.869 219.811,181.276 214.998,182.479 211.147,183.923 205.612,185.848 200.799,187.052 196.467,187.773 191.654,187.292 185.638,186.57 179.862,184.164 173.365,180.554 167.589,176.463 163.016,171.89 158.685,168.28 152.909,164.189 147.374,160.579 142.801,157.932 133.416,156.007 129.084,157.451 124.271,161.061 121.624,162.023 119.217,163.949 115.848,168.762 113.682,172.131 111.035,179.351 108.869,186.089 107.906,192.105 107.425,200.769 108.147,208.229 108.388,213.523 108.628,219.059 108.147,220.502 105.981,231.573 105.019,236.145 104.537,239.996 104.778,243.365 105.019,246.734 106.222,251.547 106.944,254.435 107.906,256.841 109.832,259.489 111.516,263.82 111.516,267.189 112.238,271.281 112.72,276.094 112.96,280.907 113.201,284.517 113.201,289.811 113.201,293.661 112.96,297.271 112.72,298.234 111.757,300.159 111.276,302.084 110.313,304.732 109.35,306.897 108.869,307.86 107.425,311.711 106.222,314.358 105.259,317.005 103.575,319.412 102.612,322.059 101.89,324.706 101.89,325.909 102.131,327.112 102.612,328.075 103.575,329.038 104.778,329.519 106.463,330 108.147,330.722 109.35,331.685 111.035,333.851 112.479,336.739 112.72,338.664 112.72,340.348 112.72,343.718 112.479,346.124 112.238,349.012 111.998,351.659 111.516,356.232 111.516,360.323 111.516,364.895 111.276,368.024 110.794,370.19 109.832,372.596 108.869,376.206 108.628,380.538 107.906,386.795 107.425,391.127 106.463,394.014 105.259,397.384 104.297,401.475 102.612,405.566 101.409,409.898 100.206,413.989 99.4836,418.561 99.0022,422.652 99.2429,425.781 99.4836,429.872 99.4836,433.963 99.9649,437.814 100.206,440.701 100.927,442.145 102.131,443.349 104.297,444.311 107.184,445.033 111.035,445.755 115.367,446.718 126.918,446.958 140.395,447.199 145.689,446.237 151.465,444.311 157,441.423 161.332,439.258 167.829,435.888 174.568,433.963 185.397,432.76 190.451,433 197.189,434.926 201.04,436.37 204.409,437.814 207.778,439.498 212.591,441.423 215.96,442.867 221.977,445.755 226.79,448.162 231.844,451.531 238.582,454.178 246.283,455.622 263.129,455.863 269.626,456.103 275.643,455.622 282.14,455.381 287.675,454.659 292.007,450.809 296.098,447.199 299.708,443.589 301.152,437.814 302.115,433.722 302.115,428.428 302.115,425.3 301.633,419.043 301.633,415.433 301.393,410.62 300.189,407.732 298.024,405.085 294.895,403.881 292.489,399.309 292.007,397.143 290.804,392.571 290.804,390.886 291.526,388.479 292.007,382.704 291.045,377.409 290.563,373.318 289.841,370.19 289.841,367.542 290.082,365.136 289.601,361.045 289.841,358.879 289.601,356.713 290.082,351.9 290.563,347.327 291.767,344.44 292.248,342.996 293.211,337.22 293.211,331.685 292.97,327.112 291.767,323.743 291.526,320.374 292.489,316.283 293.451,315.08 294.173,313.395 296.772,308.583"
       id="polyline12"
       style="fill:none;stroke:#ff0000;stroke-width:3;stroke-miterlimit:4;stroke-dasharray:none;stroke-opacity:1" />
    <polyline
       points="297.531,308.583 297.656,308.361 299.502,304.259 300.732,300.363 301.553,298.722 301.963,296.056 301.963,293.391 302.373,289.904 302.373,286.008 302.783,283.547 302.783,280.266 302.578,277.6 302.578,274.729 302.168,270.628 301.963,267.551 301.758,263.45 301.347,260.989 300.937,258.528 300.937,254.427 300.732,250.12 300.527,246.429 300.527,243.148 300.527,239.662 299.912,236.381 299.092,232.689 298.271,229.613 297.451,226.127 296.836,222.641 296.221,219.77 295.811,216.694 294.99,213.618 294.17,209.926 294.375,207.26 293.965,204.389 293.76,201.313 293.555,199.673 293.145,197.827 292.734,194.956 292.119,192.085 291.914,189.009 291.504,184.497 291.504,183.267 290.889,180.396 290.274,177.32 289.658,171.988 289.248,170.552 287.403,165.426 286.787,163.785 286.172,162.35 285.967,161.324 285.147,159.273 281.045,153.531 277.969,151.071 274.688,148.405 271.817,146.969 268.536,145.944 264.845,146.149 260.333,147.379 256.027,149.225 253.156,150.866 250.49,153.121 247.619,155.377 243.927,158.453 240.441,161.119 236.955,164.4 234.084,167.066 230.803,169.732 227.727,171.578 224.24,174.449 223.215,175.269 220.754,176.089 216.243,178.755 212.756,180.396 210.501,181.421 208.45,182.652 206.809,183.472 202.503,184.907 200.862,185.523 196.556,186.343 192.044,188.189 189.993,188.804 184.867,190.649 179.74,190.855 173.998,189.829 168.256,187.984 163.334,185.113 161.078,183.882 155.131,179.781 152.26,177.115 146.928,173.629 141.391,170.347 137.085,167.681 132.573,165.631 128.882,164.81 125.191,164.605 122.73,165.221 120.884,165.836 118.218,166.656 114.732,169.117 111.041,172.808 108.375,175.884 106.734,179.371 105.709,182.036 105.094,184.497 103.658,187.984 102.633,191.06 102.018,193.315 101.402,196.391 101.402,198.237 101.607,200.493 101.607,204.594 101.197,206.44 101.197,208.081 101.402,210.541 101.607,213.207 101.812,215.668 101.402,217.924 101.607,219.975 101.812,221.82 101.607,225.307 101.607,228.178 101.812,231.664 102.018,234.535 102.223,237.816 102.018,241.097 102.223,242.738 102.223,245.199 102.223,247.659 102.838,252.991 103.248,256.478 103.248,259.554 103.248,261.604 103.453,264.065 103.863,265.091 105.709,267.551 106.119,271.038 106.939,273.499 107.349,277.395 107.144,279.856 106.939,281.701 107.76,285.188 108.58,288.264 109.195,292.365 109.81,294.826 110.015,297.902 109.195,300.363 107.76,303.029 106.119,305.9 105.094,307.746 104.478,309.591 103.453,311.847 102.838,314.718 102.633,317.589 102.838,319.845 103.043,321.485 103.658,323.331 105.504,324.356 108.375,326.202 110.425,327.638 111.656,330.098 111.861,332.354 112.886,335.635 113.707,340.352 113.912,344.864 114.322,348.76 114.732,353.272 114.732,356.758 114.732,359.219 114.937,362.705 114.527,365.166 114.527,368.037 114.322,370.703 114.117,373.164 113.502,376.445 113.091,378.495 112.476,381.571 112.066,384.442 111.656,386.698 110.836,389.979 110.425,392.235 109.605,395.311 109.4,397.567 108.785,400.233 108.17,402.899 107.76,405.36 106.939,408.846 106.529,411.717 105.914,413.768 105.299,416.024 105.299,418.484 104.683,420.125 104.478,422.791 104.068,424.842 104.273,426.892 104.683,428.328 104.683,430.379 104.478,432.224 105.094,433.865 105.914,434.48 106.939,435.095 109.195,436.121 112.066,437.351 114.732,438.376 115.552,438.581 118.423,439.197 128.677,440.427 138.93,440.632 142.827,440.427 145.698,440.017 151.44,438.376 156.362,436.326 160.258,434.685 163.129,433.25 166.615,432.224 169.691,430.994 172.357,430.174 173.177,429.763 177.689,428.533 178.714,428.328 181.585,427.713 184.662,427.508 188.353,427.918 191.839,428.533 194.915,429.148 198.811,430.379 201.682,431.404 203.323,432.019 206.194,433.045 208.45,434.275 209.475,434.685 211.321,435.3 214.397,435.71 217.678,436.326 221.164,436.941 223.83,437.351 225.881,438.171 228.752,438.992 231.008,440.017 232.443,440.427 235.109,441.042 237.775,441.658 241.261,442.273 244.953,442.888 248.439,443.298 260.743,443.708 265.46,443.913 271.407,443.708 275.303,444.118 279.61,443.913 283.711,443.298 287.608,442.683 292.529,440.222 293.965,439.197 295.811,437.556 297.041,435.095 297.451,434.48 298.271,433.045 299.707,427.713 300.732,424.021 301.553,420.125 301.553,419.1 301.758,417.049 301.758,412.127 301.963,409.051 301.758,403.514 300.937,399.413 300.117,394.696 299.092,393.466 298.271,392.235 294.17,390.39 292.94,387.724 292.119,385.058 291.094,380.751 289.863,377.47 289.248,374.599 288.838,372.138 288.633,369.267 288.223,367.627 287.608,365.576 286.582,361.68 285.762,359.424 284.737,356.348 284.326,355.527 282.891,352.041 282.071,349.99 281.661,346.094 281.661,343.838 281.866,340.147 281.661,336.866 281.456,333.79 281.661,330.509 282.276,328.458 283.301,325.587 284.121,323.331 285.557,320.255 287.608,318.819 288.223,318.614 290.479,316.564 291.299,315.333 292.94,313.898 294.17,313.283 297.531,308.583"
       id="polyline14"
       style="fill:none;stroke:#0000e6;stroke-width:3;stroke-miterlimit:4;stroke-dasharray:none" />
  </g>
</svg>
