<?xml version="1.0" encoding="UTF-8" standalone="no"?>
<svg
   xmlns:dc="http://purl.org/dc/elements/1.1/"
   xmlns:cc="http://creativecommons.org/ns#"
   xmlns:rdf="http://www.w3.org/1999/02/22-rdf-syntax-ns#"
   xmlns:svg="http://www.w3.org/2000/svg"
   xmlns="http://www.w3.org/2000/svg"
   xmlns:sodipodi="http://sodipodi.sourceforge.net/DTD/sodipodi-0.dtd"
   xmlns:inkscape="http://www.inkscape.org/namespaces/inkscape"
   width="230.86154"
   height="329.10043"
   viewBox="0 0 230.86154 329.10043"
   id="svg2"
   version="1.1"
   inkscape:version="0.91 r13725"
   sodipodi:docname="single-affine.svg">
  <metadata
     id="metadata62">
    <rdf:RDF>
      <cc:Work
         rdf:about="">
        <dc:format>image/svg+xml</dc:format>
        <dc:type
           rdf:resource="http://purl.org/dc/dcmitype/StillImage" />
        <dc:title>VTK GL2PS Export</dc:title>
      </cc:Work>
    </rdf:RDF>
  </metadata>
  <sodipodi:namedview
     pagecolor="#ffffff"
     bordercolor="#666666"
     borderopacity="1"
     objecttolerance="10"
     gridtolerance="10"
     guidetolerance="10"
     inkscape:pageopacity="0"
     inkscape:pageshadow="2"
     inkscape:window-width="1920"
     inkscape:window-height="1021"
     id="namedview60"
     showgrid="false"
     fit-margin-top="0"
     fit-margin-left="0"
     fit-margin-right="0"
     fit-margin-bottom="0"
     inkscape:zoom="1.5424837"
     inkscape:cx="55.076654"
     inkscape:cy="170.39456"
     inkscape:window-x="0"
     inkscape:window-y="27"
     inkscape:window-maximized="1"
     inkscape:current-layer="g10" />
  <title
     id="title4">VTK GL2PS Export</title>
  <desc
     id="desc6">
Creator: GL2PS 1.3.8, (C) 1999-2012 C. Geuzaine
For: VTK
CreationDate: Thu Aug 13 14:51:56 2015
</desc>
  <defs
     id="defs8" />
  <g
     id="g10"
     style="shape-rendering:crispEdges"
     transform="translate(-84.569227,-141.44765)">
    <polyline
       points="302.253,311.48 302.703,308.678 302.87,306.649 302.974,303.36 303.052,299.567 303.757,292.207 304.015,286.637 303.814,282.606 303.918,279.317 304.085,277.288 303.654,274.026 303.174,269.756 302.973,265.724 302.989,260.672 303.068,256.879 302.194,250.103 301.814,247.848 300.837,244.361 300.507,243.115 299.25,239.389 299.175,237.877 298.82,236.127 298.235,235.145 296.903,229.908 295.508,223.41 294.99,218.384 294.446,212.855 293.953,208.333 293.727,203.797 293.63,196.477 293.671,191.929 293.496,188.401 293.433,187.141 292.635,181.877 292.547,180.113 291.711,174.093 291.143,168.059 290.307,162.039 287.639,156.868 283.966,153.01 280.063,149.922 274.315,147.431 269.139,145.67 262.957,145.221 257.105,146.02 251.583,148.064 245.373,152.417 240.982,155.667 236.654,160.178 233.345,163.627 228.278,169.438 226.763,171.282 221.38,176.098 218.262,178.022 214.063,179.748 210.181,182.468 204.902,183.995 200.703,185.721 194.659,188.044 189.379,189.572 184.608,190.568 179.241,190.332 172.524,189.91 165.988,187.712 158.587,184.293 151.962,180.331 146.648,175.798 141.651,172.259 135.026,168.297 128.694,164.825 123.48,162.307 112.962,160.813 108.228,162.566 103.074,166.613 100.186,167.767 97.6149,169.917 94.1261,175.143 91.8977,178.791 89.3358,186.497 87.2832,193.672 86.5285,200.025 86.4463,209.122 87.6369,216.893 88.1803,222.423 88.7362,228.204 88.2773,229.743 86.4506,241.453 85.6206,246.294 85.2872,250.352 85.7302,253.866 86.1731,257.381 87.7599,262.353 88.7119,265.336 89.906,267.802 92.1812,270.467 94.2772,274.909 94.453,278.436 95.4678,282.679 96.2532,287.692 96.7715,292.718 97.2269,296.484 97.5032,302.027 97.7041,306.058 97.6252,309.851 97.4083,310.872 96.4402,312.941 96.0064,314.984 95.076,317.809 94.1205,320.13 93.6364,321.165 92.2345,325.276 91.0369,328.115 90.1065,330.94 88.3621,333.553 87.4317,336.378 86.7684,339.19 86.8312,340.45 87.1611,341.696 87.7456,342.677 88.8643,343.631 90.2251,344.069 92.1202,344.479 94.0278,345.141 95.4137,346.082 97.3966,348.256 99.1501,351.199 99.5177,353.202 99.6056,354.965 99.7814,358.493 99.6398,361.026 99.5233,364.063 99.3943,366.848 99.0986,371.662 99.3121,375.945 99.5506,380.732 99.4467,384.021 99.0254,386.316 98.0824,388.889 97.2022,392.722 97.1611,397.27 96.6861,403.861 96.3779,408.423 95.46,411.5 94.3001,415.095 93.445,419.432 91.7885,423.809 90.6788,428.411 89.5566,432.761 88.9938,437.588 88.673,441.898 89.1033,445.161 89.5839,449.431 89.7973,453.714 90.5325,457.718 90.9503,460.729 91.827,462.2 93.2255,463.393 95.6799,464.281 98.9232,464.876 103.235,465.418 108.094,466.185 120.929,465.795 135.901,465.298 141.728,463.996 148.038,461.66 154.032,458.328 158.727,455.82 165.764,451.932 173.144,449.542 185.102,447.68 190.724,447.651 198.305,449.292 202.654,450.59 206.469,451.915 210.297,453.491 215.74,455.239 219.555,456.564 226.384,459.253 231.853,461.505 237.638,464.752 245.256,467.149 253.88,468.233 272.592,467.549 279.817,467.44 286.47,466.601 293.671,465.988 299.777,464.925 304.385,460.653 308.737,456.646 312.556,452.666 313.858,446.539 314.713,442.202 314.437,436.659 314.273,433.383 313.413,426.859 313.224,423.08 312.706,418.054 311.22,415.097 308.677,412.446 305.142,411.36 302.232,406.706 301.585,404.465 300.01,399.745 299.922,397.981 300.598,395.422 300.831,389.348 299.486,383.858 298.739,379.602 297.774,376.366 297.636,373.595 297.778,371.062 297.03,366.805 297.184,364.524 296.804,362.27 297.087,357.204 297.383,352.39 298.568,349.299 299.027,347.761 299.794,341.66 299.505,335.865 298.999,331.091 297.488,327.631 297.045,324.117 297.9,319.78 298.906,318.466 299.619,316.663 302.253,311.48"
       id="polyline12"
       style="fill:none;stroke:#ff0000;stroke-width:3;stroke-miterlimit:4;stroke-dasharray:none;stroke-opacity:1" />
    <polyline
       points="305.1,320.892 305.238,320.648 307.266,316.141 308.618,311.859 309.52,310.056 309.97,307.127 309.97,304.197 310.421,300.366 310.421,296.084 310.872,293.38 310.872,289.775 310.646,286.845 310.646,283.69 310.196,279.183 309.97,275.803 309.745,271.296 309.294,268.591 308.844,265.887 308.844,261.38 308.618,256.648 308.393,252.591 308.393,248.985 308.393,245.154 307.717,241.549 306.815,237.492 305.914,234.112 305.013,230.281 304.336,226.45 303.66,223.295 303.21,219.915 302.308,216.535 301.407,212.478 301.632,209.549 301.181,206.394 300.956,203.013 300.731,201.211 300.28,199.182 299.829,196.027 299.153,192.872 298.928,189.492 298.477,184.534 298.477,183.182 297.801,180.027 297.125,176.647 296.449,170.788 295.998,169.21 293.97,163.576 293.294,161.774 292.618,160.196 292.393,159.069 291.491,156.816 286.984,150.506 283.604,147.802 279.998,144.872 276.843,143.295 273.238,142.168 269.181,142.393 264.223,143.745 259.491,145.773 256.336,147.576 253.406,150.055 250.252,152.534 246.195,155.914 242.364,158.844 238.533,162.45 235.378,165.379 231.773,168.309 228.392,170.337 224.561,173.492 223.434,174.393 220.73,175.295 215.772,178.224 211.941,180.027 209.463,181.154 207.209,182.506 205.406,183.408 200.674,184.985 198.871,185.661 194.138,186.562 189.181,188.591 186.927,189.267 181.293,191.295 175.659,191.52 169.35,190.394 163.04,188.365 157.631,185.21 155.152,183.858 148.617,179.351 145.462,176.422 139.603,172.591 133.518,168.985 128.786,166.055 123.828,163.802 119.772,162.9 115.715,162.675 113.011,163.351 110.983,164.027 108.053,164.929 104.222,167.633 100.166,171.689 97.2363,175.069 95.4335,178.9 94.3067,181.83 93.6307,184.534 92.0532,188.365 90.9264,191.746 90.2504,194.225 89.5743,197.605 89.5743,199.633 89.7996,202.112 89.7996,206.619 89.3489,208.647 89.3489,210.45 89.5743,213.154 89.7996,216.084 90.025,218.788 89.5743,221.267 89.7996,223.521 90.025,225.549 89.7996,229.38 89.7996,232.535 90.025,236.366 90.2504,239.521 90.4757,243.126 90.2504,246.732 90.4757,248.535 90.4757,251.239 90.4757,253.943 91.1518,259.802 91.6025,263.633 91.6025,267.014 91.6025,269.267 91.8278,271.972 92.2785,273.098 94.3067,275.803 94.7574,279.634 95.6588,282.338 96.1095,286.62 95.8842,289.324 95.6588,291.352 96.5602,295.183 97.4617,298.563 98.1377,303.07 98.8138,305.775 99.0391,309.155 98.1377,311.859 96.5602,314.789 94.7574,317.944 93.6307,319.972 92.9546,322 91.8278,324.479 91.1518,327.634 90.9264,330.789 91.1518,333.268 91.3771,335.071 92.0532,337.099 94.0814,338.226 97.2363,340.254 99.4899,341.831 100.842,344.535 101.067,347.014 102.194,350.62 103.096,355.803 103.321,360.761 103.772,365.043 104.222,370 104.222,373.831 104.222,376.536 104.448,380.367 103.997,383.071 103.997,386.226 103.772,389.156 103.546,391.86 102.87,395.465 102.419,397.719 101.743,401.099 101.293,404.254 100.842,406.733 99.9406,410.339 99.4899,412.818 98.5884,416.198 98.3631,418.677 97.687,421.607 97.011,424.536 96.5602,427.24 95.6588,431.071 95.2081,434.226 94.5321,436.48 93.856,438.959 93.856,441.663 93.1799,443.466 92.9546,446.395 92.5039,448.649 92.7292,450.902 93.1799,452.48 93.1799,454.734 92.9546,456.762 93.6307,458.565 94.5321,459.241 95.6588,459.917 98.1377,461.043 101.293,462.396 104.222,463.522 105.124,463.748 108.279,464.424 119.546,465.776 130.814,466.001 135.096,465.776 138.251,465.325 144.561,463.522 149.969,461.269 154.251,459.466 157.406,457.888 161.237,456.762 164.617,455.41 167.547,454.508 168.448,454.057 173.406,452.705 174.533,452.48 177.688,451.804 181.068,451.579 185.124,452.029 188.955,452.705 192.336,453.381 196.617,454.734 199.772,455.86 201.575,456.536 204.73,457.663 207.209,459.015 208.336,459.466 210.364,460.142 213.744,460.593 217.35,461.269 221.181,461.945 224.111,462.396 226.364,463.297 229.519,464.198 231.998,465.325 233.575,465.776 236.505,466.452 239.435,467.128 243.266,467.804 247.322,468.48 251.153,468.931 264.674,469.381 269.857,469.607 276.393,469.381 280.674,469.832 285.407,469.607 289.914,468.931 294.196,468.255 299.604,465.55 301.181,464.424 303.21,462.621 304.562,459.917 305.013,459.241 305.914,457.663 307.491,451.804 308.618,447.748 309.52,443.466 309.52,442.339 309.745,440.086 309.745,434.677 309.97,431.297 309.745,425.212 308.844,420.705 307.942,415.522 306.815,414.17 305.914,412.818 301.407,410.79 300.055,407.86 299.153,404.93 298.027,400.198 296.674,396.592 295.998,393.437 295.548,390.733 295.322,387.578 294.872,385.775 294.196,383.522 293.069,379.24 292.167,376.761 291.041,373.381 290.59,372.479 289.012,368.648 288.111,366.395 287.66,362.113 287.66,359.634 287.886,355.578 287.66,351.972 287.435,348.592 287.66,344.986 288.336,342.733 289.463,339.578 290.365,337.099 291.942,333.719 294.196,332.141 294.872,331.916 297.35,329.662 298.252,328.31 300.055,326.733 301.407,326.056 305.1,320.892"
       id="polyline14"
       style="fill:none;stroke:#0000e6;stroke-width:3;stroke-miterlimit:4;stroke-dasharray:none" />
  </g>
</svg>
