<?xml version="1.0" encoding="UTF-8" standalone="no"?>
<svg xmlns="http://www.w3.org/2000/svg" xmlns:xlink="http://www.w3.org/1999/xlink" width="640px" height="360px" viewBox="0 0 640 360">
<title>VTK GL2PS Export</title>
<desc>
Creator: GL2PS 1.3.8, (C) 1999-2012 C. Geuzaine
For: VTK
CreationDate: Mon Aug 17 19:36:49 2015
</desc>
<defs>
</defs>
<g shape-rendering="crispEdges">
<text fill="#000000" x="47.5743" y="323.398" font-size="30" text-anchor="end" baseline-shift="-15" font-family="Helvetica">0</text>
<text fill="#000000" x="47.5743" y="37.6045" font-size="30" text-anchor="end" baseline-shift="-15" font-family="Helvetica">0.8</text>
<text fill="#000000" x="54.5853" y="330.418" font-size="30" text-anchor="middle" baseline-shift="-30" font-family="Helvetica">0</text>
<text fill="#000000" x="195.806" y="330.418" font-size="30" text-anchor="middle" baseline-shift="-30" font-family="Helvetica">90</text>
<text fill="#000000" x="337.027" y="330.418" font-size="30" text-anchor="middle" baseline-shift="-30" font-family="Helvetica">180</text>
<text fill="#000000" x="478.247" y="330.418" font-size="30" text-anchor="middle" baseline-shift="-30" font-family="Helvetica">270</text>
<text fill="#000000" x="620.469" y="330.418" font-size="30" text-anchor="middle" baseline-shift="-30" font-family="Helvetica">360</text>
<polyline fill="none" stroke="#000000" stroke-width="5.0" points="56.1572,318.522 59.301,316.631 62.4448,314.677 65.5886,312.264 68.7324,307.657 71.8762,302.831 75.02,296.989 78.1638,288.932 81.3076,279.319 84.4514,268.483 87.5952,256.577 90.739,244.892 93.8828,235.139 97.0266,226.983 100.17,217.927 103.314,210.893 106.458,205.642 109.602,201.105 112.746,197.316 115.889,192.005 119.033,188.676 122.177,185.142 125.321,181.701 128.465,178.699 131.608,176.621 134.752,173.697 137.896,172.792 141.04,175.702 144.184,182.55 147.327,188.325 150.471,196.328 153.615,207.226 156.759,217.452 159.903,226.315 163.046,234.061 166.19,255.456 169.334,268.362 172.478,281.37 175.622,289.503 178.765,295.844 181.909,305.694 185.053,311.011 188.197,315.34 191.341,317.398 194.484,319.075 197.628,322.841 200.772,326.043 203.916,326.664 207.06,326.922 210.203,327.037 213.347,327.179 216.491,327.246 219.635,327.35 222.779,327.386 225.922,324.642 229.066,321.574 232.21,323.392 235.354,322.405 238.498,323.255 241.641,322.829 244.785,321.433 247.929,320.436 251.073,320.9 254.217,320.534 257.36,320.966 260.504,319.816 263.648,322.201 266.792,323.877 269.936,324.264 273.079,324.52 276.223,324.05 279.367,319.328 282.511,322.593 285.655,324.838 288.798,324.344 291.942,324.474 295.086,324.163 298.23,322.57 301.374,323.729 304.517,323.112 307.661,319.734 310.805,306.527 313.949,277.387 317.093,230.958 320.236,177.536 323.38,130.397 326.524,93.1542 329.668,70.071 332.812,57.3595 335.955,51.4163 339.099,52.634 342.243,58.1077 345.387,72.6557 348.531,99.014 351.674,141.128 354.818,193.251 357.962,246.384 361.106,288.386 364.25,311.509 367.393,320.843 370.537,321.814 373.681,323.276 376.825,323.387 379.969,323.721 383.112,323.949 386.256,324.576 389.4,324.864 392.544,325.151 395.688,324.549 398.831,324.014 401.975,323.205 405.119,322.223 408.263,320.552 411.407,315.573 414.55,304.316 417.694,284.392 420.838,251.755 423.982,206.753 427.126,165.315 430.27,131.288 433.413,102.473 436.557,81.3561 439.701,66.3283 442.845,55.9366 445.988,47.6286 449.132,47.1765 452.276,58.7477 455.42,77.6523 458.564,99.5736 461.707,125.453 464.851,153.931 467.995,180.803 471.139,210.743 474.283,240.034 477.427,267.033 480.57,295.852 483.714,310.36 486.858,311.256 490.002,309.491 493.146,307.406 496.289,301.798 499.433,298.044 502.577,300.066 505.721,290.518 508.865,281.14 512.008,275.565 515.152,269.58 518.296,267.589 521.44,269.138 524.583,273.651 527.727,292.497 530.871,304.62 534.015,314.475 537.159,319.901 540.303,322.827 543.446,324.208 546.59,324.22 549.734,324.871 552.878,325.692 556.022,325.779 559.165,326.019 562.309,320.987 565.453,325.538 568.597,325.192 571.741,323.991 574.884,324.279 578.028,324.498 581.172,324.451 584.316,309.543 587.46,309.543 590.603,309.543 593.747,309.543 596.891,309.543 600.035,309.543 603.179,309.543 606.322,309.543 609.466,309.543 612.61,309.543 615.754,309.543 618.898,319.757"/>
<polyline fill="none" stroke="#000000" stroke-width="5.0" points="54.5853,323.398 54.5853,19.5543"/>
<polyline fill="none" stroke="#000000" stroke-width="5.0" points="49.5775,323.398 54.5853,323.398"/>
<polyline fill="none" stroke="#000000" stroke-width="5.0" points="49.5775,37.6045 54.5853,37.6045"/>
<polyline fill="none" stroke="#000000" stroke-width="5.0" points="54.5853,323.398 620.469,323.398"/>
<polyline fill="none" stroke="#000000" stroke-width="5.0" points="54.5853,328.412 54.5853,323.398"/>
<polyline fill="none" stroke="#000000" stroke-width="5.0" points="195.806,328.412 195.806,323.398"/>
<polyline fill="none" stroke="#000000" stroke-width="5.0" points="337.027,328.412 337.027,323.398"/>
<polyline fill="none" stroke="#000000" stroke-width="5.0" points="478.247,328.412 478.247,323.398"/>
<polyline fill="none" stroke="#000000" stroke-width="5.0" points="620.469,328.412 620.469,323.398"/>
</g>
</svg>
