<?xml version="1.0" encoding="UTF-8" standalone="no"?>
<svg xmlns="http://www.w3.org/2000/svg" xmlns:xlink="http://www.w3.org/1999/xlink" width="640px" height="360px" viewBox="0 0 640 360">
<title>VTK GL2PS Export</title>
<desc>
Creator: GL2PS 1.3.8, (C) 1999-2012 C. Geuzaine
For: VTK
CreationDate: Mon Aug 17 19:36:49 2015
</desc>
<defs>
</defs>
<g shape-rendering="crispEdges">
<text fill="#000000" x="47.5743" y="323.398" font-size="30" text-anchor="end" baseline-shift="-15" font-family="Helvetica">0</text>
<text fill="#000000" x="47.5743" y="37.6045" font-size="30" text-anchor="end" baseline-shift="-15" font-family="Helvetica">0.8</text>
<text fill="#000000" x="54.5853" y="330.418" font-size="30" text-anchor="middle" baseline-shift="-30" font-family="Helvetica">0</text>
<text fill="#000000" x="195.806" y="330.418" font-size="30" text-anchor="middle" baseline-shift="-30" font-family="Helvetica">90</text>
<text fill="#000000" x="337.027" y="330.418" font-size="30" text-anchor="middle" baseline-shift="-30" font-family="Helvetica">180</text>
<text fill="#000000" x="478.247" y="330.418" font-size="30" text-anchor="middle" baseline-shift="-30" font-family="Helvetica">270</text>
<text fill="#000000" x="620.469" y="330.418" font-size="30" text-anchor="middle" baseline-shift="-30" font-family="Helvetica">360</text>
<polyline fill="none" stroke="#000000" stroke-width="5.0" points="56.1572,302.311 59.301,296.815 62.4448,289.558 65.5886,282.642 68.7324,272.869 71.8762,263.721 75.02,254.21 78.1638,246.765 81.3076,238.558 84.4514,232.07 87.5952,227.949 90.739,226.145 93.8828,226.653 97.0266,229.234 100.17,233.62 103.314,238.17 106.458,245.226 109.602,251.822 112.746,258.96 115.889,265.005 119.033,268.633 122.177,268.941 125.321,267.18 128.465,262.984 131.608,254.392 134.752,243.749 137.896,230.553 141.04,214.283 144.184,197.437 147.327,193.958 150.471,200.844 153.615,214.72 156.759,233.327 159.903,254.052 163.046,278.579 166.19,300.592 169.334,308.441 172.478,316.563 175.622,321.696 178.765,325.354 181.909,326.737 185.053,327.678 188.197,326.516 191.341,326.25 194.484,324.922 197.628,324.672 200.772,322.561 203.916,321.88 207.06,321.201 210.203,320.848 213.347,321.545 216.491,320.511 219.635,322.507 222.779,322.065 225.922,320.766 229.066,320.836 232.21,321.031 235.354,319.019 238.498,318.958 241.641,319.289 244.785,320.089 247.929,319.102 251.073,320.934 254.217,321.865 257.36,321.514 260.504,321.989 263.648,320.334 266.792,319.84 269.936,318.805 273.079,316.312 276.223,314.417 279.367,313.918 282.511,313.22 285.655,311.894 288.798,311.513 291.942,311.937 295.086,311.361 298.23,310.237 301.374,310.265 304.517,308.085 307.661,303.151 310.805,293.4 313.949,278.383 317.093,255.762 320.236,226.885 323.38,191.53 326.524,152.421 329.668,121.823 332.812,94.7382 335.955,81.3694 339.099,78.1576 342.243,80.787 345.387,94.2414 348.531,127.081 351.674,183.184 354.818,232.553 357.962,265.232 361.106,287.385 364.25,303.37 367.393,312.723 370.537,317.646 373.681,321.48 376.825,324.39 379.969,324.793 383.112,325.156 386.256,326.105 389.4,327.285 392.544,327.817 395.688,327.636 398.831,328.323 401.975,327.413 405.119,326.91 408.263,326.35 411.407,325.923 414.55,322.315 417.694,314.641 420.838,300.458 423.982,276.854 427.126,245.601 430.27,214.656 433.413,184.454 436.557,162.099 439.701,143.915 442.845,131.13 445.988,125.177 449.132,123.654 452.276,129.066 455.42,141.707 458.564,158.527 461.707,175.452 464.851,190.493 467.995,198.972 471.139,208.932 474.283,219.048 477.427,241.564 480.57,273.193 483.714,298.067 486.858,306.423 490.002,307.622 493.146,311.866 496.289,318.113 499.433,322.732 502.577,317.873 505.721,318.981 508.865,317.627 512.008,322.562 515.152,321.293 518.296,322.476 521.44,319.709 524.583,312.354 527.727,317.459 530.871,320.39 534.015,321.818 537.159,322.044 540.303,322.19 543.446,321.767 546.59,319.967 549.734,318.469 552.878,316.557 556.022,314.939 559.165,312.957 562.309,314.253 565.453,314.303 568.597,314.88 571.741,315.908 574.884,315.402 578.028,318.76 581.172,321.002 584.316,306.141 587.46,305.464 590.603,305.464 593.747,305.464 596.891,305.464 600.035,305.464 603.179,305.464 606.322,305.464 609.466,305.464 612.61,305.464 615.754,305.464 618.898,307.686"/>
<polyline fill="none" stroke="#000000" stroke-width="5.0" points="54.5853,323.398 54.5853,19.5543"/>
<polyline fill="none" stroke="#000000" stroke-width="5.0" points="49.5775,323.398 54.5853,323.398"/>
<polyline fill="none" stroke="#000000" stroke-width="5.0" points="49.5775,37.6045 54.5853,37.6045"/>
<polyline fill="none" stroke="#000000" stroke-width="5.0" points="54.5853,323.398 620.469,323.398"/>
<polyline fill="none" stroke="#000000" stroke-width="5.0" points="54.5853,328.412 54.5853,323.398"/>
<polyline fill="none" stroke="#000000" stroke-width="5.0" points="195.806,328.412 195.806,323.398"/>
<polyline fill="none" stroke="#000000" stroke-width="5.0" points="337.027,328.412 337.027,323.398"/>
<polyline fill="none" stroke="#000000" stroke-width="5.0" points="478.247,328.412 478.247,323.398"/>
<polyline fill="none" stroke="#000000" stroke-width="5.0" points="620.469,328.412 620.469,323.398"/>
</g>
</svg>
