<?xml version="1.0" encoding="UTF-8" standalone="no"?>
<svg xmlns="http://www.w3.org/2000/svg" xmlns:xlink="http://www.w3.org/1999/xlink" width="640px" height="360px" viewBox="0 0 640 360">
<title>VTK GL2PS Export</title>
<desc>
Creator: GL2PS 1.3.8, (C) 1999-2012 C. Geuzaine
For: VTK
CreationDate: Mon Aug 17 19:36:50 2015
</desc>
<defs>
</defs>
<g shape-rendering="crispEdges">
<text fill="#000000" x="47.5743" y="323.398" font-size="30" text-anchor="end" baseline-shift="-15" font-family="Helvetica">0</text>
<text fill="#000000" x="47.5743" y="37.6045" font-size="30" text-anchor="end" baseline-shift="-15" font-family="Helvetica">0.8</text>
<text fill="#000000" x="54.5853" y="330.418" font-size="30" text-anchor="middle" baseline-shift="-30" font-family="Helvetica">0</text>
<text fill="#000000" x="195.806" y="330.418" font-size="30" text-anchor="middle" baseline-shift="-30" font-family="Helvetica">90</text>
<text fill="#000000" x="337.027" y="330.418" font-size="30" text-anchor="middle" baseline-shift="-30" font-family="Helvetica">180</text>
<text fill="#000000" x="478.247" y="330.418" font-size="30" text-anchor="middle" baseline-shift="-30" font-family="Helvetica">270</text>
<text fill="#000000" x="620.469" y="330.418" font-size="30" text-anchor="middle" baseline-shift="-30" font-family="Helvetica">360</text>
<polyline fill="none" stroke="#000000" stroke-width="5.0" points="56.1572,317.892 59.301,316.288 62.4448,313.046 65.5886,310.366 68.7324,306.017 71.8762,301.35 75.02,297.475 78.1638,293.439 81.3076,290.499 84.4514,287.736 87.5952,285.87 90.739,284.567 93.8828,284.089 97.0266,284.114 100.17,285.629 103.314,285.949 106.458,287.753 109.602,289.462 112.746,290.972 115.889,292.395 119.033,294.759 122.177,297.081 125.321,299.119 128.465,302.022 131.608,303.252 134.752,304.297 137.896,303.518 141.04,303.438 144.184,303.069 147.327,304.582 150.471,306.737 153.615,308.617 156.759,312.696 159.903,317.36 163.046,324.61 166.19,327.964 169.334,329.457 172.478,327.166 175.622,324.627 178.765,321.878 181.909,321.864 185.053,321.941 188.197,324.704 191.341,325.812 194.484,325.825 197.628,323.347 200.772,323.648 203.916,324.514 207.06,324.199 210.203,321.422 213.347,321.237 216.491,320.973 219.635,320.521 222.779,321.328 225.922,323.381 229.066,324.285 232.21,325.561 235.354,326.785 238.498,326.402 241.641,325.76 244.785,324.828 247.929,326.37 251.073,325.513 254.217,324.217 257.36,322.976 260.504,320.901 263.648,319.719 266.792,318.212 269.936,316.733 273.079,315.166 276.223,313.566 279.367,312.008 282.511,310.736 285.655,309.52 288.798,307.457 291.942,305.743 295.086,303.621 298.23,300.112 301.374,294.841 304.517,287.872 307.661,279.517 310.805,265.105 313.949,248.468 317.093,231.425 320.236,215.446 323.38,197.055 326.524,175.907 329.668,156.204 332.812,143.374 335.955,140.263 339.099,144.043 342.243,148.278 345.387,152.709 348.531,165.634 351.674,187.221 354.818,214.036 357.962,236.951 361.106,258.541 364.25,274.524 367.393,287.961 370.537,297.279 373.681,303.496 376.825,308.626 379.969,312.326 383.112,315.255 386.256,316.96 389.4,316.789 392.544,317.123 395.688,316.471 398.831,315.157 401.975,314.371 405.119,311.589 408.263,308.632 411.407,304.93 414.55,301.619 417.694,292.449 420.838,280.693 423.982,274.45 427.126,270.398 430.27,261.076 433.413,251.587 436.557,246.191 439.701,242.993 442.845,242.443 445.988,243.58 449.132,247.9 452.276,252.567 455.42,255.821 458.564,260.183 461.707,263.738 464.851,263.897 467.995,266.517 471.139,271.639 474.283,282.666 477.427,295.252 480.57,311.169 483.714,324.361 486.858,332.002 490.002,331.238 493.146,330.792 496.289,330.081 499.433,328.45 502.577,327.539 505.721,328.162 508.865,331.198 512.008,330.245 515.152,327.311 518.296,326.021 521.44,325.882 524.583,325.01 527.727,326.372 530.871,325.745 534.015,324.321 537.159,322.928 540.303,323.292 543.446,325.775 546.59,325.751 549.734,328.976 552.878,329.489 556.022,329.538 559.165,329.447 562.309,329.31 565.453,329.382 568.597,329.231 571.741,328.807 574.884,328.642 578.028,328.489 581.172,328.099 584.316,322.986 587.46,317.99 590.603,317.99 593.747,317.99 596.891,317.99 600.035,317.99 603.179,317.99 606.322,317.99 609.466,317.99 612.61,317.99 615.754,317.99 618.898,319.743"/>
<polyline fill="none" stroke="#000000" stroke-width="5.0" points="54.5853,323.398 54.5853,19.5543"/>
<polyline fill="none" stroke="#000000" stroke-width="5.0" points="49.5775,323.398 54.5853,323.398"/>
<polyline fill="none" stroke="#000000" stroke-width="5.0" points="49.5775,37.6045 54.5853,37.6045"/>
<polyline fill="none" stroke="#000000" stroke-width="5.0" points="54.5853,323.398 620.469,323.398"/>
<polyline fill="none" stroke="#000000" stroke-width="5.0" points="54.5853,328.412 54.5853,323.398"/>
<polyline fill="none" stroke="#000000" stroke-width="5.0" points="195.806,328.412 195.806,323.398"/>
<polyline fill="none" stroke="#000000" stroke-width="5.0" points="337.027,328.412 337.027,323.398"/>
<polyline fill="none" stroke="#000000" stroke-width="5.0" points="478.247,328.412 478.247,323.398"/>
<polyline fill="none" stroke="#000000" stroke-width="5.0" points="620.469,328.412 620.469,323.398"/>
</g>
</svg>
