<?xml version="1.0" encoding="UTF-8" standalone="no"?>
<svg xmlns="http://www.w3.org/2000/svg" xmlns:xlink="http://www.w3.org/1999/xlink" width="640px" height="360px" viewBox="0 0 640 360">
<title>VTK GL2PS Export</title>
<desc>
Creator: GL2PS 1.3.8, (C) 1999-2012 C. Geuzaine
For: VTK
CreationDate: Mon Aug 17 19:28:03 2015
</desc>
<defs>
</defs>
<g shape-rendering="crispEdges">
<text fill="#000000" x="47.5743" y="323.398" font-size="30" text-anchor="end" baseline-shift="-15" font-family="Helvetica">0</text>
<text fill="#000000" x="47.5743" y="37.6045" font-size="30" text-anchor="end" baseline-shift="-15" font-family="Helvetica">0.8</text>
<text fill="#000000" x="54.5853" y="330.418" font-size="30" text-anchor="middle" baseline-shift="-30" font-family="Helvetica">0</text>
<text fill="#000000" x="195.806" y="330.418" font-size="30" text-anchor="middle" baseline-shift="-30" font-family="Helvetica">90</text>
<text fill="#000000" x="337.027" y="330.418" font-size="30" text-anchor="middle" baseline-shift="-30" font-family="Helvetica">180</text>
<text fill="#000000" x="478.247" y="330.418" font-size="30" text-anchor="middle" baseline-shift="-30" font-family="Helvetica">270</text>
<text fill="#000000" x="620.469" y="330.418" font-size="30" text-anchor="middle" baseline-shift="-30" font-family="Helvetica">360</text>
<polyline fill="none" stroke="#000000" stroke-width="5.0" points="56.1572,323.451 59.301,323.447 62.4448,323.481 65.5886,323.452 68.7324,323.463 71.8762,323.311 75.02,323.345 78.1638,323.476 81.3076,323.438 84.4514,323.471 87.5952,323.532 90.739,323.56 93.8828,323.618 97.0266,323.568 100.17,323.625 103.314,323.509 106.458,323.48 109.602,323.523 112.746,323.675 115.889,323.019 119.033,323.202 122.177,323.407 125.321,323.611 128.465,323.775 131.608,323.796 134.752,323.979 137.896,324.131 141.04,323.942 144.184,323.563 147.327,323.132 150.471,323.111 153.615,323.064 156.759,322.729 159.903,322.975 163.046,323.421 166.19,321.489 169.334,322.673 172.478,322.738 175.622,323.863 178.765,323.916 181.909,323.707 185.053,323.577 188.197,323.459 191.341,322.393 194.484,323.506 197.628,323.482 200.772,323.48 203.916,323.43 207.06,323.232 210.203,322.047 213.347,320.666 216.491,319.036 219.635,318.627 222.779,321.625 225.922,323.031 229.066,324.098 232.21,323.835 235.354,319.65 238.498,319.622 241.641,323.727 244.785,323.405 247.929,323.341 251.073,322.945 254.217,322.645 257.36,322.265 260.504,322.166 263.648,322.492 266.792,324.09 269.936,324.092 273.079,323.328 276.223,323.742 279.367,323.848 282.511,322.05 285.655,322.571 288.798,322.976 291.942,323.456 295.086,323.295 298.23,323.106 301.374,323.291 304.517,323.397 307.661,322.135 310.805,317.171 313.949,297.882 317.093,254.487 320.236,191.188 323.38,133.963 326.524,90.8921 329.668,66.629 332.812,53.2509 335.955,47.1765 339.099,47.3083 342.243,51.7767 345.387,64.3572 348.531,86.8298 351.674,130.323 354.818,188.405 357.962,252.578 361.106,297.076 364.25,315.932 367.393,322.432 370.537,323.422 373.681,323.545 376.825,323.444 379.969,323.454 383.112,323.446 386.256,323.418 389.4,323.541 392.544,323.629 395.688,323.453 398.831,323.332 401.975,323.597 405.119,323.695 408.263,323.714 411.407,323.378 414.55,322.485 417.694,320.545 420.838,319.158 423.982,321.571 427.126,323.404 430.27,323.439 433.413,322.799 436.557,322.262 439.701,322.23 442.845,321.166 445.988,321.012 449.132,320.934 452.276,320.819 455.42,320.971 458.564,320.383 461.707,320.903 464.851,321.716 467.995,322.185 471.139,322.57 474.283,322.607 477.427,321.462 480.57,321.088 483.714,320.652 486.858,320.242 490.002,320.478 493.146,321.57 496.289,322.494 499.433,323.391 502.577,322.97 505.721,322.983 508.865,318.499 512.008,321.188 515.152,323.704 518.296,323.566 521.44,323.627 524.583,322.866 527.727,323.664 530.871,323.558 534.015,323.609 537.159,323.686 540.303,323.833 543.446,323.618 546.59,323.718 549.734,323.765 552.878,323.227 556.022,324.17 559.165,323.708 562.309,318.638 565.453,323.81 568.597,323.427 571.741,321.861 574.884,323.441 578.028,323.399 581.172,323.291 584.316,322.066 587.46,322.066 590.603,322.066 593.747,322.066 596.891,322.066 600.035,322.066 603.179,322.066 606.322,322.066 609.466,322.066 612.61,322.066 615.754,322.066 618.898,323.443"/>
<polyline fill="none" stroke="#000000" stroke-width="5.0" points="54.5853,323.398 54.5853,19.5543"/>
<polyline fill="none" stroke="#000000" stroke-width="5.0" points="49.5775,323.398 54.5853,323.398"/>
<polyline fill="none" stroke="#000000" stroke-width="5.0" points="49.5775,37.6045 54.5853,37.6045"/>
<polyline fill="none" stroke="#000000" stroke-width="5.0" points="54.5853,323.398 620.469,323.398"/>
<polyline fill="none" stroke="#000000" stroke-width="5.0" points="54.5853,328.412 54.5853,323.398"/>
<polyline fill="none" stroke="#000000" stroke-width="5.0" points="195.806,328.412 195.806,323.398"/>
<polyline fill="none" stroke="#000000" stroke-width="5.0" points="337.027,328.412 337.027,323.398"/>
<polyline fill="none" stroke="#000000" stroke-width="5.0" points="478.247,328.412 478.247,323.398"/>
<polyline fill="none" stroke="#000000" stroke-width="5.0" points="620.469,328.412 620.469,323.398"/>
</g>
</svg>
