<?xml version="1.0" encoding="UTF-8" standalone="no"?>
<svg xmlns:dc="http://purl.org/dc/elements/1.1/" xmlns:cc="http://creativecommons.org/ns#" xmlns:rdf="http://www.w3.org/1999/02/22-rdf-syntax-ns#" xmlns:svg="http://www.w3.org/2000/svg" xmlns="http://www.w3.org/2000/svg" version="1.1" id="svg2" viewbox="0 0 1296 998" height="750.32239" width="668.74292">
  <metadata id="metadata62">
    <rdf:RDF>
      <cc:Work rdf:about="">
        <dc:format>image/svg+xml</dc:format>
        <dc:type rdf:resource="http://purl.org/dc/dcmitype/StillImage"/>
        <dc:title>VTK GL2PS Export</dc:title>
      </cc:Work>
    </rdf:RDF>
  </metadata>
  <title id="title4">VTK GL2PS Export</title>
  <desc id="desc6">
Creator: GL2PS 1.3.8, (C) 1999-2012 C. Geuzaine
For: VTK
CreationDate: Sun Aug 16 14:48:22 2015
</desc>
  <defs id="defs8"/>
  <g transform="translate(-313.62191,-123.84105)" style="shape-rendering:crispEdges" id="g10">
    <polyline style="fill:none;stroke:#ff0000;stroke-width:5" id="polyline12" points="978.135,507.095 979.256,497.079 979.686,487.014 979.837,476.966 979.514,466.762 978.514,456.575 978.868,446.43 977.864,436.128 976.615,425.825 975.715,415.424 975.084,404.876 973.443,394.336 972.179,383.702 970.881,372.302 969.712,361.483 968.473,350.312 966.714,338.459 965.774,326.465 963.413,314.267 962.203,301.778 960.883,288.613 958.556,275.242 956.225,261.84 953.297,248.1 950.418,233.746 946.626,220.27 942.009,206.572 936.537,193.366 929.686,180.18 922.012,168.567 913.155,157.344 903.648,147.939 892.042,140.332 880.132,134.13 867.021,128.885 852.992,126.756 838.74,126.637 823.37,127.358 808.196,131.01 792.858,136.263 777.654,143.565 762.544,152.76 748.099,162.844 734.097,173.379 721.097,185.117 708.885,195.757 697.687,206.499 687.339,214.804 677.677,222.335 668.595,226.828 659.737,228.067 650.844,225.862 641.618,221.86 631.781,214.501 621.321,205.537 609.823,195.828 597.694,185.767 584.678,175.465 571.099,166.237 557.178,158.059 542.633,152.428 528.43,146.766 513.887,143.933 500.041,143.286 486.243,143.586 473.374,146.725 461.374,151.489 450.428,157.539 440.518,165.75 430.91,175.772 423.361,185.539 416.45,197.59 410.415,210.029 405.344,222.658 401.243,236.111 397.793,248.957 394.812,262.753 392.413,275.008 389.786,287.826 387.427,299.751 385.43,311.414 383.143,322.667 380.689,333.385 377.833,344.482 376.074,354.497 372.67,364.766 370.836,374.545 367.659,384.607 364.378,394.386 362.55,403.948 359.409,413.643 357.342,423.197 354.946,432.828 351.539,442.438 347.063,451.884 342.249,461.284 334.136,470.755 327.758,480.602 320.391,490.9 316.145,501.631 316.672,512.551 320.369,523.282 326.758,533.578 335.221,543.312 342.05,552.864 347.305,562.321 351.384,571.726 354.215,581.281 356.989,590.959 359.706,600.606 361.837,610.109 365.183,620.019 367.591,629.739 369.602,639.592 372.899,649.59 375.042,659.821 377.511,670.27 380.538,680.898 382.657,691.565 384.865,703.279 387.458,714.84 389.138,726.755 392.048,739.282 394.701,752.248 397.416,765.658 401.212,778.283 404.892,791.632 410.106,804.35 416.239,816.97 423.16,827.934 430.948,838.938 440.295,848.916 450.294,856.392 461.41,862.889 473.457,868.096 486.296,870.563 499.776,871.657 513.979,870.753 528.151,867.846 542.667,862.869 556.982,856.378 570.994,848.322 584.533,838.875 597.656,828.708 609.88,818.728 621.267,808.316 631.873,800.048 641.613,792.899 650.873,788.523 659.741,785.326 668.54,785.999 677.556,789.962 687.058,795.807 697.307,804.742 708.173,813.494 720.204,824.048 732.689,834.292 746.22,844.074 759.986,852.299 774.422,860.069 788.489,865.856 802.939,868.858 816.989,870.937 830.911,871.054 844.044,869.421 856.569,865.417 867.902,859.84 878.533,852.605 888.347,843.976 897,833.612 904.682,823.063 910.902,810.76 916.418,798.113 921.311,785.046 924.594,772.14 928.097,759.167 931.601,745.915 933.396,733.01 935.773,721.021 938.32,709.155 940.481,697.891 942.61,686.43 945.342,675.56 946.859,665.25 949.815,654.856 952.819,644.428 955.261,634.552 958.494,625.079 961.207,615.41 963.191,605.615 965.696,595.829 968.173,586.206 970.696,576.235 972.771,566.498 974.271,556.748 974.93,546.862 976.524,536.989 977.808,527.043 979.111,517.095 978.135,507.095"/>
    <polyline style="fill:none;stroke:#00ff00;stroke-width:5" id="polyline14" points="979.664,507.095 979.093,497.062 979.817,486.999 979.802,476.828 979.294,466.717 979.855,456.563 978.407,446.45 978.347,436.193 976.623,425.69 975.585,415.295 974.757,404.98 974.135,394.314 972.849,383.4 971.194,372.759 969.732,361.569 968.121,350.121 966.639,338.639 965.122,326.689 963.451,314.431 962.079,301.922 960.413,289.137 957.8,275.488 955.849,262.316 953.472,248.18 950.318,234.334 946.388,220.463 941.906,206.459 936.323,192.833 929.719,180.573 922.113,168.581 913.324,157.298 903.022,147.485 892.553,139.941 880.002,134.054 867.24,129.316 852.943,126.343 838.696,126.451 823.635,127.564 808.107,131.141 792.89,136.53 777.317,143.585 762.594,152.105 748.056,162.889 734.021,172.915 721.015,185.009 708.959,196.612 697.661,206.684 687.333,215.539 677.681,222.241 668.584,225.949 659.73,227.036 650.845,225.357 641.61,221.247 631.798,214.497 621.255,205.58 609.858,196.086 597.742,186.024 584.757,176.168 571.019,166.596 557.055,158.332 542.693,151.655 528.291,147.404 514.071,144.241 500.132,142.71 486.577,143.733 473.387,147.11 461.384,151.631 450.231,157.801 440.292,165.815 431.012,175.046 423.243,185.882 416.083,197.681 410.201,209.424 405.305,222.535 401.003,235.692 397.434,248.895 394.646,261.985 392.021,274.767 389.759,287.429 387.153,299.391 384.792,311.068 382.849,322.35 380.606,333.45 378.247,344.242 375.392,354.822 372.771,364.739 370.134,374.745 367.243,384.587 364.446,394.366 362.271,404.005 360.028,413.66 357.614,423.398 355.425,433.216 353.067,442.728 351.503,452.646 350.408,462.591 349.562,472.399 347.958,482.325 347.955,492.197 346.827,502.123 346.603,512.057 347.537,522.002 348.371,531.921 348.81,541.822 350.059,551.682 351.892,561.487 352.715,571.358 355.111,581.155 357.387,590.87 359.447,600.597 362.127,610.307 364.717,620.062 367.735,629.711 369.965,639.598 372.391,649.345 375.021,659.923 377.44,670.272 380.214,680.652 382.532,691.76 384.561,703.383 387.186,714.801 388.827,726.938 391.353,739.936 394.578,752.682 397.397,765.52 401.016,778.548 404.943,791.339 409.943,804.706 416.133,816.582 423.133,828.2 431.429,838.799 440.46,848.423 450.236,855.725 461.81,862.404 473.971,867.147 486.635,870.053 500.415,870.359 514.303,869.843 528.341,866.542 542.988,861.531 557.225,855.15 571.287,847.098 584.902,837.389 597.753,827.626 610.02,817.507 621.354,808.233 631.905,798.969 641.618,791.741 650.851,787.516 659.739,785.243 668.537,786.067 677.543,789.331 687.034,795.21 697.152,803.204 708.058,812.117 719.795,822.786 732.233,832.122 745.461,842.217 759.354,850.539 773.709,858.234 788.104,864.527 802.487,868.309 816.785,870.099 830.788,870.666 843.81,868.605 856.432,865.607 867.659,859.815 878.819,852.271 888.397,843.628 896.428,834.175 904.513,822.963 910.985,810.814 916.192,798.204 920.833,785.302 924.796,772.293 927.942,758.956 930.598,745.706 933.445,732.916 935.149,720.883 937.972,708.99 940.161,697.341 942.609,685.96 944.387,675.361 947.259,664.601 950.273,654.646 952.422,644.591 955.302,634.602 958.05,624.84 960.679,615.514 963.195,605.456 965.594,595.928 968.183,586.098 970.565,576.179 972.525,566.551 973.678,556.737 975.586,546.813 976.673,536.977 977.79,527.037 978.172,517.09 979.664,507.095"/>
  </g>
</svg>
