<?xml version="1.0" encoding="UTF-8" standalone="no"?>
<svg
   xmlns:dc="http://purl.org/dc/elements/1.1/"
   xmlns:cc="http://creativecommons.org/ns#"
   xmlns:rdf="http://www.w3.org/1999/02/22-rdf-syntax-ns#"
   xmlns:svg="http://www.w3.org/2000/svg"
   xmlns="http://www.w3.org/2000/svg"
   xmlns:sodipodi="http://sodipodi.sourceforge.net/DTD/sodipodi-0.dtd"
   xmlns:inkscape="http://www.inkscape.org/namespaces/inkscape"
   width="270.21625"
   height="409.94049"
   viewBox="0 0 270.21625 409.9405"
   id="svg2"
   version="1.1"
   inkscape:version="0.91 r13725"
   sodipodi:docname="example2.svg">
  <metadata
     id="metadata64">
    <rdf:RDF>
      <cc:Work
         rdf:about="">
        <dc:format>image/svg+xml</dc:format>
        <dc:type
           rdf:resource="http://purl.org/dc/dcmitype/StillImage" />
        <dc:title>VTK GL2PS Export</dc:title>
      </cc:Work>
    </rdf:RDF>
  </metadata>
  <sodipodi:namedview
     pagecolor="#ffffff"
     bordercolor="#666666"
     borderopacity="1"
     objecttolerance="10"
     gridtolerance="10"
     guidetolerance="10"
     inkscape:pageopacity="0"
     inkscape:pageshadow="2"
     inkscape:window-width="1920"
     inkscape:window-height="1016"
     id="namedview62"
     showgrid="false"
     fit-margin-top="0"
     fit-margin-left="0"
     fit-margin-right="0"
     fit-margin-bottom="0"
     inkscape:zoom="0.94092827"
     inkscape:cx="-94.704623"
     inkscape:cy="181.6202"
     inkscape:window-x="0"
     inkscape:window-y="32"
     inkscape:window-maximized="1"
     inkscape:current-layer="g10" />
  <title
     id="title4">VTK GL2PS Export</title>
  <desc
     id="desc6">
Creator: GL2PS 1.3.8, (C) 1999-2012 C. Geuzaine
For: VTK
CreationDate: Sun Aug 23 19:47:28 2015
</desc>
  <defs
     id="defs8" />
  <g
     id="g10"
     style="shape-rendering:crispEdges"
     transform="translate(-338.84985,-37.026806)">
    <polyline
       points="603.846,241.519 604.882,238.442 605.616,231.961 606.087,223.997 605.05,217.477 603.993,211.842 605.271,207.44 605.291,206.555 604.798,202.114 603.676,199.431 602.292,195.266 602.37,191.724 603.321,188.791 602.205,185.813 601.089,182.835 601.168,179.293 600.938,176.334 599.54,172.759 600.241,167.754 598.811,165.655 597.786,158.545 598.744,155.317 599.438,150.607 598.965,145.28 599.076,140.262 599.226,133.473 598.11,130.495 598.812,125.49 599.007,116.634 598.745,115.151 598.226,111.891 597.425,108.034 597.477,105.672 597.864,101.546 598.296,95.3537 598.734,88.866 598.773,87.0948 598.504,85.9075 597.973,83.2378 598.661,78.8229 598.489,73.2077 598.377,64.9358 597.923,58.7237 597.398,55.7588 596.282,52.7807 594.878,49.501 592.004,45.8935 588.514,43.4538 583.535,41.5718 580.321,40.0241 571.471,39.5334 566.44,40.0129 560.792,41.6603 555.112,44.7835 550.619,47.6377 544.932,51.0562 540.124,54.7894 537.697,57.6891 532.555,63.187 530.174,64.0204 524.795,66.8551 520.86,71.1982 516.078,73.7507 509.545,75.3784 501.516,77.8592 492.89,80.6221 486.324,83.7258 480.644,86.8491 472.589,90.5106 467.532,92.171 461.563,94.9925 455.96,94.5735 450.68,92.9802 446.317,89.9305 441.679,85.9886 437.047,81.7516 431.267,76.0126 427.238,71.1983 423.21,66.3839 420.054,62.1795 415.133,57.6408 409.911,53.3908 401.16,48.4721 395.019,45.6785 390.9,44.9969 385.285,45.1682 380.234,46.5334 376.337,49.1054 373.281,53.7633 370.841,57.2535 368.677,61.6357 366.808,66.0245 362.454,75.9698 359.923,83.5927 357.418,90.0348 354.835,100.019 352.33,106.461 350.153,111.434 348.842,117.312 348.134,122.612 348.601,128.234 346.975,134.991 345.939,141.761 345.179,149.423 344.977,158.574 344.84,164.773 344.067,173.025 344.443,182.779 345.382,193.728 347.935,198.509 349.595,203.567 352.082,211.301 353.736,216.653 354.55,219.92 354.774,223.173 354.125,225.817 352.57,229.327 351.626,231.964 349.416,238.413 349.102,239.292 348.472,241.05 346.898,245.445 345.029,249.834 343.738,254.826 342.748,259.53 342.092,262.469 341.443,265.112 341.995,266.896 343.117,269.579 345.407,272.879 347.979,276.775 349.357,281.235 350.683,288.057 351.175,292.498 351.353,297.818 351.8,304.325 352.28,309.357 351.874,314.369 351.39,322.923 351.233,330.007 351.188,332.074 350.506,336.193 350.041,343.862 349.353,348.277 348.029,354.745 346.403,361.502 345.085,367.675 344.089,372.673 343.703,376.8 343.014,381.214 343.841,383.891 345.219,388.351 345.732,391.907 345.017,397.502 344.323,402.212 344.867,404.292 347.131,408.772 349.703,412.668 352.282,416.269 354.88,418.984 358.941,422.323 362.142,424.461 365.96,425.431 372.422,427.05 378.588,428.663 388.599,430.066 395.087,430.504 402.158,431.251 407.485,430.778 412.555,428.527 425.327,425.265 431.88,422.752 437.245,420.508 442.565,420.33 448.508,418.689 453.546,417.914 459.758,417.461 466.823,418.503 475.332,421.053 486.766,424.85 491.456,426.43 499.362,429.558 507.568,432.397 514.562,436.686 519.534,438.864 524.52,440.45 532.451,442.398 540.697,443.466 550.432,443.976 559.281,444.467 570.505,444.419 579.098,443.132 585.92,441.806 592.184,438.991 596.704,434.956 600.344,430.607 602.816,425.64 604.763,417.709 605.156,413.288 606.48,406.82 606.374,398.253 606.17,394.113 606.557,389.987 606.097,384.07 605.315,379.328 602.743,375.431 600.742,372.434 598.144,369.719 596.162,365.835 593.046,359.86 591.635,356.875 590.802,354.494 589.719,350.04 589.285,342.943 588.471,339.676 586.363,328.111 585.523,326.025 585.254,324.838 584.44,321.571 583.915,318.606 583.147,313.273 583.264,307.96 583.362,303.532 584.897,300.908 585.611,295.312 585.118,290.871 584.888,287.913 584.914,286.732 584.94,285.551 585.301,282.606 585.681,278.775 587.255,274.38 591.229,268.265 591.839,267.393 592.783,264.755 593.766,260.347 595.045,255.945 597.177,253.039 601.131,247.81 603.846,241.519"
       id="polyline12"
       style="fill:none;stroke:#000000;stroke-width:5;stroke-miterlimit:4;stroke-dasharray:none" />
    <polyline
       points="461.681,94.9363 591.126,439.467"
       id="polyline14"
       style="fill:none;stroke:#ff0000;stroke-width:3;stroke-miterlimit:4;stroke-dasharray:none" />
  </g>
</svg>
