<?xml version="1.0" encoding="UTF-8" standalone="no"?>
<svg xmlns="http://www.w3.org/2000/svg" xmlns:xlink="http://www.w3.org/1999/xlink" width="640px" height="360px" viewBox="0 0 640 360">
<title>VTK GL2PS Export</title>
<desc>
Creator: GL2PS 1.3.8, (C) 1999-2012 C. Geuzaine
For: VTK
CreationDate: Mon Aug 17 19:30:27 2015
</desc>
<defs>
</defs>
<g shape-rendering="crispEdges">
<text fill="#000000" x="47.5743" y="323.398" font-size="30" text-anchor="end" baseline-shift="-15" font-family="Helvetica">0</text>
<text fill="#000000" x="47.5743" y="45.6268" font-size="30" text-anchor="end" baseline-shift="-15" font-family="Helvetica">0.3</text>
<text fill="#000000" x="54.5853" y="330.418" font-size="30" text-anchor="middle" baseline-shift="-30" font-family="Helvetica">0</text>
<text fill="#000000" x="195.806" y="330.418" font-size="30" text-anchor="middle" baseline-shift="-30" font-family="Helvetica">90</text>
<text fill="#000000" x="337.027" y="330.418" font-size="30" text-anchor="middle" baseline-shift="-30" font-family="Helvetica">180</text>
<text fill="#000000" x="478.247" y="330.418" font-size="30" text-anchor="middle" baseline-shift="-30" font-family="Helvetica">270</text>
<text fill="#000000" x="620.469" y="330.418" font-size="30" text-anchor="middle" baseline-shift="-30" font-family="Helvetica">360</text>
<polyline fill="none" stroke="#000000" stroke-width="5.0" points="56.1572,251.88 59.301,241.743 62.4448,263.265 65.5886,267.557 68.7324,272.799 71.8762,282.027 75.02,289.838 78.1638,291.958 81.3076,296.683 84.4514,300.198 87.5952,306.307 90.739,306.247 93.8828,298.762 97.0266,287.596 100.17,287.548 103.314,292.748 106.458,295.304 109.602,292.891 112.746,294.444 115.889,289.966 119.033,291.881 122.177,313.274 125.321,315.656 128.465,314.404 131.608,314.862 134.752,313.254 137.896,303.957 141.04,278.656 144.184,250.789 147.327,239.714 150.471,239.342 153.615,249.681 156.759,257.333 159.903,271.3 163.046,269.454 166.19,253.424 169.334,243.478 172.478,223.479 175.622,203.932 178.765,198.379 181.909,198.816 185.053,198.353 188.197,199.659 191.341,202.921 194.484,209.825 197.628,222.642 200.772,244.345 203.916,260.278 207.06,265.597 210.203,274.473 213.347,278.279 216.491,268.541 219.635,252.877 222.779,229.438 225.922,189.566 229.066,153.355 232.21,123.494 235.354,100.684 238.498,75.1678 241.641,58.6879 244.785,49.476 247.929,47.1777 251.073,51.8916 254.217,74.4352 257.36,128.723 260.504,156.205 263.648,186.834 266.792,211.103 269.936,228.437 273.079,242.827 276.223,254.856 279.367,274.086 282.511,282.276 285.655,285.451 288.798,278.213 291.942,281.24 295.086,288.953 298.23,294.804 301.374,287.9 304.517,290.373 307.661,278.75 310.805,277.892 313.949,288.776 317.093,306.979 320.236,313.847 323.38,320.014 326.524,318.596 329.668,311.658 332.812,292.914 335.955,263.669 339.099,245.886 342.243,221.213 345.387,194.407 348.531,178.229 351.674,173.751 354.818,170.909 357.962,166.611 361.106,156.191 364.25,164.025 367.393,177.846 370.537,192.28 373.681,203.645 376.825,224.024 379.969,247.124 383.112,266.674 386.256,280.957 389.4,289.699 392.544,283.457 395.688,277.566 398.831,281.049 401.975,273.937 405.119,274.933 408.263,270.524 411.407,275.804 414.55,300.531 417.694,313.88 420.838,316.039 423.982,307.736 427.126,296.724 430.27,291.1 433.413,282.614 436.557,272.86 439.701,284.873 442.845,290.706 445.988,304.14 449.132,308.441 452.276,314.19 455.42,316.717 458.564,316.097 461.707,315.596 464.851,314.07 467.995,315.48 471.139,315.562 474.283,313.313 477.427,311.527 480.57,312.71 483.714,312.846 486.858,314.455 490.002,312.548 493.146,311.005 496.289,311.604 499.433,312.664 502.577,314.914 505.721,319.829 508.865,315.238 512.008,299.467 515.152,301.712 518.296,295.757 521.44,298.684 524.583,306.226 527.727,305.584 530.871,302.681 534.015,301.119 537.159,284.207 540.303,284.491 543.446,305.604 546.59,300.816 549.734,306.752 552.878,317.181 556.022,318.183 559.165,316.642 562.309,314.501 565.453,316.917 568.597,305.669 571.741,321.036 574.884,307.734 578.028,287.267 581.172,280.281 584.316,281.024 587.46,280.81 590.603,287.75 593.747,287.751 596.891,287.751 600.035,287.75 603.179,287.751 606.322,287.751 609.466,308.022 612.61,265.281 615.754,283.98 618.898,278.235"/>
<polyline fill="none" stroke="#000000" stroke-width="5.0" points="54.5853,323.398 54.5853,19.5543"/>
<polyline fill="none" stroke="#000000" stroke-width="5.0" points="49.5775,323.398 54.5853,323.398"/>
<polyline fill="none" stroke="#000000" stroke-width="5.0" points="49.5775,45.6268 54.5853,45.6268"/>
<polyline fill="none" stroke="#000000" stroke-width="5.0" points="54.5853,323.398 620.469,323.398"/>
<polyline fill="none" stroke="#000000" stroke-width="5.0" points="54.5853,328.412 54.5853,323.398"/>
<polyline fill="none" stroke="#000000" stroke-width="5.0" points="195.806,328.412 195.806,323.398"/>
<polyline fill="none" stroke="#000000" stroke-width="5.0" points="337.027,328.412 337.027,323.398"/>
<polyline fill="none" stroke="#000000" stroke-width="5.0" points="478.247,328.412 478.247,323.398"/>
<polyline fill="none" stroke="#000000" stroke-width="5.0" points="620.469,328.412 620.469,323.398"/>
</g>
</svg>
