<?xml version="1.0" encoding="UTF-8" standalone="no"?>
<svg xmlns="http://www.w3.org/2000/svg" xmlns:xlink="http://www.w3.org/1999/xlink" width="640px" height="360px" viewBox="0 0 640 360">
<title>VTK GL2PS Export</title>
<desc>
Creator: GL2PS 1.3.8, (C) 1999-2012 C. Geuzaine
For: VTK
CreationDate: Thu Aug 20 18:46:58 2015
</desc>
<defs>
</defs>
<g shape-rendering="crispEdges">
<text fill="#000000" x="47.5743" y="323.398" font-size="30" text-anchor="end" baseline-shift="-15" font-family="Helvetica">0</text>
<text fill="#000000" x="47.5743" y="47.6323" font-size="30" text-anchor="end" baseline-shift="-15" font-family="Helvetica">0.3</text>
<text fill="#000000" x="54.5853" y="330.418" font-size="30" text-anchor="middle" baseline-shift="-30" font-family="Helvetica">0</text>
<text fill="#000000" x="195.806" y="330.418" font-size="30" text-anchor="middle" baseline-shift="-30" font-family="Helvetica">90</text>
<text fill="#000000" x="337.027" y="330.418" font-size="30" text-anchor="middle" baseline-shift="-30" font-family="Helvetica">180</text>
<text fill="#000000" x="478.247" y="330.418" font-size="30" text-anchor="middle" baseline-shift="-30" font-family="Helvetica">270</text>
<text fill="#000000" x="620.469" y="330.418" font-size="30" text-anchor="middle" baseline-shift="-30" font-family="Helvetica">360</text>
<polyline fill="none" stroke="#000000" stroke-width="5.0" points="56.1572,264.117 59.301,283.854 62.4448,280.911 65.5886,277.152 68.7324,274.863 71.8762,279.91 75.02,283.551 78.1638,288.224 81.3076,292.884 84.4514,296.769 87.5952,302.015 90.739,304.696 93.8828,306.599 97.0266,306.944 100.17,306.252 103.314,305.044 106.458,304.491 109.602,303.521 112.746,303.604 115.889,304.229 119.033,308.157 122.177,313.833 125.321,318.151 128.465,319.249 131.608,318.803 134.752,319.194 137.896,314.411 141.04,289.788 144.184,259.627 147.327,251.329 150.471,243.372 153.615,249.035 156.759,257.611 159.903,273.781 163.046,281.195 166.19,262.182 169.334,234.739 172.478,204.891 175.622,182.652 178.765,179.244 181.909,181.416 185.053,183.595 188.197,193.542 191.341,203.86 194.484,215.045 197.628,231.944 200.772,256.948 203.916,277.713 207.06,289.594 210.203,292.036 213.347,288.942 216.491,281.27 219.635,268.881 222.779,244.011 225.922,198.336 229.066,151.552 232.21,118.407 235.354,102.936 238.498,75.8382 241.641,55.1377 244.785,47.6757 247.929,45.2349 251.073,53.2563 254.217,76.4636 257.36,112.754 260.504,151.118 263.648,175.005 266.792,199.256 269.936,221.699 273.079,239.069 276.223,253.313 279.367,268.655 282.511,282.442 285.655,291.592 288.798,294.901 291.942,297.382 295.086,300.169 298.23,305.211 301.374,301.849 304.517,301.665 307.661,300.508 310.805,301.653 313.949,304.07 317.093,307.875 320.236,312.052 323.38,313.457 326.524,309.114 329.668,297.167 332.812,280.584 335.955,257.376 339.099,235.418 342.243,215.344 345.387,197.474 348.531,188.266 351.674,178.753 354.818,171.857 357.962,168.418 361.106,170.43 364.25,177.317 367.393,181.463 370.537,192.911 373.681,205.766 376.825,221.496 379.969,243.554 383.112,264.449 386.256,279.269 389.4,287.593 392.544,287.754 395.688,284.333 398.831,283.779 401.975,282.227 405.119,278.24 408.263,274.068 411.407,283.567 414.55,299.905 417.694,314.014 420.838,313.77 423.982,302.448 427.126,295.908 430.27,289.459 433.413,287.734 436.557,286.487 439.701,289.472 442.845,297.179 445.988,306.954 449.132,314.18 452.276,318.046 455.42,320.93 458.564,321.333 461.707,320.198 464.851,318.544 467.995,317.013 471.139,316.175 474.283,315.558 477.427,315.654 480.57,316.172 483.714,316.414 486.858,315.394 490.002,313.474 493.146,312.89 496.289,313.541 499.433,313.863 502.577,316.682 505.721,313.486 508.865,307.801 512.008,292.178 515.152,297.457 518.296,302.716 521.44,299.574 524.583,297.387 527.727,297.959 530.871,293.921 534.015,288.52 537.159,275.273 540.303,290.741 543.446,312.016 546.59,317.67 549.734,316.217 552.878,317.044 556.022,314.928 559.165,310.771 562.309,310.743 565.453,310.657 568.597,312.178 571.741,314.006 574.884,320.181 578.028,298.928 581.172,293.872 584.316,290.017 587.46,286.901 590.603,292.646 593.747,292.646 596.891,292.647 600.035,292.647 603.179,292.646 606.322,292.647 609.466,292.646 612.61,315.376 615.754,283.322 618.898,301.397"/>
<polyline fill="none" stroke="#000000" stroke-width="5.0" points="54.5853,323.398 54.5853,19.5543"/>
<polyline fill="none" stroke="#000000" stroke-width="5.0" points="49.5775,323.398 54.5853,323.398"/>
<polyline fill="none" stroke="#000000" stroke-width="5.0" points="49.5775,47.6323 54.5853,47.6323"/>
<polyline fill="none" stroke="#000000" stroke-width="5.0" points="54.5853,323.398 620.469,323.398"/>
<polyline fill="none" stroke="#000000" stroke-width="5.0" points="54.5853,328.412 54.5853,323.398"/>
<polyline fill="none" stroke="#000000" stroke-width="5.0" points="195.806,328.412 195.806,323.398"/>
<polyline fill="none" stroke="#000000" stroke-width="5.0" points="337.027,328.412 337.027,323.398"/>
<polyline fill="none" stroke="#000000" stroke-width="5.0" points="478.247,328.412 478.247,323.398"/>
<polyline fill="none" stroke="#000000" stroke-width="5.0" points="620.469,328.412 620.469,323.398"/>
</g>
</svg>
