<?xml version="1.0" encoding="UTF-8" standalone="no"?>
<svg xmlns="http://www.w3.org/2000/svg" xmlns:xlink="http://www.w3.org/1999/xlink" width="640px" height="360px" viewBox="0 0 640 360">
<title>VTK GL2PS Export</title>
<desc>
Creator: GL2PS 1.3.8, (C) 1999-2012 C. Geuzaine
For: VTK
CreationDate: Thu Aug 20 18:46:59 2015
</desc>
<defs>
</defs>
<g shape-rendering="crispEdges">
<text fill="#000000" x="64.6009" y="323.398" font-size="30" text-anchor="end" baseline-shift="-15" font-family="Helvetica">0.03</text>
<text fill="#000000" x="64.6009" y="27.5766" font-size="30" text-anchor="end" baseline-shift="-15" font-family="Helvetica">3.6</text>
<text fill="#000000" x="71.6119" y="330.418" font-size="30" text-anchor="middle" baseline-shift="-30" font-family="Helvetica">0</text>
<text fill="#000000" x="208.826" y="330.418" font-size="30" text-anchor="middle" baseline-shift="-30" font-family="Helvetica">90</text>
<text fill="#000000" x="346.041" y="330.418" font-size="30" text-anchor="middle" baseline-shift="-30" font-family="Helvetica">180</text>
<text fill="#000000" x="483.255" y="330.418" font-size="30" text-anchor="middle" baseline-shift="-30" font-family="Helvetica">270</text>
<text fill="#000000" x="620.469" y="330.418" font-size="30" text-anchor="middle" baseline-shift="-30" font-family="Helvetica">360</text>
<polyline fill="none" stroke="#000000" stroke-width="5.0" points="73.1365,193.481 76.1857,198.42 79.2349,166.882 82.2841,166.53 85.3333,160.228 88.3825,165.721 91.4317,169.382 94.481,174.999 97.5302,181.239 100.579,186.456 103.629,198.5 106.678,208.1 109.727,219.941 112.776,229.585 115.825,238.103 118.875,245.755 121.924,254.223 124.973,258.048 128.022,259.75 131.071,256.506 134.121,261.013 137.17,280.206 140.219,295.149 143.268,294.515 146.318,285.986 149.367,292.623 152.416,261.994 155.465,196.533 158.514,162.076 161.564,165.72 164.613,166.325 167.662,175.178 170.711,184.395 173.76,210.504 176.81,228.374 179.859,188.792 182.908,151.294 185.957,123.834 189.006,113.474 192.056,111.312 195.105,109.926 198.154,101.617 201.203,97.3242 204.252,90.0862 207.302,88.3163 210.351,97.3018 213.4,122.388 216.449,155.719 219.499,191.402 222.548,217.054 225.597,223.181 228.646,214.548 231.695,195.051 234.745,159.524 237.794,105.961 240.843,61.8101 243.892,47.1121 246.941,47.8088 249.991,49.9686 253.04,56.7186 256.089,65.1033 259.138,70.6324 262.187,76.7704 265.237,87.1217 268.286,100.391 271.335,110.928 274.384,119.466 277.433,127.911 280.483,137.01 283.532,141.43 286.581,144.342 289.63,153.439 292.68,168.33 295.729,185.116 298.778,197.869 301.827,213.358 304.876,224.492 307.926,248.899 310.975,236.165 314.024,233.669 317.073,227.286 320.122,226.299 323.172,229.386 326.221,236.775 329.27,247.057 332.319,245.573 335.368,229.695 338.418,200.883 341.467,175.961 344.516,150.198 347.565,133.823 350.615,123.519 353.664,117.736 356.713,120.099 359.762,120.099 362.811,122.166 365.861,120.182 368.91,121.955 371.959,123.314 375.008,120.11 378.057,121.73 381.107,123.985 384.156,130.768 387.205,148.172 390.254,173.551 393.303,201.952 396.353,224.441 399.402,229.885 402.451,222.225 405.5,227.65 408.549,231.086 411.599,223.761 414.648,213.523 417.697,228.05 420.746,251.945 423.795,263.803 426.845,243.095 429.894,218.107 432.943,213.523 435.992,201.099 439.042,201.605 442.091,197.387 445.14,206.837 448.189,213.737 451.238,226.449 454.288,242.825 457.337,261.489 460.386,277.044 463.435,291.378 466.484,286.892 469.534,279.18 472.583,275.604 475.632,275.974 478.681,273.904 481.73,270.668 484.78,273.947 487.829,272.01 490.878,261.646 493.927,249.754 496.977,245.827 500.026,248.839 503.075,249.91 506.124,259.171 509.173,247.174 512.223,230.237 515.272,202.074 518.321,233.474 521.37,253.265 524.419,238.883 527.469,217.647 530.518,209.384 533.567,200.912 536.616,198.128 539.665,181.74 542.715,207.594 545.764,255.114 548.813,274.738 551.862,268.233 554.911,290.376 557.961,290.929 561.01,271.141 564.059,261.778 567.108,256.378 570.158,260.833 573.207,265.807 576.256,291.676 579.305,226.4 582.354,228.474 585.404,225.523 588.453,225.811 591.502,236.083 594.551,236.083 597.6,236.083 600.65,236.083 603.699,236.083 606.748,236.083 609.797,236.082 612.846,255.727 615.896,239.527 618.945,201.421"/>
<polyline fill="none" stroke="#000000" stroke-width="5.0" points="71.6119,323.398 71.6119,19.5543"/>
<polyline fill="none" stroke="#000000" stroke-width="5.0" points="66.6041,323.398 71.6119,323.398"/>
<polyline fill="none" stroke="#000000" stroke-width="5.0" points="66.6041,27.5766 71.6119,27.5766"/>
<polyline fill="none" stroke="#000000" stroke-width="5.0" points="71.6119,323.398 620.469,323.398"/>
<polyline fill="none" stroke="#000000" stroke-width="5.0" points="71.6119,328.412 71.6119,323.398"/>
<polyline fill="none" stroke="#000000" stroke-width="5.0" points="208.826,328.412 208.826,323.398"/>
<polyline fill="none" stroke="#000000" stroke-width="5.0" points="346.041,328.412 346.041,323.398"/>
<polyline fill="none" stroke="#000000" stroke-width="5.0" points="483.255,328.412 483.255,323.398"/>
<polyline fill="none" stroke="#000000" stroke-width="5.0" points="620.469,328.412 620.469,323.398"/>
</g>
</svg>
