<?xml version="1.0" encoding="UTF-8" standalone="no"?>
<svg xmlns="http://www.w3.org/2000/svg" xmlns:xlink="http://www.w3.org/1999/xlink" width="640px" height="360px" viewBox="0 0 640 360">
<title>VTK GL2PS Export</title>
<desc>
Creator: GL2PS 1.3.8, (C) 1999-2012 C. Geuzaine
For: VTK
CreationDate: Mon Aug 17 19:30:28 2015
</desc>
<defs>
</defs>
<g shape-rendering="crispEdges">
<text fill="#000000" x="149.734" y="323.398" font-size="30" text-anchor="end" baseline-shift="-15" font-family="Helvetica">0.0217007</text>
<text fill="#000000" x="149.734" y="24.5683" font-size="30" text-anchor="end" baseline-shift="-15" font-family="Helvetica">3.7</text>
<text fill="#000000" x="156.745" y="330.418" font-size="30" text-anchor="middle" baseline-shift="-30" font-family="Helvetica">0</text>
<text fill="#000000" x="271.925" y="330.418" font-size="30" text-anchor="middle" baseline-shift="-30" font-family="Helvetica">90</text>
<text fill="#000000" x="388.106" y="330.418" font-size="30" text-anchor="middle" baseline-shift="-30" font-family="Helvetica">180</text>
<text fill="#000000" x="504.288" y="330.418" font-size="30" text-anchor="middle" baseline-shift="-30" font-family="Helvetica">270</text>
<text fill="#000000" x="620.469" y="330.418" font-size="30" text-anchor="middle" baseline-shift="-30" font-family="Helvetica">360</text>
<polyline fill="none" stroke="#000000" stroke-width="5.0" points="158.033,185.333 160.609,157.262 163.186,145.687 165.762,157.026 168.338,160.698 170.914,172.14 173.491,184.562 176.067,185.009 178.643,191.448 181.219,175.745 183.796,204.235 186.372,213.725 188.948,204.88 191.524,190.352 194.1,190.644 196.677,207.998 199.253,222.936 201.829,221.818 204.405,225.505 206.982,219.309 209.558,216.767 212.134,264.055 214.71,270.868 217.287,255.8 219.863,251.429 222.439,246.549 225.015,220.712 227.592,175.091 230.168,158.564 232.744,162.839 235.32,175.919 237.897,187.245 240.473,196.933 243.049,218.882 245.625,212.95 248.202,181.377 250.778,171.22 253.354,152.328 255.93,136.781 258.507,131.448 261.083,130.227 263.659,126.099 266.235,119.998 268.812,110.029 271.388,102.247 273.964,100.972 276.54,114.416 279.117,136.671 281.693,153.834 284.269,189.3 286.845,211.782 289.422,207.781 291.998,186.755 294.574,153.597 297.15,107.425 299.727,72.0206 302.303,57.9563 304.879,47.337 307.455,54.343 310.032,63.2683 312.608,70.095 315.184,75.5768 317.76,81.2048 320.337,89.6503 322.913,107.259 325.489,112.8 328.065,127.359 330.642,138.392 333.218,144.904 335.794,146.04 338.37,148.516 340.947,166.382 343.523,166.575 346.099,168.27 348.675,153.542 351.252,164.676 353.828,192.448 356.404,199.492 358.98,181.358 361.557,186.824 364.133,161.441 366.709,161.654 369.285,172.553 371.862,190.346 374.438,202.553 377.014,217.794 379.59,222.484 382.167,200.624 384.743,180.01 387.319,154.742 389.895,141.41 392.472,128.803 395.048,118.997 397.624,118.856 400.2,121.984 402.777,123.905 405.353,121.42 407.929,110.218 410.505,113.53 413.082,120.437 415.658,125.472 418.234,124.038 420.81,130.815 423.387,148.102 425.963,175.54 428.539,198.193 431.115,233.221 433.691,222.513 436.268,215.464 438.844,236.55 441.42,225.993 443.996,230.879 446.573,218.191 449.149,213.907 451.725,255.778 454.301,250.287 456.878,248.754 459.454,227.315 462.03,215.882 464.606,212.095 467.183,199.362 469.759,184.976 472.335,200.584 474.911,204.019 477.488,221.231 480.064,236.477 482.64,252.548 485.216,266.496 487.793,267.409 490.369,280.89 492.945,275.324 495.521,281.916 498.098,280.273 500.674,272.718 503.25,271.811 505.826,272.833 508.403,273.033 510.979,261.343 513.555,236.401 516.131,232.004 518.708,234.588 521.284,248.514 523.86,258.744 526.436,272.583 529.013,264.484 531.589,232.931 534.165,251.596 536.741,231.056 539.318,242.933 541.894,255.402 544.47,228.363 547.046,221.16 549.623,227.196 552.199,199.47 554.775,212.939 557.351,236.713 559.928,198.52 562.504,221.216 565.08,276.822 567.656,293.967 570.233,295.615 572.809,279.015 575.385,280.726 577.961,258.106 580.538,282.653 583.114,233.206 585.69,203.605 588.266,207.042 590.843,209.974 593.419,213.226 595.995,224.83 598.571,224.83 601.148,224.83 603.724,224.83 606.3,224.83 608.876,224.83 611.453,238.186 614.029,164.463 616.605,180.655 619.181,220.235"/>
<polyline fill="none" stroke="#000000" stroke-width="5.0" points="156.745,323.398 156.745,19.5543"/>
<polyline fill="none" stroke="#000000" stroke-width="5.0" points="151.737,323.398 156.745,323.398"/>
<polyline fill="none" stroke="#000000" stroke-width="5.0" points="151.737,24.5683 156.745,24.5683"/>
<polyline fill="none" stroke="#000000" stroke-width="5.0" points="156.745,323.398 620.469,323.398"/>
<polyline fill="none" stroke="#000000" stroke-width="5.0" points="156.745,328.412 156.745,323.398"/>
<polyline fill="none" stroke="#000000" stroke-width="5.0" points="271.925,328.412 271.925,323.398"/>
<polyline fill="none" stroke="#000000" stroke-width="5.0" points="388.106,328.412 388.106,323.398"/>
<polyline fill="none" stroke="#000000" stroke-width="5.0" points="504.288,328.412 504.288,323.398"/>
<polyline fill="none" stroke="#000000" stroke-width="5.0" points="620.469,328.412 620.469,323.398"/>
</g>
</svg>
