<?xml version="1.0" encoding="UTF-8" standalone="no"?>
<svg xmlns="http://www.w3.org/2000/svg" xmlns:xlink="http://www.w3.org/1999/xlink" width="640px" height="360px" viewBox="0 0 640 360">
<title>VTK GL2PS Export</title>
<desc>
Creator: GL2PS 1.3.8, (C) 1999-2012 C. Geuzaine
For: VTK
CreationDate: Mon Aug 17 19:30:29 2015
</desc>
<defs>
</defs>
<g shape-rendering="crispEdges">
<text fill="#000000" x="132.707" y="323.398" font-size="30" text-anchor="end" baseline-shift="-15" font-family="Helvetica">0.392982</text>
<text fill="#000000" x="132.707" y="73.7047" font-size="30" text-anchor="end" baseline-shift="-15" font-family="Helvetica">0.8</text>
<text fill="#000000" x="139.718" y="330.418" font-size="30" text-anchor="middle" baseline-shift="-30" font-family="Helvetica">0</text>
<text fill="#000000" x="259.906" y="330.418" font-size="30" text-anchor="middle" baseline-shift="-30" font-family="Helvetica">90</text>
<text fill="#000000" x="380.094" y="330.418" font-size="30" text-anchor="middle" baseline-shift="-30" font-family="Helvetica">180</text>
<text fill="#000000" x="500.282" y="330.418" font-size="30" text-anchor="middle" baseline-shift="-30" font-family="Helvetica">270</text>
<text fill="#000000" x="620.469" y="330.418" font-size="30" text-anchor="middle" baseline-shift="-30" font-family="Helvetica">360</text>
<polyline fill="none" stroke="#000000" stroke-width="5.0" points="141.054,79.8921 143.725,166.089 146.395,133.765 149.066,144.54 151.737,133.765 154.408,133.765 157.079,122.991 159.75,133.765 162.42,144.54 165.091,144.54 167.762,155.314 170.433,166.089 173.104,144.54 175.775,101.441 178.445,144.54 181.116,187.638 183.787,187.638 186.458,198.413 189.129,198.413 191.8,176.864 194.471,155.314 197.141,198.413 199.812,155.314 202.483,187.638 205.154,241.511 207.825,198.413 210.496,122.991 213.166,176.864 215.837,166.089 218.508,187.638 221.179,176.864 223.85,198.413 226.521,144.54 229.191,176.864 231.862,166.089 234.533,133.765 237.204,112.216 239.875,133.765 242.546,112.216 245.216,133.765 247.887,133.765 250.558,144.54 253.229,133.765 255.9,112.216 258.571,101.441 261.242,90.6668 263.912,101.441 266.583,101.441 269.254,155.314 271.925,155.314 274.596,187.638 277.267,155.314 279.937,133.765 282.608,122.991 285.279,101.441 287.95,90.6668 290.621,112.216 293.292,69.1175 295.962,69.1175 298.633,69.1175 301.304,79.8921 303.975,90.6668 306.646,101.441 309.317,133.765 311.987,133.765 314.658,101.441 317.329,90.6668 320,90.6668 322.671,101.441 325.342,90.6668 328.013,90.6668 330.683,112.216 333.354,101.441 336.025,79.8921 338.696,112.216 341.367,133.765 344.038,176.864 346.708,198.413 349.379,133.765 352.05,166.089 354.721,122.991 357.392,144.54 360.063,187.638 362.733,198.413 365.404,198.413 368.075,187.638 370.746,219.962 373.417,166.089 376.088,176.864 378.758,198.413 381.429,166.089 384.1,155.314 386.771,133.765 389.442,133.765 392.113,133.765 394.784,155.314 397.454,144.54 400.125,133.765 402.796,144.54 405.467,144.54 408.138,133.765 410.809,122.991 413.479,144.54 416.15,101.441 418.821,155.314 421.492,166.089 424.163,209.187 426.834,198.413 429.504,187.638 432.175,198.413 434.846,176.864 437.517,219.962 440.188,198.413 442.859,219.962 445.529,219.962 448.2,252.286 450.871,219.962 453.542,198.413 456.213,241.511 458.884,219.962 461.555,176.864 464.225,166.089 466.896,187.638 469.567,176.864 472.238,166.089 474.909,187.638 477.58,219.962 480.25,209.187 482.921,219.962 485.592,219.962 488.263,219.962 490.934,209.187 493.605,230.737 496.275,219.962 498.946,230.737 501.617,230.737 504.288,230.737 506.959,219.962 509.63,209.187 512.3,209.187 514.971,209.187 517.642,198.413 520.313,209.187 522.984,198.413 525.655,252.286 528.326,219.962 530.996,273.835 533.667,230.737 536.338,209.187 539.009,176.864 541.68,198.413 544.351,241.511 547.021,198.413 549.692,219.962 552.363,219.962 555.034,219.962 557.705,198.413 560.376,219.962 563.046,230.737 565.717,219.962 568.388,241.511 571.059,230.737 573.73,241.511 576.401,209.187 579.071,198.413 581.742,209.187 584.413,176.864 587.084,166.089 589.755,176.864 592.426,166.089 595.096,166.089 597.767,166.089 600.438,166.089 603.109,166.089 605.78,166.089 608.451,166.089 611.122,209.187 613.792,198.413 616.463,219.962 619.134,198.413"/>
<polyline fill="none" stroke="#000000" stroke-width="5.0" points="139.718,323.398 139.718,19.5543"/>
<polyline fill="none" stroke="#000000" stroke-width="5.0" points="134.71,323.398 139.718,323.398"/>
<polyline fill="none" stroke="#000000" stroke-width="5.0" points="134.71,73.7047 139.718,73.7047"/>
<polyline fill="none" stroke="#000000" stroke-width="5.0" points="139.718,323.398 620.469,323.398"/>
<polyline fill="none" stroke="#000000" stroke-width="5.0" points="139.718,328.412 139.718,323.398"/>
<polyline fill="none" stroke="#000000" stroke-width="5.0" points="259.906,328.412 259.906,323.398"/>
<polyline fill="none" stroke="#000000" stroke-width="5.0" points="380.094,328.412 380.094,323.398"/>
<polyline fill="none" stroke="#000000" stroke-width="5.0" points="500.282,328.412 500.282,323.398"/>
<polyline fill="none" stroke="#000000" stroke-width="5.0" points="620.469,328.412 620.469,323.398"/>
</g>
</svg>
