<?xml version="1.0" encoding="UTF-8" standalone="no"?>
<svg xmlns="http://www.w3.org/2000/svg" xmlns:xlink="http://www.w3.org/1999/xlink" width="640px" height="360px" viewBox="0 0 640 360">
<title>VTK GL2PS Export</title>
<desc>
Creator: GL2PS 1.3.8, (C) 1999-2012 C. Geuzaine
For: VTK
CreationDate: Thu Aug 20 18:46:59 2015
</desc>
<defs>
</defs>
<g shape-rendering="crispEdges">
<text fill="#000000" x="64.6009" y="323.398" font-size="30" text-anchor="end" baseline-shift="-15" font-family="Helvetica">0.43</text>
<text fill="#000000" x="64.6009" y="79.7215" font-size="30" text-anchor="end" baseline-shift="-15" font-family="Helvetica">0.8</text>
<text fill="#000000" x="71.6119" y="330.418" font-size="30" text-anchor="middle" baseline-shift="-30" font-family="Helvetica">0</text>
<text fill="#000000" x="208.826" y="330.418" font-size="30" text-anchor="middle" baseline-shift="-30" font-family="Helvetica">90</text>
<text fill="#000000" x="346.041" y="330.418" font-size="30" text-anchor="middle" baseline-shift="-30" font-family="Helvetica">180</text>
<text fill="#000000" x="483.255" y="330.418" font-size="30" text-anchor="middle" baseline-shift="-30" font-family="Helvetica">270</text>
<text fill="#000000" x="620.469" y="330.418" font-size="30" text-anchor="middle" baseline-shift="-30" font-family="Helvetica">360</text>
<polyline fill="none" stroke="#000000" stroke-width="5.0" points="73.1365,167.073 76.1857,155.485 79.2349,155.485 82.2841,178.661 85.3333,155.485 88.3825,178.661 91.4317,178.661 94.481,178.661 97.5302,143.896 100.579,155.485 103.629,178.661 106.678,190.249 109.727,167.073 112.776,201.838 115.825,213.426 118.875,201.838 121.924,201.838 124.973,201.838 128.022,213.426 131.071,225.014 134.121,225.014 137.17,213.426 140.219,213.426 143.268,236.602 146.318,259.779 149.367,248.191 152.416,167.073 155.465,201.838 158.514,201.838 161.564,201.838 164.613,201.838 167.662,190.249 170.711,155.485 173.76,190.249 176.81,213.426 179.859,201.838 182.908,167.073 185.957,132.308 189.006,120.72 192.056,120.72 195.105,120.72 198.154,155.485 201.203,132.308 204.252,120.72 207.302,109.132 210.351,85.955 213.4,74.3668 216.449,120.72 219.499,190.249 222.548,225.014 225.597,213.426 228.646,213.426 231.695,155.485 234.745,143.896 237.794,132.308 240.843,74.3668 243.892,120.72 246.941,85.955 249.991,85.955 253.04,74.3668 256.089,74.3668 259.138,97.5434 262.187,109.132 265.237,97.5434 268.286,109.132 271.335,109.132 274.384,109.132 277.433,109.132 280.483,120.72 283.532,132.308 286.581,155.485 289.63,132.308 292.68,120.72 295.729,85.955 298.778,143.896 301.827,155.485 304.876,201.838 307.926,225.014 310.975,167.073 314.024,155.485 317.073,167.073 320.122,201.838 323.172,213.426 326.221,213.426 329.27,201.838 332.319,143.896 335.368,143.896 338.418,178.661 341.467,178.661 344.516,190.249 347.565,167.073 350.615,178.661 353.664,155.485 356.713,155.485 359.762,155.485 362.811,155.485 365.861,155.485 368.91,155.485 371.959,167.073 375.008,167.073 378.057,178.661 381.107,132.308 384.156,132.308 387.205,155.485 390.254,155.485 393.303,178.661 396.353,190.249 399.402,178.661 402.451,178.661 405.5,178.661 408.549,178.661 411.599,178.661 414.648,178.661 417.697,236.602 420.746,271.367 423.795,271.367 426.845,190.249 429.894,201.838 432.943,236.602 435.992,248.191 439.042,236.602 442.091,225.014 445.14,236.602 448.189,236.602 451.238,236.602 454.288,213.426 457.337,236.602 460.386,248.191 463.435,248.191 466.484,213.426 469.534,213.426 472.583,213.426 475.632,213.426 478.681,213.426 481.73,236.602 484.78,236.602 487.829,248.191 490.878,248.191 493.927,236.602 496.977,248.191 500.026,259.779 503.075,225.014 506.124,225.014 509.173,190.249 512.223,225.014 515.272,236.602 518.321,259.779 521.37,259.779 524.419,225.014 527.469,167.073 530.518,213.426 533.567,190.249 536.616,190.249 539.665,178.661 542.715,190.249 545.764,236.602 548.813,225.014 551.862,225.014 554.911,248.191 557.961,236.602 561.01,213.426 564.059,201.838 567.108,178.661 570.158,190.249 573.207,201.838 576.256,190.249 579.305,236.602 582.354,190.249 585.404,190.249 588.453,190.249 591.502,190.249 594.551,190.249 597.6,190.249 600.65,190.249 603.699,190.249 606.748,190.249 609.797,190.249 612.846,190.249 615.896,236.602 618.945,167.073"/>
<polyline fill="none" stroke="#000000" stroke-width="5.0" points="71.6119,323.398 71.6119,19.5543"/>
<polyline fill="none" stroke="#000000" stroke-width="5.0" points="66.6041,323.398 71.6119,323.398"/>
<polyline fill="none" stroke="#000000" stroke-width="5.0" points="66.6041,79.7214 71.6119,79.7214"/>
<polyline fill="none" stroke="#000000" stroke-width="5.0" points="71.6119,323.398 620.469,323.398"/>
<polyline fill="none" stroke="#000000" stroke-width="5.0" points="71.6119,328.412 71.6119,323.398"/>
<polyline fill="none" stroke="#000000" stroke-width="5.0" points="208.826,328.412 208.826,323.398"/>
<polyline fill="none" stroke="#000000" stroke-width="5.0" points="346.041,328.412 346.041,323.398"/>
<polyline fill="none" stroke="#000000" stroke-width="5.0" points="483.255,328.412 483.255,323.398"/>
<polyline fill="none" stroke="#000000" stroke-width="5.0" points="620.469,328.412 620.469,323.398"/>
</g>
</svg>
