<?xml version="1.0" encoding="UTF-8" standalone="no"?>
<svg xmlns="http://www.w3.org/2000/svg" xmlns:xlink="http://www.w3.org/1999/xlink" width="640px" height="360px" viewBox="0 0 640 360">
<title>VTK GL2PS Export</title>
<desc>
Creator: GL2PS 1.3.8, (C) 1999-2012 C. Geuzaine
For: VTK
CreationDate: Thu Aug 20 18:05:08 2015
</desc>
<defs>
</defs>
<g shape-rendering="crispEdges">
<text fill="#000000" x="48.5759" y="323.398" font-size="30" text-anchor="end" baseline-shift="-15" font-family="Helvetica">0</text>
<text fill="#000000" x="48.5759" y="21.5599" font-size="30" text-anchor="end" baseline-shift="-15" font-family="Helvetica">0.6</text>
<text fill="#000000" x="55.5869" y="330.418" font-size="30" text-anchor="middle" baseline-shift="-30" font-family="Helvetica">0</text>
<text fill="#000000" x="196.807" y="330.418" font-size="30" text-anchor="middle" baseline-shift="-30" font-family="Helvetica">90</text>
<text fill="#000000" x="338.028" y="330.418" font-size="30" text-anchor="middle" baseline-shift="-30" font-family="Helvetica">180</text>
<text fill="#000000" x="479.249" y="330.418" font-size="30" text-anchor="middle" baseline-shift="-30" font-family="Helvetica">270</text>
<text fill="#000000" x="620.469" y="330.418" font-size="30" text-anchor="middle" baseline-shift="-30" font-family="Helvetica">360</text>
<polyline fill="none" stroke="#000000" stroke-width="5.0" points="57.156,311.571 60.2942,328.129 63.4324,329.057 66.5707,306.757 69.7089,305.288 72.8472,307.671 75.9854,309.291 79.1236,311.65 82.2619,314.01 85.4001,315.945 88.5383,318.45 91.6766,319.528 94.8148,320.227 97.953,320.181 101.091,319.51 104.23,318.702 107.368,318.193 110.506,317.487 113.644,317.473 116.782,317.979 119.921,319.913 123.059,323.457 126.197,326.22 129.335,327.572 132.474,327.807 135.612,328.603 138.75,327.335 141.888,315.07 145.027,299.978 148.165,296.338 151.303,292.372 154.441,294.46 157.58,298.298 160.718,305.527 163.856,307.19 166.994,296.186 170.133,280.732 173.271,264.288 176.409,251.94 179.547,249.604 182.685,250.112 185.824,251.456 188.962,257.09 192.1,263.404 195.238,270.314 198.377,280.086 201.515,293.79 204.653,305.473 207.791,312.077 210.93,313.148 214.068,311.407 217.206,307.117 220.344,300.616 223.483,287.599 226.621,264.238 229.759,239.909 232.897,222.953 236.035,213.774 239.174,196.899 242.312,184.617 245.45,180.187 248.588,178.317 251.727,182.183 254.865,194.335 258.003,214.153 261.141,234.665 264.28,248.077 267.418,261.721 270.556,274.478 273.694,284.654 276.833,292.891 279.971,301.388 283.109,308.98 286.247,313.865 289.385,315.186 292.524,316.091 295.662,317.292 298.8,319.691 301.938,317.801 305.077,317.901 308.215,317.607 311.353,318.645 314.491,320.342 317.63,322.97 320.768,325.54 323.906,326.814 327.044,324.838 330.183,318.849 333.321,310.102 336.459,297.456 339.597,285.233 342.736,273.972 345.874,263.914 349.012,258.452 352.15,252.508 355.288,247.881 358.427,245.594 361.565,245.941 364.703,249.332 367.841,251.425 370.98,257.707 374.118,264.82 377.256,273.693 380.394,286.151 383.533,297.93 386.671,306.135 389.809,311.015 392.947,311.157 396.086,309.523 399.224,309.314 402.362,308.622 405.5,306.735 408.639,304.632 411.777,309.714 414.915,319.064 418.053,327.62 421.191,328.805 424.33,322.502 427.468,317.594 430.606,312.555 433.744,310.447 436.883,309.218 440.021,310.658 443.159,314.572 446.297,319.288 449.436,322.422 452.574,324.244 455.712,325.788 458.85,325.954 461.989,325.68 465.127,325.245 468.265,325.001 471.403,324.769 474.541,324.688 477.68,324.978 480.818,325.074 483.956,325.377 487.094,324.807 490.233,324.143 493.371,324.2 496.509,325.214 499.647,325.93 502.786,327.928 505.924,327.457 509.062,325.513 512.2,315.39 515.339,317.483 518.477,321.431 521.615,320.963 524.753,319.633 527.892,320.056 531.03,318.732 534.168,316.156 537.306,310.609 540.444,319.131 543.583,329.185 546.721,331.441 549.859,329.984 552.997,330.341 556.136,328.929 559.274,326.675 562.412,326.166 565.55,325.205 568.689,325.016 571.827,325.591 574.965,329.528 578.103,320.893 581.242,318.471 584.38,316.682 587.518,315.283 590.656,318.765 593.794,318.765 596.933,318.765 600.071,318.765 603.209,318.765 606.347,318.765 609.486,318.765 612.624,337.059 615.762,316.617 618.9,327.892"/>
<polyline fill="none" stroke="#000000" stroke-width="5.0" points="55.5869,323.398 55.5869,19.5543"/>
<polyline fill="none" stroke="#000000" stroke-width="5.0" points="50.579,323.398 55.5869,323.398"/>
<polyline fill="none" stroke="#000000" stroke-width="5.0" points="50.579,21.5599 55.5869,21.5599"/>
<polyline fill="none" stroke="#000000" stroke-width="5.0" points="55.5869,323.398 620.469,323.398"/>
<polyline fill="none" stroke="#000000" stroke-width="5.0" points="55.5869,328.412 55.5869,323.398"/>
<polyline fill="none" stroke="#000000" stroke-width="5.0" points="196.807,328.412 196.807,323.398"/>
<polyline fill="none" stroke="#000000" stroke-width="5.0" points="338.028,328.412 338.028,323.398"/>
<polyline fill="none" stroke="#000000" stroke-width="5.0" points="479.249,328.412 479.249,323.398"/>
<polyline fill="none" stroke="#000000" stroke-width="5.0" points="620.469,328.412 620.469,323.398"/>
</g>
</svg>
