<?xml version="1.0" encoding="UTF-8" standalone="no"?>
<svg xmlns="http://www.w3.org/2000/svg" xmlns:xlink="http://www.w3.org/1999/xlink" width="640px" height="360px" viewBox="0 0 640 360">
<title>VTK GL2PS Export</title>
<desc>
Creator: GL2PS 1.3.8, (C) 1999-2012 C. Geuzaine
For: VTK
CreationDate: Mon Aug 17 19:32:59 2015
</desc>
<defs>
</defs>
<g shape-rendering="crispEdges">
<text fill="#000000" x="47.5743" y="323.398" font-size="30" text-anchor="end" baseline-shift="-15" font-family="Helvetica">0</text>
<text fill="#000000" x="47.5743" y="22.5627" font-size="30" text-anchor="end" baseline-shift="-15" font-family="Helvetica">5.3</text>
<text fill="#000000" x="54.5853" y="330.418" font-size="30" text-anchor="middle" baseline-shift="-30" font-family="Helvetica">0</text>
<text fill="#000000" x="195.806" y="330.418" font-size="30" text-anchor="middle" baseline-shift="-30" font-family="Helvetica">90</text>
<text fill="#000000" x="337.027" y="330.418" font-size="30" text-anchor="middle" baseline-shift="-30" font-family="Helvetica">180</text>
<text fill="#000000" x="478.247" y="330.418" font-size="30" text-anchor="middle" baseline-shift="-30" font-family="Helvetica">270</text>
<text fill="#000000" x="620.469" y="330.418" font-size="30" text-anchor="middle" baseline-shift="-30" font-family="Helvetica">360</text>
<polyline fill="none" stroke="#000000" stroke-width="5.0" points="56.1572,321.589 59.301,322.887 62.4448,321.379 65.5886,321.413 68.7324,321.573 71.8762,321.992 75.02,322.483 78.1638,322.689 81.3076,322.956 84.4514,323.216 87.5952,323.527 90.739,323.488 93.8828,323.071 97.0266,322.337 100.17,322.262 103.314,322.509 106.458,322.688 109.602,322.562 112.746,322.772 115.889,322.673 119.033,322.663 122.177,323.908 125.321,323.949 128.465,323.813 131.608,323.82 134.752,323.734 137.896,323.299 141.04,321.855 144.184,320.314 147.327,319.7 150.471,319.638 153.615,320.197 156.759,320.567 159.903,321.229 163.046,320.939 166.19,319.783 169.334,319.109 172.478,317.884 175.622,316.692 178.765,316.4 181.909,316.414 185.053,316.332 188.197,316.468 191.341,316.782 194.484,317.295 197.628,318.147 200.772,319.617 203.916,320.641 207.06,320.86 210.203,321.327 213.347,321.482 216.491,320.861 219.635,319.941 222.779,318.624 225.922,316.367 229.066,314.322 232.21,312.643 235.354,311.135 238.498,309.285 241.641,308.144 244.785,307.513 247.929,307.478 251.073,307.75 254.217,309.008 257.36,312.396 260.504,313.934 263.648,315.757 266.792,317.222 269.936,318.348 273.079,319.28 276.223,320.101 279.367,321.243 282.511,321.824 285.655,322.033 288.798,321.65 291.942,321.952 295.086,322.434 298.23,322.702 301.374,322.519 304.517,322.652 307.661,321.899 310.805,321.963 313.949,322.716 317.093,323.843 320.236,324.274 323.38,324.67 326.524,324.635 329.668,324.221 332.812,323.088 335.955,321.218 339.099,320.231 342.243,318.678 345.387,316.884 348.531,315.641 351.674,315.19 354.818,314.931 357.962,314.594 361.106,313.872 364.25,314.329 367.393,315.146 370.537,316.024 373.681,316.795 376.825,318.024 379.969,319.49 383.112,320.751 386.256,321.792 389.4,322.271 392.544,322.086 395.688,321.545 398.831,321.828 401.975,321.347 405.119,321.405 408.263,321.119 411.407,321.404 414.55,322.942 417.694,323.969 420.838,324.32 423.982,323.674 427.126,322.979 430.27,322.585 433.413,321.881 436.557,321.308 439.701,321.963 442.845,322.332 445.988,322.964 449.132,323.165 452.276,323.476 455.42,323.644 458.564,323.663 461.707,323.708 464.851,323.756 467.995,323.884 471.139,323.843 474.283,323.719 477.427,323.603 480.57,323.723 483.714,323.677 486.858,323.724 490.002,323.649 493.146,323.579 496.289,323.64 499.433,323.76 502.577,324.061 505.721,324.516 508.865,324.568 512.008,323.348 515.152,323.388 518.296,323.118 521.44,323.451 524.583,323.866 527.727,323.874 530.871,323.626 534.015,323.42 537.159,322.56 540.303,322.757 543.446,324.128 546.59,323.68 549.734,323.864 552.878,324.437 556.022,324.617 559.165,324.619 562.309,324.32 565.453,324.235 568.597,323.446 571.741,324.251 574.884,323.54 578.028,322.386 581.172,322.015 584.316,322.157 587.46,322.168 590.603,322.639 593.747,322.639 596.891,322.639 600.035,322.639 603.179,322.639 606.322,322.639 609.466,324.129 612.61,321.598 615.754,322.81 618.898,322.954"/>
<polyline fill="none" stroke="#000000" stroke-width="5.0" points="54.5853,323.398 54.5853,19.5543"/>
<polyline fill="none" stroke="#000000" stroke-width="5.0" points="49.5775,323.398 54.5853,323.398"/>
<polyline fill="none" stroke="#000000" stroke-width="5.0" points="49.5775,22.5627 54.5853,22.5627"/>
<polyline fill="none" stroke="#000000" stroke-width="5.0" points="54.5853,323.398 620.469,323.398"/>
<polyline fill="none" stroke="#000000" stroke-width="5.0" points="54.5853,328.412 54.5853,323.398"/>
<polyline fill="none" stroke="#000000" stroke-width="5.0" points="195.806,328.412 195.806,323.398"/>
<polyline fill="none" stroke="#000000" stroke-width="5.0" points="337.027,328.412 337.027,323.398"/>
<polyline fill="none" stroke="#000000" stroke-width="5.0" points="478.247,328.412 478.247,323.398"/>
<polyline fill="none" stroke="#000000" stroke-width="5.0" points="620.469,328.412 620.469,323.398"/>
</g>
</svg>
