<?xml version="1.0" encoding="UTF-8" standalone="no"?>
<svg xmlns="http://www.w3.org/2000/svg" xmlns:xlink="http://www.w3.org/1999/xlink" width="640px" height="360px" viewBox="0 0 640 360">
<title>VTK GL2PS Export</title>
<desc>
Creator: GL2PS 1.3.8, (C) 1999-2012 C. Geuzaine
For: VTK
CreationDate: Mon Aug 17 19:32:59 2015
</desc>
<defs>
</defs>
<g shape-rendering="crispEdges">
<text fill="#000000" x="47.5743" y="323.398" font-size="30" text-anchor="end" baseline-shift="-15" font-family="Helvetica">0</text>
<text fill="#000000" x="47.5743" y="22.5627" font-size="30" text-anchor="end" baseline-shift="-15" font-family="Helvetica">5.3</text>
<text fill="#000000" x="54.5853" y="330.418" font-size="30" text-anchor="middle" baseline-shift="-30" font-family="Helvetica">0</text>
<text fill="#000000" x="195.806" y="330.418" font-size="30" text-anchor="middle" baseline-shift="-30" font-family="Helvetica">90</text>
<text fill="#000000" x="337.027" y="330.418" font-size="30" text-anchor="middle" baseline-shift="-30" font-family="Helvetica">180</text>
<text fill="#000000" x="478.247" y="330.418" font-size="30" text-anchor="middle" baseline-shift="-30" font-family="Helvetica">270</text>
<text fill="#000000" x="620.469" y="330.418" font-size="30" text-anchor="middle" baseline-shift="-30" font-family="Helvetica">360</text>
<polyline fill="none" stroke="#000000" stroke-width="5.0" points="56.1572,324.254 59.301,324.351 62.4448,321.102 65.5886,321.189 68.7324,321.13 71.8762,321.463 75.02,321.806 78.1638,322.23 81.3076,322.411 84.4514,322.856 87.5952,322.944 90.739,322.9 93.8828,322.63 97.0266,322.171 100.17,322.138 103.314,322.35 106.458,322.576 109.602,322.625 112.746,322.683 115.889,323.143 119.033,323.403 122.177,323.958 125.321,323.709 128.465,323.605 131.608,323.785 134.752,323.836 137.896,323.78 141.04,322.565 144.184,320.696 147.327,319.873 150.471,319.692 153.615,320.369 156.759,321.005 159.903,321.421 163.046,321.077 166.19,320.156 169.334,319.374 172.478,318.056 175.622,316.614 178.765,316.23 181.909,316.13 185.053,316.1 188.197,316.394 191.341,317.053 194.484,317.822 197.628,318.274 200.772,319.407 203.916,320.638 207.06,320.739 210.203,321.14 213.347,321.401 216.491,320.843 219.635,319.804 222.779,318.485 225.922,316.313 229.066,314.079 232.21,312.302 235.354,311.085 238.498,309.198 241.641,308.118 244.785,307.438 247.929,307.285 251.073,307.587 254.217,308.999 257.36,312.575 260.504,314.442 263.648,316.47 266.792,318.06 269.936,319.63 273.079,320.546 276.223,321.511 279.367,322.47 282.511,323.356 285.655,322.849 288.798,321.888 291.942,321.946 295.086,321.576 298.23,322.13 301.374,322.826 304.517,322.852 307.661,322.937 310.805,323.235 313.949,323.605 317.093,323.714 320.236,323.959 323.38,324.127 326.524,324.201 329.668,323.879 332.812,323.041 335.955,321.359 339.099,320.054 342.243,318.285 345.387,316.637 348.531,315.684 351.674,315.436 354.818,315.113 357.962,315 361.106,314.752 364.25,314.755 367.393,315.509 370.537,316.105 373.681,316.819 376.825,318.14 379.969,319.757 383.112,320.739 386.256,321.623 389.4,321.961 392.544,321.879 395.688,321.767 398.831,321.864 401.975,321.413 405.119,321.362 408.263,321.398 411.407,321.885 414.55,322.98 417.694,323.98 420.838,324.249 423.982,323.597 427.126,322.948 430.27,322.438 433.413,322.451 436.557,322.375 439.701,322.593 442.845,322.72 445.988,323.085 449.132,323.267 452.276,323.377 455.42,323.402 458.564,323.448 461.707,323.482 464.851,323.447 467.995,323.581 471.139,323.607 474.283,323.611 477.427,323.587 480.57,323.655 483.714,323.643 486.858,323.566 490.002,323.424 493.146,323.301 496.289,323.443 499.433,323.374 502.577,323.613 505.721,323.746 508.865,324.1 512.008,323.72 515.152,323.515 518.296,323.538 521.44,323.364 524.583,323.23 527.727,323.399 530.871,323.414 534.015,323.392 537.159,322.737 540.303,322.756 543.446,323.512 546.59,324.031 549.734,324.344 552.878,324.406 556.022,324.417 559.165,324.278 562.309,323.944 565.453,323.825 568.597,323.834 571.741,324.05 574.884,323.669 578.028,323.379 581.172,323.329 584.316,323.149 587.46,323.113 590.603,323.26 593.747,323.26 596.891,323.26 600.035,323.26 603.179,323.26 606.322,323.26 609.466,324.06 612.61,324.069 615.754,324.097 618.898,324.473"/>
<polyline fill="none" stroke="#000000" stroke-width="5.0" points="54.5853,323.398 54.5853,19.5543"/>
<polyline fill="none" stroke="#000000" stroke-width="5.0" points="49.5775,323.398 54.5853,323.398"/>
<polyline fill="none" stroke="#000000" stroke-width="5.0" points="49.5775,22.5627 54.5853,22.5627"/>
<polyline fill="none" stroke="#000000" stroke-width="5.0" points="54.5853,323.398 620.469,323.398"/>
<polyline fill="none" stroke="#000000" stroke-width="5.0" points="54.5853,328.412 54.5853,323.398"/>
<polyline fill="none" stroke="#000000" stroke-width="5.0" points="195.806,328.412 195.806,323.398"/>
<polyline fill="none" stroke="#000000" stroke-width="5.0" points="337.027,328.412 337.027,323.398"/>
<polyline fill="none" stroke="#000000" stroke-width="5.0" points="478.247,328.412 478.247,323.398"/>
<polyline fill="none" stroke="#000000" stroke-width="5.0" points="620.469,328.412 620.469,323.398"/>
</g>
</svg>
