<?xml version="1.0" encoding="UTF-8" standalone="no"?>
<svg xmlns="http://www.w3.org/2000/svg" xmlns:xlink="http://www.w3.org/1999/xlink" width="640px" height="360px" viewBox="0 0 640 360">
<title>VTK GL2PS Export</title>
<desc>
Creator: GL2PS 1.3.8, (C) 1999-2012 C. Geuzaine
For: VTK
CreationDate: Thu Aug 20 18:05:08 2015
</desc>
<defs>
</defs>
<g shape-rendering="crispEdges">
<text fill="#000000" x="48.5759" y="323.398" font-size="30" text-anchor="end" baseline-shift="-15" font-family="Helvetica">0</text>
<text fill="#000000" x="48.5759" y="21.5599" font-size="30" text-anchor="end" baseline-shift="-15" font-family="Helvetica">0.6</text>
<text fill="#000000" x="55.5869" y="330.418" font-size="30" text-anchor="middle" baseline-shift="-30" font-family="Helvetica">0</text>
<text fill="#000000" x="196.807" y="330.418" font-size="30" text-anchor="middle" baseline-shift="-30" font-family="Helvetica">90</text>
<text fill="#000000" x="338.028" y="330.418" font-size="30" text-anchor="middle" baseline-shift="-30" font-family="Helvetica">180</text>
<text fill="#000000" x="479.249" y="330.418" font-size="30" text-anchor="middle" baseline-shift="-30" font-family="Helvetica">270</text>
<text fill="#000000" x="620.469" y="330.418" font-size="30" text-anchor="middle" baseline-shift="-30" font-family="Helvetica">360</text>
<polyline fill="none" stroke="#000000" stroke-width="5.0" points="57.156,330.867 60.2942,330.593 63.4324,322.441 66.5707,305.995 69.7089,305.723 72.8472,306.742 75.9854,308.58 79.1236,311.309 82.2619,314.072 85.4001,315.943 88.5383,319.001 91.6766,319.708 94.8148,321.433 97.953,320.725 101.091,320.164 104.23,318.813 107.368,318.413 110.506,317.3 113.644,317.36 116.782,318.736 119.921,320.642 123.059,322.63 126.197,325.283 129.335,326.611 132.474,327.193 135.612,327.492 138.75,326.582 141.888,316.838 145.027,300.919 148.165,296.209 151.303,294.138 154.441,297.028 157.58,301.975 160.718,306.288 163.856,308.026 166.994,299.748 170.133,285.941 173.271,267.371 176.409,253.394 179.547,249.091 182.685,249.748 185.824,251.385 188.962,257.592 192.1,265.186 195.238,270.644 198.377,279.302 201.515,292.995 204.653,303.677 207.791,310.769 210.93,313.654 214.068,312.004 217.206,307.585 220.344,300.656 223.483,286.35 226.621,263.122 229.759,238.428 232.897,220.738 236.035,212.256 239.174,197.232 242.312,185.228 245.45,180.989 248.588,179.025 251.727,182.389 254.865,194.398 258.003,214.404 261.141,237.856 264.28,252.268 267.418,268.22 270.556,281.308 273.694,293.854 276.833,304.059 279.971,312.41 283.109,317.389 286.247,318.832 289.385,317.956 292.524,317.193 295.662,315.624 298.8,317.758 301.938,318.673 305.077,317.832 308.215,317.833 311.353,319.091 314.491,321.695 317.63,324.775 320.768,326.761 323.906,327.373 327.044,326.414 330.183,320.059 333.321,310.511 336.459,298.382 339.597,286.346 342.736,274.99 345.874,265.399 349.012,258.735 352.15,254.057 355.288,251.034 358.427,249.52 361.565,248.528 364.703,250.367 367.841,251.91 370.98,257.762 374.118,264.692 377.256,273.463 380.394,285.623 383.533,297.092 386.671,305.15 389.809,310.632 392.947,311.214 396.086,309.969 399.224,309.831 402.362,309.608 405.5,307.707 408.639,305.866 411.777,310.124 414.915,318.483 418.053,327.024 421.191,329.435 424.33,323.073 427.468,317.942 430.606,314.407 433.744,313.006 436.883,312.349 440.021,312.284 443.159,315.427 446.297,319.265 449.436,322.135 452.574,323.679 455.712,324.956 458.85,325.247 461.989,324.949 465.127,324.492 468.265,324.126 471.403,324.124 474.541,324.195 477.68,324.188 480.818,324.426 483.956,324.612 487.094,324.257 490.233,323.863 493.371,324.294 496.509,324.378 499.647,324.91 502.786,325.479 505.924,325.45 509.062,326.402 512.2,324.291 515.339,322.654 518.477,322.057 521.615,320.246 524.753,318.301 527.892,318.296 531.03,320.014 534.168,319.562 537.306,316.071 540.444,318.955 543.583,325.303 546.721,329.493 549.859,330.861 552.997,330.457 556.136,327.882 559.274,326.661 562.412,326.154 565.55,326.661 568.689,326.699 571.827,327.178 574.965,327.883 578.103,326.721 581.242,326.359 584.38,325.849 587.518,325.293 590.656,326.019 593.794,326.019 596.933,326.019 600.071,326.019 603.209,326.019 606.347,326.019 609.486,326.019 612.624,333.37 615.762,329.371 618.9,330.709"/>
<polyline fill="none" stroke="#000000" stroke-width="5.0" points="55.5869,323.398 55.5869,19.5543"/>
<polyline fill="none" stroke="#000000" stroke-width="5.0" points="50.579,323.398 55.5869,323.398"/>
<polyline fill="none" stroke="#000000" stroke-width="5.0" points="50.579,21.5599 55.5869,21.5599"/>
<polyline fill="none" stroke="#000000" stroke-width="5.0" points="55.5869,323.398 620.469,323.398"/>
<polyline fill="none" stroke="#000000" stroke-width="5.0" points="55.5869,328.412 55.5869,323.398"/>
<polyline fill="none" stroke="#000000" stroke-width="5.0" points="196.807,328.412 196.807,323.398"/>
<polyline fill="none" stroke="#000000" stroke-width="5.0" points="338.028,328.412 338.028,323.398"/>
<polyline fill="none" stroke="#000000" stroke-width="5.0" points="479.249,328.412 479.249,323.398"/>
<polyline fill="none" stroke="#000000" stroke-width="5.0" points="620.469,328.412 620.469,323.398"/>
</g>
</svg>
