<?xml version="1.0" encoding="UTF-8" standalone="no"?>
<svg xmlns="http://www.w3.org/2000/svg" xmlns:xlink="http://www.w3.org/1999/xlink" width="640px" height="360px" viewBox="0 0 640 360">
<title>VTK GL2PS Export</title>
<desc>
Creator: GL2PS 1.3.8, (C) 1999-2012 C. Geuzaine
For: VTK
CreationDate: Thu Aug 20 18:05:08 2015
</desc>
<defs>
</defs>
<g shape-rendering="crispEdges">
<text fill="#000000" x="48.5759" y="323.398" font-size="30" text-anchor="end" baseline-shift="-15" font-family="Helvetica">0</text>
<text fill="#000000" x="48.5759" y="21.5599" font-size="30" text-anchor="end" baseline-shift="-15" font-family="Helvetica">0.6</text>
<text fill="#000000" x="55.5869" y="330.418" font-size="30" text-anchor="middle" baseline-shift="-30" font-family="Helvetica">0</text>
<text fill="#000000" x="196.807" y="330.418" font-size="30" text-anchor="middle" baseline-shift="-30" font-family="Helvetica">90</text>
<text fill="#000000" x="338.028" y="330.418" font-size="30" text-anchor="middle" baseline-shift="-30" font-family="Helvetica">180</text>
<text fill="#000000" x="479.249" y="330.418" font-size="30" text-anchor="middle" baseline-shift="-30" font-family="Helvetica">270</text>
<text fill="#000000" x="620.469" y="330.418" font-size="30" text-anchor="middle" baseline-shift="-30" font-family="Helvetica">360</text>
<polyline fill="none" stroke="#000000" stroke-width="5.0" points="57.156,331.043 60.2942,346.794 63.4324,334.244 66.5707,278 69.7089,279.602 72.8472,285.471 75.9854,280.372 79.1236,330.976 82.2619,322.586 85.4001,318.171 88.5383,256.807 91.6766,256.395 94.8148,316.636 97.953,331.247 101.091,335.533 104.23,338.317 107.368,337.01 110.506,325.014 113.644,342.108 116.782,321.195 119.921,314.052 123.059,316.616 126.197,322.627 129.335,327.69 132.474,304.082 135.612,300.675 138.75,269.331 141.888,268.121 145.027,270.628 148.165,272.161 151.303,281.043 154.441,257.14 157.58,260.66 160.718,292.233 163.856,254.801 166.994,237.166 170.133,219.721 173.271,158.271 176.409,88.682 179.547,111.825 182.685,85.7919 185.824,93.159 188.962,72.6433 192.1,48.8829 195.238,47.1765 198.377,102.463 201.515,150.35 204.653,196.187 207.791,203.498 210.93,217.72 214.068,255.744 217.206,266.642 220.344,183.808 223.483,149.314 226.621,138.994 229.759,109.558 232.897,78.0201 236.035,85.0258 239.174,53.0366 242.312,62.3388 245.45,81.2527 248.588,102.024 251.727,107.206 254.865,129.654 258.003,159.026 261.141,186.379 264.28,211.231 267.418,223.77 270.556,254.839 273.694,285.659 276.833,313.537 279.971,312.265 283.109,304.013 286.247,354.644 289.385,346.561 292.524,335.482 295.662,329.763 298.8,327.701 301.938,327.162 305.077,295.185 308.215,286.281 311.353,274.698 314.491,268.192 317.63,273.11 320.768,283.14 323.906,279.35 327.044,274 330.183,273.226 333.321,256.989 336.459,261.179 339.597,280.228 342.736,239.837 345.874,227.034 349.012,196.085 352.15,191.45 355.288,190.256 358.427,190.659 361.565,190.23 364.703,190.269 367.841,179.531 370.98,171.04 374.118,152.857 377.256,156.265 380.394,166.968 383.533,175.116 386.671,178.107 389.809,185.801 392.947,202.709 396.086,210.93 399.224,243.315 402.362,253.006 405.5,281.264 408.639,278.446 411.777,266.565 414.915,289.081 418.053,325.878 421.191,318.825 424.33,318.719 427.468,309.036 430.606,298.093 433.744,292.318 436.883,293.05 440.021,312.627 443.159,314.117 446.297,332.626 449.436,337.568 452.574,342.18 455.712,342.05 458.85,332.03 461.989,327.751 465.127,325.541 468.265,327.008 471.403,326.828 474.541,329.991 477.68,331.418 480.818,332.56 483.956,320.137 487.094,322.513 490.233,312.303 493.371,326.268 496.509,330.777 499.647,331.158 502.786,329.794 505.924,321.299 509.062,321.147 512.2,311.157 515.339,292.8 518.477,305.942 521.615,322.551 524.753,310.794 527.892,303.12 531.03,322.152 534.168,323.982 537.306,321.358 540.444,328.743 543.583,317.346 546.721,290.116 549.859,311.029 552.997,320.485 556.136,315.525 559.274,314.501 562.412,319.103 565.55,319.032 568.689,318.512 571.827,317.307 574.965,313.292 578.103,305.707 581.242,308.802 584.38,313.314 587.518,317.439 590.656,322.756 593.794,322.756 596.933,322.757 600.071,322.756 603.209,322.756 606.347,322.756 609.486,322.755 612.624,328.853 615.762,336.444 618.9,342.81"/>
<polyline fill="none" stroke="#000000" stroke-width="5.0" points="55.5869,323.398 55.5869,19.5543"/>
<polyline fill="none" stroke="#000000" stroke-width="5.0" points="50.579,323.398 55.5869,323.398"/>
<polyline fill="none" stroke="#000000" stroke-width="5.0" points="50.579,21.5599 55.5869,21.5599"/>
<polyline fill="none" stroke="#000000" stroke-width="5.0" points="55.5869,323.398 620.469,323.398"/>
<polyline fill="none" stroke="#000000" stroke-width="5.0" points="55.5869,328.412 55.5869,323.398"/>
<polyline fill="none" stroke="#000000" stroke-width="5.0" points="196.807,328.412 196.807,323.398"/>
<polyline fill="none" stroke="#000000" stroke-width="5.0" points="338.028,328.412 338.028,323.398"/>
<polyline fill="none" stroke="#000000" stroke-width="5.0" points="479.249,328.412 479.249,323.398"/>
<polyline fill="none" stroke="#000000" stroke-width="5.0" points="620.469,328.412 620.469,323.398"/>
</g>
</svg>
