<?xml version="1.0" encoding="UTF-8" standalone="no"?>
<svg xmlns="http://www.w3.org/2000/svg" xmlns:xlink="http://www.w3.org/1999/xlink" width="640px" height="360px" viewBox="0 0 640 360">
<title>VTK GL2PS Export</title>
<desc>
Creator: GL2PS 1.3.8, (C) 1999-2012 C. Geuzaine
For: VTK
CreationDate: Mon Aug 17 19:33:00 2015
</desc>
<defs>
</defs>
<g shape-rendering="crispEdges">
<text fill="#000000" x="47.5743" y="323.398" font-size="30" text-anchor="end" baseline-shift="-15" font-family="Helvetica">0</text>
<text fill="#000000" x="47.5743" y="22.5627" font-size="30" text-anchor="end" baseline-shift="-15" font-family="Helvetica">5.3</text>
<text fill="#000000" x="54.5853" y="330.418" font-size="30" text-anchor="middle" baseline-shift="-30" font-family="Helvetica">0</text>
<text fill="#000000" x="195.806" y="330.418" font-size="30" text-anchor="middle" baseline-shift="-30" font-family="Helvetica">90</text>
<text fill="#000000" x="337.027" y="330.418" font-size="30" text-anchor="middle" baseline-shift="-30" font-family="Helvetica">180</text>
<text fill="#000000" x="478.247" y="330.418" font-size="30" text-anchor="middle" baseline-shift="-30" font-family="Helvetica">270</text>
<text fill="#000000" x="620.469" y="330.418" font-size="30" text-anchor="middle" baseline-shift="-30" font-family="Helvetica">360</text>
<polyline fill="none" stroke="#000000" stroke-width="5.0" points="56.1572,324.551 59.301,325.84 62.4448,318.806 65.5886,319.487 68.7324,317.659 71.8762,318.192 75.02,315.735 78.1638,317.702 81.3076,319.714 84.4514,318.333 87.5952,316.952 90.739,314.175 93.8828,313.795 97.0266,312.774 100.17,314.202 103.314,316.515 106.458,319.143 109.602,321.082 112.746,321.562 115.889,322.164 119.033,322.637 122.177,324.663 125.321,323.095 128.465,321.531 131.608,323.203 134.752,323.592 137.896,322.524 141.04,318.661 144.184,317.061 147.327,318.052 150.471,317.926 153.615,319.344 156.759,320.482 159.903,321.75 163.046,320.511 166.19,318.109 169.334,316.579 172.478,314.247 175.622,309.645 178.765,308.858 181.909,309.354 185.053,309.414 188.197,302.957 191.341,300.631 194.484,301.347 197.628,301.898 200.772,306.022 203.916,310.948 207.06,312.523 210.203,316.808 213.347,319.555 216.491,320.923 219.635,317.497 222.779,314.322 225.922,310.105 229.066,303.88 232.21,299.321 235.354,297.731 238.498,297.853 241.641,299.24 244.785,299.871 247.929,299.822 251.073,301.241 254.217,302.972 257.36,308.223 260.504,310.036 263.648,312.926 266.792,316.263 269.936,317.645 273.079,315.642 276.223,316.715 279.367,318.054 282.511,321.897 285.655,318.294 288.798,316.969 291.942,318.245 295.086,316.668 298.23,319.314 301.374,321.43 304.517,323.966 307.661,321.597 310.805,322.087 313.949,323.183 317.093,323.925 320.236,324.173 323.38,324.541 326.524,324.87 329.668,321.291 332.812,316.641 335.955,313.343 339.099,312.889 342.243,311.28 345.387,309.734 348.531,309.774 351.674,309.517 354.818,309.347 357.962,308.917 361.106,308.503 364.25,306.169 367.393,306.205 370.537,307.399 373.681,307.124 376.825,308.288 379.969,309.777 383.112,314.436 386.256,318.822 389.4,320.823 392.544,321.448 395.688,321.12 398.831,321.802 401.975,320.083 405.119,320.468 408.263,322.144 411.407,321.183 414.55,323.235 417.694,324.678 420.838,325.11 423.982,323.789 427.126,321.775 430.27,321.817 433.413,322.68 436.557,322.603 439.701,322.628 442.845,322.339 445.988,322.773 449.132,323.446 452.276,322.96 455.42,322.315 458.564,323.363 461.707,323.87 464.851,323.595 467.995,326.087 471.139,326.063 474.283,324.789 477.427,324.119 480.57,325.112 483.714,324.5 486.858,324.29 490.002,323.08 493.146,324.027 496.289,324.538 499.433,324.322 502.577,325.204 505.721,323.291 508.865,325.214 512.008,323.256 515.152,322.888 518.296,323.805 521.44,324.799 524.583,323.041 527.727,324.221 530.871,324.257 534.015,324.642 537.159,322.619 540.303,323.707 543.446,322.538 546.59,323.392 549.734,324.938 552.878,323.759 556.022,325.13 559.165,324.585 562.309,323.739 565.453,324.409 568.597,324.305 571.741,324.597 574.884,322.849 578.028,321.407 581.172,321.087 584.316,320.601 587.46,320.51 590.603,321.143 593.747,321.143 596.891,321.143 600.035,321.143 603.179,321.143 606.322,321.143 609.466,324.535 612.61,325.245 615.754,324.908 618.898,325.647"/>
<polyline fill="none" stroke="#000000" stroke-width="5.0" points="54.5853,323.398 54.5853,19.5543"/>
<polyline fill="none" stroke="#000000" stroke-width="5.0" points="49.5775,323.398 54.5853,323.398"/>
<polyline fill="none" stroke="#000000" stroke-width="5.0" points="49.5775,22.5627 54.5853,22.5627"/>
<polyline fill="none" stroke="#000000" stroke-width="5.0" points="54.5853,323.398 620.469,323.398"/>
<polyline fill="none" stroke="#000000" stroke-width="5.0" points="54.5853,328.412 54.5853,323.398"/>
<polyline fill="none" stroke="#000000" stroke-width="5.0" points="195.806,328.412 195.806,323.398"/>
<polyline fill="none" stroke="#000000" stroke-width="5.0" points="337.027,328.412 337.027,323.398"/>
<polyline fill="none" stroke="#000000" stroke-width="5.0" points="478.247,328.412 478.247,323.398"/>
<polyline fill="none" stroke="#000000" stroke-width="5.0" points="620.469,328.412 620.469,323.398"/>
</g>
</svg>
