<?xml version="1.0" encoding="UTF-8" standalone="no"?>
<svg xmlns="http://www.w3.org/2000/svg" xmlns:xlink="http://www.w3.org/1999/xlink" width="640px" height="360px" viewBox="0 0 640 360">
<title>VTK GL2PS Export</title>
<desc>
Creator: GL2PS 1.3.8, (C) 1999-2012 C. Geuzaine
For: VTK
CreationDate: Mon Aug 17 19:33:00 2015
</desc>
<defs>
</defs>
<g shape-rendering="crispEdges">
<text fill="#000000" x="47.5743" y="323.398" font-size="30" text-anchor="end" baseline-shift="-15" font-family="Helvetica">0</text>
<text fill="#000000" x="47.5743" y="22.5627" font-size="30" text-anchor="end" baseline-shift="-15" font-family="Helvetica">5.3</text>
<text fill="#000000" x="54.5853" y="330.418" font-size="30" text-anchor="middle" baseline-shift="-30" font-family="Helvetica">0</text>
<text fill="#000000" x="195.806" y="330.418" font-size="30" text-anchor="middle" baseline-shift="-30" font-family="Helvetica">90</text>
<text fill="#000000" x="337.027" y="330.418" font-size="30" text-anchor="middle" baseline-shift="-30" font-family="Helvetica">180</text>
<text fill="#000000" x="478.247" y="330.418" font-size="30" text-anchor="middle" baseline-shift="-30" font-family="Helvetica">270</text>
<text fill="#000000" x="620.469" y="330.418" font-size="30" text-anchor="middle" baseline-shift="-30" font-family="Helvetica">360</text>
<polyline fill="none" stroke="#000000" stroke-width="5.0" points="56.1572,258.057 59.301,298.476 62.4448,292.612 65.5886,268.953 68.7324,310.688 71.8762,303.39 75.02,330.357 78.1638,327.211 81.2383,360"/>
<polyline fill="none" stroke="#000000" stroke-width="5.0" points="81.3653,360 84.4514,320.451 87.5952,289.045 90.739,317.795 93.2004,360"/>
<polyline fill="none" stroke="#000000" stroke-width="5.0" points="94.399,360 97.0266,300.435 100.17,296.582 103.314,324.123 106.458,325.513 109.602,315.5 112.746,267.117 115.889,318.386 119.033,319.623 122.177,347.071 125.321,312.762 128.465,290.401 131.608,286.068 134.752,259.437 137.896,286.077 141.04,299.884 144.184,289.688 147.327,302.681 150.471,311.611 153.615,327.163 156.759,353.848 159.903,299.647 163.046,284.565 166.19,313.83 169.334,326.899 172.478,298.606 175.622,327.983 178.765,358.644 181.909,322.626 185.053,322.462 188.197,294.415 191.341,308.14 194.484,250.456 197.628,328.855 200.772,311.529 203.916,308.854 207.06,299.671 210.203,297.082 213.347,343.687 216.491,341.652 219.635,308.254 222.779,336.709 225.922,305.144 229.066,320.707 232.21,310.491 235.354,329.499 238.498,310.766 241.641,331.18 244.785,309.24 247.929,336.791 250.214,360"/>
<polyline fill="none" stroke="#000000" stroke-width="5.0" points="252.764,360 254.217,352.51 257.36,354.352 259.032,360"/>
<polyline fill="none" stroke="#000000" stroke-width="5.0" points="260.897,360 263.648,325.134 266.792,346.988 269.936,329.792 273.079,296.3 276.223,308.758 279.367,337.517 282.511,309.282 285.655,330.529 288.798,333.922 291.436,360"/>
<polyline fill="none" stroke="#000000" stroke-width="5.0" points="292.261,360 295.086,315.601 298.23,261.047 301.374,314.924 304.517,336.779 307.661,357.505 310.805,353.773 313.949,309.009 317.093,288.334 320.236,356.047 323.38,297.165 326.524,313.378 329.668,337.553 332.812,313.731 335.955,324.919 339.099,291.747 342.243,300.17 345.387,315.955 348.531,302.811 351.674,315.028 354.818,356.362 356.182,360"/>
<polyline fill="none" stroke="#000000" stroke-width="5.0" points="358.319,360 361.106,322.911 364.25,285.729 367.393,310.146 370.537,318.12 373.681,351.793 376.825,301.816 379.969,298.859 383.112,299.677 386.256,298.62 387.884,360"/>
<polyline fill="none" stroke="#000000" stroke-width="5.0" points="391.217,360 392.544,318.269 395.688,293.072 398.831,47.1765 401.975,328.475 405.119,306.442 408.263,336.378 411.407,349.402 414.55,312.764 417.694,321.616 420.838,298.983 423.982,356.242 427.126,335.323 430.27,357.102 433.413,330.092 436.557,310.867 439.701,321.292 442.845,332.173 445.82,360"/>
<polyline fill="none" stroke="#000000" stroke-width="5.0" points="449.77,360 452.276,348.405 455.42,291.777 458.564,306.937 461.707,356.019 464.851,351.372 467.995,298.452 471.139,317.043 474.283,313.689 477.427,325.89 480.57,342.432 483.714,345.675 486.858,327.711 490.002,316.727 493.146,294.949 496.289,336.958 499.433,304.075 502.577,339.21 505.721,310.139 508.865,313.806 511.201,360"/>
<polyline fill="none" stroke="#000000" stroke-width="5.0" points="512.915,360 515.152,320.618 518.296,307.851 520.716,360"/>
<polyline fill="none" stroke="#000000" stroke-width="5.0" points="522.206,360 524.583,311.636 527.727,312.165 530.871,330.404 534.015,325.157 537.159,294.29 540.303,340.041 543.446,295.037 545.715,360"/>
<polyline fill="none" stroke="#000000" stroke-width="5.0" points="547.185,360 549.734,252.652 552.878,333.285 556.022,320.106 558.849,360"/>
<polyline fill="none" stroke="#000000" stroke-width="5.0" points="559.453,360 562.309,315.672 565.453,305.781 568.597,322.492 571.741,336.07 574.884,321.316 578.028,316.321 581.172,294.287 584.316,298.634 587.46,316.974 590.603,321.238 593.747,311.984 596.891,304.167 600.035,302.685 603.179,327.287 606.322,293.746 606.871,360"/>
<polyline fill="none" stroke="#000000" stroke-width="5.0" points="611.848,360 612.61,259.672 615.754,299.261 618.898,355.925"/>
<polyline fill="none" stroke="#000000" stroke-width="5.0" points="54.5853,323.398 54.5853,19.5543"/>
<polyline fill="none" stroke="#000000" stroke-width="5.0" points="49.5775,323.398 54.5853,323.398"/>
<polyline fill="none" stroke="#000000" stroke-width="5.0" points="49.5775,22.5627 54.5853,22.5627"/>
<polyline fill="none" stroke="#000000" stroke-width="5.0" points="54.5853,323.398 620.469,323.398"/>
<polyline fill="none" stroke="#000000" stroke-width="5.0" points="54.5853,328.412 54.5853,323.398"/>
<polyline fill="none" stroke="#000000" stroke-width="5.0" points="195.806,328.412 195.806,323.398"/>
<polyline fill="none" stroke="#000000" stroke-width="5.0" points="337.027,328.412 337.027,323.398"/>
<polyline fill="none" stroke="#000000" stroke-width="5.0" points="478.247,328.412 478.247,323.398"/>
<polyline fill="none" stroke="#000000" stroke-width="5.0" points="620.469,328.412 620.469,323.398"/>
</g>
</svg>
