<?xml version="1.0" encoding="UTF-8" standalone="no"?>
<svg xmlns="http://www.w3.org/2000/svg" xmlns:xlink="http://www.w3.org/1999/xlink" width="640px" height="360px" viewBox="0 0 640 360">
<title>VTK GL2PS Export</title>
<desc>
Creator: GL2PS 1.3.8, (C) 1999-2012 C. Geuzaine
For: VTK
CreationDate: Thu Aug 20 18:05:59 2015
</desc>
<defs>
</defs>
<g shape-rendering="crispEdges">
<text fill="#000000" x="47.5743" y="323.398" font-size="30" text-anchor="end" baseline-shift="-15" font-family="Helvetica">0</text>
<text fill="#000000" x="47.5743" y="26.5738" font-size="30" text-anchor="end" baseline-shift="-15" font-family="Helvetica">2.8</text>
<text fill="#000000" x="54.5853" y="330.418" font-size="30" text-anchor="middle" baseline-shift="-30" font-family="Helvetica">0</text>
<text fill="#000000" x="195.806" y="330.418" font-size="30" text-anchor="middle" baseline-shift="-30" font-family="Helvetica">90</text>
<text fill="#000000" x="337.027" y="330.418" font-size="30" text-anchor="middle" baseline-shift="-30" font-family="Helvetica">180</text>
<text fill="#000000" x="478.247" y="330.418" font-size="30" text-anchor="middle" baseline-shift="-30" font-family="Helvetica">270</text>
<text fill="#000000" x="620.469" y="330.418" font-size="30" text-anchor="middle" baseline-shift="-30" font-family="Helvetica">360</text>
<polyline fill="none" stroke="#000000" stroke-width="5.0" points="56.1572,291.318 59.301,334.429 62.4448,303.592 65.5886,346.475 68.7324,288.283 71.8762,135.602 75.02,196.062 78.1638,291.311 81.3076,293.027 84.4514,250.666 87.5952,246.433 90.739,220.186 93.8828,220.358 97.0266,188.74 100.17,225.634 103.314,231.403 106.458,215.33 109.602,220.566 112.746,294.269 115.889,289.191 119.033,276.746 122.177,318.993 125.321,311.158 128.465,316.267 131.608,300.695 134.752,296.173 137.896,297.821 141.04,301.618 144.184,321.279 147.327,342.543 150.471,298.21 153.615,321.008 156.759,47.1765 159.903,248.488 163.046,323.19 166.19,320.154 169.334,312.452 170.907,360"/>
<polyline fill="none" stroke="#000000" stroke-width="5.0" points="174.1,360 175.622,315.423 178.765,240.447 181.909,288.461 185.053,226.164 188.197,261.929 191.341,269.934 194.484,277.37 197.628,272.901 200.772,276.732 203.916,288.34 207.06,265.666 210.203,293.171 213.347,275.566 216.491,264.811 219.635,267.336 222.779,345.422 225.922,320.324 229.066,301.414 232.21,319.338 235.354,322.249 238.498,300.4 241.641,291.881 244.785,261.733 247.929,307.245 250.85,360"/>
<polyline fill="none" stroke="#000000" stroke-width="5.0" points="256.108,360 257.36,306.916 260.504,298.884 263.648,328.631 266.792,335.291 269.936,345.795 273.079,356.712 273.159,360"/>
<polyline fill="none" stroke="#000000" stroke-width="5.0" points="300.521,360 301.374,343.186 304.517,325.101 307.661,340.243 310.805,296.968 313.949,305.268 317.093,322.956 319.151,360"/>
<polyline fill="none" stroke="#000000" stroke-width="5.0" points="321.38,360 323.38,325.831 326.524,349.649 329.668,325.673 332.812,333 335.158,360"/>
<polyline fill="none" stroke="#000000" stroke-width="5.0" points="337.652,360 339.099,352.172 342.243,300.323 345.387,292.382 348.531,325.622 351.674,291.051 354.818,321.302 357.962,343.893 361.106,282.298 364.25,230.789 367.393,268.819 370.537,301.943 373.681,281.355 376.825,303.872 379.969,316.546 383.112,308.621 386.256,352.893 389.4,267.969 392.544,254.127 395.688,313.52 398.831,313.96 401.975,321.853 405.119,320.598 408.263,321.203 411.407,303.176 414.55,266.087 415.788,360"/>
<polyline fill="none" stroke="#000000" stroke-width="5.0" points="420.505,360 420.838,342.871 423.982,338.745 427.126,336.481 430.27,332.259 433.413,306.429 436.557,315.256 439.701,315.502 442.845,337.603 445.988,323.175 449.132,319.388 452.276,316.534 455.42,325.839 458.564,337.119 461.707,343.504 464.851,336.241 467.995,345.539 471.139,313.886 474.283,333.342 477.427,348.684 480.57,321.404 483.714,337.79 486.607,360"/>
<polyline fill="none" stroke="#000000" stroke-width="5.0" points="486.952,360 490.002,297.393 493.146,305.332 496.289,338.257 499.433,302.799 502.577,302.761 505.721,321.279 507.834,360"/>
<polyline fill="none" stroke="#000000" stroke-width="5.0" points="517.218,360 518.296,352.609 521.44,251.626 523.643,360"/>
<polyline fill="none" stroke="#000000" stroke-width="5.0" points="526.93,360 527.727,344.273 530.871,330.173 534.015,344.159 537.159,292.603 540.303,356.365 540.494,360"/>
<polyline fill="none" stroke="#000000" stroke-width="5.0" points="545.352,360 546.59,323.584 549.734,327.869 552.878,323.671 556.022,329.045 559.165,311.29 562.309,326.406 565.453,339.343 566.63,360"/>
<polyline fill="none" stroke="#000000" stroke-width="5.0" points="570.692,360 571.741,342.729 574.884,354.187 578.028,283.731 581.172,332.584 584.316,301.135 587.46,238.013 590.603,313.944 593.686,360"/>
<polyline fill="none" stroke="#000000" stroke-width="5.0" points="593.825,360 596.891,323.984 600.035,355.683 603.179,335.585 606.322,295.666 609.466,321.551 609.718,360"/>
<polyline fill="none" stroke="#000000" stroke-width="5.0" points="54.5853,323.398 54.5853,19.5543"/>
<polyline fill="none" stroke="#000000" stroke-width="5.0" points="49.5775,323.398 54.5853,323.398"/>
<polyline fill="none" stroke="#000000" stroke-width="5.0" points="49.5775,26.5738 54.5853,26.5738"/>
<polyline fill="none" stroke="#000000" stroke-width="5.0" points="54.5853,323.398 620.469,323.398"/>
<polyline fill="none" stroke="#000000" stroke-width="5.0" points="54.5853,328.412 54.5853,323.398"/>
<polyline fill="none" stroke="#000000" stroke-width="5.0" points="195.806,328.412 195.806,323.398"/>
<polyline fill="none" stroke="#000000" stroke-width="5.0" points="337.027,328.412 337.027,323.398"/>
<polyline fill="none" stroke="#000000" stroke-width="5.0" points="478.247,328.412 478.247,323.398"/>
<polyline fill="none" stroke="#000000" stroke-width="5.0" points="620.469,328.412 620.469,323.398"/>
</g>
</svg>
