<?xml version="1.0" encoding="UTF-8" standalone="no"?>
<svg xmlns="http://www.w3.org/2000/svg" xmlns:xlink="http://www.w3.org/1999/xlink" width="640px" height="360px" viewBox="0 0 640 360">
<title>VTK GL2PS Export</title>
<desc>
Creator: GL2PS 1.3.8, (C) 1999-2012 C. Geuzaine
For: VTK
CreationDate: Thu Aug 20 18:07:30 2015
</desc>
<defs>
</defs>
<g shape-rendering="crispEdges">
<text fill="#000000" x="47.5743" y="323.398" font-size="30" text-anchor="end" baseline-shift="-15" font-family="Helvetica">0</text>
<text fill="#000000" x="47.5743" y="20.5571" font-size="30" text-anchor="end" baseline-shift="-15" font-family="Helvetica">9.8</text>
<text fill="#000000" x="54.5853" y="330.418" font-size="30" text-anchor="middle" baseline-shift="-30" font-family="Helvetica">0</text>
<text fill="#000000" x="195.806" y="330.418" font-size="30" text-anchor="middle" baseline-shift="-30" font-family="Helvetica">90</text>
<text fill="#000000" x="337.027" y="330.418" font-size="30" text-anchor="middle" baseline-shift="-30" font-family="Helvetica">180</text>
<text fill="#000000" x="478.247" y="330.418" font-size="30" text-anchor="middle" baseline-shift="-30" font-family="Helvetica">270</text>
<text fill="#000000" x="620.469" y="330.418" font-size="30" text-anchor="middle" baseline-shift="-30" font-family="Helvetica">360</text>
<polyline fill="none" stroke="#000000" stroke-width="5.0" points="56.1572,339.434 59.1804,360"/>
<polyline fill="none" stroke="#000000" stroke-width="5.0" points="59.3669,360 62.4448,321.739 65.5886,342.341 68.7324,354.471 71.8762,315.258 75.02,353.759 78.1638,306.889 81.3076,292.416 84.4514,351.848 87.5952,327.058 89.446,360"/>
<polyline fill="none" stroke="#000000" stroke-width="5.0" points="93.0991,360 93.8828,352.358 97.0266,311.119 100.17,351.571 103.314,354.145 106.024,360"/>
<polyline fill="none" stroke="#000000" stroke-width="5.0" points="111.507,360 112.746,343.384 115.889,274.774 119.033,294.08 122.177,330.675 125.321,328.967 127.733,360"/>
<polyline fill="none" stroke="#000000" stroke-width="5.0" points="130.322,360 131.608,353.481 134.752,325.859 137.896,296.382 141.04,333.257 144.184,294.17 147.327,296.874 150.471,325.133 153.615,337.407 156.759,290.565 159.903,324.667 163.046,327.777 166.19,301.545 169.334,322.036 172.478,314.669 175.622,351.406 178.765,329.268 181.909,310.286 185.053,331.997 188.197,325.498 191.341,312.44 194.484,288.851 196.979,360"/>
<polyline fill="none" stroke="#000000" stroke-width="5.0" points="199.414,360 200.772,345.913 203.916,300.89 207.06,286.922 210.203,312.657 213.347,337.243 216.491,297.695 219.635,284.341 222.779,306.657 225.922,261.961 229.066,289.135 232.21,310.62 235.354,337.415 238.498,314.719 241.641,309.731 244.785,310.46 247.929,230.398 251.073,157.405 254.217,336.315 255.755,360"/>
<polyline fill="none" stroke="#000000" stroke-width="5.0" points="257.591,360 260.504,47.1765 263.648,296.25 266.792,302.42 269.936,335.749 273.079,309.193 276.223,333.997 279.367,317.909 282.511,281.814 285.064,360"/>
<polyline fill="none" stroke="#000000" stroke-width="5.0" points="286.272,360 288.798,285.887 291.942,352.376 295.086,320.08 298.23,337.75 301.374,281.675 304.517,338.302 307.661,330.016 310.805,300.114 313.949,316.243 317.093,304.293 320.236,344.618 323.38,325.386 326.524,359.859 329.668,340.864 332.812,344.039 335.955,301.547 339.099,300.039 342.243,315.819 345.387,331.479 348.531,286.352 351.674,292.586 354.818,304.49 357.962,287.44 361.106,333.039 364.25,306.361 367.393,327.545 370.537,286.722 372.604,360"/>
<polyline fill="none" stroke="#000000" stroke-width="5.0" points="375.964,360 376.825,345.601 379.969,348.034 383.112,311.935 385.642,360"/>
<polyline fill="none" stroke="#000000" stroke-width="5.0" points="386.758,360 389.4,298.479 392.544,303.457 395.688,304.234 398.831,328.396 401.975,331.851 405.119,313.336 408.263,340.353 411.407,316.099 414.55,338.375 417.694,317.529 420.838,320.11 423.982,331.604 427.126,333.316 430.27,328.635 433.413,322.938 436.557,341.949 439.701,296.873 442.845,316.922 445.988,310.042 449.132,324.12 452.276,272.272 455.42,355.647 458.564,305.686 461.707,348.745 464.851,299.668 467.995,282.488 470.612,360"/>
<polyline fill="none" stroke="#000000" stroke-width="5.0" points="473.668,360 474.283,356.208 477.427,294.088 480.57,227.693 483.714,252.473 486.858,321.977 490.002,276.609 492.904,360"/>
<polyline fill="none" stroke="#000000" stroke-width="5.0" points="493.918,360 496.289,338.729 499.433,287.495 502.577,324.453 505.721,355.109 508.865,330.456 512.008,320.914 515.152,334.294 518.296,335.309 521.44,330.777 524.583,331.574 527.727,345.911 530.871,312.513 534.015,277.461 537.159,356.828 540.303,292.377 543.362,360"/>
<polyline fill="none" stroke="#000000" stroke-width="5.0" points="543.524,360 546.59,286.383 549.734,285.654 552.372,360"/>
<polyline fill="none" stroke="#000000" stroke-width="5.0" points="556.438,360 559.165,327.649 562.309,346.935 565.453,302.466 568.597,331.146 571.741,315.698 574.884,345.805 578.028,296.74 581.172,281.482 584.316,314.438 587.46,339.327 590.603,350.241 593.747,313.55 596.891,350.149 600.035,354.271 603.179,345.018 606.322,326.274 609.466,292.044 612.61,279.848 615.754,347.94 618.898,333.361"/>
<polyline fill="none" stroke="#000000" stroke-width="5.0" points="54.5853,323.398 54.5853,19.5543"/>
<polyline fill="none" stroke="#000000" stroke-width="5.0" points="49.5775,323.398 54.5853,323.398"/>
<polyline fill="none" stroke="#000000" stroke-width="5.0" points="49.5775,20.5571 54.5853,20.5571"/>
<polyline fill="none" stroke="#000000" stroke-width="5.0" points="54.5853,323.398 620.469,323.398"/>
<polyline fill="none" stroke="#000000" stroke-width="5.0" points="54.5853,328.412 54.5853,323.398"/>
<polyline fill="none" stroke="#000000" stroke-width="5.0" points="195.806,328.412 195.806,323.398"/>
<polyline fill="none" stroke="#000000" stroke-width="5.0" points="337.027,328.412 337.027,323.398"/>
<polyline fill="none" stroke="#000000" stroke-width="5.0" points="478.247,328.412 478.247,323.398"/>
<polyline fill="none" stroke="#000000" stroke-width="5.0" points="620.469,328.412 620.469,323.398"/>
</g>
</svg>
