<?xml version="1.0" encoding="UTF-8" standalone="no"?>
<svg xmlns="http://www.w3.org/2000/svg" xmlns:xlink="http://www.w3.org/1999/xlink" width="640px" height="360px" viewBox="0 0 640 360">
<title>VTK GL2PS Export</title>
<desc>
Creator: GL2PS 1.3.8, (C) 1999-2012 C. Geuzaine
For: VTK
CreationDate: Mon Aug 17 19:33:01 2015
</desc>
<defs>
</defs>
<g shape-rendering="crispEdges">
<text fill="#000000" x="47.5743" y="323.398" font-size="30" text-anchor="end" baseline-shift="-15" font-family="Helvetica">0</text>
<text fill="#000000" x="47.5743" y="22.5627" font-size="30" text-anchor="end" baseline-shift="-15" font-family="Helvetica">5.3</text>
<text fill="#000000" x="54.5853" y="330.418" font-size="30" text-anchor="middle" baseline-shift="-30" font-family="Helvetica">0</text>
<text fill="#000000" x="195.806" y="330.418" font-size="30" text-anchor="middle" baseline-shift="-30" font-family="Helvetica">90</text>
<text fill="#000000" x="337.027" y="330.418" font-size="30" text-anchor="middle" baseline-shift="-30" font-family="Helvetica">180</text>
<text fill="#000000" x="478.247" y="330.418" font-size="30" text-anchor="middle" baseline-shift="-30" font-family="Helvetica">270</text>
<text fill="#000000" x="620.469" y="330.418" font-size="30" text-anchor="middle" baseline-shift="-30" font-family="Helvetica">360</text>
<polyline fill="none" stroke="#000000" stroke-width="5.0" points="56.1572,350.097 59.301,102.299 62.4448,234.871 65.0956,360"/>
<polyline fill="none" stroke="#000000" stroke-width="5.0" points="66.2538,360 68.7324,273.286 71.8762,259.87 75.02,217.661 78.1638,263.183 81.3076,259.691 83.1842,360"/>
<polyline fill="none" stroke="#000000" stroke-width="5.0" points="88.5641,360 90.739,319.149 93.8828,297.651 97.0266,307.166 99.8321,360"/>
<polyline fill="none" stroke="#000000" stroke-width="5.0" points="100.581,360 103.314,317.548 106.458,297.225 109.602,261.406 112.746,334.56 115.889,341.592 119.033,239.832 121.614,360"/>
<polyline fill="none" stroke="#000000" stroke-width="5.0" points="123.083,360 125.321,295.238 128.465,352.599 131.608,257.982 134.752,347.426 135.436,360"/>
<polyline fill="none" stroke="#000000" stroke-width="5.0" points="142.054,360 144.184,297.262 147.327,235.966 150.471,352.486 150.912,360"/>
<polyline fill="none" stroke="#000000" stroke-width="5.0" points="155.092,360 156.759,308.016 159.903,281.813 162.69,360"/>
<polyline fill="none" stroke="#000000" stroke-width="5.0" points="167.283,360 169.334,351.916 172.478,264.566 175.606,360"/>
<polyline fill="none" stroke="#000000" stroke-width="5.0" points="175.687,360 178.765,337.113 181.909,330.757 183.447,360"/>
<polyline fill="none" stroke="#000000" stroke-width="5.0" points="186.107,360 188.197,299.462 191.341,294.311 193.327,360"/>
<polyline fill="none" stroke="#000000" stroke-width="5.0" points="198.071,360 200.772,260.197 203.916,262.198 207.06,297.648 210.203,291.528 213.347,310.521 214.794,360"/>
<polyline fill="none" stroke="#000000" stroke-width="5.0" points="220.365,360 222.779,320.564 225.922,307.316 229.066,323.452 230.198,360"/>
<polyline fill="none" stroke="#000000" stroke-width="5.0" points="233.549,360 235.354,272.453 238.498,270.262 241.641,304.919 244.785,270.677 247.929,330.096 251.073,297.016 254.217,275.109 256.18,360"/>
<polyline fill="none" stroke="#000000" stroke-width="5.0" points="258.61,360 260.504,282.642 263.648,299.784 266.792,344.945 269.936,347.651 273.079,304.231 276.223,320.556 279.367,330.076 282.511,322.195 285.655,213.958 288.24,360"/>
<polyline fill="none" stroke="#000000" stroke-width="5.0" points="290.387,360 291.942,329.127 295.086,309.386 298.23,346.649 299.335,360"/>
<polyline fill="none" stroke="#000000" stroke-width="5.0" points="303.221,360 304.517,342.72 307.661,314.213 310.805,306.328 313.949,214.337 317.093,323.618 320.236,297.57 323.38,312.165 326.363,360"/>
<polyline fill="none" stroke="#000000" stroke-width="5.0" points="327.387,360 329.668,353.16 332.812,278.942 335.955,273.173 339.099,354.901 342.243,341.646 345.387,325.296 348.531,313.59 351.674,279.122 353.35,360"/>
<polyline fill="none" stroke="#000000" stroke-width="5.0" points="355.971,360 357.962,237.68 361.106,283.416 364.25,297.735 367.393,305.202 370.076,360"/>
<polyline fill="none" stroke="#000000" stroke-width="5.0" points="370.996,360 373.681,304.886 376.825,250.053 379.969,346.238 380.997,360"/>
<polyline fill="none" stroke="#000000" stroke-width="5.0" points="383.795,360 386.256,258.024 389.4,302.848 391.26,360"/>
<polyline fill="none" stroke="#000000" stroke-width="5.0" points="394.049,360 395.688,317.047 398.831,274.866 401.911,360"/>
<polyline fill="none" stroke="#000000" stroke-width="5.0" points="406.096,360 408.263,309.713 409.575,360"/>
<polyline fill="none" stroke="#000000" stroke-width="5.0" points="413.684,360 414.55,333.29 417.694,324.169 420.838,300.887 423.982,356.15 427.126,345.139 430.27,170.142 432.896,360"/>
<polyline fill="none" stroke="#000000" stroke-width="5.0" points="434.336,360 436.557,269.922 439.701,301.75 442.845,281.326 445.988,278.565 449.132,295.511 452.276,289.311 455.42,303.917 458.564,257.889 461.707,333.837 464.851,299.012 467.995,288.514 471.139,313.559 474.283,354.873 477.427,262.141 480.57,313.513 482.394,360"/>
<polyline fill="none" stroke="#000000" stroke-width="5.0" points="485.248,360 486.858,324.653 490.002,268.482 492.603,360"/>
<polyline fill="none" stroke="#000000" stroke-width="5.0" points="496.802,360 499.433,270.175 502.341,360"/>
<polyline fill="none" stroke="#000000" stroke-width="5.0" points="502.857,360 505.721,285.516 508.865,263.067 512.008,232.33 515.152,303.324 518.296,332.411 519.934,360"/>
<polyline fill="none" stroke="#000000" stroke-width="5.0" points="525.352,360 527.727,331.835 529.443,360"/>
<polyline fill="none" stroke="#000000" stroke-width="5.0" points="531.365,360 534.015,234.37 536.784,360"/>
<polyline fill="none" stroke="#000000" stroke-width="5.0" points="538.814,360 540.303,344.699 540.988,360"/>
<polyline fill="none" stroke="#000000" stroke-width="5.0" points="544.422,360 546.59,238.121 549.734,300.952 551.542,360"/>
<polyline fill="none" stroke="#000000" stroke-width="5.0" points="553.924,360 556.022,272.491 559.158,360"/>
<polyline fill="none" stroke="#000000" stroke-width="5.0" points="559.209,360 562.309,344.63 562.993,360"/>
<polyline fill="none" stroke="#000000" stroke-width="5.0" points="567.021,360 568.597,304.432 571.741,305.101 574.884,290.868 578.028,322.895 581.172,230.536 584.316,334.06 587.46,356.31 590.603,300.079 592.268,360"/>
<polyline fill="none" stroke="#000000" stroke-width="5.0" points="595.701,360 596.891,327.552 600.035,252.434 603.179,294.14 606.225,360"/>
<polyline fill="none" stroke="#000000" stroke-width="5.0" points="606.411,360 609.466,286.854 612.61,355.693 614.805,360"/>
<polyline fill="none" stroke="#000000" stroke-width="5.0" points="615.799,360 618.898,232.431"/>
<polyline fill="none" stroke="#000000" stroke-width="5.0" points="54.5853,323.398 54.5853,19.5543"/>
<polyline fill="none" stroke="#000000" stroke-width="5.0" points="49.5775,323.398 54.5853,323.398"/>
<polyline fill="none" stroke="#000000" stroke-width="5.0" points="49.5775,22.5627 54.5853,22.5627"/>
<polyline fill="none" stroke="#000000" stroke-width="5.0" points="54.5853,323.398 620.469,323.398"/>
<polyline fill="none" stroke="#000000" stroke-width="5.0" points="54.5853,328.412 54.5853,323.398"/>
<polyline fill="none" stroke="#000000" stroke-width="5.0" points="195.806,328.412 195.806,323.398"/>
<polyline fill="none" stroke="#000000" stroke-width="5.0" points="337.027,328.412 337.027,323.398"/>
<polyline fill="none" stroke="#000000" stroke-width="5.0" points="478.247,328.412 478.247,323.398"/>
<polyline fill="none" stroke="#000000" stroke-width="5.0" points="620.469,328.412 620.469,323.398"/>
</g>
</svg>
