<?xml version="1.0" encoding="UTF-8" standalone="no"?>
<svg xmlns="http://www.w3.org/2000/svg" xmlns:xlink="http://www.w3.org/1999/xlink" width="640px" height="360px" viewBox="0 0 640 360">
<title>VTK GL2PS Export</title>
<desc>
Creator: GL2PS 1.3.8, (C) 1999-2012 C. Geuzaine
For: VTK
CreationDate: Mon Aug 17 19:28:58 2015
</desc>
<defs>
</defs>
<g shape-rendering="crispEdges">
<text fill="#000000" x="48.5759" y="323.398" font-size="30" text-anchor="end" baseline-shift="-15" font-family="Helvetica">0</text>
<text fill="#000000" x="48.5759" y="37.6045" font-size="30" text-anchor="end" baseline-shift="-15" font-family="Helvetica">0.6</text>
<text fill="#000000" x="55.5869" y="330.418" font-size="30" text-anchor="middle" baseline-shift="-30" font-family="Helvetica">0</text>
<text fill="#000000" x="196.807" y="330.418" font-size="30" text-anchor="middle" baseline-shift="-30" font-family="Helvetica">90</text>
<text fill="#000000" x="338.028" y="330.418" font-size="30" text-anchor="middle" baseline-shift="-30" font-family="Helvetica">180</text>
<text fill="#000000" x="479.249" y="330.418" font-size="30" text-anchor="middle" baseline-shift="-30" font-family="Helvetica">270</text>
<text fill="#000000" x="620.469" y="330.418" font-size="30" text-anchor="middle" baseline-shift="-30" font-family="Helvetica">360</text>
<polyline fill="none" stroke="#000000" stroke-width="5.0" points="57.156,315.438 60.2942,311.823 63.4324,307.117 66.5707,300.209 69.7089,291.55 72.8472,281.055 75.9854,268.214 79.1236,253.488 82.2619,236.574 85.4001,217.888 88.5383,198.561 91.6766,179.44 94.8148,160.494 97.953,142.331 101.091,124.923 104.23,109.019 107.368,94.3909 110.506,80.8281 113.644,68.254 116.782,60.8385 119.921,56.7149 123.059,52.0079 126.197,48.857 129.335,47.1765 132.474,47.7021 135.612,51.1439 138.75,56.6582 141.888,68.3275 145.027,86.0787 148.165,104.083 151.303,121.318 154.441,136.844 157.58,150.258 160.718,161.702 163.856,172.325 166.994,249.948 170.133,273.761 173.271,287.905 176.409,297.773 179.547,305.09 182.685,311.234 185.824,314.273 188.962,315.496 192.1,317.086 195.238,314.53 198.377,312.822 201.515,312.068 204.653,313.98 207.791,316.493 210.93,320.945 214.068,323.092 217.206,303.428 220.344,299.202 223.483,307.115 226.621,315.248 229.759,321.442 232.897,322.41 236.035,313.53 239.174,289.941 242.312,314.07 245.45,321.039 248.588,323.041 251.727,323.15 254.865,322.464 258.003,321.624 261.141,320.946 264.28,320.67 267.418,322.819 270.556,323.237 273.694,323.273 276.833,323.404 279.971,323.401 283.109,323.284 286.247,323.291 289.385,323.251 292.524,323.255 295.662,323.262 298.8,323.012 301.938,322.641 305.077,322.605 308.215,322.572 311.353,322.603 314.491,322.738 317.63,322.864 320.768,323.023 323.906,323.188 327.044,323.314 330.183,323.31 333.321,323.237 336.459,323.09 339.597,322.817 342.736,322.622 345.874,322.639 349.012,322.762 352.15,323.092 355.288,323.345 358.427,323.261 361.565,323.026 364.703,323.193 367.841,323.228 370.98,323.271 374.118,323.279 377.256,323.264 380.394,323.256 383.533,323.248 386.671,323.224 389.809,323.172 392.947,323.11 396.086,322.93 399.224,322.747 402.362,322.99 405.5,323.172 408.639,323.264 411.777,323.187 414.915,322.594 418.053,321.488 421.191,319.555 424.33,322.775 427.468,323.262 430.606,322.951 433.744,322.259 436.883,321.629 440.021,321.086 443.159,320.93 446.297,321.125 449.436,318.189 452.574,319.136 455.712,319.928 458.85,320.619 461.989,320.534 465.127,321.222 468.265,321.532 471.403,321.775 474.541,321.876 477.68,321.414 480.818,321.216 483.956,321.34 487.094,320.998 490.233,321.628 493.371,322.34 496.509,323.061 499.647,322.97 502.786,321.525 505.924,321.951 509.062,322.249 512.2,323.129 515.339,323.375 518.477,323.238 521.615,322.507 524.753,322.31 527.892,323.062 531.03,323.178 534.168,323.24 537.306,323.312 540.444,323.286 543.583,323.274 546.721,323.289 549.859,323.285 552.997,323.325 556.136,323.478 559.274,323.418 562.412,323.289 565.55,323.279 568.689,323.275 571.827,323.268 574.965,323.286 578.103,323.292 581.242,323.279 584.38,323.006 587.518,323.006 590.656,323.006 593.794,323.006 596.933,323.006 600.071,323.006 603.209,323.006 606.347,323.006 609.486,323.006 612.624,323.006 615.762,323.006 618.9,318.149"/>
<polyline fill="none" stroke="#000000" stroke-width="5.0" points="55.5869,323.398 55.5869,19.5543"/>
<polyline fill="none" stroke="#000000" stroke-width="5.0" points="50.579,323.398 55.5869,323.398"/>
<polyline fill="none" stroke="#000000" stroke-width="5.0" points="50.579,37.6045 55.5869,37.6045"/>
<polyline fill="none" stroke="#000000" stroke-width="5.0" points="55.5869,323.398 620.469,323.398"/>
<polyline fill="none" stroke="#000000" stroke-width="5.0" points="55.5869,328.412 55.5869,323.398"/>
<polyline fill="none" stroke="#000000" stroke-width="5.0" points="196.807,328.412 196.807,323.398"/>
<polyline fill="none" stroke="#000000" stroke-width="5.0" points="338.028,328.412 338.028,323.398"/>
<polyline fill="none" stroke="#000000" stroke-width="5.0" points="479.249,328.412 479.249,323.398"/>
<polyline fill="none" stroke="#000000" stroke-width="5.0" points="620.469,328.412 620.469,323.398"/>
</g>
</svg>
