<?xml version="1.0" encoding="UTF-8" standalone="no"?>
<svg xmlns="http://www.w3.org/2000/svg" xmlns:xlink="http://www.w3.org/1999/xlink" width="1296px" height="998px" viewbox="0 0 1296 998">
<title>VTK GL2PS Export</title>
<desc>
Creator: GL2PS 1.3.8, (C) 1999-2012 C. Geuzaine
For: VTK
CreationDate: Sun Aug 16 14:46:41 2015
</desc>
<defs>
</defs>
<g shape-rendering="crispEdges">
<polyline fill="none" stroke="#ff0000" stroke-width="5.0" points="979.57,507.273 979.656,497.255 979.498,487.179 979.63,477.084 979.914,466.897 979.144,456.694 978.767,446.577 977.598,436.094 977.617,425.806 976.179,415.539 975.092,405.009 973.856,394.246 972.442,383.4 971.235,372.634 970.254,361.568 968.498,350.245 967.159,338.333 965.6,326.304 964.148,314.078 962.482,301.764 960.877,288.517 959.134,275.109 956.46,261.57 954.003,247.595 950.752,234.143 946.799,219.941 942.045,206.276 936.458,193.06 929.744,180.43 922.041,168.302 913.142,157.131 903.118,147.919 892.324,140.115 880.128,134.484 866.713,128.957 852.881,126.473 838.567,126.395 823.229,127.801 807.908,131.275 792.692,136.325 777.265,144.048 762.347,152.608 747.787,162.313 733.979,172.617 720.872,184.64 708.798,195.736 697.556,205.706 687.157,215.13 677.511,221.932 668.394,225.652 659.505,227.179 650.611,225.195 641.411,221.186 631.606,214.37 621.108,206.03 609.818,196.411 597.632,186.392 584.609,175.846 571.165,167.417 557.086,158.872 542.934,152.886 528.222,147.903 514.106,144.362 500.084,143.042 486.272,143.834 473.358,146.769 461.242,151.74 450.286,157.091 440.058,165.885 431.241,175.376 423.021,185.497 416.24,197.862 410.555,210.05 405.195,222.726 401.009,235.769 397.498,249.079 394.765,262.466 392.031,275.115 389.884,287.716 387.262,300.03 385.208,311.476 383.133,322.918 379.802,333.68 377.778,344.591 375.587,354.507 373.045,364.865 369.759,374.904 367.307,384.463 364.575,394.137 362.502,404.165 358.718,413.764 356.646,423.45 354.055,433.004 351.146,442.476 346.428,452.004 340.744,461.394 333.702,470.899 325.975,480.708 319.631,491.082 316.378,501.816 316.086,512.739 320.002,523.494 326.22,533.807 333.65,543.673 341.6,553.14 346.319,562.585 350.859,572.04 354.018,581.543 356.712,591.214 359.728,600.595 361.395,610.489 364.317,620.217 367.367,629.945 369.382,639.884 372.493,649.685 375.439,659.83 378.029,670.161 380.216,680.823 382.094,691.791 384.958,703.206 386.947,714.507 388.651,726.851 391.769,739.787 394.491,752.465 397.165,765.62 400.675,778.956 404.987,791.489 410.376,804.78 415.854,816.637 422.93,828.158 430.533,839.139 439.685,848.648 450.107,856.478 461.344,862.888 473.241,867.637 486.338,870.602 499.826,871.294 513.888,870.486 528.108,867.497 542.493,862.91 556.821,856.045 570.836,849.006 584.375,839.143 597.424,828.975 609.741,818.581 621.086,808.16 631.653,799.707 641.487,792.227 650.672,786.812 659.527,785.216 668.327,786.065 677.331,789.934 686.82,795.335 696.96,804.294 707.934,813.403 719.769,823.43 732.429,834.297 745.812,843.641 759.549,852.518 773.898,859.608 788.118,865.831 802.571,869.247 816.771,871.605 830.674,871.341 843.498,869.452 856.368,866.07 867.884,860.353 878.713,852.092 888.398,844.395 896.56,834.179 904.622,822.572 910.853,811.23 916.007,798.44 920.803,785.55 924.821,772.076 927.414,759.439 930.851,746.151 933.349,733.269 935.115,720.747 937.88,708.948 939.703,697.498 941.979,686.444 945.107,675.641 947.342,665.006 950.206,654.761 952.604,644.703 954.929,634.816 957.822,625.231 960.625,615.412 963.12,605.614 965.156,596.052 967.654,586.259 970.147,576.565 971.802,566.812 973.976,556.981 975.118,547.019 975.938,537.185 977.641,527.261 978.203,517.299 979.57,507.273"/>
<polyline fill="none" stroke="#00ff00" stroke-width="5.0" points="977.777,507.273 977.861,497.256 977.644,487.312 977.2,477.299 976.914,467.265 976.276,457.28 974.734,447.163 974.04,437.195 972.322,427.217 970.821,416.984 968.729,406.947 967.534,396.633 966.027,386.626 963.306,375.883 961.686,365.667 958.925,354.809 957.783,343.794 955.632,332.577 952.38,321.03 951.798,308.965 949.827,296.676 947.614,284.026 945.156,270.787 942.326,257.747 939.841,244.418 935.975,230.873 931.473,217.877 926.494,204.274 920.259,191.515 913.804,180.085 905.226,169.373 895.635,159.586 885.242,151.36 873.878,144.345 861.384,139.414 848.733,135.76 834.309,134.737 820.038,135.036 805.478,138.054 790.514,142.093 775.651,148.874 761.218,156.94 746.833,165.854 733.417,175.867 720.448,187.277 708.473,197.454 697.36,207.478 687.074,216.599 677.442,222.858 668.375,226.599 659.517,227.669 650.603,226.04 641.387,221.164 631.57,213.995 620.969,205.136 609.669,196.495 597.35,185.788 584.294,175.352 570.842,166.515 556.807,158.704 542.563,151.831 528.06,146.61 513.781,144.375 499.685,143.147 486.039,143.749 473.512,146.805 461.379,151.818 450.079,158.269 439.924,166.3 431.018,175.657 422.824,186.179 415.839,197.683 409.417,209.65 405.277,223.203 400.888,235.611 397.511,249.255 394.354,262.125 391.642,274.861 389.57,286.728 387.036,299.578 384.96,311.13 382.873,322.733 380.112,333.568 377.978,344.134 374.971,354.491 372.413,364.83 370.183,374.643 366.603,384.625 364.46,394.221 362.388,404.037 359.392,413.802 357.313,423.429 354.306,432.992 350.451,442.66 346.748,452.086 341.935,461.417 335.193,471.007 326.543,480.781 319.458,491.087 316.121,501.816 316.171,512.74 320.156,523.448 327.097,533.784 334.535,543.552 341.405,553.051 347.171,562.489 351.074,571.937 353.875,581.487 356.909,591.097 359.385,600.713 361.783,610.412 364.653,620.174 367.142,630.022 369.737,639.705 372.615,649.919 375.376,659.805 377.31,670.143 380.367,681.041 382.1,692.034 384.29,703.06 387.053,715.447 389.292,727.182 391.454,739.836 394.081,752.511 397.51,765.699 400.512,778.367 404.976,791.917 409.85,804.497 416.24,817.386 423.028,828.343 430.612,838.826 439.847,848.35 450.034,856.395 461.315,862.573 473.339,867.361 486.253,870.431 499.755,871.578 513.82,870.136 528.061,866.963 542.619,862.499 556.878,855.738 570.892,847.962 584.451,838.777 597.452,828.432 609.653,818.12 621.057,807.787 631.637,799.031 641.453,792.385 650.662,787.489 659.525,784.932 668.33,785.985 677.316,789.597 686.821,795.329 697.048,804.053 707.954,812.66 719.687,822.919 732.283,833.963 745.61,843.648 759.55,851.742 773.624,859.193 787.926,864.935 802.813,868.799 816.705,871.025 830.233,871.568 843.423,869.32 856.054,865.491 868.082,859.441 878.589,852.324 888.118,844.447 896.588,834.194 903.625,823.377 910.53,810.958 915.957,798.095 920.525,785.479 924.295,771.777 927.831,759.176 930.385,745.874 932.73,733.375 935.776,720.875 937.735,709.443 940.227,697.443 941.499,686.434 944.787,675.342 947.043,665.132 949.578,654.714 952.454,644.771 954.871,635.111 957.598,625.154 960.347,615.448 962.985,605.634 966.204,595.898 967.989,586.247 969.784,576.406 971.596,566.721 972.72,556.834 974.593,547.017 976.052,537.134 976.603,527.22 977.723,517.231 977.777,507.273"/>
<text fill="#333333" x="1253" y="945" font-size="15" text-anchor="start" baseline-shift="0" font-family="Helvetica-BoldItalic">-1.37 </text>
<text fill="#333333" x="1253" y="726" font-size="15" text-anchor="start" baseline-shift="0" font-family="Helvetica-BoldItalic">-0.670</text>
<text fill="#333333" x="1253" y="506" font-size="15" text-anchor="start" baseline-shift="0" font-family="Helvetica-BoldItalic">0.0279</text>
<text fill="#333333" x="1253" y="287" font-size="15" text-anchor="start" baseline-shift="0" font-family="Helvetica-BoldItalic">0.726 </text>
<text fill="#333333" x="1253" y="67" font-size="15" text-anchor="start" baseline-shift="0" font-family="Helvetica-BoldItalic">1.42  </text>
<text fill="#333333" x="1171" y="23" font-size="15" text-anchor="start" baseline-shift="0" font-family="Helvetica-BoldItalic">1.70  </text>
<text fill="#333333" x="897" y="23" font-size="15" text-anchor="start" baseline-shift="0" font-family="Helvetica-BoldItalic">0.829 </text>
<text fill="#333333" x="623" y="23" font-size="15" text-anchor="start" baseline-shift="0" font-family="Helvetica-BoldItalic">-0.0420</text>
<text fill="#333333" x="349" y="23" font-size="15" text-anchor="start" baseline-shift="0" font-family="Helvetica-BoldItalic">-0.913</text>
<text fill="#333333" x="75" y="23" font-size="15" text-anchor="start" baseline-shift="0" font-family="Helvetica-BoldItalic">-1.78 </text>
<polyline fill="none" stroke="#000000" stroke-width="5.0" points="1246,938 1246,60"/>
<polyline fill="none" stroke="#000000" stroke-width="5.0" points="1246,938 1251,938"/>
<polyline fill="none" stroke="#000000" stroke-width="5.0" points="1246,718.5 1251,718.5"/>
<polyline fill="none" stroke="#000000" stroke-width="5.0" points="1246,499 1251,499"/>
<polyline fill="none" stroke="#000000" stroke-width="5.0" points="1246,279.5 1251,279.5"/>
<polyline fill="none" stroke="#000000" stroke-width="5.0" points="1246,60 1251,60"/>
<polyline fill="none" stroke="#000000" stroke-width="5.0" points="1196,30 100,30"/>
<polyline fill="none" stroke="#000000" stroke-width="5.0" points="1196,30 1196,25"/>
<polyline fill="none" stroke="#000000" stroke-width="5.0" points="922,30 922,25"/>
<polyline fill="none" stroke="#000000" stroke-width="5.0" points="648,30 648,25"/>
<polyline fill="none" stroke="#000000" stroke-width="5.0" points="374,30 374,25"/>
<polyline fill="none" stroke="#000000" stroke-width="5.0" points="100,30 100,25"/>
</g>
</svg>
