<?xml version="1.0" encoding="UTF-8" standalone="no"?>
<svg xmlns:dc="http://purl.org/dc/elements/1.1/" xmlns:cc="http://creativecommons.org/ns#" xmlns:rdf="http://www.w3.org/1999/02/22-rdf-syntax-ns#" xmlns:svg="http://www.w3.org/2000/svg" xmlns="http://www.w3.org/2000/svg" xmlns:sodipodi="http://sodipodi.sourceforge.net/DTD/sodipodi-0.dtd" xmlns:inkscape="http://www.inkscape.org/namespaces/inkscape" width="640px" height="360px" viewBox="0 0 640 360" id="svg2" version="1.1" inkscape:version="0.91 r13725" sodipodi:docname="0-by-angle.svg">
  <metadata id="metadata48">
    <rdf:RDF>
      <cc:Work rdf:about="">
        <dc:format>image/svg+xml</dc:format>
        <dc:type rdf:resource="http://purl.org/dc/dcmitype/StillImage"/>
      </cc:Work>
    </rdf:RDF>
  </metadata>
  <sodipodi:namedview pagecolor="#ffffff" bordercolor="#666666" borderopacity="1" objecttolerance="10" gridtolerance="10" guidetolerance="10" inkscape:pageopacity="0" inkscape:pageshadow="2" inkscape:window-width="912" inkscape:window-height="480" id="namedview46" showgrid="false" inkscape:zoom="0.65555556" inkscape:cx="182.80431" inkscape:cy="173.09602" inkscape:window-x="0" inkscape:window-y="32" inkscape:window-maximized="0" inkscape:current-layer="g10"/>
  <title id="title4">VTK GL2PS Export</title>
  <desc id="desc6">
Creator: GL2PS 1.3.8, (C) 1999-2012 C. Geuzaine
For: VTK
CreationDate: Wed Aug 26 17:40:34 2015
</desc>
  <defs id="defs8"/>
  <g shape-rendering="crispEdges" id="g10">
    <text fill="#000000" x="47.5743" y="323.398" font-size="30" text-anchor="end" baseline-shift="-15" font-family="Helvetica" id="text12">0</text>
    <text x="45.574299" y="105.5822" font-size="30" baseline-shift="-15" id="text14" style="font-size:30px;font-family:Helvetica;baseline-shift:-15px;text-anchor:end;fill:#000000">0.3</text>
    <text fill="#000000" x="54.5853" y="330.418" font-size="30" text-anchor="middle" baseline-shift="-30" font-family="Helvetica" id="text16">0</text>
    <text fill="#000000" x="195.806" y="330.418" font-size="30" text-anchor="middle" baseline-shift="-30" font-family="Helvetica" id="text18">90</text>
    <text fill="#000000" x="337.027" y="330.418" font-size="30" text-anchor="middle" baseline-shift="-30" font-family="Helvetica" id="text20">180</text>
    <text fill="#000000" x="478.247" y="330.418" font-size="30" text-anchor="middle" baseline-shift="-30" font-family="Helvetica" id="text22">270</text>
    <text fill="#000000" x="620.469" y="330.418" font-size="30" text-anchor="middle" baseline-shift="-30" font-family="Helvetica" id="text24">360</text>
    <polyline points="56.1572,297.691 59.301,297.465 62.4448,299.489 65.5886,325.887 68.7324,317.236 71.8762,322.692 75.02,344.441 78.1638,324.056 81.3076,340.44 84.4514,303.473 87.5952,306.48 90.739,309.404 93.8828,312.065 97.0266,314.376 100.17,316.238 103.314,317.689 106.458,319.427 109.602,320.407 112.746,321.074 115.889,322.302 119.033,323.784 122.177,324.549 125.321,322.753 128.465,317.146 131.608,308.526 134.752,300.681 137.896,295.126 141.04,291.481 144.184,288.768 147.327,284.218 150.471,275.004 153.615,265.081 156.759,255.107 159.903,245.362 163.046,238.11 166.19,232.897 169.334,233.168 172.478,234.676 175.622,236.35 178.765,236.372 181.909,239.035 185.053,235.52 188.197,235.018 191.341,236.928 194.484,239.477 197.628,241.871 200.772,243.408 203.916,244.087 207.06,243.506 210.203,241.532 213.347,238.597 216.491,229.689 219.635,215.728 222.779,191.332 225.922,160.558 229.066,129.766 232.21,103.287 235.354,83.3053 238.498,74.2605 241.641,77.2481 244.785,87.7643 247.929,99.4395 251.073,110.119 254.217,116.748 257.36,116.29 260.504,120.044 263.648,126.648 266.792,137.048 269.936,149.642 273.079,164.796 276.223,190.262 279.367,223.04 282.511,251.481 285.655,274.17 288.798,293.514 291.942,307.716 295.086,316.44 298.23,321.265 301.374,324.23 304.517,326.022 307.661,326.788 310.805,327.614 313.949,329.33 317.093,330.904 320.236,330.53 323.38,326.263 326.524,316.863 329.668,302.501 332.812,284.854 335.955,266.319 339.099,248.756 342.243,233.229 345.387,220.488 348.531,210.653 351.674,203.53 354.818,198.556 357.962,195.42 361.106,194.139 364.25,194.999 367.393,198.711 370.537,205.236 373.681,214.965 376.825,228.05 379.969,243.725 383.112,260.467 386.256,275.622 389.4,286.411 392.544,293.094 395.688,303.481 398.831,314.615 401.975,320.175 405.119,319.83 408.263,320.261 411.407,317.038 414.55,316.872 417.694,316.25 420.838,315.048 423.982,313.564 427.126,311.945 430.27,313.977 433.413,318.303 436.557,322.552 439.701,325.534 442.845,327.024 445.988,324.079 449.132,319.344 452.276,317.948 455.42,318.34 458.564,320.066 461.707,322.505 464.851,325.965 467.995,326.444 471.139,326.405 474.283,326.25 477.427,326.054 480.57,325.992 483.714,326.092 486.858,326.384 490.002,327.225 493.146,328.471 496.289,329.044 499.433,329.452 502.577,330.791 505.721,331.729 508.865,331.683 512.008,330.25 515.152,326.267 518.296,319.077 521.44,305.917 524.583,306.154 527.727,317.003 530.871,322.372 534.015,323.751 537.159,326.044 540.303,326.173 543.446,325.184 546.59,324.463 549.734,325.234 552.878,324.432 556.022,319.555 559.165,322.487 562.309,334.176 565.453,333.578 568.597,329.644 571.741,325.89 574.884,325.417 578.028,326.343 581.172,324.116 584.316,321.893 587.46,320.059 590.603,318.753 593.747,317.804 596.891,340.748 600.035,346.158 603.179,278.349 606.322,340.858 609.466,325.471 612.61,326.681 615.754,297.415 618.898,297.306" id="polyline26" transform="matrix(1.000205,0,0,0.77622992,-0.06853457,79.331946)" style="fill:none;stroke:#000000;stroke-width:5"/>
    <polyline fill="none" stroke="#000000" stroke-width="5.0" points="54.5853,323.398 54.5853,19.5543" id="polyline28"/>
    <polyline fill="none" stroke="#000000" stroke-width="5.0" points="49.5775,323.398 54.5853,323.398" id="polyline30"/>
    <polyline points="49.5775,29.5822 54.5853,29.5822" id="polyline32" transform="matrix(1.000205,0,0,0.77622992,-0.06853457,79.331946)" style="fill:none;stroke:#000000;stroke-width:5"/>
    <polyline fill="none" stroke="#000000" stroke-width="5.0" points="54.5853,323.398 620.469,323.398" id="polyline34"/>
    <polyline fill="none" stroke="#000000" stroke-width="5.0" points="54.5853,328.412 54.5853,323.398" id="polyline36"/>
    <polyline fill="none" stroke="#000000" stroke-width="5.0" points="195.806,328.412 195.806,323.398" id="polyline38"/>
    <polyline fill="none" stroke="#000000" stroke-width="5.0" points="337.027,328.412 337.027,323.398" id="polyline40"/>
    <polyline fill="none" stroke="#000000" stroke-width="5.0" points="478.247,328.412 478.247,323.398" id="polyline42"/>
    <polyline fill="none" stroke="#000000" stroke-width="5.0" points="620.469,328.412 620.469,323.398" id="polyline44"/>
  </g>
</svg>
