<?xml version="1.0" encoding="UTF-8" standalone="no"?>
<svg xmlns="http://www.w3.org/2000/svg" xmlns:xlink="http://www.w3.org/1999/xlink" width="640px" height="360px" viewBox="0 0 640 360">
<title>VTK GL2PS Export</title>
<desc>
Creator: GL2PS 1.3.8, (C) 1999-2012 C. Geuzaine
For: VTK
CreationDate: Mon Aug 17 19:28:27 2015
</desc>
<defs>
</defs>
<g shape-rendering="crispEdges">
<text fill="#000000" x="47.5743" y="323.398" font-size="30" text-anchor="end" baseline-shift="-15" font-family="Helvetica">0</text>
<text fill="#000000" x="47.5743" y="91.7549" font-size="30" text-anchor="end" baseline-shift="-15" font-family="Helvetica">0.3</text>
<text fill="#000000" x="54.5853" y="330.418" font-size="30" text-anchor="middle" baseline-shift="-30" font-family="Helvetica">0</text>
<text fill="#000000" x="195.806" y="330.418" font-size="30" text-anchor="middle" baseline-shift="-30" font-family="Helvetica">90</text>
<text fill="#000000" x="337.027" y="330.418" font-size="30" text-anchor="middle" baseline-shift="-30" font-family="Helvetica">180</text>
<text fill="#000000" x="478.247" y="330.418" font-size="30" text-anchor="middle" baseline-shift="-30" font-family="Helvetica">270</text>
<text fill="#000000" x="620.469" y="330.418" font-size="30" text-anchor="middle" baseline-shift="-30" font-family="Helvetica">360</text>
<polyline fill="none" stroke="#000000" stroke-width="5.0" points="56.1572,191.069 59.301,185.594 62.4448,238.697 65.5886,277.389 68.7324,290.852 71.8762,305.552 75.02,306.39 77.8409,360"/>
<polyline fill="none" stroke="#000000" stroke-width="5.0" points="78.5202,360 81.3076,312.006 84.4514,313.463 87.5952,312.926 90.739,309.725 93.8828,309.618 97.0266,311.26 100.17,314.593 103.314,319.511 106.458,324.06 109.602,322.799 112.746,321.628 115.889,321.452 119.033,321.8 122.177,322.244 125.321,325.104 128.465,321.565 131.608,314.031 134.752,307.442 137.896,302.661 141.04,298.347 144.184,293.767 147.327,287.039 150.471,277.234 153.615,268.199 156.759,259.49 159.903,257.831 163.046,255.408 166.19,252.581 169.334,251.739 172.478,252.014 175.622,255.802 178.765,253.815 181.909,245.385 185.053,233.158 188.197,222.639 191.341,211.866 194.484,208.959 197.628,213.779 200.772,224.122 203.916,236.85 207.06,248.568 210.203,256.948 213.347,262.573 216.491,259.919 219.635,244.646 222.779,214.723 225.922,183.612 229.066,158.79 232.21,141.342 235.354,128.644 238.498,125.91 241.641,125.154 244.785,132.219 247.929,143.915 251.073,154.27 254.217,154.14 257.36,150.954 260.504,155.692 263.648,167.502 266.792,182.048 269.936,197.152 273.079,222.469 276.223,239.755 279.367,255.654 282.511,265.967 285.655,278.587 288.798,293.643 291.942,305.348 295.086,311.746 298.23,316.5 301.374,317.732 304.517,322.173 307.661,319.77 310.805,316.111 313.949,317.805 317.093,323.134 320.236,326.996 323.38,329.809 326.524,326.695 329.668,319.785 332.812,305.606 335.955,283.423 339.099,262.024 342.243,242.835 345.387,228.546 348.531,220.131 351.674,216.113 354.818,215.771 357.962,214.493 361.106,212.208 364.25,211.879 367.393,214.573 370.537,221.051 373.681,232.595 376.825,247.371 379.969,263.564 383.112,280.423 386.256,291.024 389.4,294.917 392.544,295.747 395.688,303.774 398.831,313.538 401.975,319.622 405.119,321.299 408.263,320.705 411.407,313.421 414.55,310.927 417.694,309.198 420.838,305.029 423.982,300.909 427.126,302.813 430.27,309.81 433.413,316.244 436.557,323.388 439.701,322.443 442.845,316.238 445.988,308.189 449.132,305.983 452.276,306.557 455.42,308.853 458.564,314.088 461.707,320.168 464.851,322.199 467.995,325.888 471.139,327.576 474.283,328.35 477.427,328.253 480.57,327.913 483.714,327.862 486.858,329.655 490.002,333.37 493.146,331.124 496.289,325.599 499.433,320.156 502.577,319.61 505.721,322.151 508.865,325.32 512.008,328.134 515.152,327.824 518.296,327.319 521.44,324.55 524.583,332.697 527.727,332.713 530.871,331.463 534.015,335.782 537.159,338.113 540.303,336.338 543.446,334.587 546.59,335.584 549.734,334.409 552.878,332.948 556.022,326.094 559.165,331.449 562.309,330.719 565.453,333.904 568.597,332.664 571.741,333.997 574.884,332.289 578.028,331.3 581.172,331.695 584.316,327.499 587.46,326.525 590.603,323.228 593.747,325.384 596.891,323.146 600.035,315.251 603.179,258.072 606.322,47.1765 609.466,192.551 612.61,190.828 615.754,196.471 618.898,194.338"/>
<polyline fill="none" stroke="#000000" stroke-width="5.0" points="54.5853,323.398 54.5853,19.5543"/>
<polyline fill="none" stroke="#000000" stroke-width="5.0" points="49.5775,323.398 54.5853,323.398"/>
<polyline fill="none" stroke="#000000" stroke-width="5.0" points="49.5775,91.7549 54.5853,91.7549"/>
<polyline fill="none" stroke="#000000" stroke-width="5.0" points="54.5853,323.398 620.469,323.398"/>
<polyline fill="none" stroke="#000000" stroke-width="5.0" points="54.5853,328.412 54.5853,323.398"/>
<polyline fill="none" stroke="#000000" stroke-width="5.0" points="195.806,328.412 195.806,323.398"/>
<polyline fill="none" stroke="#000000" stroke-width="5.0" points="337.027,328.412 337.027,323.398"/>
<polyline fill="none" stroke="#000000" stroke-width="5.0" points="478.247,328.412 478.247,323.398"/>
<polyline fill="none" stroke="#000000" stroke-width="5.0" points="620.469,328.412 620.469,323.398"/>
</g>
</svg>
