<?xml version="1.0" encoding="UTF-8" standalone="no"?>
<svg xmlns="http://www.w3.org/2000/svg" xmlns:xlink="http://www.w3.org/1999/xlink" width="640px" height="360px" viewBox="0 0 640 360">
<title>VTK GL2PS Export</title>
<desc>
Creator: GL2PS 1.3.8, (C) 1999-2012 C. Geuzaine
For: VTK
CreationDate: Mon Aug 17 19:28:27 2015
</desc>
<defs>
</defs>
<g shape-rendering="crispEdges">
<text fill="#000000" x="47.5743" y="323.398" font-size="30" text-anchor="end" baseline-shift="-15" font-family="Helvetica">0</text>
<text fill="#000000" x="47.5743" y="91.7549" font-size="30" text-anchor="end" baseline-shift="-15" font-family="Helvetica">0.3</text>
<text fill="#000000" x="54.5853" y="330.418" font-size="30" text-anchor="middle" baseline-shift="-30" font-family="Helvetica">0</text>
<text fill="#000000" x="195.806" y="330.418" font-size="30" text-anchor="middle" baseline-shift="-30" font-family="Helvetica">90</text>
<text fill="#000000" x="337.027" y="330.418" font-size="30" text-anchor="middle" baseline-shift="-30" font-family="Helvetica">180</text>
<text fill="#000000" x="478.247" y="330.418" font-size="30" text-anchor="middle" baseline-shift="-30" font-family="Helvetica">270</text>
<text fill="#000000" x="620.469" y="330.418" font-size="30" text-anchor="middle" baseline-shift="-30" font-family="Helvetica">360</text>
<polyline fill="none" stroke="#000000" stroke-width="5.0" points="56.1572,298.788 59.301,316.445 62.4448,295.935 65.5886,296.394 68.7324,298.572 71.8762,304.277 75.02,310.946 78.1638,313.75 81.3076,317.376 84.4514,320.913 87.5952,325.153 90.739,324.623 93.8828,318.948 97.0266,308.967 100.17,307.938 103.314,311.307 106.458,313.734 109.602,312.026 112.746,314.884 115.889,313.531 119.033,313.402 122.177,330.334 125.321,330.881 128.465,329.034 131.608,329.132 134.752,327.961 137.896,322.049 141.04,302.405 144.184,281.455 147.327,273.108 150.471,272.266 153.615,279.863 156.759,284.891 159.903,293.897 163.046,289.956 166.19,274.236 169.334,265.065 172.478,248.408 175.622,232.192 178.765,228.232 181.909,228.419 185.053,227.297 188.197,229.159 191.341,233.416 194.484,240.403 197.628,251.981 200.772,271.974 203.916,285.895 207.06,288.878 210.203,295.227 213.347,297.337 216.491,288.886 219.635,276.378 222.779,258.465 225.922,227.785 229.066,199.962 232.21,177.134 235.354,156.627 238.498,131.471 241.641,115.955 244.785,107.374 247.929,106.897 251.073,110.6 254.217,127.706 257.36,173.774 260.504,194.697 263.648,219.479 266.792,239.407 269.936,254.718 273.079,267.388 276.223,278.556 279.367,294.085 282.511,301.985 285.655,304.83 288.798,299.621 291.942,303.729 295.086,310.28 298.23,313.931 301.374,311.444 304.517,313.244 307.661,303.006 310.805,303.879 313.949,314.125 317.093,329.448 320.236,335.312 323.38,340.693 326.524,340.21 329.668,334.59 332.812,319.181 335.955,293.742 339.099,280.331 342.243,259.208 345.387,234.816 348.531,217.91 351.674,211.772 354.818,208.253 357.962,203.669 361.106,193.846 364.25,200.067 367.393,211.171 370.537,223.115 373.681,233.601 376.825,250.31 379.969,270.243 383.112,287.399 386.256,301.555 389.4,308.071 392.544,305.552 395.688,298.2 398.831,302.046 401.975,295.504 405.119,296.285 408.263,292.402 411.407,296.283 414.55,317.188 417.694,331.158 420.838,335.927 423.982,327.142 427.126,317.696 430.27,312.34 433.413,302.77 436.557,294.968 439.701,303.882 442.845,308.892 445.988,317.494 449.132,320.222 452.276,324.448 455.42,326.741 458.564,326.998 461.707,327.613 464.851,328.26 467.995,330.008 471.139,329.451 474.283,327.756 477.427,326.188 480.57,327.808 483.714,327.185 486.858,327.83 490.002,326.807 493.146,325.856 496.289,326.687 499.433,328.322 502.577,332.416 505.721,338.593 508.865,339.301 512.008,322.71 515.152,323.256 518.296,319.592 521.44,324.115 524.583,329.753 527.727,329.864 530.871,326.489 534.015,323.697 537.159,311.992 540.303,314.674 543.446,333.316 546.59,327.229 549.734,329.736 552.878,337.529 556.022,339.974 559.165,339.993 562.309,335.938 565.453,334.78 568.597,324.05 571.741,334.991 574.884,325.321 578.028,309.628 581.172,304.588 584.316,306.512 587.46,306.665 590.603,313.07 593.747,313.07 596.891,313.071 600.035,313.071 603.179,313.071 606.322,313.07 609.466,333.334 612.61,298.92 615.754,315.398 618.898,317.364"/>
<polyline fill="none" stroke="#000000" stroke-width="5.0" points="54.5853,323.398 54.5853,19.5543"/>
<polyline fill="none" stroke="#000000" stroke-width="5.0" points="49.5775,323.398 54.5853,323.398"/>
<polyline fill="none" stroke="#000000" stroke-width="5.0" points="49.5775,91.7549 54.5853,91.7549"/>
<polyline fill="none" stroke="#000000" stroke-width="5.0" points="54.5853,323.398 620.469,323.398"/>
<polyline fill="none" stroke="#000000" stroke-width="5.0" points="54.5853,328.412 54.5853,323.398"/>
<polyline fill="none" stroke="#000000" stroke-width="5.0" points="195.806,328.412 195.806,323.398"/>
<polyline fill="none" stroke="#000000" stroke-width="5.0" points="337.027,328.412 337.027,323.398"/>
<polyline fill="none" stroke="#000000" stroke-width="5.0" points="478.247,328.412 478.247,323.398"/>
<polyline fill="none" stroke="#000000" stroke-width="5.0" points="620.469,328.412 620.469,323.398"/>
</g>
</svg>
