<?xml version="1.0" encoding="UTF-8" standalone="no"?>
<svg
   xmlns:dc="http://purl.org/dc/elements/1.1/"
   xmlns:cc="http://creativecommons.org/ns#"
   xmlns:rdf="http://www.w3.org/1999/02/22-rdf-syntax-ns#"
   xmlns:svg="http://www.w3.org/2000/svg"
   xmlns="http://www.w3.org/2000/svg"
   xmlns:sodipodi="http://sodipodi.sourceforge.net/DTD/sodipodi-0.dtd"
   xmlns:inkscape="http://www.inkscape.org/namespaces/inkscape"
   width="611.21808"
   height="739.76453"
   viewBox="0 0 611.21808 739.76453"
   id="svg2"
   version="1.1"
   inkscape:version="0.91 r13725"
   sodipodi:docname="1-1.svg">
  <metadata
     id="metadata66">
    <rdf:RDF>
      <cc:Work
         rdf:about="">
        <dc:format>image/svg+xml</dc:format>
        <dc:type
           rdf:resource="http://purl.org/dc/dcmitype/StillImage" />
        <dc:title>VTK GL2PS Export</dc:title>
      </cc:Work>
    </rdf:RDF>
  </metadata>
  <sodipodi:namedview
     pagecolor="#ffffff"
     bordercolor="#666666"
     borderopacity="1"
     objecttolerance="10"
     gridtolerance="10"
     guidetolerance="10"
     inkscape:pageopacity="0"
     inkscape:pageshadow="2"
     inkscape:window-width="1920"
     inkscape:window-height="1021"
     id="namedview64"
     showgrid="false"
     fit-margin-top="0"
     fit-margin-left="0"
     fit-margin-right="0"
     fit-margin-bottom="0"
     inkscape:zoom="0.33275613"
     inkscape:cx="1027.5158"
     inkscape:cy="-61.406548"
     inkscape:window-x="0"
     inkscape:window-y="27"
     inkscape:window-maximized="1"
     inkscape:current-layer="g10" />
  <title
     id="title4">VTK GL2PS Export</title>
  <desc
     id="desc6">
Creator: GL2PS 1.3.8, (C) 1999-2012 C. Geuzaine
For: VTK
CreationDate: Fri Aug 14 09:55:34 2015
</desc>
  <defs
     id="defs8" />
  <g
     id="g10"
     style="shape-rendering:crispEdges"
     transform="translate(-169.06599,-96.419406)">
    <polyline
       points="953.371,516.941 953.663,508.099 953.79,499.238 953.76,490.361 953.58,481.465 953.26,472.551 952.809,463.616 952.236,454.656 951.554,445.666 950.772,436.64 949.904,427.568 948.963,418.441 947.962,409.244 946.916,399.963 945.839,390.58 944.744,381.074 943.643,371.424 942.545,361.605 941.453,351.592 940.367,341.362 939.275,330.894 938.16,320.172 936.992,309.185 935.727,297.934 934.313,286.433 932.68,274.711 930.753,262.815 928.443,250.812 925.658,238.789 922.305,226.853 918.291,215.13 913.534,203.761 907.964,192.896 901.53,182.693 894.202,173.308 885.974,164.89 876.866,157.575 866.924,151.48 856.215,146.701 844.83,143.31 832.873,141.351 820.462,140.845 807.722,141.786 794.784,144.14 781.781,147.848 768.846,152.818 756.108,158.921 743.691,165.986 731.708,173.792 720.258,182.069 709.415,190.496 699.222,198.712 689.685,206.334 680.766,212.983 672.38,218.309 664.403,222.024 656.679,223.933 649.029,223.951 641.272,222.11 633.242,218.562 624.799,213.558 615.839,207.425 606.307,200.537 596.19,193.28 585.518,186.028 574.354,179.12 562.789,172.847 550.93,167.447 538.898,163.103 526.818,159.953 514.817,158.091 503.021,157.576 491.555,158.435 480.534,160.671 470.067,164.258 460.25,169.146 451.162,175.261 442.862,182.505 435.386,190.759 428.746,199.888 422.928,209.742 417.893,220.167 413.582,231.008 409.916,242.116 406.805,253.352 404.15,264.596 401.85,275.746 399.807,286.723 397.933,297.469 396.147,307.947 394.384,318.14 392.595,328.049 390.744,337.685 388.813,347.073 386.793,356.243 384.691,365.23 382.519,374.067 380.3,382.791 378.06,391.432 375.825,400.019 373.626,408.577 371.492,417.124 369.448,425.677 367.517,434.246 365.718,442.838 364.055,451.455 362.514,460.095 361.051,468.754 359.579,477.426 357.98,486.113 356.137,494.828 354.007,503.6 351.708,512.466 349.56,521.444 348.031,530.518 347.578,539.618 348.457,548.65 350.596,557.526 353.634,566.211 357.077,574.728 360.489,583.142 363.619,591.523 366.406,599.921 368.917,608.356 371.264,616.829 373.538,625.335 375.794,633.874 378.05,642.454 380.298,651.092 382.519,659.815 384.69,668.652 386.793,677.638 388.813,686.808 390.744,696.197 392.595,705.833 394.384,715.741 396.147,725.935 397.933,736.413 399.808,747.158 401.851,758.135 404.151,769.285 406.807,780.528 409.919,791.763 413.586,802.869 417.899,813.707 422.938,824.128 428.761,833.974 435.41,843.091 442.898,851.325 451.217,858.537 460.332,864.603 470.186,869.416 480.704,872.892 491.794,874.968 503.348,875.601 515.251,874.776 527.38,872.502 539.605,868.819 551.792,863.807 563.806,857.596 575.515,850.37 586.793,842.38 597.536,833.945 607.664,825.441 617.135,817.294 625.955,809.947 634.18,803.831 641.918,799.325 649.322,796.72 656.577,796.19 663.882,797.771 671.432,801.356 679.397,806.709 687.909,813.493 697.05,821.296 706.852,829.676 717.295,838.196 728.318,846.452 739.826,854.095 751.703,860.841 763.821,866.472 776.044,870.832 788.237,873.818 800.269,875.371 812.013,875.466 823.349,874.108 834.165,871.326 844.362,867.172 853.855,861.721 862.578,855.067 870.484,847.327 877.552,838.633 883.784,829.133 889.209,818.979 893.876,808.331 897.856,797.341 901.234,786.154 904.105,774.901 906.571,763.693 908.731,752.622 910.68,741.755 912.502,731.141 914.271,720.805 916.043,710.756 917.862,700.987 919.755,691.48 921.734,682.207 923.803,673.136 925.949,664.231 928.158,655.459 930.405,646.785 932.664,638.179 934.908,629.615 937.108,621.072 939.238,612.531 941.275,603.979 943.196,595.407 944.985,586.808 946.627,578.178 948.11,569.516 949.426,560.822 950.57,552.098 951.539,543.345 952.333,534.567 952.953,525.764 953.371,516.941"
       id="polyline18"
       style="fill:none;stroke:#00ff00;stroke-width:5;stroke-miterlimit:4;stroke-dasharray:none"
       transform="translate(-176.00596,-41.921834)" />
  </g>
</svg>
