<?xml version="1.0" encoding="UTF-8" standalone="no"?>
<svg
   xmlns:dc="http://purl.org/dc/elements/1.1/"
   xmlns:cc="http://creativecommons.org/ns#"
   xmlns:rdf="http://www.w3.org/1999/02/22-rdf-syntax-ns#"
   xmlns:svg="http://www.w3.org/2000/svg"
   xmlns="http://www.w3.org/2000/svg"
   xmlns:sodipodi="http://sodipodi.sourceforge.net/DTD/sodipodi-0.dtd"
   xmlns:inkscape="http://www.inkscape.org/namespaces/inkscape"
   width="635.03912"
   height="743.20538"
   viewBox="0 0 635.03912 743.20538"
   id="svg2"
   version="1.1"
   inkscape:version="0.91 r13725"
   sodipodi:docname="1-2.svg">
  <metadata
     id="metadata66">
    <rdf:RDF>
      <cc:Work
         rdf:about="">
        <dc:format>image/svg+xml</dc:format>
        <dc:type
           rdf:resource="http://purl.org/dc/dcmitype/StillImage" />
        <dc:title>VTK GL2PS Export</dc:title>
      </cc:Work>
    </rdf:RDF>
  </metadata>
  <sodipodi:namedview
     pagecolor="#ffffff"
     bordercolor="#666666"
     borderopacity="1"
     objecttolerance="10"
     gridtolerance="10"
     guidetolerance="10"
     inkscape:pageopacity="0"
     inkscape:pageshadow="2"
     inkscape:window-width="1920"
     inkscape:window-height="1021"
     id="namedview64"
     showgrid="false"
     inkscape:zoom="0.33275613"
     inkscape:cx="701.51684"
     inkscape:cy="-188.27318"
     inkscape:window-x="0"
     inkscape:window-y="27"
     inkscape:window-maximized="1"
     inkscape:current-layer="g10"
     fit-margin-top="0"
     fit-margin-left="0"
     fit-margin-right="0"
     fit-margin-bottom="0" />
  <title
     id="title4">VTK GL2PS Export</title>
  <desc
     id="desc6">
Creator: GL2PS 1.3.8, (C) 1999-2012 C. Geuzaine
For: VTK
CreationDate: Fri Aug 14 09:55:34 2015
</desc>
  <defs
     id="defs8" />
  <g
     id="g10"
     style="shape-rendering:crispEdges"
     transform="translate(-325.99895,-132.928)">
    <polyline
       points="958.376,515.007 958.538,505.692 958.5,496.366 958.273,487.03 957.867,477.686 957.294,468.333 956.569,458.969 955.707,449.589 954.726,440.186 953.643,430.751 952.48,421.271 951.258,411.731 950.001,402.109 948.732,392.381 947.472,382.522 946.242,372.498 945.058,362.277 943.929,351.823 942.856,341.103 941.829,330.084 940.825,318.742 939.805,307.062 938.713,295.044 937.475,282.704 936.001,270.081 934.189,257.239 931.923,244.268 929.083,231.286 925.549,218.436 921.208,205.884 915.963,193.812 909.738,182.413 902.484,171.882 894.182,162.406 884.849,154.156 874.534,147.282 863.318,141.904 851.309,138.107 838.635,135.944 825.444,135.432 811.889,136.552 798.133,139.251 784.337,143.438 770.66,148.983 757.255,155.707 744.263,163.379 731.807,171.71 719.986,180.355 708.863,188.919 698.458,196.976 688.739,204.098 679.622,209.883 670.975,214.001 662.621,216.222 654.364,216.445 646,214.705 637.343,211.176 628.238,206.144 618.578,199.979 608.306,193.099 597.42,185.933 585.962,178.884 574.015,172.316 561.687,166.531 549.107,161.775 536.415,158.232 523.758,156.037 511.281,155.28 499.132,156.013 487.451,158.25 476.366,161.975 465.995,167.139 456.431,173.658 447.745,181.422 439.979,190.29 433.143,200.103 427.214,210.685 422.142,221.854 417.85,233.427 414.238,245.235 411.195,257.123 408.605,268.96 406.348,280.639 404.315,292.082 402.409,303.236 400.546,314.077 398.664,324.598 396.719,334.813 394.685,344.747 392.553,354.437 390.329,363.923 388.03,373.245 385.68,382.444 383.312,391.558 380.958,400.618 378.652,409.652 376.42,418.679 374.276,427.711 372.197,436.749 370.09,445.784 367.741,454.791 364.782,463.748 360.736,472.661 355.203,481.595 348.192,490.688 340.436,500.106 333.432,509.945 329.003,520.131 328.52,530.406 332.22,540.44 339.077,549.996 347.33,559.042 355.286,567.733 361.911,576.291 366.959,584.895 370.718,593.622 373.659,602.471 376.192,611.405 378.577,620.387 380.937,629.404 383.307,638.459 385.679,647.571 388.029,656.77 390.329,666.092 392.553,675.577 394.685,685.267 396.72,695.202 398.665,705.416 400.547,715.937 402.41,726.777 404.317,737.932 406.35,749.374 408.607,761.052 411.199,772.888 414.243,784.774 417.857,796.58 422.153,808.149 427.231,819.31 433.167,829.88 440.016,839.674 447.802,848.512 456.516,856.227 466.121,862.669 476.551,867.715 487.717,871.263 499.506,873.243 511.793,873.609 524.44,872.347 537.298,869.477 550.213,865.061 563.026,859.213 575.579,852.111 587.719,844.01 599.309,835.249 610.243,826.244 620.455,817.481 629.933,809.477 638.73,802.748 646.962,797.755 654.803,794.855 662.468,794.265 670.193,796.026 678.205,800.009 686.701,805.922 695.828,813.351 705.67,821.8 716.248,830.748 727.521,839.688 739.402,848.166 751.767,855.804 764.469,862.307 777.353,867.457 790.26,871.11 803.031,873.181 815.516,873.629 827.571,872.453 839.063,869.681 849.873,865.374 859.901,859.615 869.067,852.519 877.32,844.223 884.636,834.885 891.024,824.68 896.523,813.792 901.198,802.404 905.14,790.696 908.455,778.833 911.258,766.957 913.668,755.188 915.801,743.62 917.76,732.317 919.636,721.318 921.502,710.639 923.413,700.274 925.402,690.204 927.487,680.397 929.669,670.816 931.938,661.419 934.271,652.165 936.641,643.016 939.016,633.935 941.362,624.894 943.647,615.868 945.838,606.839 947.909,597.792 949.835,588.719 951.596,579.613 953.176,570.473 954.563,561.299 955.748,552.092 956.726,542.855 957.494,533.593 958.053,524.309 958.376,515.007"
       id="polyline16"
       style="fill:none;stroke:#00ff00;stroke-width:5;stroke-miterlimit:4;stroke-dasharray:none" />
  </g>
</svg>
