<?xml version="1.0" encoding="UTF-8" standalone="no"?>
<svg
   xmlns:dc="http://purl.org/dc/elements/1.1/"
   xmlns:cc="http://creativecommons.org/ns#"
   xmlns:rdf="http://www.w3.org/1999/02/22-rdf-syntax-ns#"
   xmlns:svg="http://www.w3.org/2000/svg"
   xmlns="http://www.w3.org/2000/svg"
   xmlns:sodipodi="http://sodipodi.sourceforge.net/DTD/sodipodi-0.dtd"
   xmlns:inkscape="http://www.inkscape.org/namespaces/inkscape"
   width="620.08801"
   height="773.59357"
   viewBox="0 0 620.08801 773.59357"
   id="svg2"
   version="1.1"
   inkscape:version="0.91 r13725"
   sodipodi:docname="2-1.svg">
  <metadata
     id="metadata66">
    <rdf:RDF>
      <cc:Work
         rdf:about="">
        <dc:format>image/svg+xml</dc:format>
        <dc:type
           rdf:resource="http://purl.org/dc/dcmitype/StillImage" />
        <dc:title>VTK GL2PS Export</dc:title>
      </cc:Work>
    </rdf:RDF>
  </metadata>
  <sodipodi:namedview
     pagecolor="#ffffff"
     bordercolor="#666666"
     borderopacity="1"
     objecttolerance="10"
     gridtolerance="10"
     guidetolerance="10"
     inkscape:pageopacity="0"
     inkscape:pageshadow="2"
     inkscape:window-width="1920"
     inkscape:window-height="1021"
     id="namedview64"
     showgrid="false"
     inkscape:zoom="0.33275613"
     inkscape:cx="493.58371"
     inkscape:cy="-320.49293"
     inkscape:window-x="0"
     inkscape:window-y="27"
     inkscape:window-maximized="1"
     inkscape:current-layer="g10"
     fit-margin-top="0"
     fit-margin-left="0"
     fit-margin-right="0"
     fit-margin-bottom="0" />
  <title
     id="title4">VTK GL2PS Export</title>
  <desc
     id="desc6">
Creator: GL2PS 1.3.8, (C) 1999-2012 C. Geuzaine
For: VTK
CreationDate: Fri Aug 14 09:55:34 2015
</desc>
  <defs
     id="defs8" />
  <g
     id="g10"
     style="shape-rendering:crispEdges"
     transform="translate(-207.93313,-97.186696)">
    <polyline
       points="956.798,517.459 957.93,504.298 958.876,491.035 959.667,477.654 960.333,464.133 960.896,450.445 961.375,436.56 961.783,422.442 962.126,408.052 962.404,393.352 962.608,378.296 962.723,362.843 962.718,346.952 962.547,330.587 962.138,313.728 961.391,296.378 960.17,278.573 958.298,260.4 955.563,242.007 951.725,223.614 946.532,205.514 939.743,188.073 931.156,171.71 920.635,156.876 908.129,144.018 893.694,133.548 877.484,125.812 859.749,121.07 840.81,119.487 821.039,121.131 800.837,125.977 780.621,133.887 760.812,144.583 741.826,157.589 724.047,172.174 707.781,187.328 693.194,201.795 680.251,214.207 668.688,223.278 658.022,228.046 647.628,228.071 636.854,223.538 625.147,215.214 612.149,204.289 597.736,192.146 582.012,180.125 565.246,169.355 547.811,160.673 530.119,154.62 512.583,151.492 495.597,151.399 479.522,154.319 464.675,160.124 451.313,168.594 439.616,179.422 429.665,192.229 421.437,206.579 414.808,222.014 409.567,238.084 405.442,254.387 402.135,270.59 399.352,286.448 396.831,301.81 394.366,316.606 391.811,330.842 389.087,344.57 386.171,357.877 383.072,370.856 379.786,383.583 376.216,396.095 372.088,408.379 367.024,420.434 360.946,432.385 354.619,444.538 349.679,457.221 347.65,470.501 348.723,484.1 351.612,497.636 354.665,510.913 356.988,523.962 358.609,536.896 359.966,549.782 361.441,562.633 363.223,575.434 365.361,588.174 367.837,600.85 370.601,613.468 373.59,626.051 376.727,638.636 379.927,651.277 383.103,664.048 386.178,677.037 389.091,690.345 391.819,704.071 394.386,718.298 396.88,733.073 399.46,748.386 402.361,764.138 405.89,780.124 410.406,796.008 416.294,811.319 423.923,825.461 433.591,837.752 445.46,847.492 459.505,854.074 475.464,857.108 492.844,856.551 510.965,852.795 529.058,846.675 546.41,839.376 562.487,832.237 577.036,826.5 590.11,823.079 602.009,822.401 613.177,824.388 624.081,828.557 635.109,834.208 646.522,840.632 658.462,847.258 670.985,853.728 684.107,859.884 697.837,865.691 712.191,871.147 727.176,876.202 742.768,880.71 758.887,884.42 775.378,886.997 792.008,888.068 808.472,887.274 824.421,884.323 839.495,879.032 853.362,871.359 865.754,861.405 876.5,849.408 885.538,835.715 892.926,820.741 898.822,804.926 903.466,788.69 907.145,772.401 910.156,756.347 912.782,740.725 915.257,725.646 917.761,711.138 920.405,697.171 923.241,683.671 926.266,670.545 929.44,657.69 932.697,645.012 935.96,632.429 939.152,619.877 942.205,607.308 945.061,594.693 947.681,582.013 950.038,569.26 952.124,556.428 953.941,543.519 955.501,530.53 956.798,517.459"
       id="polyline14"
       style="fill:none;stroke:#ff0000;stroke-width:5;stroke-miterlimit:4;stroke-dasharray:none"
       transform="translate(-137.20187,-19.791631)" />
  </g>
</svg>
