<?xml version="1.0" encoding="UTF-8" standalone="no"?>
<svg
   xmlns:dc="http://purl.org/dc/elements/1.1/"
   xmlns:cc="http://creativecommons.org/ns#"
   xmlns:rdf="http://www.w3.org/1999/02/22-rdf-syntax-ns#"
   xmlns:svg="http://www.w3.org/2000/svg"
   xmlns="http://www.w3.org/2000/svg"
   xmlns:sodipodi="http://sodipodi.sourceforge.net/DTD/sodipodi-0.dtd"
   xmlns:inkscape="http://www.inkscape.org/namespaces/inkscape"
   width="608.92786"
   height="783.48608"
   viewBox="0 0 608.92786 783.48608"
   id="svg2"
   version="1.1"
   inkscape:version="0.91 r13725"
   sodipodi:docname="2-2.svg">
  <metadata
     id="metadata66">
    <rdf:RDF>
      <cc:Work
         rdf:about="">
        <dc:format>image/svg+xml</dc:format>
        <dc:type
           rdf:resource="http://purl.org/dc/dcmitype/StillImage" />
        <dc:title>VTK GL2PS Export</dc:title>
      </cc:Work>
    </rdf:RDF>
  </metadata>
  <sodipodi:namedview
     pagecolor="#ffffff"
     bordercolor="#666666"
     borderopacity="1"
     objecttolerance="10"
     gridtolerance="10"
     guidetolerance="10"
     inkscape:pageopacity="0"
     inkscape:pageshadow="2"
     inkscape:window-width="1920"
     inkscape:window-height="1021"
     id="namedview64"
     showgrid="false"
     fit-margin-top="0"
     fit-margin-left="0"
     fit-margin-right="0"
     fit-margin-bottom="0"
     inkscape:zoom="0.47058824"
     inkscape:cx="414.92912"
     inkscape:cy="739.62742"
     inkscape:window-x="0"
     inkscape:window-y="27"
     inkscape:window-maximized="1"
     inkscape:current-layer="g10" />
  <title
     id="title4">VTK GL2PS Export</title>
  <desc
     id="desc6">
Creator: GL2PS 1.3.8, (C) 1999-2012 C. Geuzaine
For: VTK
CreationDate: Fri Aug 14 10:16:01 2015
</desc>
  <defs
     id="defs8" />
  <g
     id="g10"
     style="shape-rendering:crispEdges"
     transform="translate(-351.28617,-106.25957)">
    <polyline
       points="957.399,518.966 957.622,510.754 957.714,502.529 957.684,494.291 957.543,486.042 957.3,477.777 956.969,469.495 956.563,461.191 956.095,452.859 955.581,444.491 955.036,436.077 954.477,427.606 953.921,419.062 953.384,410.431 952.885,401.692 952.437,392.825 952.055,383.808 951.752,374.615 951.534,365.221 951.406,355.6 951.365,345.726 951.403,335.576 951.503,325.13 951.638,314.372 951.772,303.295 951.859,291.9 951.841,280.198 951.652,268.216 951.214,255.994 950.443,243.586 949.251,231.065 947.547,218.52 945.239,206.055 942.242,193.789 938.479,181.852 933.885,170.38 928.41,159.516 922.024,149.4 914.717,140.169 906.5,131.947 897.405,124.848 887.486,118.966 876.816,114.375 865.483,111.128 853.589,109.254 841.246,108.763 828.57,109.638 815.683,111.842 802.707,115.316 789.763,119.975 776.967,125.713 764.429,132.392 752.252,139.846 740.524,147.88 729.322,156.264 718.698,164.744 708.683,173.044 699.278,180.878 690.456,187.967 682.156,194.049 674.289,198.905 666.742,202.368 659.387,204.343 652.086,204.805 644.704,203.81 637.119,201.486 629.228,198.018 620.957,193.641 612.257,188.615 603.112,183.212 593.533,177.698 583.556,172.323 573.236,167.307 562.643,162.841 551.859,159.083 540.972,156.16 530.075,154.17 519.263,153.183 508.631,153.251 498.273,154.401 488.278,156.642 478.731,159.965 469.708,164.342 461.272,169.726 453.476,176.055 446.355,183.249 439.928,191.214 434.195,199.847 429.14,209.036 424.729,218.665 420.914,228.62 417.633,238.791 414.818,249.075 412.394,259.382 410.283,269.633 408.41,279.764 406.704,289.726 405.099,299.486 403.541,309.023 401.984,318.329 400.394,327.408 398.745,336.272 397.023,344.937 395.224,353.427 393.35,361.765 391.406,369.978 389.399,378.087 387.327,386.109 385.17,394.054 382.879,401.922 380.369,409.707 377.529,417.4 374.251,425.007 370.503,432.56 366.389,440.126 362.208,447.798 358.417,455.669 355.529,463.796 353.94,472.173 353.789,480.729 354.9,489.357 356.858,497.952 359.165,506.447 361.397,514.821 363.307,523.09 364.833,531.287 366.045,539.444 367.071,547.579 368.039,555.701 369.046,563.808 370.153,571.898 371.389,579.965 372.762,588.008 374.27,596.025 375.904,604.017 377.65,611.987 379.491,619.94 381.41,627.885 383.385,635.831 385.396,643.792 387.42,651.786 389.435,659.831 391.419,667.949 393.355,676.165 395.228,684.504 397.028,692.993 398.753,701.656 400.408,710.515 402.008,719.587 403.582,728.882 405.167,738.397 406.814,748.122 408.587,758.026 410.559,768.064 412.818,778.169 415.455,788.254 418.569,798.209 422.258,807.902 426.618,817.181 431.736,825.877 437.68,833.812 444.5,840.804 452.214,846.681 460.807,851.292 470.226,854.52 480.379,856.297 491.135,856.616 502.331,855.544 513.781,853.217 525.286,849.848 536.651,845.711 547.7,841.127 558.287,836.441 568.309,831.996 577.714,828.105 586.498,825.026 594.705,822.946 602.418,821.968 609.743,822.109 616.803,823.308 623.717,825.441 630.597,828.343 637.536,831.827 644.605,835.704 651.854,839.806 659.315,843.993 667.004,848.161 674.93,852.243 683.096,856.201 691.504,860.019 700.158,863.698 709.06,867.236 718.214,870.632 727.623,873.866 737.281,876.907 747.178,879.704 757.289,882.188 767.582,884.277 778.008,885.881 788.507,886.901 799.005,887.244 809.421,886.819 819.665,885.551 829.645,883.379 839.268,880.264 848.448,876.188 857.106,871.16 865.175,865.209 872.604,858.388 879.362,850.772 885.432,842.449 890.82,833.522 895.549,824.102 899.658,814.299 903.201,804.228 906.243,793.992 908.856,783.69 911.116,773.405 913.101,763.21 914.885,753.16 916.534,743.297 918.111,733.648 919.664,724.227 921.236,715.036 922.855,706.068 924.54,697.307 926.301,688.733 928.14,680.322 930.048,672.049 932.014,663.886 934.021,655.809 936.05,647.795 938.079,639.822 940.087,631.873 942.052,623.933 943.955,615.989 945.776,608.033 947.501,600.058 949.113,592.059 950.603,584.034 951.961,575.981 953.179,567.902 954.253,559.798 955.18,551.67 955.96,543.52 956.592,535.352 957.08,527.166 957.399,518.966"
       id="polyline12"
       style="fill:none;stroke:#ff0000;stroke-width:5;stroke-miterlimit:4;stroke-dasharray:none" />
  </g>
</svg>
