<?xml version="1.0" encoding="UTF-8" standalone="no"?>
<svg xmlns="http://www.w3.org/2000/svg" xmlns:xlink="http://www.w3.org/1999/xlink" width="640px" height="360px" viewBox="0 0 640 360">
<title>VTK GL2PS Export</title>
<desc>
Creator: GL2PS 1.3.8, (C) 1999-2012 C. Geuzaine
For: VTK
CreationDate: Mon Aug 17 19:30:47 2015
</desc>
<defs>
</defs>
<g shape-rendering="crispEdges">
<text fill="#000000" x="47.5743" y="323.398" font-size="30" text-anchor="end" baseline-shift="-15" font-family="Helvetica">0</text>
<text fill="#000000" x="47.5743" y="28.5794" font-size="30" text-anchor="end" baseline-shift="-15" font-family="Helvetica">0.7</text>
<text fill="#000000" x="54.5853" y="330.418" font-size="30" text-anchor="middle" baseline-shift="-30" font-family="Helvetica">0</text>
<text fill="#000000" x="195.806" y="330.418" font-size="30" text-anchor="middle" baseline-shift="-30" font-family="Helvetica">90</text>
<text fill="#000000" x="337.027" y="330.418" font-size="30" text-anchor="middle" baseline-shift="-30" font-family="Helvetica">180</text>
<text fill="#000000" x="478.247" y="330.418" font-size="30" text-anchor="middle" baseline-shift="-30" font-family="Helvetica">270</text>
<text fill="#000000" x="620.469" y="330.418" font-size="30" text-anchor="middle" baseline-shift="-30" font-family="Helvetica">360</text>
<polyline fill="none" stroke="#000000" stroke-width="5.0" points="56.1572,323.161 59.301,323.168 62.4448,323.17 65.5886,323.163 68.7324,323.169 71.8762,323.174 75.02,323.183 78.1638,323.176 81.3076,323.167 84.4514,323.175 87.5952,323.193 90.739,323.194 93.8828,323.195 97.0266,323.218 100.17,323.233 103.314,323.213 106.458,323.196 109.602,323.182 112.746,323.21 115.889,323.088 119.033,323.105 122.177,323.172 125.321,323.165 128.465,323.063 131.608,322.956 134.752,322.581 137.896,321.872 141.04,322.676 144.184,323.163 147.327,322.992 150.471,322.486 153.615,321.873 156.759,321.392 159.903,320.969 163.046,322.786 166.19,320.676 169.334,322.028 172.478,322.765 175.622,322.251 178.765,321.357 181.909,323.084 185.053,322.698 188.197,322.823 191.341,308.185 194.484,323.226 197.628,323.287 200.772,323.431 203.916,322.528 207.06,322.511 210.203,321.169 213.347,317.084 216.491,314.406 219.635,317.779 222.779,321.155 225.922,323.055 229.066,321.394 232.21,315.162 235.354,299.717 238.498,318.197 241.641,322.784 244.785,323.173 247.929,322.657 251.073,321.865 254.217,321.217 257.36,320.89 260.504,320.893 263.648,322.521 266.792,322.934 269.936,323.043 273.079,323.009 276.223,323.103 279.367,323.318 282.511,323.102 285.655,323.145 288.798,323.145 291.942,323.131 295.086,323.061 298.23,322.987 301.374,323.026 304.517,323.095 307.661,323.147 310.805,323.098 313.949,322.829 317.093,322.269 320.236,321.252 323.38,319.537 326.524,318.546 329.668,321.802 332.812,321.395 335.955,321.116 339.099,321.222 342.243,321.785 345.387,322.495 348.531,323.068 351.674,322.967 354.818,321.536 357.962,320.519 361.106,322.769 364.25,323.058 367.393,323.14 370.537,323.16 373.681,323.186 376.825,323.178 379.969,323.127 383.112,322.986 386.256,322.808 389.4,322.453 392.544,322.061 395.688,321.832 398.831,322.394 401.975,322.695 405.119,322.529 408.263,321.323 411.407,318.146 414.55,310.914 417.694,297.901 420.838,289.018 423.982,267.435 427.126,238.453 430.27,206.134 433.413,174.445 436.557,146.874 439.701,123.371 442.845,104.018 445.988,61.8727 449.132,47.1765 452.276,59.8289 455.42,77.454 458.564,102.166 461.707,131.545 464.851,172.38 467.995,217.805 471.139,261.05 474.283,281.233 477.427,296.423 480.57,296.407 483.714,277.094 486.858,244.152 490.002,207.037 493.146,162.974 496.289,120.01 499.433,85.3569 502.577,75.7264 505.721,68.7423 508.865,66.3812 512.008,68.7476 515.152,79.4654 518.296,101.479 521.44,133.212 524.583,176.909 527.727,214.729 530.871,249.36 534.015,277.341 537.159,296.82 540.303,308.56 543.446,315.298 546.59,318.99 549.734,320.775 552.878,322.131 556.022,322.628 559.165,323.059 562.309,323.153 565.453,323.022 568.597,323.095 571.741,323.091 574.884,323.106 578.028,323.146 581.172,323.128 584.316,316.461 587.46,316.461 590.603,316.461 593.747,316.461 596.891,316.461 600.035,316.461 603.179,316.461 606.322,316.461 609.466,316.461 612.61,316.461 615.754,316.461 618.898,323.159"/>
<polyline fill="none" stroke="#000000" stroke-width="5.0" points="54.5853,323.398 54.5853,19.5543"/>
<polyline fill="none" stroke="#000000" stroke-width="5.0" points="49.5775,323.398 54.5853,323.398"/>
<polyline fill="none" stroke="#000000" stroke-width="5.0" points="49.5775,28.5794 54.5853,28.5794"/>
<polyline fill="none" stroke="#000000" stroke-width="5.0" points="54.5853,323.398 620.469,323.398"/>
<polyline fill="none" stroke="#000000" stroke-width="5.0" points="54.5853,328.412 54.5853,323.398"/>
<polyline fill="none" stroke="#000000" stroke-width="5.0" points="195.806,328.412 195.806,323.398"/>
<polyline fill="none" stroke="#000000" stroke-width="5.0" points="337.027,328.412 337.027,323.398"/>
<polyline fill="none" stroke="#000000" stroke-width="5.0" points="478.247,328.412 478.247,323.398"/>
<polyline fill="none" stroke="#000000" stroke-width="5.0" points="620.469,328.412 620.469,323.398"/>
</g>
</svg>
