<?xml version="1.0" encoding="UTF-8" standalone="no"?>
<svg xmlns="http://www.w3.org/2000/svg" xmlns:xlink="http://www.w3.org/1999/xlink" width="1296px" height="998px" viewbox="0 0 1296 998">
<title>VTK GL2PS Export</title>
<desc>
Creator: GL2PS 1.3.8, (C) 1999-2012 C. Geuzaine
For: VTK
CreationDate: Sun Aug 16 14:51:19 2015
</desc>
<defs>
</defs>
<g shape-rendering="crispEdges">
<polyline fill="none" stroke="#ff0000" stroke-width="5.0" points="979.002,507.715 979.076,497.695 979.781,487.617 979.414,477.555 979.132,467.382 978.822,457.11 978.389,447.02 977.534,436.806 976.577,426.378 976.239,416.102 974.794,405.517 973.317,395.163 972.279,383.962 971.107,373.141 969.939,362.109 967.985,350.75 966.933,338.909 965.434,326.961 964.361,314.668 962.24,302.012 960.671,288.894 958.256,275.953 956.236,262.06 953.911,248.963 950.327,234.492 946.498,220.635 941.327,206.881 936.277,193.445 929.825,180.848 922.011,169.367 912.976,158.268 902.998,149.054 891.889,140.767 879.916,134.908 866.641,129.524 853.261,127.171 838.372,126.537 823.173,128.515 808.011,131.84 792.556,136.784 777.262,144.155 762.197,153.402 747.706,163.295 733.912,173.707 720.872,185.409 708.776,197.464 697.56,207.096 687.125,216.166 677.47,222.974 668.365,226.062 659.524,228.454 650.621,226.489 641.403,222.39 631.604,215.905 621.094,206.894 609.743,197.083 597.604,187.06 584.625,177.175 571.048,167.59 557.155,159.785 542.797,152.86 528.282,148.081 513.828,144.485 499.913,143.972 486.588,144.343 473.472,147.549 461.085,152.176 450.227,158.363 439.603,166.458 430.822,176.011 422.729,186.467 415.961,198.279 410.33,211.141 405.132,223.456 401.279,236.738 397.213,249.518 394.695,262.9 391.97,275.651 389.831,288.155 387.732,300.148 385.5,311.952 383.391,323.418 380.087,334.333 378.134,344.872 375.391,355.202 373.027,365.514 370.28,375.177 367.253,385.265 364.726,394.809 362.369,404.724 359.96,414.269 356.841,423.958 354.288,433.505 350.742,443.053 347.099,452.483 341.291,461.934 334.768,471.461 326.517,481.219 320.587,491.517 315.928,502.26 316.134,513.17 319.945,523.921 326.934,534.256 334.71,544.038 341.441,553.514 347.523,562.985 351.704,572.35 354.214,581.839 356.97,591.593 359.311,601.211 361.924,610.719 364.477,620.573 367.386,630.355 370.497,640.055 372.924,649.719 376.064,659.838 378.559,670.006 380.765,680.949 383.019,691.95 385.799,703.109 387.537,714.686 390.163,726.786 392.898,739.243 394.963,752.531 398.252,765.579 401.507,778.585 405.286,791.476 410.36,805.069 416.263,816.97 422.847,829.384 430.66,838.437 439.783,849.272 450.243,857.563 461.348,863.041 473.435,867.42 486.706,870.738 499.828,871.463 514.139,870.158 528.461,867.445 542.822,862.691 557.203,855.551 571.381,846.76 584.976,837.661 597.772,827.217 610.005,816.618 621.204,807.211 631.793,798.634 641.552,791.502 650.706,787.321 659.538,784.963 668.308,785.468 677.279,789.049 686.72,795.29 696.91,803.866 707.799,812.835 719.573,822.747 732.186,833.843 745.355,842.636 759.212,851.988 773.584,859.586 787.722,865.549 802.134,869.13 816.57,870.768 830.374,871.455 843.616,869.025 856.084,865.753 867.99,860.088 878.654,853.561 887.986,844.63 896.791,834.143 904.357,823.6 910.498,811.306 916.162,798.795 920.483,785.852 924.995,772.9 927.849,759.877 930.846,746.409 933.157,733.635 935.662,721.214 937.648,709.277 939.636,698.169 942.561,686.938 944.587,676.202 947.011,665.537 949.584,655.691 952.228,645.141 955.369,635.216 958.267,625.443 960.139,615.741 962.998,606.229 965.669,596.35 967.528,586.713 969.737,576.91 971.842,567.086 973.549,557.437 975.398,547.507 976.915,537.579 977.48,527.673 978.762,517.736 979.002,507.715"/>
<polyline fill="none" stroke="#00ff00" stroke-width="5.0" points="978.637,507.715 979.403,497.689 979.145,487.607 980.072,477.462 979.665,467.37 979.396,457.218 978.212,446.911 978.348,436.743 977.384,426.487 975.459,416.074 974.593,405.498 973.653,394.832 972.476,384.089 970.907,372.961 969.321,361.947 968.175,350.474 966.232,338.995 965.251,327.129 963.576,315.001 962.069,302.621 960.53,289.655 958.035,275.983 955.802,262.318 952.708,248.947 950.148,234.604 946.813,220.67 941.762,207.211 936.482,193.647 929.543,181.409 922.088,169.391 913.069,157.996 903.339,148.547 892.161,140.498 879.901,133.863 867.055,129.48 852.77,127.4 838.468,126.541 823.485,127.868 808.282,131.306 792.952,136.233 777.382,143.667 762.538,152.168 747.967,162.262 734.069,173.157 721.08,185.258 708.793,196.453 697.522,206.919 687.149,215.574 677.493,222.775 668.376,227.169 659.522,228.539 650.633,227.16 641.409,222.864 631.595,215.625 621.106,205.825 609.648,197.041 597.445,185.965 584.429,176.063 570.813,166.667 556.732,158.584 542.482,152.302 528.06,147.551 513.862,144.471 499.87,143.533 486.174,143.955 473.328,147.151 461.336,152.31 450.36,158.875 439.909,166.578 430.707,176.106 423.244,186.479 416.202,197.927 410.37,210.572 405.271,224.082 401.57,236.701 398.205,250.023 394.738,263.031 392.619,276.172 389.985,288.175 387.562,300.455 385.072,312.239 382.978,323.538 380.432,334.792 378.468,345.127 375.486,355.13 372.485,365.327 370.477,375.309 367.519,385.138 365.218,395.017 362.397,404.384 359.968,414.31 357.118,423.892 354.36,433.634 350.727,443.168 346.83,452.535 341.569,461.926 334.807,471.451 327.33,481.261 320.454,491.504 316.19,502.25 315.96,513.168 320.965,523.926 327.057,534.186 334.674,544 341.366,553.483 346.828,562.98 351.014,572.335 354.694,581.812 357.317,591.44 359.4,601.208 361.759,610.933 364.855,620.455 367.489,630.143 370.869,640.06 373.158,649.837 375.72,659.863 378.933,670.122 381.683,680.593 383.907,691.856 385.452,702.787 387.634,714.636 390.362,727.022 392.996,738.975 395.192,752.023 398.295,765.021 401.981,777.986 406.163,791.144 411.271,803.268 417.487,814.663 424.786,826.693 433.195,835.948 442.778,844.757 453.512,851.509 465.288,856.028 478.016,858.909 491.683,859.716 505.463,859.24 519.746,856.014 534.142,851.315 548.435,845.604 562.455,838.057 575.847,830.355 588.417,822.067 600.5,814.378 611.803,806.654 622.449,798.913 632.319,793.289 641.703,788.612 650.739,786.023 659.539,784.513 668.309,785.63 677.214,787.664 686.452,791.912 696.104,797.163 706.462,802.999 717.416,811.06 729.045,818.943 741.493,826.852 754.516,835.194 768.07,842.817 782.139,849.195 796.471,853.821 810.64,857.918 824.989,860.065 838.737,859.891 851.935,857.939 864.22,853.559 875.354,848.098 885.585,840.438 894.758,831.611 902.676,821.444 909.099,809.608 915.01,797.607 919.991,785.255 924.117,771.943 927.442,759.283 930.807,745.996 933.061,733.723 935.485,721.713 937.714,709.568 939.874,697.997 942.277,686.867 944.631,676.229 947.012,665.594 949.914,655.507 952.191,645.343 955.11,635.18 957.84,625.3 960.677,615.786 963.017,606.239 965.552,596.309 967.928,586.781 969.92,576.927 972.075,567.294 973.969,557.357 975.534,547.469 976.303,537.621 977.145,527.721 978.827,517.725 978.637,507.715"/>
<text fill="#333333" x="1253" y="945" font-size="15" text-anchor="start" baseline-shift="0" font-family="Helvetica-BoldItalic">-1.37 </text>
<text fill="#333333" x="1253" y="726" font-size="15" text-anchor="start" baseline-shift="0" font-family="Helvetica-BoldItalic">-0.669</text>
<text fill="#333333" x="1253" y="506" font-size="15" text-anchor="start" baseline-shift="0" font-family="Helvetica-BoldItalic">0.0293</text>
<text fill="#333333" x="1253" y="287" font-size="15" text-anchor="start" baseline-shift="0" font-family="Helvetica-BoldItalic">0.727 </text>
<text fill="#333333" x="1253" y="67" font-size="15" text-anchor="start" baseline-shift="0" font-family="Helvetica-BoldItalic">1.43  </text>
<text fill="#333333" x="1171" y="23" font-size="15" text-anchor="start" baseline-shift="0" font-family="Helvetica-BoldItalic">1.70  </text>
<text fill="#333333" x="897" y="23" font-size="15" text-anchor="start" baseline-shift="0" font-family="Helvetica-BoldItalic">0.829 </text>
<text fill="#333333" x="623" y="23" font-size="15" text-anchor="start" baseline-shift="0" font-family="Helvetica-BoldItalic">-0.0420</text>
<text fill="#333333" x="349" y="23" font-size="15" text-anchor="start" baseline-shift="0" font-family="Helvetica-BoldItalic">-0.913</text>
<text fill="#333333" x="75" y="23" font-size="15" text-anchor="start" baseline-shift="0" font-family="Helvetica-BoldItalic">-1.78 </text>
<polyline fill="none" stroke="#000000" stroke-width="5.0" points="1246,938 1246,60"/>
<polyline fill="none" stroke="#000000" stroke-width="5.0" points="1246,938 1251,938"/>
<polyline fill="none" stroke="#000000" stroke-width="5.0" points="1246,718.5 1251,718.5"/>
<polyline fill="none" stroke="#000000" stroke-width="5.0" points="1246,499 1251,499"/>
<polyline fill="none" stroke="#000000" stroke-width="5.0" points="1246,279.5 1251,279.5"/>
<polyline fill="none" stroke="#000000" stroke-width="5.0" points="1246,60 1251,60"/>
<polyline fill="none" stroke="#000000" stroke-width="5.0" points="1196,30 100,30"/>
<polyline fill="none" stroke="#000000" stroke-width="5.0" points="1196,30 1196,25"/>
<polyline fill="none" stroke="#000000" stroke-width="5.0" points="922,30 922,25"/>
<polyline fill="none" stroke="#000000" stroke-width="5.0" points="648,30 648,25"/>
<polyline fill="none" stroke="#000000" stroke-width="5.0" points="374,30 374,25"/>
<polyline fill="none" stroke="#000000" stroke-width="5.0" points="100,30 100,25"/>
</g>
</svg>
