<?xml version="1.0" encoding="UTF-8" standalone="no"?>
<svg xmlns="http://www.w3.org/2000/svg" xmlns:xlink="http://www.w3.org/1999/xlink" width="640px" height="360px" viewBox="0 0 640 360">
<title>VTK GL2PS Export</title>
<desc>
Creator: GL2PS 1.3.8, (C) 1999-2012 C. Geuzaine
For: VTK
CreationDate: Mon Aug 17 19:37:27 2015
</desc>
<defs>
</defs>
<g shape-rendering="crispEdges">
<text fill="#000000" x="48.5759" y="323.398" font-size="30" text-anchor="end" baseline-shift="-15" font-family="Helvetica">0</text>
<text fill="#000000" x="48.5759" y="24.5683" font-size="30" text-anchor="end" baseline-shift="-15" font-family="Helvetica">0.9</text>
<text fill="#000000" x="55.5869" y="330.418" font-size="30" text-anchor="middle" baseline-shift="-30" font-family="Helvetica">0</text>
<text fill="#000000" x="196.807" y="330.418" font-size="30" text-anchor="middle" baseline-shift="-30" font-family="Helvetica">90</text>
<text fill="#000000" x="338.028" y="330.418" font-size="30" text-anchor="middle" baseline-shift="-30" font-family="Helvetica">180</text>
<text fill="#000000" x="479.249" y="330.418" font-size="30" text-anchor="middle" baseline-shift="-30" font-family="Helvetica">270</text>
<text fill="#000000" x="620.469" y="330.418" font-size="30" text-anchor="middle" baseline-shift="-30" font-family="Helvetica">360</text>
<polyline fill="none" stroke="#000000" stroke-width="5.0" points="57.156,323.838 60.2942,325.275 63.4324,327.028 66.5707,317.041 69.7089,317.809 72.8472,308.455 75.9854,295.811 79.1236,281.592 82.2619,270.625 85.4001,258.209 88.5383,246.715 91.6766,231.259 94.8148,223.274 97.953,207.706 101.091,191.971 104.23,182.866 107.368,170.913 110.506,160.099 113.644,149.859 116.782,142.354 119.921,136.782 123.059,137.631 126.197,140.367 129.335,143.698 132.474,147.161 135.612,150.752 138.75,153.905 141.888,160.099 145.027,167.355 148.165,183.032 151.303,182.734 154.441,199.113 157.58,210.469 160.718,228.077 163.856,249.157 166.994,268.188 170.133,277.239 173.271,294.84 176.409,301.701 179.547,308.411 182.685,317.28 185.824,321.18 188.962,325.648 192.1,320.64 195.238,319.293 198.377,320.689 201.515,324.474 204.653,319.182 207.791,324.992 210.93,318.038 214.068,324.795 217.206,324.118 220.344,316.839 223.483,311.406 226.621,325.982 229.759,303.708 232.897,296.996 236.035,296.168 239.174,304.542 242.312,316.258 245.45,321.651 248.588,321.599 251.727,323.14 254.865,327.935 258.003,328.109 261.141,326.387 264.28,327.799 267.418,324.558 270.556,317.164 273.694,322.822 276.833,319.816 279.971,319.956 283.109,325.067 286.247,318.982 289.385,317.228 292.524,319.897 295.662,326.527 298.8,325.14 301.938,324.906 305.077,327.518 308.215,321.194 311.353,324.788 314.491,319.353 317.63,276.086 320.768,237.769 323.906,176.984 327.044,121.397 330.183,67.3888 333.321,60.652 336.459,47.1765 339.597,58.1037 342.736,58.1344 345.874,80.6909 349.012,116.882 352.15,174.82 355.288,233.602 358.427,292.508 361.565,311.045 364.703,318.026 367.841,316.725 370.98,311.146 374.118,314.616 377.256,315.977 380.394,314.232 383.533,319.983 386.671,318.265 389.809,320.371 392.947,322.931 396.086,324.115 399.224,326.574 402.362,327.414 405.5,324.116 408.639,326.539 411.777,319.975 414.915,324.121 418.053,284.51 421.191,239.784 424.33,204.554 427.468,165.939 430.606,136.319 433.744,98.2393 436.883,80.9099 440.021,68.8108 443.159,55.66 446.297,48.2303 449.436,49.2991 452.574,53.8921 455.712,60.5385 458.85,75.2759 461.989,91.8092 465.127,125.553 468.265,172.324 471.403,215.025 474.541,248.741 477.68,268.073 480.818,298.69 483.956,297.196 487.094,313.037 490.233,319.881 493.371,305.128 496.509,303.942 499.647,308.893 502.786,297.569 505.924,286.273 509.062,275.803 512.2,271.105 515.339,266.446 518.477,270.24 521.615,270.698 524.753,282.181 527.892,311.562 531.03,311.389 534.168,305.108 537.306,334.134 540.444,316.406 543.583,320.159 546.721,323.331 549.859,324.519 552.997,325.173 556.136,326.984 559.274,326.596 562.412,326.57 565.55,327.665 568.689,326.51 571.827,325.589 574.965,323.389 578.103,320.324 581.242,323.713 584.38,318.749 587.518,310.824 590.656,310.824 593.794,310.824 596.933,310.824 600.071,310.824 603.209,310.824 606.347,310.824 609.486,310.824 612.624,310.824 615.762,310.824 618.9,328.939"/>
<polyline fill="none" stroke="#000000" stroke-width="5.0" points="55.5869,323.398 55.5869,19.5543"/>
<polyline fill="none" stroke="#000000" stroke-width="5.0" points="50.579,323.398 55.5869,323.398"/>
<polyline fill="none" stroke="#000000" stroke-width="5.0" points="50.579,24.5683 55.5869,24.5683"/>
<polyline fill="none" stroke="#000000" stroke-width="5.0" points="55.5869,323.398 620.469,323.398"/>
<polyline fill="none" stroke="#000000" stroke-width="5.0" points="55.5869,328.412 55.5869,323.398"/>
<polyline fill="none" stroke="#000000" stroke-width="5.0" points="196.807,328.412 196.807,323.398"/>
<polyline fill="none" stroke="#000000" stroke-width="5.0" points="338.028,328.412 338.028,323.398"/>
<polyline fill="none" stroke="#000000" stroke-width="5.0" points="479.249,328.412 479.249,323.398"/>
<polyline fill="none" stroke="#000000" stroke-width="5.0" points="620.469,328.412 620.469,323.398"/>
</g>
</svg>
