<?xml version="1.0" encoding="UTF-8" standalone="no"?>
<svg xmlns="http://www.w3.org/2000/svg" xmlns:xlink="http://www.w3.org/1999/xlink" width="640px" height="360px" viewBox="0 0 640 360">
<title>VTK GL2PS Export</title>
<desc>
Creator: GL2PS 1.3.8, (C) 1999-2012 C. Geuzaine
For: VTK
CreationDate: Mon Aug 17 19:37:28 2015
</desc>
<defs>
</defs>
<g shape-rendering="crispEdges">
<text fill="#000000" x="48.5759" y="323.398" font-size="30" text-anchor="end" baseline-shift="-15" font-family="Helvetica">0</text>
<text fill="#000000" x="48.5759" y="24.5683" font-size="30" text-anchor="end" baseline-shift="-15" font-family="Helvetica">0.9</text>
<text fill="#000000" x="55.5869" y="330.418" font-size="30" text-anchor="middle" baseline-shift="-30" font-family="Helvetica">0</text>
<text fill="#000000" x="196.807" y="330.418" font-size="30" text-anchor="middle" baseline-shift="-30" font-family="Helvetica">90</text>
<text fill="#000000" x="338.028" y="330.418" font-size="30" text-anchor="middle" baseline-shift="-30" font-family="Helvetica">180</text>
<text fill="#000000" x="479.249" y="330.418" font-size="30" text-anchor="middle" baseline-shift="-30" font-family="Helvetica">270</text>
<text fill="#000000" x="620.469" y="330.418" font-size="30" text-anchor="middle" baseline-shift="-30" font-family="Helvetica">360</text>
<polyline fill="none" stroke="#000000" stroke-width="5.0" points="57.156,320.515 60.2942,324.131 63.4324,327.024 66.5707,327.982 69.7089,327.863 72.8472,308.042 75.9854,273.846 79.1236,281.353 82.2619,291.979 85.4001,282.292 88.5383,261.543 91.6766,260.991 94.8148,228.765 97.953,226.728 101.091,234.708 104.23,243.787 107.368,205.29 110.506,182.71 113.644,178.711 116.782,190.83 119.921,164.468 123.059,136.401 126.197,141.147 129.335,156.751 132.474,171.236 135.612,181.032 138.75,149.092 141.888,159.331 145.027,164.602 148.165,193.661 151.303,188.116 154.441,193.143 157.58,283.938 160.718,261.547 163.856,261.035 166.994,294.156 170.133,307.058 173.271,309.478 176.409,318.169 179.547,336.457 182.685,331.095 185.824,321.317 188.962,329.543 192.1,320.745 195.238,310.434 198.377,304.686 201.515,309.28 204.653,330.297 207.791,325.597 210.93,308.73 214.068,308.446 217.206,318.464 220.344,333.982 223.483,329.159 226.621,331.482 229.759,332.182 232.897,332.216 236.035,327.478 239.174,314.872 242.312,310.826 245.45,325.185 248.588,327.926 251.727,318.839 254.865,323.589 258.003,335.281 261.141,333.667 264.28,327.185 267.418,322.638 270.556,323.714 273.694,318.842 276.833,331.445 279.971,331.029 283.109,327.254 286.247,327.866 289.385,330.414 292.524,329.232 295.662,329.04 298.8,323.661 301.938,326.314 305.077,311.099 308.215,315.492 311.353,319.739 314.491,329.522 317.63,305.757 320.768,270.81 323.906,245.137 327.044,207.038 330.183,132.088 333.321,97.0193 336.459,87.9279 339.597,64.7078 342.736,66.452 345.874,103.115 349.012,162.916 352.15,229.299 355.288,307.852 358.427,322.124 361.565,323.093 364.703,327.143 367.841,323.293 370.98,318.715 374.118,313.461 377.256,317.739 380.394,324.967 383.533,326.143 386.671,312.198 389.809,321.063 392.947,326.363 396.086,329.049 399.224,320.455 402.362,327.978 405.5,322.289 408.639,346.518 411.777,318.702 414.915,309.23 418.053,327.973 421.191,282.975 424.33,228.757 427.468,193.199 430.606,175.866 433.744,141.851 436.883,108.449 440.021,103.721 443.159,92.5186 446.297,100.079 449.436,121.22 452.574,120.539 455.712,103.307 458.85,102.699 461.989,149.18 465.127,173.773 468.265,212.266 471.403,264.824 474.541,316.233 477.68,313.087 480.818,332.002 483.956,314.248 487.094,325.22 490.233,327.286 493.371,329.897 496.509,317.717 499.647,306.631 502.786,333.567 505.924,327.694 509.062,313.031 512.2,300.183 515.339,288.822 518.477,250.646 521.615,297.726 524.753,316.655 527.892,313.046 531.03,316.113 534.168,329.126 537.306,315.761 540.444,324.501 543.583,333.339 546.721,337.788 549.859,336.315 552.997,333.194 556.136,326.893 559.274,332.759 562.412,338.266 565.55,336.999 568.689,325.687 571.827,318.143 574.965,327.504 578.103,320.819 581.242,325.567 584.38,320.443 587.518,312.155 590.656,311.135 593.794,317.123 596.933,316.922 600.071,316.689 603.209,316.689 606.347,316.689 609.486,316.689 612.624,316.689 615.762,328.031 618.9,332.019"/>
<polyline fill="none" stroke="#000000" stroke-width="5.0" points="55.5869,323.398 55.5869,19.5543"/>
<polyline fill="none" stroke="#000000" stroke-width="5.0" points="50.579,323.398 55.5869,323.398"/>
<polyline fill="none" stroke="#000000" stroke-width="5.0" points="50.579,24.5683 55.5869,24.5683"/>
<polyline fill="none" stroke="#000000" stroke-width="5.0" points="55.5869,323.398 620.469,323.398"/>
<polyline fill="none" stroke="#000000" stroke-width="5.0" points="55.5869,328.412 55.5869,323.398"/>
<polyline fill="none" stroke="#000000" stroke-width="5.0" points="196.807,328.412 196.807,323.398"/>
<polyline fill="none" stroke="#000000" stroke-width="5.0" points="338.028,328.412 338.028,323.398"/>
<polyline fill="none" stroke="#000000" stroke-width="5.0" points="479.249,328.412 479.249,323.398"/>
<polyline fill="none" stroke="#000000" stroke-width="5.0" points="620.469,328.412 620.469,323.398"/>
</g>
</svg>
