<?xml version="1.0" encoding="UTF-8" standalone="no"?>
<svg xmlns="http://www.w3.org/2000/svg" xmlns:xlink="http://www.w3.org/1999/xlink" width="640px" height="360px" viewBox="0 0 640 360">
<title>VTK GL2PS Export</title>
<desc>
Creator: GL2PS 1.3.8, (C) 1999-2012 C. Geuzaine
For: VTK
CreationDate: Mon Aug 17 19:37:28 2015
</desc>
<defs>
</defs>
<g shape-rendering="crispEdges">
<text fill="#000000" x="48.5759" y="323.398" font-size="30" text-anchor="end" baseline-shift="-15" font-family="Helvetica">0</text>
<text fill="#000000" x="48.5759" y="24.5683" font-size="30" text-anchor="end" baseline-shift="-15" font-family="Helvetica">0.9</text>
<text fill="#000000" x="55.5869" y="330.418" font-size="30" text-anchor="middle" baseline-shift="-30" font-family="Helvetica">0</text>
<text fill="#000000" x="196.807" y="330.418" font-size="30" text-anchor="middle" baseline-shift="-30" font-family="Helvetica">90</text>
<text fill="#000000" x="338.028" y="330.418" font-size="30" text-anchor="middle" baseline-shift="-30" font-family="Helvetica">180</text>
<text fill="#000000" x="479.249" y="330.418" font-size="30" text-anchor="middle" baseline-shift="-30" font-family="Helvetica">270</text>
<text fill="#000000" x="620.469" y="330.418" font-size="30" text-anchor="middle" baseline-shift="-30" font-family="Helvetica">360</text>
<polyline fill="none" stroke="#000000" stroke-width="5.0" points="57.156,301.443 60.2942,310.432 63.4324,331.933 66.5707,320.909 69.7089,337.114 72.8472,335.54 75.9854,330.9 79.1236,325.45 82.2619,306.725 85.4001,285.542 88.5383,308.354 91.6766,298.86 94.8148,300.641 97.953,289.201 101.091,243.467 104.23,281.367 107.368,229.58 110.506,199.288 113.644,214.175 116.782,228.23 119.921,283.471 123.059,287.088 126.197,247.899 129.335,249.482 132.474,262.609 135.612,299.852 138.75,272.036 141.888,306.65 145.027,314.321 148.165,336.032 151.303,336.378 154.441,357.529 157.58,340.548 160.718,342.694 163.856,330.561 166.994,323.147 170.133,328.137 173.271,325.671 176.409,339.941 179.547,333.385 182.685,331.755 185.824,339.683 188.962,333.277 192.1,335.544 195.238,324.021 198.377,329.789 201.515,321.018 204.653,336.735 207.791,316.322 210.93,302.185 214.068,331.393 217.206,342.857 220.344,341.765 223.483,335.564 226.621,327.598 229.759,320.236 232.897,327.051 236.035,310.437 239.174,311.44 242.312,293.78 245.45,329.647 248.588,329.071 251.727,308.29 254.865,330.787 258.003,338.195 261.141,326.018 264.28,325.583 267.418,329.445 270.556,334.421 273.694,326.65 276.833,328.514 279.971,316.415 283.109,320.075 286.247,325.933 289.385,326.973 292.524,309.155 295.662,326.68 298.8,312.86 301.938,318.404 305.077,329.938 308.215,314.258 311.353,329.556 314.491,333.383 317.63,334.618 320.768,320.908 323.906,311.39 327.044,295.249 330.183,267.401 333.321,214.758 336.459,191.663 339.597,113.626 342.736,110.809 345.874,146.998 349.012,189.421 352.15,314.867 355.288,321.207 358.427,309.714 361.565,321.301 364.703,334.83 367.841,341.644 370.98,337.743 374.118,320.478 377.256,315.007 380.394,319.825 383.533,321.964 386.671,322.06 389.809,287.592 392.947,296.488 396.086,303.003 399.224,321.909 402.362,320.923 405.5,296.635 408.639,318.653 411.777,338.506 414.915,331.572 418.053,320.846 421.191,300.552 424.33,314.071 427.468,243.794 430.606,203.636 433.744,164.182 436.883,120.153 440.021,219.592 443.159,197.832 446.297,197.09 449.436,141.716 452.574,65.6726 455.712,75.1835 458.85,124.976 461.989,205.078 465.127,247.272 468.265,207.685 471.403,237.05 474.541,285.151 477.68,307.745 480.818,323.507 483.956,300.799 487.094,318.583 490.233,315.602 493.371,316.568 496.509,313.658 499.647,334.103 502.786,327.236 505.924,324.948 509.062,293.517 512.2,312.768 515.339,267.247 518.477,271.579 521.615,305.67 524.753,304.629 527.892,320.618 531.03,331.962 534.168,333.085 537.306,337.723 540.444,343.927 543.583,335.891 546.721,329.08 549.859,333.485 552.997,311.66 556.136,307.71 559.274,325.377 562.412,329.782 565.55,336.761 568.689,331.303 571.827,334.911 574.965,319.834 578.103,318.026 581.242,342.538 584.38,325.538 587.518,338.253 590.656,342.011 593.794,338.123 596.933,342.634 600.071,342.134 603.209,342.134 606.347,342.134 609.486,342.134 612.624,342.134 615.762,342.134 618.9,326.427"/>
<polyline fill="none" stroke="#000000" stroke-width="5.0" points="55.5869,323.398 55.5869,19.5543"/>
<polyline fill="none" stroke="#000000" stroke-width="5.0" points="50.579,323.398 55.5869,323.398"/>
<polyline fill="none" stroke="#000000" stroke-width="5.0" points="50.579,24.5683 55.5869,24.5683"/>
<polyline fill="none" stroke="#000000" stroke-width="5.0" points="55.5869,323.398 620.469,323.398"/>
<polyline fill="none" stroke="#000000" stroke-width="5.0" points="55.5869,328.412 55.5869,323.398"/>
<polyline fill="none" stroke="#000000" stroke-width="5.0" points="196.807,328.412 196.807,323.398"/>
<polyline fill="none" stroke="#000000" stroke-width="5.0" points="338.028,328.412 338.028,323.398"/>
<polyline fill="none" stroke="#000000" stroke-width="5.0" points="479.249,328.412 479.249,323.398"/>
<polyline fill="none" stroke="#000000" stroke-width="5.0" points="620.469,328.412 620.469,323.398"/>
</g>
</svg>
