<?xml version="1.0" encoding="UTF-8" standalone="no"?>
<svg xmlns="http://www.w3.org/2000/svg" xmlns:xlink="http://www.w3.org/1999/xlink" width="640px" height="360px" viewBox="0 0 640 360">
<title>VTK GL2PS Export</title>
<desc>
Creator: GL2PS 1.3.8, (C) 1999-2012 C. Geuzaine
For: VTK
CreationDate: Mon Aug 17 19:33:47 2015
</desc>
<defs>
</defs>
<g shape-rendering="crispEdges">
<text fill="#000000" x="47.5743" y="323.398" font-size="30" text-anchor="end" baseline-shift="-15" font-family="Helvetica">0</text>
<text fill="#000000" x="47.5743" y="49.6379" font-size="30" text-anchor="end" baseline-shift="-15" font-family="Helvetica">0.8</text>
<text fill="#000000" x="54.5853" y="330.418" font-size="30" text-anchor="middle" baseline-shift="-30" font-family="Helvetica">0</text>
<text fill="#000000" x="195.806" y="330.418" font-size="30" text-anchor="middle" baseline-shift="-30" font-family="Helvetica">90</text>
<text fill="#000000" x="337.027" y="330.418" font-size="30" text-anchor="middle" baseline-shift="-30" font-family="Helvetica">180</text>
<text fill="#000000" x="478.247" y="330.418" font-size="30" text-anchor="middle" baseline-shift="-30" font-family="Helvetica">270</text>
<text fill="#000000" x="620.469" y="330.418" font-size="30" text-anchor="middle" baseline-shift="-30" font-family="Helvetica">360</text>
<polyline fill="none" stroke="#000000" stroke-width="5.0" points="56.1572,317.278 59.301,315.173 62.4448,312.431 65.5886,306.797 68.7324,300.737 71.8762,293.899 75.02,284.343 78.1638,274.305 81.3076,263.714 84.4514,251.842 87.5952,238.252 90.739,225.748 93.8828,213.199 97.0266,201.559 100.17,190.665 103.314,180.723 106.458,171.015 109.602,161.315 112.746,152.749 115.889,146.585 119.033,145.359 122.177,143.635 125.321,143.042 128.465,144.838 131.608,146.157 134.752,148.374 137.896,153.327 141.04,156.705 144.184,164.742 147.327,176.755 150.471,191.42 153.615,205.363 156.759,219.444 159.903,234.526 163.046,247.734 166.19,272.51 169.334,285.177 172.478,294.829 175.622,301.442 178.765,303.01 181.909,309.849 185.053,312.156 188.197,315.417 191.341,318.49 194.484,318.292 197.628,317.373 200.772,320.985 203.916,321.56 207.06,322.718 210.203,323.064 213.347,323.139 216.491,323.944 219.635,324.34 222.779,324.71 225.922,323.026 229.066,321.86 232.21,320.246 235.354,320.156 238.498,322.283 241.641,324.12 244.785,324.225 247.929,324.613 251.073,324.492 254.217,323.86 257.36,324.329 260.504,323.95 263.648,324.788 266.792,325.257 269.936,324.548 273.079,324.51 276.223,325.171 279.367,322.972 282.511,322.643 285.655,323.109 288.798,324.375 291.942,323.875 295.086,324.282 298.23,323.669 301.374,322.782 304.517,322.768 307.661,321.282 310.805,315.694 313.949,295.908 317.093,257.591 320.236,203.129 323.38,151.307 326.524,112.491 329.668,88.6414 332.812,75.95 335.955,70.6049 339.099,69.7096 342.243,76.2308 345.387,87.9041 348.531,110.156 351.674,154.748 354.818,213.349 357.962,268.819 361.106,302.818 364.25,317.707 367.393,322.939 370.537,323.589 373.681,323.279 376.825,323.916 379.969,324.406 383.112,324.385 386.256,324.649 389.4,324.069 392.544,324.043 395.688,323.532 398.831,323.749 401.975,322.688 405.119,321.3 408.263,319.154 411.407,314.701 414.55,304.658 417.694,285.946 420.838,259.332 423.982,220.582 427.126,178.968 430.27,142.351 433.413,112.722 436.557,90.2385 439.701,72.1273 442.845,60.5768 445.988,51.0793 449.132,47.1765 452.276,55.1783 455.42,67.714 458.564,84.2603 461.707,106.261 464.851,137.338 467.995,174.322 471.139,207.549 474.283,236.22 477.427,261.4 480.57,284.319 483.714,296.882 486.858,298.245 490.002,299.663 493.146,304.753 496.289,308.1 499.433,308.288 502.577,309.347 505.721,303.43 508.865,296.729 512.008,286.368 515.152,286.757 518.296,283.006 521.44,286.435 524.583,289.203 527.727,306.426 530.871,314.676 534.015,319.878 537.159,322.24 540.303,322.87 543.446,323.999 546.59,324.141 549.734,323.606 552.878,324.797 556.022,324.719 559.165,325.084 562.309,324.034 565.453,324.003 568.597,323.896 571.741,323.739 574.884,324.493 578.028,324.594 581.172,324.459 584.316,316.485 587.46,315.557 590.603,315.557 593.747,315.557 596.891,315.557 600.035,315.557 603.179,315.557 606.322,315.557 609.466,315.557 612.61,315.557 615.754,340.483 618.898,323.946"/>
<polyline fill="none" stroke="#000000" stroke-width="5.0" points="54.5853,323.398 54.5853,19.5543"/>
<polyline fill="none" stroke="#000000" stroke-width="5.0" points="49.5775,323.398 54.5853,323.398"/>
<polyline fill="none" stroke="#000000" stroke-width="5.0" points="49.5775,49.6379 54.5853,49.6379"/>
<polyline fill="none" stroke="#000000" stroke-width="5.0" points="54.5853,323.398 620.469,323.398"/>
<polyline fill="none" stroke="#000000" stroke-width="5.0" points="54.5853,328.412 54.5853,323.398"/>
<polyline fill="none" stroke="#000000" stroke-width="5.0" points="195.806,328.412 195.806,323.398"/>
<polyline fill="none" stroke="#000000" stroke-width="5.0" points="337.027,328.412 337.027,323.398"/>
<polyline fill="none" stroke="#000000" stroke-width="5.0" points="478.247,328.412 478.247,323.398"/>
<polyline fill="none" stroke="#000000" stroke-width="5.0" points="620.469,328.412 620.469,323.398"/>
</g>
</svg>
