<?xml version="1.0" encoding="UTF-8" standalone="no"?>
<svg xmlns="http://www.w3.org/2000/svg" xmlns:xlink="http://www.w3.org/1999/xlink" width="640px" height="360px" viewBox="0 0 640 360">
<title>VTK GL2PS Export</title>
<desc>
Creator: GL2PS 1.3.8, (C) 1999-2012 C. Geuzaine
For: VTK
CreationDate: Mon Aug 17 19:33:47 2015
</desc>
<defs>
</defs>
<g shape-rendering="crispEdges">
<text fill="#000000" x="47.5743" y="323.398" font-size="30" text-anchor="end" baseline-shift="-15" font-family="Helvetica">0</text>
<text fill="#000000" x="47.5743" y="49.6379" font-size="30" text-anchor="end" baseline-shift="-15" font-family="Helvetica">0.8</text>
<text fill="#000000" x="54.5853" y="330.418" font-size="30" text-anchor="middle" baseline-shift="-30" font-family="Helvetica">0</text>
<text fill="#000000" x="195.806" y="330.418" font-size="30" text-anchor="middle" baseline-shift="-30" font-family="Helvetica">90</text>
<text fill="#000000" x="337.027" y="330.418" font-size="30" text-anchor="middle" baseline-shift="-30" font-family="Helvetica">180</text>
<text fill="#000000" x="478.247" y="330.418" font-size="30" text-anchor="middle" baseline-shift="-30" font-family="Helvetica">270</text>
<text fill="#000000" x="620.469" y="330.418" font-size="30" text-anchor="middle" baseline-shift="-30" font-family="Helvetica">360</text>
<polyline fill="none" stroke="#000000" stroke-width="5.0" points="56.1572,316.997 59.301,315.676 62.4448,314.235 65.5886,311.351 68.7324,306.76 71.8762,302.068 75.02,296.436 78.1638,288.73 81.3076,281.125 84.4514,272.46 87.5952,264.081 90.739,256.532 93.8828,248.876 97.0266,241.067 100.17,233.296 103.314,224.849 106.458,218.319 109.602,212.338 112.746,207.337 115.889,200.044 119.033,194.968 122.177,193.743 125.321,192.363 128.465,190.763 131.608,190.481 134.752,192.208 137.896,193.204 141.04,197.733 144.184,203.169 147.327,209.44 150.471,217.85 153.615,228.543 156.759,239.058 159.903,249.678 163.046,266.227 166.19,282.403 169.334,293.879 172.478,301.035 175.622,305.614 178.765,310.838 181.909,311.594 185.053,311.345 188.197,312.529 191.341,313.219 194.484,310.513 197.628,310.635 200.772,312.04 203.916,313.885 207.06,315.296 210.203,314.422 213.347,315.542 216.491,315.564 219.635,317.14 222.779,318.389 225.922,317.666 229.066,312.727 232.21,317.84 235.354,317.51 238.498,321.668 241.641,322.548 244.785,323.216 247.929,323.567 251.073,323.815 254.217,323.769 257.36,323.806 260.504,323.832 263.648,325.016 266.792,325.828 269.936,325.887 273.079,324.146 276.223,325.46 279.367,321.892 282.511,325.13 285.655,323.82 288.798,325.165 291.942,325.204 295.086,325.301 298.23,325.192 301.374,324.877 304.517,324.023 307.661,321.378 310.805,314.347 313.949,296.519 317.093,263.33 320.236,218.175 323.38,175.456 326.524,144.461 329.668,127.839 332.812,119.081 335.955,112.989 339.099,114.902 342.243,117.17 345.387,126.486 348.531,146.117 351.674,183.334 354.818,233.796 357.962,278.477 361.106,306.681 364.25,320.176 367.393,322.358 370.537,323.034 373.681,322.413 376.825,322.757 379.969,321.891 383.112,322 386.256,322.363 389.4,322.355 392.544,322.551 395.688,322.212 398.831,323.562 401.975,324.164 405.119,324.552 408.263,324.679 411.407,323.577 414.55,319.727 417.694,312.003 420.838,296.299 423.982,271.552 427.126,240.246 430.27,210.731 433.413,183.903 436.557,161.799 439.701,142.826 442.845,126.308 445.988,119.721 449.132,123.607 452.276,133.684 455.42,149.032 458.564,168.469 461.707,189.625 464.851,211.451 467.995,226.197 471.139,242.151 474.283,257.294 477.427,272.349 480.57,285.644 483.714,295.758 486.858,297.221 490.002,299.305 493.146,304.75 496.289,311.497 499.433,318.892 502.577,317.201 505.721,315.771 508.865,316.119 512.008,315.562 515.152,316.836 518.296,319.018 521.44,321.672 524.583,320.433 527.727,322.52 530.871,323.084 534.015,325.464 537.159,325.368 540.303,325.598 543.446,324.472 546.59,325.529 549.734,325.264 552.878,324.682 556.022,325.061 559.165,324.841 562.309,320.119 565.453,324.338 568.597,324.99 571.741,325.12 574.884,325.115 578.028,324.921 581.172,324.825 584.316,327.454 587.46,328.149 590.603,328.149 593.747,328.149 596.891,328.149 600.035,328.149 603.179,328.149 606.322,328.149 609.466,328.149 612.61,328.149 615.754,311.351 618.898,325.762"/>
<polyline fill="none" stroke="#000000" stroke-width="5.0" points="54.5853,323.398 54.5853,19.5543"/>
<polyline fill="none" stroke="#000000" stroke-width="5.0" points="49.5775,323.398 54.5853,323.398"/>
<polyline fill="none" stroke="#000000" stroke-width="5.0" points="49.5775,49.6379 54.5853,49.6379"/>
<polyline fill="none" stroke="#000000" stroke-width="5.0" points="54.5853,323.398 620.469,323.398"/>
<polyline fill="none" stroke="#000000" stroke-width="5.0" points="54.5853,328.412 54.5853,323.398"/>
<polyline fill="none" stroke="#000000" stroke-width="5.0" points="195.806,328.412 195.806,323.398"/>
<polyline fill="none" stroke="#000000" stroke-width="5.0" points="337.027,328.412 337.027,323.398"/>
<polyline fill="none" stroke="#000000" stroke-width="5.0" points="478.247,328.412 478.247,323.398"/>
<polyline fill="none" stroke="#000000" stroke-width="5.0" points="620.469,328.412 620.469,323.398"/>
</g>
</svg>
