<?xml version="1.0" encoding="UTF-8" standalone="no"?>
<svg xmlns="http://www.w3.org/2000/svg" xmlns:xlink="http://www.w3.org/1999/xlink" width="640px" height="360px" viewBox="0 0 640 360">
<title>VTK GL2PS Export</title>
<desc>
Creator: GL2PS 1.3.8, (C) 1999-2012 C. Geuzaine
For: VTK
CreationDate: Mon Aug 17 19:33:48 2015
</desc>
<defs>
</defs>
<g shape-rendering="crispEdges">
<text fill="#000000" x="47.5743" y="323.398" font-size="30" text-anchor="end" baseline-shift="-15" font-family="Helvetica">0</text>
<text fill="#000000" x="47.5743" y="49.6379" font-size="30" text-anchor="end" baseline-shift="-15" font-family="Helvetica">0.8</text>
<text fill="#000000" x="54.5853" y="330.418" font-size="30" text-anchor="middle" baseline-shift="-30" font-family="Helvetica">0</text>
<text fill="#000000" x="195.806" y="330.418" font-size="30" text-anchor="middle" baseline-shift="-30" font-family="Helvetica">90</text>
<text fill="#000000" x="337.027" y="330.418" font-size="30" text-anchor="middle" baseline-shift="-30" font-family="Helvetica">180</text>
<text fill="#000000" x="478.247" y="330.418" font-size="30" text-anchor="middle" baseline-shift="-30" font-family="Helvetica">270</text>
<text fill="#000000" x="620.469" y="330.418" font-size="30" text-anchor="middle" baseline-shift="-30" font-family="Helvetica">360</text>
<polyline fill="none" stroke="#000000" stroke-width="5.0" points="56.1572,322.36 59.301,324.047 62.4448,312.228 65.5886,321.046 68.7324,321.266 71.8762,321.774 75.02,322.078 78.1638,321.383 81.3076,321.349 84.4514,319.928 87.5952,319.306 90.739,317.6 93.8828,316.088 97.0266,315.568 100.17,314.467 103.314,314.027 106.458,312.244 109.602,310.751 112.746,308.904 115.889,306.75 119.033,304.974 122.177,303.043 125.321,303.163 128.465,300.822 131.608,298.6 134.752,295.276 137.896,292.514 141.04,291.163 144.184,290.01 147.327,289.285 150.471,290.255 153.615,292.555 156.759,295.185 159.903,297.777 163.046,298.989 166.19,302.407 169.334,306.421 172.478,309.046 175.622,311.146 178.765,313.128 181.909,314.354 185.053,313.714 188.197,312.228 191.341,315.3 194.484,317.637 197.628,318.286 200.772,323.41 203.916,325.556 207.06,325.175 210.203,323.79 213.347,322.243 216.491,323.706 219.635,325.921 222.779,326.832 225.922,325.48 229.066,322.654 232.21,317.886 235.354,316.313 238.498,318.333 241.641,319.715 244.785,320.467 247.929,319.84 251.073,319.246 254.217,318.6 257.36,318.081 260.504,317.686 263.648,317.628 266.792,317.089 269.936,316.241 273.079,315.938 276.223,314.604 279.367,315.33 282.511,316.065 285.655,315.713 288.798,315.332 291.942,316.722 295.086,316.564 298.23,316.648 301.374,316.309 304.517,315.777 307.661,313.107 310.805,305.445 313.949,291.81 317.093,266.551 320.236,233.047 323.38,200.132 326.524,175.666 329.668,157.686 332.812,149.857 335.955,145.07 339.099,145.614 342.243,149.006 345.387,153.183 348.531,165.535 351.674,188.34 354.818,219.36 357.962,257.044 361.106,285.224 364.25,302.907 367.393,312.179 370.537,314.717 373.681,315.554 376.825,315.348 379.969,316.006 383.112,315.919 386.256,315.983 389.4,315.372 392.544,314.545 395.688,314.044 398.831,312.741 401.975,311.64 405.119,309.061 408.263,305.803 411.407,302.181 414.55,295.046 417.694,288.589 420.838,279.454 423.982,269.984 427.126,263.144 430.27,255.059 433.413,247.596 436.557,242.776 439.701,243.073 442.845,246.412 445.988,252.445 449.132,255.94 452.276,256.596 455.42,257.794 458.564,260.975 461.707,265.865 464.851,267.66 467.995,274.276 471.139,286.251 474.283,298.389 477.427,303.236 480.57,302.31 483.714,297.398 486.858,295.884 490.002,300.747 493.146,306.881 496.289,312.828 499.433,314.167 502.577,312.492 505.721,309.641 508.865,308.293 512.008,311.781 515.152,315.108 518.296,316.812 521.44,311.889 524.583,308.987 527.727,312.594 530.871,318.681 534.015,319.784 537.159,320.832 540.303,320.603 543.446,319.504 546.59,319.008 549.734,318.492 552.878,317.822 556.022,316.555 559.165,315.576 562.309,317.035 565.453,317.241 568.597,317.087 571.741,317.313 574.884,318.124 578.028,318.582 581.172,317.373 584.316,312.437 587.46,310.19 590.603,311.514 593.747,312.78 596.891,312.78 600.035,312.78 603.179,312.78 606.322,312.78 609.466,320.427 612.61,322.042 615.754,325.771 618.898,324.361"/>
<polyline fill="none" stroke="#000000" stroke-width="5.0" points="54.5853,323.398 54.5853,19.5543"/>
<polyline fill="none" stroke="#000000" stroke-width="5.0" points="49.5775,323.398 54.5853,323.398"/>
<polyline fill="none" stroke="#000000" stroke-width="5.0" points="49.5775,49.6379 54.5853,49.6379"/>
<polyline fill="none" stroke="#000000" stroke-width="5.0" points="54.5853,323.398 620.469,323.398"/>
<polyline fill="none" stroke="#000000" stroke-width="5.0" points="54.5853,328.412 54.5853,323.398"/>
<polyline fill="none" stroke="#000000" stroke-width="5.0" points="195.806,328.412 195.806,323.398"/>
<polyline fill="none" stroke="#000000" stroke-width="5.0" points="337.027,328.412 337.027,323.398"/>
<polyline fill="none" stroke="#000000" stroke-width="5.0" points="478.247,328.412 478.247,323.398"/>
<polyline fill="none" stroke="#000000" stroke-width="5.0" points="620.469,328.412 620.469,323.398"/>
</g>
</svg>
