<?xml version="1.0" encoding="UTF-8" standalone="no"?>
<svg xmlns="http://www.w3.org/2000/svg" xmlns:xlink="http://www.w3.org/1999/xlink" width="640px" height="360px" viewBox="0 0 640 360">
<title>VTK GL2PS Export</title>
<desc>
Creator: GL2PS 1.3.8, (C) 1999-2012 C. Geuzaine
For: VTK
CreationDate: Mon Aug 17 19:38:56 2015
</desc>
<defs>
</defs>
<g shape-rendering="crispEdges">
<text fill="#000000" x="47.5743" y="323.398" font-size="30" text-anchor="end" baseline-shift="-15" font-family="Helvetica">0</text>
<text fill="#000000" x="47.5743" y="88.7465" font-size="30" text-anchor="end" baseline-shift="-15" font-family="Helvetica">0.3</text>
<text fill="#000000" x="54.5853" y="330.418" font-size="30" text-anchor="middle" baseline-shift="-30" font-family="Helvetica">0</text>
<text fill="#000000" x="195.806" y="330.418" font-size="30" text-anchor="middle" baseline-shift="-30" font-family="Helvetica">90</text>
<text fill="#000000" x="337.027" y="330.418" font-size="30" text-anchor="middle" baseline-shift="-30" font-family="Helvetica">180</text>
<text fill="#000000" x="478.247" y="330.418" font-size="30" text-anchor="middle" baseline-shift="-30" font-family="Helvetica">270</text>
<text fill="#000000" x="620.469" y="330.418" font-size="30" text-anchor="middle" baseline-shift="-30" font-family="Helvetica">360</text>
<polyline fill="none" stroke="#000000" stroke-width="5.0" points="56.1572,314.882 59.301,273.472 62.4448,315.4 65.5886,328.133 68.7324,317.135 71.8762,329.203 75.02,321.152 78.1638,322.791 81.3076,324.292 84.4514,325.944 87.5952,325.3 90.739,323.58 93.8828,326.139 97.0266,324.816 100.17,324.488 103.314,325.977 106.458,326.969 109.602,325.31 112.746,326.286 115.889,324.728 119.033,324.313 122.177,328.621 125.321,328.747 128.465,328.356 131.608,327.451 134.752,327.524 137.896,325.032 141.04,322.447 144.184,319.796 147.327,313.123 150.471,309.592 153.615,306.833 156.759,307.525 159.903,308.559 163.046,313.439 166.19,318.593 169.334,317.68 172.478,312.332 175.622,303.898 178.765,298.496 181.909,296.977 185.053,295.965 188.197,296.062 191.341,300.418 194.484,307.257 197.628,311.815 200.772,313.378 203.916,314.978 207.06,312.955 210.203,311.87 213.347,309.396 216.491,304.471 219.635,297.969 222.779,285.989 225.922,274.328 229.066,252.145 232.21,244.867 235.354,223.365 238.498,223.047 241.641,206.412 244.785,204.692 247.929,214.647 251.073,214.013 254.217,229.527 257.36,249.947 260.504,265.386 263.648,279.657 266.792,289.84 269.936,297.632 273.079,304.343 276.223,308.142 279.367,312.896 282.511,313.679 285.655,314.903 288.798,317.422 291.942,319.105 295.086,319.817 298.23,317.178 301.374,321.382 304.517,318.745 307.661,320.738 310.805,320.286 313.949,322.001 317.093,322.172 320.236,325.937 323.38,325.741 326.524,323.196 329.668,321.795 332.812,316.61 335.955,303.807 339.099,294.578 342.243,286.888 345.387,277.76 348.531,272.989 351.674,275.182 354.818,270.936 357.962,271.105 361.106,272.525 364.25,270.356 367.393,275.486 370.537,279.37 373.681,284.577 376.825,293.639 379.969,300.903 383.112,311.333 386.256,314.845 389.4,311.847 392.544,310.286 395.688,310.457 398.831,308.894 401.975,304.594 405.119,303.674 408.263,298.757 411.407,300.457 414.55,294.135 417.694,297.397 420.838,303.99 423.982,305.105 427.126,304.165 430.27,303.254 433.413,295.35 436.557,294.026 439.701,285.754 442.845,290.174 445.988,288.154 449.132,285.841 452.276,285.843 455.42,285.246 458.564,293.61 461.707,295.105 464.851,300.771 467.995,305.857 471.139,308.614 474.283,312.272 477.427,316.06 480.57,320.06 483.714,322.961 486.858,326.805 490.002,329.037 493.146,327.127 496.289,324.774 499.433,323.755 502.577,321.958 505.721,328.479 508.865,315.547 512.008,271.675 515.152,272.915 518.296,273.846 521.44,273.846 524.583,273.846 527.727,273.846 530.871,273.846 534.015,273.846 537.159,273.846 540.303,273.846 543.446,273.846 546.59,273.846 549.734,273.846 552.878,273.846 556.022,273.846 559.165,273.846 562.309,273.846 565.453,273.846 568.597,273.846 571.741,273.846 574.884,273.846 578.028,273.846 581.172,273.846 584.316,273.846 587.46,273.846 590.603,273.846 593.747,273.846 596.891,273.846 600.035,273.846 603.179,273.846 606.322,273.846 609.466,267.891 612.61,287.71 615.754,308.915 618.898,295.652"/>
<polyline fill="none" stroke="#000000" stroke-width="5.0" points="54.5853,323.398 54.5853,19.5543"/>
<polyline fill="none" stroke="#000000" stroke-width="5.0" points="49.5775,323.398 54.5853,323.398"/>
<polyline fill="none" stroke="#000000" stroke-width="5.0" points="49.5775,88.7465 54.5853,88.7465"/>
<polyline fill="none" stroke="#000000" stroke-width="5.0" points="54.5853,323.398 620.469,323.398"/>
<polyline fill="none" stroke="#000000" stroke-width="5.0" points="54.5853,328.412 54.5853,323.398"/>
<polyline fill="none" stroke="#000000" stroke-width="5.0" points="195.806,328.412 195.806,323.398"/>
<polyline fill="none" stroke="#000000" stroke-width="5.0" points="337.027,328.412 337.027,323.398"/>
<polyline fill="none" stroke="#000000" stroke-width="5.0" points="478.247,328.412 478.247,323.398"/>
<polyline fill="none" stroke="#000000" stroke-width="5.0" points="620.469,328.412 620.469,323.398"/>
</g>
</svg>
