<?xml version="1.0" encoding="UTF-8" standalone="no"?>
<svg xmlns="http://www.w3.org/2000/svg" xmlns:xlink="http://www.w3.org/1999/xlink" width="640px" height="360px" viewBox="0 0 640 360">
<title>VTK GL2PS Export</title>
<desc>
Creator: GL2PS 1.3.8, (C) 1999-2012 C. Geuzaine
For: VTK
CreationDate: Mon Aug 17 19:38:56 2015
</desc>
<defs>
</defs>
<g shape-rendering="crispEdges">
<text fill="#000000" x="47.5743" y="323.398" font-size="30" text-anchor="end" baseline-shift="-15" font-family="Helvetica">0</text>
<text fill="#000000" x="47.5743" y="88.7465" font-size="30" text-anchor="end" baseline-shift="-15" font-family="Helvetica">0.3</text>
<text fill="#000000" x="54.5853" y="330.418" font-size="30" text-anchor="middle" baseline-shift="-30" font-family="Helvetica">0</text>
<text fill="#000000" x="195.806" y="330.418" font-size="30" text-anchor="middle" baseline-shift="-30" font-family="Helvetica">90</text>
<text fill="#000000" x="337.027" y="330.418" font-size="30" text-anchor="middle" baseline-shift="-30" font-family="Helvetica">180</text>
<text fill="#000000" x="478.247" y="330.418" font-size="30" text-anchor="middle" baseline-shift="-30" font-family="Helvetica">270</text>
<text fill="#000000" x="620.469" y="330.418" font-size="30" text-anchor="middle" baseline-shift="-30" font-family="Helvetica">360</text>
<polyline fill="none" stroke="#000000" stroke-width="5.0" points="56.1572,300.477 59.301,300.014 62.4448,288.565 65.5886,310.14 68.7324,305.69 71.8762,310.531 75.02,313.522 78.1638,316.408 81.3076,317.715 84.4514,324.384 87.5952,321.576 90.739,321.661 93.8828,322.693 97.0266,317.472 100.17,318.926 103.314,319.112 106.458,320.248 109.602,318.433 112.746,319.381 115.889,319.204 119.033,318.494 122.177,329.457 125.321,331.154 128.465,328.812 131.608,328.948 134.752,329.173 137.896,327.076 141.04,319.314 144.184,304.736 147.327,296.769 150.471,296.28 153.615,290.826 156.759,296.691 159.903,302.576 163.046,304.931 166.19,305.965 169.334,301.613 172.478,294.52 175.622,280.193 178.765,267.131 181.909,257.923 185.053,258.354 188.197,255.873 191.341,256.197 194.484,263.516 197.628,273.075 200.772,287.047 203.916,295.908 207.06,297.081 210.203,303.106 213.347,307.372 216.491,303.802 219.635,298.955 222.779,289.542 225.922,272.542 229.066,251.078 232.21,221.916 235.354,208.232 238.498,189.128 241.641,184.605 244.785,178.417 247.929,177.684 251.073,183.596 254.217,195.934 257.36,221.888 260.504,241.054 263.648,260.221 266.792,273.918 269.936,285.944 273.079,294.238 276.223,303.684 279.367,312.06 282.511,314.694 285.655,316.524 288.798,317.715 291.942,319.585 295.086,321.088 298.23,319.566 301.374,320.253 304.517,318.931 307.661,316.769 310.805,318.147 313.949,323.649 317.093,327.74 320.236,332.918 323.38,334.441 326.524,332.802 329.668,327.055 332.812,324.513 335.955,306.433 339.099,293.789 342.243,276.776 345.387,259.264 348.531,247.823 351.674,241.293 354.818,238.641 357.962,233.899 361.106,232.997 364.25,233.278 367.393,234.158 370.537,243.926 373.681,253.658 376.825,269.386 379.969,288.161 383.112,302.951 386.256,312.355 389.4,311.801 392.544,310.003 395.688,307.507 398.831,302.174 401.975,297.619 405.119,294.251 408.263,289.639 411.407,286.059 414.55,290.471 417.694,294.604 420.838,305.861 423.982,310.455 427.126,309.832 430.27,309.123 433.413,312.624 436.557,314.023 439.701,313.275 442.845,322.746 445.988,325.246 449.132,327.563 452.276,326.052 455.42,326.868 458.564,326.272 461.707,327.678 464.851,327.677 467.995,328.309 471.139,327.196 474.283,327.002 477.427,325.005 480.57,325.259 483.714,324.127 486.858,324.009 490.002,323.613 493.146,325.611 496.289,328.83 499.433,330.945 502.577,332.355 505.721,333.666 508.865,338.979 512.008,336.774 515.152,332.277 518.296,330.927 521.44,333.428 524.583,330.419 527.727,334.76 530.871,332.866 534.015,328.071 537.159,329.897 540.303,330.881 543.446,330.149 546.59,328.044 549.734,328.298 552.878,317.146 556.022,312.325 559.165,315.311 562.309,317.572 565.453,317.572 568.597,317.572 571.741,317.572 574.884,317.572 578.028,317.572 581.172,317.572 584.316,317.572 587.46,317.572 590.603,317.572 593.747,317.572 596.891,317.572 600.035,317.572 603.179,317.572 606.322,317.572 609.466,326.203 612.61,322.061 615.754,331.516 618.898,322.392"/>
<polyline fill="none" stroke="#000000" stroke-width="5.0" points="54.5853,323.398 54.5853,19.5543"/>
<polyline fill="none" stroke="#000000" stroke-width="5.0" points="49.5775,323.398 54.5853,323.398"/>
<polyline fill="none" stroke="#000000" stroke-width="5.0" points="49.5775,88.7465 54.5853,88.7465"/>
<polyline fill="none" stroke="#000000" stroke-width="5.0" points="54.5853,323.398 620.469,323.398"/>
<polyline fill="none" stroke="#000000" stroke-width="5.0" points="54.5853,328.412 54.5853,323.398"/>
<polyline fill="none" stroke="#000000" stroke-width="5.0" points="195.806,328.412 195.806,323.398"/>
<polyline fill="none" stroke="#000000" stroke-width="5.0" points="337.027,328.412 337.027,323.398"/>
<polyline fill="none" stroke="#000000" stroke-width="5.0" points="478.247,328.412 478.247,323.398"/>
<polyline fill="none" stroke="#000000" stroke-width="5.0" points="620.469,328.412 620.469,323.398"/>
</g>
</svg>
