<?xml version="1.0" encoding="UTF-8" standalone="no"?>
<svg xmlns="http://www.w3.org/2000/svg" xmlns:xlink="http://www.w3.org/1999/xlink" width="640px" height="360px" viewBox="0 0 640 360">
<title>VTK GL2PS Export</title>
<desc>
Creator: GL2PS 1.3.8, (C) 1999-2012 C. Geuzaine
For: VTK
CreationDate: Mon Aug 17 19:38:56 2015
</desc>
<defs>
</defs>
<g shape-rendering="crispEdges">
<text fill="#000000" x="47.5743" y="323.398" font-size="30" text-anchor="end" baseline-shift="-15" font-family="Helvetica">0</text>
<text fill="#000000" x="47.5743" y="88.7465" font-size="30" text-anchor="end" baseline-shift="-15" font-family="Helvetica">0.3</text>
<text fill="#000000" x="54.5853" y="330.418" font-size="30" text-anchor="middle" baseline-shift="-30" font-family="Helvetica">0</text>
<text fill="#000000" x="195.806" y="330.418" font-size="30" text-anchor="middle" baseline-shift="-30" font-family="Helvetica">90</text>
<text fill="#000000" x="337.027" y="330.418" font-size="30" text-anchor="middle" baseline-shift="-30" font-family="Helvetica">180</text>
<text fill="#000000" x="478.247" y="330.418" font-size="30" text-anchor="middle" baseline-shift="-30" font-family="Helvetica">270</text>
<text fill="#000000" x="620.469" y="330.418" font-size="30" text-anchor="middle" baseline-shift="-30" font-family="Helvetica">360</text>
<polyline fill="none" stroke="#000000" stroke-width="5.0" points="56.1572,300.876 59.301,298.007 62.4448,295.945 65.5886,302.366 68.7324,300.837 71.8762,306.786 75.02,309.377 78.1638,313.941 81.3076,316.081 84.4514,325.138 87.5952,327.483 90.739,324.113 93.8828,318.716 97.0266,315.841 100.17,311.674 103.314,306.981 106.458,313.008 109.602,311.814 112.746,307.261 115.889,309.522 119.033,310.431 122.177,322 125.321,327.995 128.465,326.133 131.608,326.619 134.752,327.804 137.896,323.086 141.04,308.87 144.184,293.035 147.327,289.158 150.471,286.116 153.615,281.573 156.759,288.807 159.903,297.507 163.046,296.679 166.19,284.358 169.334,274.322 172.478,256.391 175.622,240.75 178.765,228.338 181.909,228.257 185.053,229.767 188.197,234.059 191.341,240.396 194.484,253.625 197.628,269.092 200.772,287.874 203.916,298.616 207.06,300.929 210.203,307.688 213.347,306.59 216.491,300.818 219.635,292.224 222.779,275.706 225.922,250.194 229.066,216.566 232.21,188.312 235.354,157.937 238.498,142.662 241.641,131.741 244.785,128.087 247.929,129.159 251.073,133.538 254.217,152.604 257.36,185.462 260.504,212.009 263.648,236.945 266.792,253.048 269.936,268.489 273.079,280.425 276.223,292.14 279.367,302.504 282.511,310.387 285.655,312.146 288.798,314.932 291.942,313.816 295.086,321.74 298.23,320.961 301.374,319.563 304.517,318.751 307.661,318.281 310.805,315.81 313.949,319.003 317.093,327.362 320.236,334.204 323.38,337.868 326.524,336.191 329.668,334.15 332.812,324.656 335.955,298.05 339.099,277.951 342.243,258.923 345.387,243.095 348.531,228.801 351.674,223.046 354.818,220.472 357.962,217.229 361.106,212.095 364.25,212.869 367.393,225.552 370.537,234.541 373.681,246.967 376.825,263.544 379.969,280.343 383.112,293.123 386.256,295.585 389.4,291.797 392.544,290.922 395.688,285.194 398.831,283.629 401.975,285.561 405.119,288.013 408.263,284.492 411.407,285.648 414.55,305.484 417.694,319.529 420.838,335.085 423.982,327.722 427.126,323.811 430.27,317.64 433.413,320.808 436.557,324.335 439.701,331.387 442.845,329.108 445.988,328.821 449.132,330.958 452.276,330.263 455.42,329.898 458.564,330.593 461.707,331.6 464.851,332.255 467.995,330.223 471.139,329.455 474.283,325.971 477.427,318.015 480.57,312.912 483.714,310.554 486.858,310.013 490.002,306.273 493.146,307.352 496.289,315.391 499.433,321.521 502.577,328.804 505.721,334.255 508.865,339.517 512.008,327.187 515.152,324.273 518.296,318.412 521.44,320.405 524.583,327.754 527.727,327.462 530.871,333.148 534.015,329.469 537.159,323.224 540.303,327.507 543.446,320.181 546.59,319.771 549.734,329.69 552.878,331.407 556.022,335.461 559.165,333.42 562.309,335.759 565.453,324.605 568.597,319.424 571.741,324.756 574.884,325.343 578.028,327.656 581.172,327.656 584.316,327.656 587.46,327.656 590.603,327.656 593.747,327.656 596.891,327.656 600.035,327.656 603.179,327.656 606.322,327.656 609.466,331.715 612.61,313.185 615.754,325.14 618.898,319.26"/>
<polyline fill="none" stroke="#000000" stroke-width="5.0" points="54.5853,323.398 54.5853,19.5543"/>
<polyline fill="none" stroke="#000000" stroke-width="5.0" points="49.5775,323.398 54.5853,323.398"/>
<polyline fill="none" stroke="#000000" stroke-width="5.0" points="49.5775,88.7465 54.5853,88.7465"/>
<polyline fill="none" stroke="#000000" stroke-width="5.0" points="54.5853,323.398 620.469,323.398"/>
<polyline fill="none" stroke="#000000" stroke-width="5.0" points="54.5853,328.412 54.5853,323.398"/>
<polyline fill="none" stroke="#000000" stroke-width="5.0" points="195.806,328.412 195.806,323.398"/>
<polyline fill="none" stroke="#000000" stroke-width="5.0" points="337.027,328.412 337.027,323.398"/>
<polyline fill="none" stroke="#000000" stroke-width="5.0" points="478.247,328.412 478.247,323.398"/>
<polyline fill="none" stroke="#000000" stroke-width="5.0" points="620.469,328.412 620.469,323.398"/>
</g>
</svg>
