<?xml version="1.0" encoding="UTF-8" standalone="no"?>
<svg xmlns="http://www.w3.org/2000/svg" xmlns:xlink="http://www.w3.org/1999/xlink" width="640px" height="360px" viewBox="0 0 640 360">
<title>VTK GL2PS Export</title>
<desc>
Creator: GL2PS 1.3.8, (C) 1999-2012 C. Geuzaine
For: VTK
CreationDate: Mon Aug 17 19:38:57 2015
</desc>
<defs>
</defs>
<g shape-rendering="crispEdges">
<text fill="#000000" x="47.5743" y="323.398" font-size="30" text-anchor="end" baseline-shift="-15" font-family="Helvetica">0</text>
<text fill="#000000" x="47.5743" y="88.7465" font-size="30" text-anchor="end" baseline-shift="-15" font-family="Helvetica">0.3</text>
<text fill="#000000" x="54.5853" y="330.418" font-size="30" text-anchor="middle" baseline-shift="-30" font-family="Helvetica">0</text>
<text fill="#000000" x="195.806" y="330.418" font-size="30" text-anchor="middle" baseline-shift="-30" font-family="Helvetica">90</text>
<text fill="#000000" x="337.027" y="330.418" font-size="30" text-anchor="middle" baseline-shift="-30" font-family="Helvetica">180</text>
<text fill="#000000" x="478.247" y="330.418" font-size="30" text-anchor="middle" baseline-shift="-30" font-family="Helvetica">270</text>
<text fill="#000000" x="620.469" y="330.418" font-size="30" text-anchor="middle" baseline-shift="-30" font-family="Helvetica">360</text>
<polyline fill="none" stroke="#000000" stroke-width="5.0" points="56.1572,298.443 59.301,316.348 62.4448,295.552 65.5886,296.017 68.7324,298.226 71.8762,304.011 75.02,310.772 78.1638,313.615 81.3076,317.292 84.4514,320.878 87.5952,325.177 90.739,324.64 93.8828,318.886 97.0266,308.765 100.17,307.723 103.314,311.139 106.458,313.599 109.602,311.868 112.746,314.766 115.889,313.393 119.033,313.262 122.177,330.43 125.321,330.986 128.465,329.113 131.608,329.213 134.752,328.025 137.896,322.031 141.04,302.113 144.184,280.871 147.327,272.407 150.471,271.553 153.615,279.255 156.759,284.355 159.903,293.486 163.046,289.49 166.19,273.551 169.334,264.252 172.478,247.362 175.622,230.921 178.765,226.905 181.909,227.095 185.053,225.957 188.197,227.845 191.341,232.162 194.484,239.246 197.628,250.985 200.772,271.257 203.916,285.372 207.06,288.397 210.203,294.834 213.347,296.974 216.491,288.405 219.635,275.722 222.779,257.56 225.922,226.451 229.066,198.241 232.21,175.095 235.354,154.302 238.498,128.795 241.641,113.063 244.785,104.362 247.929,103.879 251.073,107.633 254.217,124.978 257.36,171.688 260.504,192.902 263.648,218.03 266.792,238.236 269.936,253.761 273.079,266.607 276.223,277.93 279.367,293.676 282.511,301.686 285.655,304.571 288.798,299.29 291.942,303.455 295.086,310.097 298.23,313.798 301.374,311.277 304.517,313.102 307.661,302.722 310.805,303.607 313.949,313.996 317.093,329.533 320.236,335.478 323.38,340.935 326.524,340.444 329.668,334.747 332.812,319.122 335.955,293.329 339.099,279.731 342.243,258.313 345.387,233.581 348.531,216.439 351.674,210.215 354.818,206.649 357.962,202 361.106,192.04 364.25,198.348 367.393,209.607 370.537,221.717 373.681,232.349 376.825,249.291 379.969,269.502 383.112,286.898 386.256,301.25 389.4,307.857 392.544,305.304 395.688,297.849 398.831,301.748 401.975,295.116 405.119,295.907 408.263,291.97 411.407,295.905 414.55,317.102 417.694,331.266 420.838,336.102 423.982,327.194 427.126,317.616 430.27,312.186 433.413,302.483 436.557,294.572 439.701,303.61 442.845,308.69 445.988,317.411 449.132,320.178 452.276,324.463 455.42,326.787 458.564,327.048 461.707,327.672 464.851,328.328 467.995,330.1 471.139,329.536 474.283,327.817 477.427,326.227 480.57,327.869 483.714,327.238 486.858,327.892 490.002,326.855 493.146,325.89 496.289,326.733 499.433,328.391 502.577,332.542 505.721,338.805 508.865,339.523 512.008,322.701 515.152,323.254 518.296,319.539 521.44,324.125 524.583,329.842 527.727,329.954 530.871,326.532 534.015,323.701 537.159,311.832 540.303,314.553 543.446,333.455 546.59,327.282 549.734,329.824 552.878,337.726 556.022,340.205 559.165,340.224 562.309,336.113 565.453,334.939 568.597,324.059 571.741,335.153 574.884,325.348 578.028,309.436 581.172,304.326 584.316,306.277 587.46,306.432 590.603,312.927 593.747,312.926 596.891,312.927 600.035,312.927 603.179,312.927 606.322,312.926 609.466,333.472 612.61,298.579 615.754,315.287 618.898,317.279"/>
<polyline fill="none" stroke="#000000" stroke-width="5.0" points="54.5853,323.398 54.5853,19.5543"/>
<polyline fill="none" stroke="#000000" stroke-width="5.0" points="49.5775,323.398 54.5853,323.398"/>
<polyline fill="none" stroke="#000000" stroke-width="5.0" points="49.5775,88.7465 54.5853,88.7465"/>
<polyline fill="none" stroke="#000000" stroke-width="5.0" points="54.5853,323.398 620.469,323.398"/>
<polyline fill="none" stroke="#000000" stroke-width="5.0" points="54.5853,328.412 54.5853,323.398"/>
<polyline fill="none" stroke="#000000" stroke-width="5.0" points="195.806,328.412 195.806,323.398"/>
<polyline fill="none" stroke="#000000" stroke-width="5.0" points="337.027,328.412 337.027,323.398"/>
<polyline fill="none" stroke="#000000" stroke-width="5.0" points="478.247,328.412 478.247,323.398"/>
<polyline fill="none" stroke="#000000" stroke-width="5.0" points="620.469,328.412 620.469,323.398"/>
</g>
</svg>
