<?xml version="1.0" encoding="UTF-8" standalone="no"?>
<svg xmlns="http://www.w3.org/2000/svg" xmlns:xlink="http://www.w3.org/1999/xlink" width="640px" height="360px" viewBox="0 0 640 360">
<title>VTK GL2PS Export</title>
<desc>
Creator: GL2PS 1.3.8, (C) 1999-2012 C. Geuzaine
For: VTK
CreationDate: Mon Aug 17 19:38:57 2015
</desc>
<defs>
</defs>
<g shape-rendering="crispEdges">
<text fill="#000000" x="47.5743" y="323.398" font-size="30" text-anchor="end" baseline-shift="-15" font-family="Helvetica">0</text>
<text fill="#000000" x="47.5743" y="88.7465" font-size="30" text-anchor="end" baseline-shift="-15" font-family="Helvetica">0.3</text>
<text fill="#000000" x="54.5853" y="330.418" font-size="30" text-anchor="middle" baseline-shift="-30" font-family="Helvetica">0</text>
<text fill="#000000" x="195.806" y="330.418" font-size="30" text-anchor="middle" baseline-shift="-30" font-family="Helvetica">90</text>
<text fill="#000000" x="337.027" y="330.418" font-size="30" text-anchor="middle" baseline-shift="-30" font-family="Helvetica">180</text>
<text fill="#000000" x="478.247" y="330.418" font-size="30" text-anchor="middle" baseline-shift="-30" font-family="Helvetica">270</text>
<text fill="#000000" x="620.469" y="330.418" font-size="30" text-anchor="middle" baseline-shift="-30" font-family="Helvetica">360</text>
<polyline fill="none" stroke="#000000" stroke-width="5.0" points="56.1572,292.124 59.301,302.514 62.4448,280.362 65.5886,295.444 68.7324,294.268 71.8762,301.873 75.02,303.867 78.1638,309.995 81.3076,308.963 84.4514,319.71 87.5952,324.352 90.739,317.148 93.8828,311.754 97.0266,306.494 100.17,305.342 103.314,303.194 106.458,303.403 109.602,306.72 112.746,302.458 115.889,300.682 119.033,298.734 122.177,318.943 125.321,328.278 128.465,328.787 131.608,326.344 134.752,326.774 137.896,317.556 141.04,307.84 144.184,283.325 147.327,265.877 150.471,265.936 153.615,269.974 156.759,279.285 159.903,290.957 163.046,289.451 166.19,270.52 169.334,257.669 172.478,234.9 175.622,217.605 178.765,213.469 181.909,219.288 185.053,216.356 188.197,221.429 191.341,226.928 194.484,236.203 197.628,246.671 200.772,261.845 203.916,286.457 207.06,296.395 210.203,306.191 213.347,303.147 216.491,295.496 219.635,281.347 222.779,257.959 225.922,219.427 229.066,187.116 232.21,159.984 235.354,132.358 238.498,108.895 241.641,92.9325 244.785,77.1048 247.929,71.5012 251.073,79.0541 254.217,100.321 257.36,154.102 260.504,174.874 263.648,199.247 266.792,217.724 269.936,236.844 273.079,248.101 276.223,263.289 279.367,286.865 282.511,300.62 285.655,302.676 288.798,298.153 291.942,305.198 295.086,306.499 298.23,314.535 301.374,309.649 304.517,311.461 307.661,311.475 310.805,309.239 313.949,315.186 317.093,327.386 320.236,335.703 323.38,336.506 326.524,341.163 329.668,337.384 332.812,322.762 335.955,302.504 339.099,280.079 342.243,257.737 345.387,229.559 348.531,214.28 351.674,202.831 354.818,195.508 357.962,190.364 361.106,184.317 364.25,179.429 367.393,184.859 370.537,192.762 373.681,208.812 376.825,229.841 379.969,251.154 383.112,281.263 386.256,306.438 389.4,315.426 392.544,318.277 395.688,311.812 398.831,311.872 401.975,303.792 405.119,299.007 408.263,292.237 411.407,299.079 414.55,320.66 417.694,333.953 420.838,326.664 423.982,312.051 427.126,297.723 430.27,304.134 433.413,311.292 436.557,320.04 439.701,316.918 442.845,322.158 445.988,327.28 449.132,328.54 452.276,326.858 455.42,328.962 458.564,332.862 461.707,334.361 464.851,335.114 467.995,334.858 471.139,334.211 474.283,332.958 477.427,331.304 480.57,327.995 483.714,329.168 486.858,326.54 490.002,329.019 493.146,326.878 496.289,324.8 499.433,327.115 502.577,331.411 505.721,336.815 508.865,346.014 512.008,330.597 515.152,327.31 518.296,331.173 521.44,331.256 524.583,318.52 527.727,321.149 530.871,327.285 534.015,328.306 537.159,320.046 540.303,316.716 543.446,318.924 546.59,337.36 549.734,337.831 552.878,337.985 556.022,341.044 559.165,339.528 562.309,335.531 565.453,320.061 568.597,321.124 571.741,324.54 574.884,320.7 578.028,316.515 581.172,328.357 584.316,324.438 587.46,314.606 590.603,312.995 593.747,304.58 596.891,304.872 600.035,309.443 603.179,309.443 606.322,309.443 609.466,333.974 612.61,308.961 615.754,319.406 618.898,302.334"/>
<polyline fill="none" stroke="#000000" stroke-width="5.0" points="54.5853,323.398 54.5853,19.5543"/>
<polyline fill="none" stroke="#000000" stroke-width="5.0" points="49.5775,323.398 54.5853,323.398"/>
<polyline fill="none" stroke="#000000" stroke-width="5.0" points="49.5775,88.7465 54.5853,88.7465"/>
<polyline fill="none" stroke="#000000" stroke-width="5.0" points="54.5853,323.398 620.469,323.398"/>
<polyline fill="none" stroke="#000000" stroke-width="5.0" points="54.5853,328.412 54.5853,323.398"/>
<polyline fill="none" stroke="#000000" stroke-width="5.0" points="195.806,328.412 195.806,323.398"/>
<polyline fill="none" stroke="#000000" stroke-width="5.0" points="337.027,328.412 337.027,323.398"/>
<polyline fill="none" stroke="#000000" stroke-width="5.0" points="478.247,328.412 478.247,323.398"/>
<polyline fill="none" stroke="#000000" stroke-width="5.0" points="620.469,328.412 620.469,323.398"/>
</g>
</svg>
