<?xml version="1.0" encoding="UTF-8" standalone="no"?>
<svg xmlns="http://www.w3.org/2000/svg" xmlns:xlink="http://www.w3.org/1999/xlink" width="640px" height="360px" viewBox="0 0 640 360">
<title>VTK GL2PS Export</title>
<desc>
Creator: GL2PS 1.3.8, (C) 1999-2012 C. Geuzaine
For: VTK
CreationDate: Mon Aug 17 19:38:57 2015
</desc>
<defs>
</defs>
<g shape-rendering="crispEdges">
<text fill="#000000" x="47.5743" y="323.398" font-size="30" text-anchor="end" baseline-shift="-15" font-family="Helvetica">0</text>
<text fill="#000000" x="47.5743" y="88.7465" font-size="30" text-anchor="end" baseline-shift="-15" font-family="Helvetica">0.3</text>
<text fill="#000000" x="54.5853" y="330.418" font-size="30" text-anchor="middle" baseline-shift="-30" font-family="Helvetica">0</text>
<text fill="#000000" x="195.806" y="330.418" font-size="30" text-anchor="middle" baseline-shift="-30" font-family="Helvetica">90</text>
<text fill="#000000" x="337.027" y="330.418" font-size="30" text-anchor="middle" baseline-shift="-30" font-family="Helvetica">180</text>
<text fill="#000000" x="478.247" y="330.418" font-size="30" text-anchor="middle" baseline-shift="-30" font-family="Helvetica">270</text>
<text fill="#000000" x="620.469" y="330.418" font-size="30" text-anchor="middle" baseline-shift="-30" font-family="Helvetica">360</text>
<polyline fill="none" stroke="#000000" stroke-width="5.0" points="56.1572,283.616 59.301,280.254 62.4448,282.501 65.5886,283.997 68.7324,281.755 71.8762,295.171 75.02,294.807 78.1638,306.727 81.3076,300.97 84.4514,317.11 87.5952,308.868 90.739,311.944 93.8828,302.729 97.0266,295.928 100.17,290.806 103.314,292.963 106.458,294.014 109.602,296.724 112.746,291.839 115.889,302.89 119.033,302.482 122.177,327.146 125.321,338.385 128.465,320.784 131.608,324.844 134.752,325.083 137.896,299.1 141.04,284.934 144.184,256.833 147.327,245.903 150.471,233.172 153.615,241.749 156.759,254.494 159.903,283.519 163.046,313.371 166.19,301.708 169.334,254.524 172.478,210.781 175.622,179.235 178.765,173.331 181.909,177.671 185.053,169.541 188.197,170.783 191.341,177.993 194.484,196.95 197.628,206.981 200.772,227.312 203.916,256.835 207.06,273.694 210.203,278.926 213.347,285.959 216.491,277.259 219.635,264.938 222.779,233.754 225.922,181.77 229.066,146.297 232.21,110.925 235.354,75.0197 238.498,51.0368 241.641,47.1765 244.785,54.5822 247.929,66.9221 251.073,79.4955 254.217,92.2849 257.36,118.977 260.504,146.945 263.648,165.424 266.792,174.082 269.936,183.505 273.079,201.256 276.223,223.397 279.367,259.041 282.511,278.934 285.655,284.803 288.798,288.23 291.942,300.851 295.086,312.686 298.23,308.837 301.374,311.192 304.517,311.849 307.661,305.398 310.805,305.305 313.949,308.629 317.093,333.588 320.236,351.579 323.38,353.449 326.524,350.218 329.668,344.645 332.812,325.102 335.955,301.372 339.099,272.805 342.243,227.466 345.387,199.886 348.531,193.305 351.674,174.249 354.818,173.236 357.962,162.223 361.106,162.627 364.25,157.914 367.393,173.279 370.537,183.418 373.681,192.612 376.825,213.319 379.969,228.648 383.112,263.143 386.256,292.417 389.4,309.769 392.544,313.59 395.688,314.216 398.831,310.05 401.975,309.168 405.119,315.045 408.263,315.495 411.407,319.695 414.55,320.511 417.694,331.235 420.838,326.989 423.982,313.742 427.126,312.029 430.27,316.84 433.413,314.866 436.557,319.581 439.701,316.403 442.845,315.443 445.988,322.941 449.132,325.485 452.276,328.005 455.42,332.589 458.564,338.075 461.707,341.997 464.851,342.729 467.995,340.553 471.139,336.509 474.283,331.775 477.427,332.089 480.57,331.549 483.714,331.61 486.858,328.925 490.002,327.397 493.146,330.204 496.289,332.689 499.433,336.422 502.577,337.302 505.721,342.001 508.865,312.738 512.008,345.855 515.152,352.776 518.296,354.266 521.44,343.116 524.583,325.727 527.727,322.653 530.871,330.259 534.015,326.106 537.159,308.742 540.303,324.064 543.446,323.787 546.59,339.221 549.734,323.833 552.878,337.742 556.022,346.707 559.165,330.042 562.309,344.757 565.453,325.752 568.597,327.214 571.741,330.062 574.884,338.249 578.028,324.571 581.172,318.481 584.316,311.442 587.46,302.558 590.603,306.062 593.747,318.784 596.891,328.566 600.035,320.009 603.179,314.058 606.322,312.728 609.466,343.684 612.61,341.829 615.754,333.222 618.898,281.718"/>
<polyline fill="none" stroke="#000000" stroke-width="5.0" points="54.5853,323.398 54.5853,19.5543"/>
<polyline fill="none" stroke="#000000" stroke-width="5.0" points="49.5775,323.398 54.5853,323.398"/>
<polyline fill="none" stroke="#000000" stroke-width="5.0" points="49.5775,88.7465 54.5853,88.7465"/>
<polyline fill="none" stroke="#000000" stroke-width="5.0" points="54.5853,323.398 620.469,323.398"/>
<polyline fill="none" stroke="#000000" stroke-width="5.0" points="54.5853,328.412 54.5853,323.398"/>
<polyline fill="none" stroke="#000000" stroke-width="5.0" points="195.806,328.412 195.806,323.398"/>
<polyline fill="none" stroke="#000000" stroke-width="5.0" points="337.027,328.412 337.027,323.398"/>
<polyline fill="none" stroke="#000000" stroke-width="5.0" points="478.247,328.412 478.247,323.398"/>
<polyline fill="none" stroke="#000000" stroke-width="5.0" points="620.469,328.412 620.469,323.398"/>
</g>
</svg>
