<?xml version="1.0" encoding="UTF-8" standalone="no"?>
<svg xmlns="http://www.w3.org/2000/svg" xmlns:xlink="http://www.w3.org/1999/xlink" width="640px" height="360px" viewBox="0 0 640 360">
<title>VTK GL2PS Export</title>
<desc>
Creator: GL2PS 1.3.8, (C) 1999-2012 C. Geuzaine
For: VTK
CreationDate: Mon Aug 17 19:27:44 2015
</desc>
<defs>
</defs>
<g shape-rendering="crispEdges">
<text fill="#000000" x="48.5759" y="323.398" font-size="30" text-anchor="end" baseline-shift="-15" font-family="Helvetica">0</text>
<text fill="#000000" x="48.5759" y="21.5599" font-size="30" text-anchor="end" baseline-shift="-15" font-family="Helvetica">0.9</text>
<text fill="#000000" x="55.5869" y="330.418" font-size="30" text-anchor="middle" baseline-shift="-30" font-family="Helvetica">0</text>
<text fill="#000000" x="196.807" y="330.418" font-size="30" text-anchor="middle" baseline-shift="-30" font-family="Helvetica">90</text>
<text fill="#000000" x="338.028" y="330.418" font-size="30" text-anchor="middle" baseline-shift="-30" font-family="Helvetica">180</text>
<text fill="#000000" x="479.249" y="330.418" font-size="30" text-anchor="middle" baseline-shift="-30" font-family="Helvetica">270</text>
<text fill="#000000" x="620.469" y="330.418" font-size="30" text-anchor="middle" baseline-shift="-30" font-family="Helvetica">360</text>
<polyline fill="none" stroke="#000000" stroke-width="5.0" points="57.156,318.235 60.2942,314.56 63.4324,311.245 66.5707,306.402 69.7089,301.331 72.8472,293.236 75.9854,283.462 79.1236,273.003 82.2619,263.24 85.4001,249.92 88.5383,236.866 91.6766,225.24 94.8148,212.292 97.953,199.596 101.091,187 104.23,174.4 107.368,164.399 110.506,155.571 113.644,147.558 116.782,139.533 119.921,135.175 123.059,133.313 126.197,131.936 129.335,132.21 132.474,132.463 135.612,135.869 138.75,142.947 141.888,149.705 145.027,160.248 148.165,171.528 151.303,186.059 154.441,201.178 157.58,216.081 160.718,230.439 163.856,242.601 166.994,263.905 170.133,275.831 173.271,285.603 176.409,290.406 179.547,297.604 182.685,305.524 185.824,311.196 188.962,315.167 192.1,317.599 195.238,317.474 198.377,317.475 201.515,319.099 204.653,321.603 207.791,321.926 210.93,321.428 214.068,322.307 217.206,322.162 220.344,323.072 223.483,323.563 226.621,323.406 229.759,320.586 232.897,320.185 236.035,315.838 239.174,317.093 242.312,322.13 245.45,322.878 248.588,322.415 251.727,323.378 254.865,323.183 258.003,322.847 261.141,322.313 264.28,323.809 267.418,322.584 270.556,322.293 273.694,322.522 276.833,323.141 279.971,322.504 283.109,319.92 286.247,323.72 289.385,323.25 292.524,323.406 295.662,323.279 298.8,322.203 301.938,323.102 305.077,323.082 308.215,320.749 311.353,314.815 314.491,299.075 317.63,260.203 320.768,201.816 323.906,146.305 327.044,106.216 330.183,82.5639 333.321,69.8004 336.459,63.9271 339.597,63.9918 342.736,68.2347 345.874,79.9316 349.012,102.893 352.15,142.958 355.288,199.502 358.427,263.072 361.565,302.071 364.703,317.688 367.841,321.565 370.98,322.334 374.118,322.725 377.256,322.69 380.394,322.803 383.533,322.546 386.671,323.022 389.809,322.673 392.947,322.462 396.086,323.345 399.224,321.849 402.362,320.307 405.5,318.371 408.639,314.256 411.777,306.744 414.915,292.895 418.053,267.554 421.191,237.09 424.33,198.355 427.468,156.903 430.606,124.2 433.744,98.9291 436.883,79.8051 440.021,66.2932 443.159,57.5866 446.297,50.9468 449.436,47.1765 452.574,53.3342 455.712,62.3954 458.85,75.0008 461.989,94.8096 465.127,124.44 468.265,163.118 471.403,201.74 474.541,236.692 477.68,262.189 480.818,286.441 483.956,297.378 487.094,298.117 490.233,300.981 493.371,302.943 496.509,300.233 499.647,293.995 502.786,298.491 505.924,288.461 509.062,277.056 512.2,264.43 515.339,260.949 518.477,264.399 521.615,267.405 524.753,272.291 527.892,297.038 531.03,309.534 534.168,315.434 537.306,320.835 540.444,322.524 543.583,323.222 546.721,323.483 549.859,323.645 552.997,323.51 556.136,323.178 559.274,323.598 562.412,321.098 565.55,322.801 568.689,322.857 571.827,323.845 574.965,323.692 578.103,323.634 581.242,323.363 584.38,301.033 587.518,301.033 590.656,301.033 593.794,301.033 596.933,301.033 600.071,301.033 603.209,301.033 606.347,301.033 609.486,301.033 612.624,301.033 615.762,301.033 618.9,320.349"/>
<polyline fill="none" stroke="#000000" stroke-width="5.0" points="55.5869,323.398 55.5869,19.5543"/>
<polyline fill="none" stroke="#000000" stroke-width="5.0" points="50.579,323.398 55.5869,323.398"/>
<polyline fill="none" stroke="#000000" stroke-width="5.0" points="50.579,21.5599 55.5869,21.5599"/>
<polyline fill="none" stroke="#000000" stroke-width="5.0" points="55.5869,323.398 620.469,323.398"/>
<polyline fill="none" stroke="#000000" stroke-width="5.0" points="55.5869,328.412 55.5869,323.398"/>
<polyline fill="none" stroke="#000000" stroke-width="5.0" points="196.807,328.412 196.807,323.398"/>
<polyline fill="none" stroke="#000000" stroke-width="5.0" points="338.028,328.412 338.028,323.398"/>
<polyline fill="none" stroke="#000000" stroke-width="5.0" points="479.249,328.412 479.249,323.398"/>
<polyline fill="none" stroke="#000000" stroke-width="5.0" points="620.469,328.412 620.469,323.398"/>
</g>
</svg>
