<?xml version="1.0" encoding="UTF-8" standalone="no"?>
<svg xmlns="http://www.w3.org/2000/svg" xmlns:xlink="http://www.w3.org/1999/xlink" width="640px" height="360px" viewBox="0 0 640 360">
<title>VTK GL2PS Export</title>
<desc>
Creator: GL2PS 1.3.8, (C) 1999-2012 C. Geuzaine
For: VTK
CreationDate: Mon Aug 17 19:40:48 2015
</desc>
<defs>
</defs>
<g shape-rendering="crispEdges">
<text fill="#000000" x="47.5743" y="323.398" font-size="30" text-anchor="end" baseline-shift="-15" font-family="Helvetica">0</text>
<text fill="#000000" x="47.5743" y="30.585" font-size="30" text-anchor="end" baseline-shift="-15" font-family="Helvetica">0.3</text>
<text fill="#000000" x="54.5853" y="330.418" font-size="30" text-anchor="middle" baseline-shift="-30" font-family="Helvetica">0</text>
<text fill="#000000" x="195.806" y="330.418" font-size="30" text-anchor="middle" baseline-shift="-30" font-family="Helvetica">90</text>
<text fill="#000000" x="337.027" y="330.418" font-size="30" text-anchor="middle" baseline-shift="-30" font-family="Helvetica">180</text>
<text fill="#000000" x="478.247" y="330.418" font-size="30" text-anchor="middle" baseline-shift="-30" font-family="Helvetica">270</text>
<text fill="#000000" x="620.469" y="330.418" font-size="30" text-anchor="middle" baseline-shift="-30" font-family="Helvetica">360</text>
<polyline fill="none" stroke="#000000" stroke-width="5.0" points="56.1572,311.74 59.301,320.597 62.4448,323.315 65.5886,328.733 68.7324,326.518 71.8762,325.432 75.02,323.768 78.1638,324.173 81.3076,320.507 84.4514,320.905 87.5952,320.046 90.739,316.201 93.8828,309.933 97.0266,301.809 100.17,306.691 103.314,313.488 106.458,318.282 109.602,319.102 112.746,321.265 115.889,315.921 119.033,311.002 122.177,321.782 125.321,320.407 128.465,322.26 131.608,323.098 134.752,319.247 137.896,311.151 141.04,296.247 144.184,293.009 147.327,304.247 150.471,317.996 153.615,322.156 156.759,318.816 159.903,319.266 163.046,316.123 166.19,304.653 169.334,309.459 172.478,306.296 175.622,300.565 178.765,304.405 181.909,305.197 185.053,304.29 188.197,286.858 191.341,264.011 194.484,249.039 197.628,245.401 200.772,258.85 203.916,272.064 207.06,280.827 210.203,299.917 213.347,310.922 216.491,314.802 219.635,316.633 222.779,317.584 225.922,317.698 229.066,319.535 232.21,321.002 235.354,307.642 238.498,284.712 241.641,281.164 244.785,286.041 247.929,295.573 251.073,294.279 254.217,291.134 257.36,297.914 260.504,296.446 263.648,297.144 266.792,295.44 269.936,289.367 273.079,287.006 276.223,287.071 279.367,293.821 282.511,291.305 285.655,291.076 288.798,287.941 291.942,299.242 295.086,304.635 298.23,310.532 301.374,307.185 304.517,314.015 307.661,299.647 310.805,296.499 313.949,306.025 317.093,324.083 320.236,331.306 323.38,336.349 326.524,335.949 329.668,325.836 332.812,308.12 335.955,283.818 339.099,283.753 342.243,274.714 345.387,263.815 348.531,259.18 351.674,260.112 354.818,267.606 357.962,262.814 361.106,251.631 364.25,255.402 367.393,249.549 370.537,261.98 373.681,264.325 376.825,268.648 379.969,280.697 383.112,295.781 386.256,311.549 389.4,319.268 392.544,319.451 395.688,311.441 398.831,315.647 401.975,309.52 405.119,311.111 408.263,309.899 411.407,314.089 414.55,323.51 417.694,326.331 420.838,327.748 423.982,321.088 427.126,316.493 430.27,311.152 433.413,304.235 436.557,301.315 439.701,307.244 442.845,312.087 445.988,320.558 449.132,322.633 452.276,324.264 455.42,326.706 458.564,327.976 461.707,328.492 464.851,329.126 467.995,329.122 471.139,329.987 474.283,326.62 477.427,327.466 480.57,328.843 483.714,326.834 486.858,328.632 490.002,328.941 493.146,331.306 496.289,330.892 499.433,329.163 502.577,331.796 505.721,333.896 508.865,335.79 512.008,313.434 515.152,312.726 518.296,309.905 521.44,319.196 524.583,332.491 527.727,337.513 530.871,332.118 534.015,330.578 537.159,318.796 540.303,321.745 543.446,329.069 546.59,320.751 549.734,320.369 552.878,330.841 556.022,334.775 559.165,331.792 562.309,328.453 565.453,325.429 568.597,312.227 571.741,327.188 574.884,317.984 578.028,299.548 581.172,292.092 584.316,296.291 587.46,296.306 590.603,303.773 593.747,303.773 596.891,303.773 600.035,303.772 603.179,303.773 606.322,303.773 609.466,327.933 612.61,286.67 615.754,318.443 618.898,325.096"/>
<polyline fill="none" stroke="#000000" stroke-width="5.0" points="54.5853,323.398 54.5853,19.5543"/>
<polyline fill="none" stroke="#000000" stroke-width="5.0" points="49.5775,323.398 54.5853,323.398"/>
<polyline fill="none" stroke="#000000" stroke-width="5.0" points="49.5775,30.585 54.5853,30.585"/>
<polyline fill="none" stroke="#000000" stroke-width="5.0" points="54.5853,323.398 620.469,323.398"/>
<polyline fill="none" stroke="#000000" stroke-width="5.0" points="54.5853,328.412 54.5853,323.398"/>
<polyline fill="none" stroke="#000000" stroke-width="5.0" points="195.806,328.412 195.806,323.398"/>
<polyline fill="none" stroke="#000000" stroke-width="5.0" points="337.027,328.412 337.027,323.398"/>
<polyline fill="none" stroke="#000000" stroke-width="5.0" points="478.247,328.412 478.247,323.398"/>
<polyline fill="none" stroke="#000000" stroke-width="5.0" points="620.469,328.412 620.469,323.398"/>
</g>
</svg>
