<?xml version="1.0" encoding="UTF-8" standalone="no"?>
<svg xmlns="http://www.w3.org/2000/svg" xmlns:xlink="http://www.w3.org/1999/xlink" width="640px" height="360px" viewBox="0 0 640 360">
<title>VTK GL2PS Export</title>
<desc>
Creator: GL2PS 1.3.8, (C) 1999-2012 C. Geuzaine
For: VTK
CreationDate: Mon Aug 17 19:40:48 2015
</desc>
<defs>
</defs>
<g shape-rendering="crispEdges">
<text fill="#000000" x="47.5743" y="323.398" font-size="30" text-anchor="end" baseline-shift="-15" font-family="Helvetica">0</text>
<text fill="#000000" x="47.5743" y="30.585" font-size="30" text-anchor="end" baseline-shift="-15" font-family="Helvetica">0.3</text>
<text fill="#000000" x="54.5853" y="330.418" font-size="30" text-anchor="middle" baseline-shift="-30" font-family="Helvetica">0</text>
<text fill="#000000" x="195.806" y="330.418" font-size="30" text-anchor="middle" baseline-shift="-30" font-family="Helvetica">90</text>
<text fill="#000000" x="337.027" y="330.418" font-size="30" text-anchor="middle" baseline-shift="-30" font-family="Helvetica">180</text>
<text fill="#000000" x="478.247" y="330.418" font-size="30" text-anchor="middle" baseline-shift="-30" font-family="Helvetica">270</text>
<text fill="#000000" x="620.469" y="330.418" font-size="30" text-anchor="middle" baseline-shift="-30" font-family="Helvetica">360</text>
<polyline fill="none" stroke="#000000" stroke-width="5.0" points="56.1572,319.629 59.301,335.383 62.4448,300.784 65.5886,286.646 68.7324,286.215 71.8762,292.768 75.02,300.197 78.1638,308.159 81.3076,311.107 84.4514,320.169 87.5952,326.804 90.739,330.522 93.8828,332.363 97.0266,330.297 100.17,324.686 103.314,319.26 106.458,315.879 109.602,315.248 112.746,316.506 115.889,323.288 119.033,328.399 122.177,334.265 125.321,334.086 128.465,333.203 131.608,332.416 134.752,332.431 137.896,333.91 141.04,334.694 144.184,317.204 147.327,262.234 150.471,268.224 153.615,280.109 156.759,286.883 159.903,291.549 163.046,284.26 166.19,271.874 169.334,259.567 172.478,237.865 175.622,217.801 178.765,207.935 181.909,204.856 185.053,204.049 188.197,214.055 191.341,239.399 194.484,276.997 197.628,322.013 200.772,327.557 203.916,320.204 207.06,307.889 210.203,299.332 213.347,292.975 216.491,280.876 219.635,266.47 222.779,249.786 225.922,221.5 229.066,195.087 232.21,152.321 235.354,108.541 238.498,77.0822 241.641,58.1439 244.785,48.2011 247.929,47.1765 251.073,49.3892 254.217,72.7753 257.36,134.554 260.504,167.954 263.648,202.599 266.792,229.615 269.936,256.27 273.079,280.442 276.223,300.626 279.367,318.092 282.511,331.026 285.655,332.981 288.798,324.56 291.942,316.335 295.086,307.649 298.23,306.418 301.374,310.013 304.517,313.387 307.661,318.952 310.805,325.081 313.949,330.531 317.093,331.947 320.236,333.051 323.38,333.905 326.524,335.168 329.668,335.543 332.812,335.389 335.955,330.356 339.099,314.741 342.243,292.807 345.387,251.738 348.531,215.1 351.674,190.004 354.818,178.75 357.962,171.141 361.106,165.803 364.25,174.156 367.393,192.734 370.537,211.134 373.681,233.679 376.825,259.331 379.969,282.883 383.112,291.548 386.256,299.52 389.4,299.675 392.544,296.958 395.688,293.179 398.831,293.999 401.975,289.517 405.119,289.55 408.263,288.084 411.407,297.106 414.55,313.572 417.694,331.485 420.838,335.978 423.982,334.019 427.126,327.691 430.27,310.732 433.413,295.859 436.557,290.118 439.701,298.273 442.845,305.748 445.988,315.931 449.132,319.281 452.276,322.129 455.42,323.716 458.564,324.497 461.707,324.802 464.851,324.365 467.995,323.628 471.139,323.798 474.283,323.546 477.427,323.283 480.57,324.977 483.714,326.172 486.858,325.494 490.002,322.64 493.146,319.84 496.289,320.689 499.433,321.724 502.577,325.512 505.721,331.742 508.865,331.821 512.008,316.481 515.152,312.781 518.296,319.796 521.44,321.097 524.583,324.738 527.727,329.168 530.871,322.954 534.015,317.814 537.159,303.967 540.303,303.467 543.446,327.097 546.59,338.461 549.734,340.096 552.878,340.177 556.022,337.81 559.165,335.208 562.309,334.246 565.453,333.674 568.597,334.961 571.741,334.604 574.884,332.431 578.028,326.632 581.172,317.873 584.316,316.734 587.46,315.715 590.603,318.406 593.747,318.406 596.891,318.406 600.035,318.406 603.179,318.406 606.322,318.406 609.466,336.646 612.61,315.104 615.754,327.512 618.898,325.072"/>
<polyline fill="none" stroke="#000000" stroke-width="5.0" points="54.5853,323.398 54.5853,19.5543"/>
<polyline fill="none" stroke="#000000" stroke-width="5.0" points="49.5775,323.398 54.5853,323.398"/>
<polyline fill="none" stroke="#000000" stroke-width="5.0" points="49.5775,30.585 54.5853,30.585"/>
<polyline fill="none" stroke="#000000" stroke-width="5.0" points="54.5853,323.398 620.469,323.398"/>
<polyline fill="none" stroke="#000000" stroke-width="5.0" points="54.5853,328.412 54.5853,323.398"/>
<polyline fill="none" stroke="#000000" stroke-width="5.0" points="195.806,328.412 195.806,323.398"/>
<polyline fill="none" stroke="#000000" stroke-width="5.0" points="337.027,328.412 337.027,323.398"/>
<polyline fill="none" stroke="#000000" stroke-width="5.0" points="478.247,328.412 478.247,323.398"/>
<polyline fill="none" stroke="#000000" stroke-width="5.0" points="620.469,328.412 620.469,323.398"/>
</g>
</svg>
