<?xml version="1.0" encoding="UTF-8" standalone="no"?>
<svg xmlns="http://www.w3.org/2000/svg" xmlns:xlink="http://www.w3.org/1999/xlink" width="640px" height="360px" viewBox="0 0 640 360">
<title>VTK GL2PS Export</title>
<desc>
Creator: GL2PS 1.3.8, (C) 1999-2012 C. Geuzaine
For: VTK
CreationDate: Mon Aug 17 19:40:49 2015
</desc>
<defs>
</defs>
<g shape-rendering="crispEdges">
<text fill="#000000" x="47.5743" y="323.398" font-size="30" text-anchor="end" baseline-shift="-15" font-family="Helvetica">0</text>
<text fill="#000000" x="47.5743" y="30.585" font-size="30" text-anchor="end" baseline-shift="-15" font-family="Helvetica">0.3</text>
<text fill="#000000" x="54.5853" y="330.418" font-size="30" text-anchor="middle" baseline-shift="-30" font-family="Helvetica">0</text>
<text fill="#000000" x="195.806" y="330.418" font-size="30" text-anchor="middle" baseline-shift="-30" font-family="Helvetica">90</text>
<text fill="#000000" x="337.027" y="330.418" font-size="30" text-anchor="middle" baseline-shift="-30" font-family="Helvetica">180</text>
<text fill="#000000" x="478.247" y="330.418" font-size="30" text-anchor="middle" baseline-shift="-30" font-family="Helvetica">270</text>
<text fill="#000000" x="620.469" y="330.418" font-size="30" text-anchor="middle" baseline-shift="-30" font-family="Helvetica">360</text>
<polyline fill="none" stroke="#000000" stroke-width="5.0" points="56.1572,281.537 59.1025,360"/>
<polyline fill="none" stroke="#000000" stroke-width="5.0" points="59.4995,360 62.4448,281.587 65.5886,286.361 68.7324,291.539 71.8762,299.009 75.02,306.829 78.1638,315.562 81.3076,318.004 84.4514,326.48 87.5952,332.182 90.739,335.469 93.8828,335.305 97.0266,332.025 100.17,320.641 103.314,313.826 106.458,310.138 109.602,308.508 112.746,316.096 115.889,321.182 119.033,332.466 122.177,336.213 125.321,335.427 128.465,334.048 131.608,333.776 134.752,329.967 137.896,330.82 141.04,301.259 144.184,272.41 147.327,262.032 150.471,257.755 153.615,267.616 156.759,276.778 159.903,288.901 163.046,285.769 166.19,263.393 169.334,248.594 172.478,238.182 175.622,219.84 178.765,203.965 181.909,201.875 185.053,205.564 188.197,213.271 191.341,230.011 194.484,239.237 197.628,246.409 200.772,263.781 203.916,282.839 207.06,288.764 210.203,297.049 213.347,294.466 216.491,281.787 219.635,266.969 222.779,251.532 225.922,224.066 229.066,190.393 232.21,141.024 235.354,114.2 238.498,79.0986 241.641,58.6946 244.785,48.831 247.929,48.5129 251.073,51.5381 254.217,73.7498 257.36,133.957 260.504,170.309 263.648,201.598 266.792,226.314 269.936,236.797 273.079,253.604 276.223,267.767 279.367,294.293 282.511,311.022 285.655,329.611 288.798,313.23 291.942,318.713 295.086,309.14 298.23,313.682 301.374,317.581 304.517,314.201 307.661,310.982 310.805,311.48 313.949,320.851 317.093,331.547 320.236,334.647 323.38,338.257 326.524,339.865 329.668,334.245 332.812,320.182 335.955,282.344 339.099,272.755 342.243,236.731 345.387,206.44 348.531,187.136 351.674,179.819 354.818,177.098 357.962,174.088 361.106,168.916 364.25,175.779 367.393,184.504 370.537,201.917 373.681,217.749 376.825,238.195 379.969,263.418 383.112,281.306 386.256,297.203 389.4,301.721 392.544,299.14 395.688,294.623 398.831,294.344 401.975,289.584 405.119,290.006 408.263,288.743 411.407,295.795 414.55,315.518 417.694,333.954 420.838,341.497 423.982,332.744 427.126,314.791 430.27,303.562 433.413,294.565 436.557,284.158 439.701,297.166 442.845,302.961 445.988,312.921 449.132,316.715 452.276,323.974 455.42,326.423 458.564,327.413 461.707,327.429 464.851,329.212 467.995,326.035 471.139,326.182 474.283,324.874 477.427,323.417 480.57,325.412 483.714,325.54 486.858,328.057 490.002,327.04 493.146,323.4 496.289,325.836 499.433,328.172 502.577,332.063 505.721,336.164 508.865,341.111 512.008,324.346 515.152,322.846 518.296,329.748 521.44,331.281 524.583,330.164 527.727,330.052 530.871,327.871 534.015,322.237 537.159,307.546 540.303,308.855 543.446,333.284 546.59,329.705 549.734,325.862 552.878,340.02 556.022,340.594 559.165,338.819 562.309,335.779 565.453,335.927 568.597,333.216 571.741,336.547 574.884,324.509 578.028,303.878 581.172,298.614 584.316,301.7 587.46,302.323 590.603,309.882 593.747,309.882 596.891,309.881 600.035,309.882 603.179,309.882 606.322,309.881 609.466,344.188 612.61,319.052 615.754,320.981 618.898,308.94"/>
<polyline fill="none" stroke="#000000" stroke-width="5.0" points="54.5853,323.398 54.5853,19.5543"/>
<polyline fill="none" stroke="#000000" stroke-width="5.0" points="49.5775,323.398 54.5853,323.398"/>
<polyline fill="none" stroke="#000000" stroke-width="5.0" points="49.5775,30.585 54.5853,30.585"/>
<polyline fill="none" stroke="#000000" stroke-width="5.0" points="54.5853,323.398 620.469,323.398"/>
<polyline fill="none" stroke="#000000" stroke-width="5.0" points="54.5853,328.412 54.5853,323.398"/>
<polyline fill="none" stroke="#000000" stroke-width="5.0" points="195.806,328.412 195.806,323.398"/>
<polyline fill="none" stroke="#000000" stroke-width="5.0" points="337.027,328.412 337.027,323.398"/>
<polyline fill="none" stroke="#000000" stroke-width="5.0" points="478.247,328.412 478.247,323.398"/>
<polyline fill="none" stroke="#000000" stroke-width="5.0" points="620.469,328.412 620.469,323.398"/>
</g>
</svg>
