<?xml version="1.0" encoding="UTF-8" standalone="no"?>
<svg xmlns="http://www.w3.org/2000/svg" xmlns:xlink="http://www.w3.org/1999/xlink" width="640px" height="360px" viewBox="0 0 640 360">
<title>VTK GL2PS Export</title>
<desc>
Creator: GL2PS 1.3.8, (C) 1999-2012 C. Geuzaine
For: VTK
CreationDate: Mon Aug 17 19:40:49 2015
</desc>
<defs>
</defs>
<g shape-rendering="crispEdges">
<text fill="#000000" x="47.5743" y="323.398" font-size="30" text-anchor="end" baseline-shift="-15" font-family="Helvetica">0</text>
<text fill="#000000" x="47.5743" y="30.585" font-size="30" text-anchor="end" baseline-shift="-15" font-family="Helvetica">0.3</text>
<text fill="#000000" x="54.5853" y="330.418" font-size="30" text-anchor="middle" baseline-shift="-30" font-family="Helvetica">0</text>
<text fill="#000000" x="195.806" y="330.418" font-size="30" text-anchor="middle" baseline-shift="-30" font-family="Helvetica">90</text>
<text fill="#000000" x="337.027" y="330.418" font-size="30" text-anchor="middle" baseline-shift="-30" font-family="Helvetica">180</text>
<text fill="#000000" x="478.247" y="330.418" font-size="30" text-anchor="middle" baseline-shift="-30" font-family="Helvetica">270</text>
<text fill="#000000" x="620.469" y="330.418" font-size="30" text-anchor="middle" baseline-shift="-30" font-family="Helvetica">360</text>
<polyline fill="none" stroke="#000000" stroke-width="5.0" points="56.1572,288.211 59.301,317.337 62.4448,285.055 65.5886,288.597 68.7324,290.5 71.8762,299.057 75.02,307.286 78.1638,315.496 81.3076,319.42 84.4514,329.64 87.5952,336.565 90.739,336.341 93.8828,330.89 97.0266,319.054 100.17,312.163 103.314,307.033 106.458,309.901 109.602,309.768 112.746,316.28 115.889,322.298 119.033,315.249 122.177,336.041 125.321,334.489 128.465,334.124 131.608,332.196 134.752,329.482 137.896,325.804 141.04,298.965 144.184,269.777 147.327,259.398 150.471,258.921 153.615,268.512 156.759,275.776 159.903,285.938 163.046,286.367 166.19,261.151 169.334,250.085 172.478,227.949 175.622,207.463 178.765,202.476 181.909,203.312 185.053,201.135 188.197,211.198 191.341,220.083 194.484,227.029 197.628,231.513 200.772,260.364 203.916,277.04 207.06,281.391 210.203,288.932 213.347,290.182 216.491,280.572 219.635,263.741 222.779,240.873 225.922,201.747 229.066,166.235 232.21,138.123 235.354,115.621 238.498,79.9771 241.641,59.8748 244.785,49.2478 247.929,49.7702 251.073,53.9083 254.217,75.1136 257.36,134.505 260.504,159.316 263.648,201.692 266.792,216.167 269.936,235.452 273.079,251.908 276.223,266.475 279.367,292.2 282.511,297.068 285.655,299.102 288.798,315.734 291.942,317.505 295.086,311.701 298.23,315.298 301.374,305.599 304.517,314.792 307.661,305.259 310.805,312.446 313.949,323.954 317.093,334.49 320.236,339.339 323.38,342.643 326.524,343.784 329.668,339.167 332.812,324.014 335.955,287.483 339.099,271.551 342.243,241.447 345.387,210.662 348.531,188.831 351.674,180.694 354.818,177.525 357.962,171.23 361.106,162.414 364.25,167.785 367.393,180.201 370.537,196.435 373.681,211.865 376.825,237.3 379.969,264.913 383.112,280.522 386.256,298.436 389.4,303.064 392.544,300.139 395.688,296.477 398.831,295.076 401.975,289.539 405.119,288.48 408.263,288.468 411.407,294.208 414.55,316.241 417.694,332 420.838,339.178 423.982,327.67 427.126,317.421 430.27,307.219 433.413,296.947 436.557,286.644 439.701,296.82 442.845,302.816 445.988,314.074 449.132,318.171 452.276,324.982 455.42,327.671 458.564,328.955 461.707,327.945 464.851,327.991 467.995,329.502 471.139,328.559 474.283,326.775 477.427,325.971 480.57,327.754 483.714,327.481 486.858,329.546 490.002,328.399 493.146,325.182 496.289,326.883 499.433,329.338 502.577,334.542 505.721,342.129 508.865,340.685 512.008,326.465 515.152,320.426 518.296,316.649 521.44,331.694 524.583,333.482 527.727,331.481 530.871,325.715 534.015,322.649 537.159,310.623 540.303,310.657 543.446,334.18 546.59,331.976 549.734,329.899 552.878,340.339 556.022,343.677 559.165,341.449 562.309,340.307 565.453,339.547 568.597,323.439 571.741,338.433 574.884,324.617 578.028,304.237 581.172,298.335 584.316,300.493 587.46,300.947 590.603,309.069 593.747,309.068 596.891,309.069 600.035,309.069 603.179,309.069 606.322,309.068 609.466,334.231 612.61,320.477 615.754,325.201 618.898,312.549"/>
<polyline fill="none" stroke="#000000" stroke-width="5.0" points="54.5853,323.398 54.5853,19.5543"/>
<polyline fill="none" stroke="#000000" stroke-width="5.0" points="49.5775,323.398 54.5853,323.398"/>
<polyline fill="none" stroke="#000000" stroke-width="5.0" points="49.5775,30.585 54.5853,30.585"/>
<polyline fill="none" stroke="#000000" stroke-width="5.0" points="54.5853,323.398 620.469,323.398"/>
<polyline fill="none" stroke="#000000" stroke-width="5.0" points="54.5853,328.412 54.5853,323.398"/>
<polyline fill="none" stroke="#000000" stroke-width="5.0" points="195.806,328.412 195.806,323.398"/>
<polyline fill="none" stroke="#000000" stroke-width="5.0" points="337.027,328.412 337.027,323.398"/>
<polyline fill="none" stroke="#000000" stroke-width="5.0" points="478.247,328.412 478.247,323.398"/>
<polyline fill="none" stroke="#000000" stroke-width="5.0" points="620.469,328.412 620.469,323.398"/>
</g>
</svg>
