<?xml version="1.0" encoding="UTF-8" standalone="no"?>
<svg xmlns="http://www.w3.org/2000/svg" xmlns:xlink="http://www.w3.org/1999/xlink" width="640px" height="360px" viewBox="0 0 640 360">
<title>VTK GL2PS Export</title>
<desc>
Creator: GL2PS 1.3.8, (C) 1999-2012 C. Geuzaine
For: VTK
CreationDate: Mon Aug 17 19:40:49 2015
</desc>
<defs>
</defs>
<g shape-rendering="crispEdges">
<text fill="#000000" x="47.5743" y="323.398" font-size="30" text-anchor="end" baseline-shift="-15" font-family="Helvetica">0</text>
<text fill="#000000" x="47.5743" y="30.585" font-size="30" text-anchor="end" baseline-shift="-15" font-family="Helvetica">0.3</text>
<text fill="#000000" x="54.5853" y="330.418" font-size="30" text-anchor="middle" baseline-shift="-30" font-family="Helvetica">0</text>
<text fill="#000000" x="195.806" y="330.418" font-size="30" text-anchor="middle" baseline-shift="-30" font-family="Helvetica">90</text>
<text fill="#000000" x="337.027" y="330.418" font-size="30" text-anchor="middle" baseline-shift="-30" font-family="Helvetica">180</text>
<text fill="#000000" x="478.247" y="330.418" font-size="30" text-anchor="middle" baseline-shift="-30" font-family="Helvetica">270</text>
<text fill="#000000" x="620.469" y="330.418" font-size="30" text-anchor="middle" baseline-shift="-30" font-family="Helvetica">360</text>
<polyline fill="none" stroke="#000000" stroke-width="5.0" points="56.1572,292.243 59.301,314.596 62.4448,288.632 65.5886,289.213 68.7324,291.972 71.8762,299.193 75.02,307.635 78.1638,311.184 81.3076,315.775 84.4514,320.252 87.5952,325.619 90.739,324.949 93.8828,317.765 97.0266,305.129 100.17,303.828 103.314,308.092 106.458,311.164 109.602,309.003 112.746,312.621 115.889,310.907 119.033,310.744 122.177,332.178 125.321,332.871 128.465,330.533 131.608,330.657 134.752,329.175 137.896,321.691 141.04,296.824 144.184,270.303 147.327,259.736 150.471,258.67 153.615,268.287 156.759,274.653 159.903,286.053 163.046,281.064 166.19,261.164 169.334,249.554 172.478,228.467 175.622,207.941 178.765,202.928 181.909,203.165 185.053,201.744 188.197,204.101 191.341,209.49 194.484,218.335 197.628,232.991 200.772,258.3 203.916,275.924 207.06,279.7 210.203,287.736 213.347,290.408 216.491,279.71 219.635,263.876 222.779,241.2 225.922,202.361 229.066,167.141 232.21,138.243 235.354,112.283 238.498,80.4379 241.641,60.7964 244.785,49.9341 247.929,49.3307 251.073,54.0181 254.217,75.6723 257.36,133.99 260.504,160.476 263.648,191.847 266.792,217.075 269.936,236.457 273.079,252.495 276.223,266.632 279.367,286.29 282.511,296.291 285.655,299.893 288.798,293.299 291.942,298.498 295.086,306.791 298.23,311.413 301.374,308.265 304.517,310.544 307.661,297.584 310.805,298.689 313.949,311.659 317.093,331.057 320.236,338.479 323.38,345.292 326.524,344.68 329.668,337.566 332.812,318.059 335.955,285.857 339.099,268.881 342.243,242.14 345.387,211.262 348.531,189.861 351.674,182.091 354.818,177.637 357.962,171.834 361.106,159.398 364.25,167.274 367.393,181.331 370.537,196.449 373.681,209.725 376.825,230.876 379.969,256.109 383.112,277.827 386.256,295.747 389.4,303.995 392.544,300.807 395.688,291.5 398.831,296.368 401.975,288.088 405.119,289.076 408.263,284.16 411.407,289.074 414.55,315.537 417.694,333.221 420.838,339.258 423.982,328.137 427.126,316.18 430.27,309.399 433.413,297.285 436.557,287.408 439.701,298.693 442.845,305.035 445.988,315.924 449.132,319.378 452.276,324.728 455.42,327.63 458.564,327.955 461.707,328.734 464.851,329.553 467.995,331.765 471.139,331.061 474.283,328.915 477.427,326.93 480.57,328.981 483.714,328.192 486.858,329.009 490.002,327.714 493.146,326.509 496.289,327.561 499.433,329.632 502.577,334.814 505.721,342.634 508.865,343.529 512.008,322.528 515.152,323.218 518.296,318.58 521.44,324.305 524.583,331.443 527.727,331.583 530.871,327.311 534.015,323.775 537.159,308.959 540.303,312.355 543.446,335.953 546.59,328.247 549.734,331.421 552.878,341.286 556.022,344.381 559.165,344.405 562.309,339.272 565.453,337.807 568.597,324.224 571.741,338.074 574.884,325.832 578.028,305.967 581.172,299.586 584.316,302.023 587.46,302.215 590.603,310.325 593.747,310.325 596.891,310.325 600.035,310.324 603.179,310.325 606.322,310.324 609.466,335.975 612.61,292.412 615.754,313.272 618.898,315.758"/>
<polyline fill="none" stroke="#000000" stroke-width="5.0" points="54.5853,323.398 54.5853,19.5543"/>
<polyline fill="none" stroke="#000000" stroke-width="5.0" points="49.5775,323.398 54.5853,323.398"/>
<polyline fill="none" stroke="#000000" stroke-width="5.0" points="49.5775,30.585 54.5853,30.585"/>
<polyline fill="none" stroke="#000000" stroke-width="5.0" points="54.5853,323.398 620.469,323.398"/>
<polyline fill="none" stroke="#000000" stroke-width="5.0" points="54.5853,328.412 54.5853,323.398"/>
<polyline fill="none" stroke="#000000" stroke-width="5.0" points="195.806,328.412 195.806,323.398"/>
<polyline fill="none" stroke="#000000" stroke-width="5.0" points="337.027,328.412 337.027,323.398"/>
<polyline fill="none" stroke="#000000" stroke-width="5.0" points="478.247,328.412 478.247,323.398"/>
<polyline fill="none" stroke="#000000" stroke-width="5.0" points="620.469,328.412 620.469,323.398"/>
</g>
</svg>
