<?xml version="1.0" encoding="UTF-8" standalone="no"?>
<svg xmlns="http://www.w3.org/2000/svg" xmlns:xlink="http://www.w3.org/1999/xlink" width="640px" height="360px" viewBox="0 0 640 360">
<title>VTK GL2PS Export</title>
<desc>
Creator: GL2PS 1.3.8, (C) 1999-2012 C. Geuzaine
For: VTK
CreationDate: Mon Aug 17 19:40:50 2015
</desc>
<defs>
</defs>
<g shape-rendering="crispEdges">
<text fill="#000000" x="47.5743" y="323.398" font-size="30" text-anchor="end" baseline-shift="-15" font-family="Helvetica">0</text>
<text fill="#000000" x="47.5743" y="30.585" font-size="30" text-anchor="end" baseline-shift="-15" font-family="Helvetica">0.3</text>
<text fill="#000000" x="54.5853" y="330.418" font-size="30" text-anchor="middle" baseline-shift="-30" font-family="Helvetica">0</text>
<text fill="#000000" x="195.806" y="330.418" font-size="30" text-anchor="middle" baseline-shift="-30" font-family="Helvetica">90</text>
<text fill="#000000" x="337.027" y="330.418" font-size="30" text-anchor="middle" baseline-shift="-30" font-family="Helvetica">180</text>
<text fill="#000000" x="478.247" y="330.418" font-size="30" text-anchor="middle" baseline-shift="-30" font-family="Helvetica">270</text>
<text fill="#000000" x="620.469" y="330.418" font-size="30" text-anchor="middle" baseline-shift="-30" font-family="Helvetica">360</text>
<polyline fill="none" stroke="#000000" stroke-width="5.0" points="56.1572,297.149 59.301,320.807 62.4448,288.573 65.5886,290.12 68.7324,292.449 71.8762,299.066 75.02,304.113 78.1638,311.71 81.3076,314.792 84.4514,320.24 87.5952,323.982 90.739,323.69 93.8828,318.051 97.0266,305.625 100.17,304.46 103.314,307.809 106.458,310.254 109.602,307.584 112.746,312.902 115.889,311.468 119.033,311.596 122.177,331.063 125.321,331.76 128.465,331.228 131.608,330.93 134.752,328.46 137.896,321.925 141.04,297.389 144.184,270.585 147.327,260.267 150.471,258.111 153.615,268.578 156.759,274.508 159.903,286.079 163.046,281.497 166.19,260.99 169.334,250.216 172.478,228.96 175.622,208.251 178.765,203.428 181.909,202.948 185.053,201.811 188.197,204.362 191.341,209.715 194.484,218.243 197.628,232.141 200.772,258.331 203.916,276.388 207.06,279.542 210.203,287.656 213.347,289.546 216.491,279.642 219.635,263.073 222.779,241.546 225.922,202.412 229.066,167.692 232.21,138.816 235.354,112.631 238.498,80.3643 241.641,61.289 244.785,50.3257 247.929,49.7023 251.073,54.3407 254.217,75.7662 257.36,134.595 260.504,161.293 263.648,192.449 266.792,216.664 269.936,235.866 273.079,251.966 276.223,266.987 279.367,286.718 282.511,296.528 285.655,299.97 288.798,293.675 291.942,299.114 295.086,305.621 298.23,309.538 301.374,308.065 304.517,311.113 307.661,297.272 310.805,298.548 313.949,310.329 317.093,329.349 320.236,339.265 323.38,345.62 326.524,346.56 329.668,338.494 332.812,313.551 335.955,282.836 339.099,269.884 342.243,243.007 345.387,212.056 348.531,190.468 351.674,180.471 354.818,178.372 357.962,169.972 361.106,160.476 364.25,168 367.393,180.668 370.537,196.997 373.681,210.422 376.825,231.514 379.969,257.027 383.112,276.523 386.256,296.619 389.4,301.881 392.544,297.826 395.688,291.412 398.831,295.639 401.975,286.428 405.119,283.99 408.263,284.262 411.407,289.359 414.55,316.285 417.694,333.513 420.838,338.616 423.982,328.65 427.126,316.581 430.27,309.872 433.413,294.577 436.557,288.14 439.701,300.218 442.845,306.204 445.988,316.698 449.132,319.198 452.276,325.272 455.42,327.563 458.564,328.346 461.707,329.007 464.851,330.012 467.995,330.333 471.139,330.662 474.283,327.293 477.427,326.72 480.57,329.12 483.714,328.739 486.858,329.993 490.002,327.811 493.146,326.417 496.289,328.247 499.433,330.463 502.577,333.865 505.721,340.566 508.865,343.901 512.008,323.387 515.152,322.768 518.296,315.335 521.44,324.734 524.583,330.542 527.727,332.762 530.871,326.411 534.015,324.694 537.159,310.113 540.303,314.124 543.446,330.566 546.59,331.053 549.734,332.325 552.878,342.127 556.022,344.797 559.165,341.46 562.309,337.937 565.453,332.256 568.597,321.206 571.741,337.907 574.884,326.567 578.028,306.275 581.172,299.476 584.316,302.523 587.46,302.827 590.603,311.031 593.747,311.031 596.891,311.032 600.035,311.031 603.179,311.031 606.322,311.031 609.466,336.711 612.61,294.908 615.754,312.488 618.898,309.907"/>
<polyline fill="none" stroke="#000000" stroke-width="5.0" points="54.5853,323.398 54.5853,19.5543"/>
<polyline fill="none" stroke="#000000" stroke-width="5.0" points="49.5775,323.398 54.5853,323.398"/>
<polyline fill="none" stroke="#000000" stroke-width="5.0" points="49.5775,30.585 54.5853,30.585"/>
<polyline fill="none" stroke="#000000" stroke-width="5.0" points="54.5853,323.398 620.469,323.398"/>
<polyline fill="none" stroke="#000000" stroke-width="5.0" points="54.5853,328.412 54.5853,323.398"/>
<polyline fill="none" stroke="#000000" stroke-width="5.0" points="195.806,328.412 195.806,323.398"/>
<polyline fill="none" stroke="#000000" stroke-width="5.0" points="337.027,328.412 337.027,323.398"/>
<polyline fill="none" stroke="#000000" stroke-width="5.0" points="478.247,328.412 478.247,323.398"/>
<polyline fill="none" stroke="#000000" stroke-width="5.0" points="620.469,328.412 620.469,323.398"/>
</g>
</svg>
