<?xml version="1.0" encoding="UTF-8" standalone="no"?>
<svg
   xmlns:dc="http://purl.org/dc/elements/1.1/"
   xmlns:cc="http://creativecommons.org/ns#"
   xmlns:rdf="http://www.w3.org/1999/02/22-rdf-syntax-ns#"
   xmlns:svg="http://www.w3.org/2000/svg"
   xmlns="http://www.w3.org/2000/svg"
   xmlns:sodipodi="http://sodipodi.sourceforge.net/DTD/sodipodi-0.dtd"
   xmlns:inkscape="http://www.inkscape.org/namespaces/inkscape"
   width="645.58936"
   height="741.34015"
   viewBox="0 0 645.58936 741.34015"
   id="svg2"
   version="1.1"
   inkscape:version="0.91 r13725"
   sodipodi:docname="1.svg">
  <metadata
     id="metadata62">
    <rdf:RDF>
      <cc:Work
         rdf:about="">
        <dc:format>image/svg+xml</dc:format>
        <dc:type
           rdf:resource="http://purl.org/dc/dcmitype/StillImage" />
        <dc:title>VTK GL2PS Export</dc:title>
      </cc:Work>
    </rdf:RDF>
  </metadata>
  <sodipodi:namedview
     pagecolor="#ffffff"
     bordercolor="#666666"
     borderopacity="1"
     objecttolerance="10"
     gridtolerance="10"
     guidetolerance="10"
     inkscape:pageopacity="0"
     inkscape:pageshadow="2"
     inkscape:window-width="1920"
     inkscape:window-height="1021"
     id="namedview60"
     showgrid="false"
     fit-margin-top="0"
     fit-margin-left="0"
     fit-margin-right="0"
     fit-margin-bottom="0"
     inkscape:zoom="0.66551226"
     inkscape:cx="-41.289717"
     inkscape:cy="406.5182"
     inkscape:window-x="0"
     inkscape:window-y="27"
     inkscape:window-maximized="1"
     inkscape:current-layer="g10" />
  <title
     id="title4">VTK GL2PS Export</title>
  <desc
     id="desc6">
Creator: GL2PS 1.3.8, (C) 1999-2012 C. Geuzaine
For: VTK
CreationDate: Fri Aug 14 09:16:47 2015
</desc>
  <defs
     id="defs8" />
  <g
     id="g10"
     style="stroke:#000000;stroke-opacity:1;shape-rendering:crispEdges"
     transform="translate(-325.206,-130.82991)">
    <polyline
       points="967.656,501.5 967.797,490.343 967.741,479.176 967.514,467.999 967.143,456.81 966.661,445.602 966.1,434.365 965.494,423.085 964.872,411.745 964.261,400.323 963.68,388.796 963.136,377.143 962.624,365.342 962.122,353.377 961.588,341.242 960.963,328.939 960.169,316.486 959.112,303.917 957.685,291.285 955.772,278.659 953.257,266.129 950.031,253.796 945.996,241.776 941.076,230.188 935.219,219.149 928.406,208.771 920.649,199.15 911.994,190.363 902.514,182.46 892.31,175.464 881.501,169.369 870.218,164.141 858.595,159.72 846.764,156.028 834.845,152.97 822.943,150.445 811.144,148.35 799.511,146.587 788.088,145.068 776.899,143.719 765.948,142.48 755.228,141.312 744.719,140.189 734.396,139.102 724.231,138.053 714.193,137.055 704.255,136.129 694.392,135.298 684.582,134.586 674.809,134.016 665.06,133.608 655.324,133.377 645.594,133.33 635.862,133.47 626.121,133.791 616.361,134.281 606.572,134.925 596.738,135.7 586.84,136.582 576.855,137.546 566.757,138.572 556.517,139.641 546.105,140.746 535.493,141.89 524.659,143.089 513.589,144.376 502.281,145.802 490.75,147.433 479.027,149.35 467.167,151.647 455.245,154.426 443.355,157.789 431.613,161.834 420.143,166.65 409.08,172.305 398.558,178.848 388.702,186.299 379.623,194.649 371.409,203.861 364.121,213.871 357.787,224.592 352.403,235.92 347.933,247.74 344.313,259.931 341.456,272.376 339.257,284.966 337.601,297.605 336.373,310.213 335.46,322.729 334.761,335.11 334.19,347.331 333.676,359.38 333.171,371.26 332.641,382.984 332.073,394.57 331.467,406.04 330.835,417.417 330.198,428.722 329.58,439.975 329.01,451.193 328.516,462.388 328.122,473.57 327.847,484.744 327.706,495.915 327.706,507.085 327.847,518.256 328.122,529.43 328.516,540.612 329.01,551.807 329.58,563.025 330.198,574.278 330.835,585.583 331.467,596.96 332.073,608.43 332.641,620.016 333.171,631.74 333.676,643.62 334.19,655.669 334.761,667.89 335.46,680.271 336.373,692.787 337.601,705.395 339.257,718.034 341.456,730.624 344.313,743.069 347.933,755.26 352.403,767.08 357.787,778.408 364.121,789.129 371.409,799.139 379.623,808.351 388.702,816.701 398.558,824.152 409.08,830.695 420.143,836.35 431.613,841.166 443.355,845.211 455.245,848.574 467.167,851.353 479.027,853.65 490.75,855.567 502.281,857.198 513.589,858.624 524.659,859.911 535.493,861.11 546.105,862.254 556.517,863.359 566.757,864.428 576.855,865.454 586.84,866.418 596.738,867.3 606.572,868.075 616.361,868.719 626.121,869.209 635.862,869.53 645.594,869.67 655.324,869.623 665.06,869.392 674.809,868.984 684.582,868.414 694.392,867.702 704.255,866.871 714.193,865.945 724.231,864.947 734.396,863.898 744.719,862.811 755.228,861.688 765.948,860.52 776.899,859.281 788.088,857.932 799.511,856.413 811.144,854.65 822.943,852.555 834.845,850.03 846.764,846.972 858.595,843.28 870.218,838.859 881.501,833.631 892.31,827.536 902.514,820.54 911.994,812.637 920.649,803.85 928.406,794.229 935.219,783.851 941.076,772.812 945.996,761.224 950.031,749.204 953.258,736.871 955.772,724.341 957.685,711.715 959.112,699.083 960.169,686.514 960.964,674.061 961.589,661.759 962.124,649.623 962.628,637.659 963.143,625.859 963.691,614.207 964.279,602.682 964.9,591.261 965.538,579.923 966.169,568.646 966.766,557.412 967.301,546.207 967.748,535.02 968.084,523.842 968.294,512.67 967.656,501.5"
       id="polyline12"
       style="fill:none;stroke:#000000;stroke-width:5;stroke-miterlimit:4;stroke-dasharray:none;stroke-opacity:1" />
  </g>
</svg>
