<?xml version="1.0" encoding="UTF-8" standalone="no"?>
<svg
   xmlns:dc="http://purl.org/dc/elements/1.1/"
   xmlns:cc="http://creativecommons.org/ns#"
   xmlns:rdf="http://www.w3.org/1999/02/22-rdf-syntax-ns#"
   xmlns:svg="http://www.w3.org/2000/svg"
   xmlns="http://www.w3.org/2000/svg"
   xmlns:sodipodi="http://sodipodi.sourceforge.net/DTD/sodipodi-0.dtd"
   xmlns:inkscape="http://www.inkscape.org/namespaces/inkscape"
   width="642.841"
   height="776.78906"
   viewBox="0 0 642.841 776.78906"
   id="svg2"
   version="1.1"
   inkscape:version="0.91 r13725"
   sodipodi:docname="2.svg">
  <metadata
     id="metadata62">
    <rdf:RDF>
      <cc:Work
         rdf:about="">
        <dc:format>image/svg+xml</dc:format>
        <dc:type
           rdf:resource="http://purl.org/dc/dcmitype/StillImage" />
        <dc:title>VTK GL2PS Export</dc:title>
      </cc:Work>
    </rdf:RDF>
  </metadata>
  <sodipodi:namedview
     pagecolor="#ffffff"
     bordercolor="#666666"
     borderopacity="1"
     objecttolerance="10"
     gridtolerance="10"
     guidetolerance="10"
     inkscape:pageopacity="0"
     inkscape:pageshadow="2"
     inkscape:window-width="1920"
     inkscape:window-height="1021"
     id="namedview60"
     showgrid="false"
     inkscape:zoom="0.66551226"
     inkscape:cx="-367.89547"
     inkscape:cy="293.41273"
     inkscape:window-x="0"
     inkscape:window-y="27"
     inkscape:window-maximized="1"
     inkscape:current-layer="g10"
     fit-margin-top="0"
     fit-margin-left="0"
     fit-margin-right="0"
     fit-margin-bottom="0" />
  <title
     id="title4">VTK GL2PS Export</title>
  <desc
     id="desc6">
Creator: GL2PS 1.3.8, (C) 1999-2012 C. Geuzaine
For: VTK
CreationDate: Fri Aug 14 09:16:47 2015
</desc>
  <defs
     id="defs8" />
  <g
     id="g10"
     style="stroke:#000000;stroke-opacity:1;shape-rendering:crispEdges"
     transform="translate(-326.60575,-113.10547)">
    <polyline
       points="966.947,501.5 966.761,488.325 966.204,475.166 965.275,462.037 963.977,448.954 962.31,435.933 960.277,422.988 957.879,410.134 955.121,397.387 952.004,384.761 948.533,372.272 944.713,359.933 940.55,347.757 936.064,335.754 931.31,323.913 926.448,312.169 921.857,300.323 918.265,287.924 916.701,274.222 918.022,258.378 921.992,240.099 926.499,220.435 927.877,202.006 922.704,187.998 909.953,180.321 891.705,178.343 871.759,179.336 853.399,180.211 838.052,179.083 825.459,175.648 814.62,170.578 804.6,164.739 794.82,158.761 785.013,152.983 775.088,147.548 765.024,142.51 754.827,137.887 744.505,133.687 734.07,129.916 723.536,126.578 712.913,123.677 702.214,121.217 691.453,119.2 680.641,117.629 669.79,116.505 658.915,115.831 648.027,115.606 637.138,115.831 626.263,116.505 615.412,117.629 604.6,119.2 593.839,121.217 583.14,123.677 572.517,126.578 561.983,129.916 551.548,133.687 541.226,137.887 531.029,142.51 520.965,147.548 511.04,152.983 501.234,158.761 491.453,164.739 481.433,170.578 470.595,175.648 458.001,179.083 442.655,180.211 424.294,179.336 404.348,178.343 386.1,180.321 373.349,187.998 368.176,202.006 369.555,220.435 374.061,240.099 378.031,258.378 379.352,274.222 377.788,287.924 374.196,300.323 369.605,312.169 364.743,323.913 359.989,335.754 355.503,347.757 351.34,359.933 347.52,372.272 344.049,384.761 340.932,397.387 338.174,410.134 335.776,422.988 333.743,435.933 332.076,448.954 330.778,462.037 329.849,475.166 329.292,488.325 329.106,501.5 329.292,514.675 329.849,527.834 330.778,540.963 332.076,554.046 333.743,567.067 335.776,580.012 338.174,592.866 340.932,605.613 344.049,618.239 347.52,630.728 351.34,643.067 355.503,655.243 359.989,667.246 364.743,679.087 369.605,690.831 374.196,702.677 377.788,715.076 379.352,728.778 378.031,744.622 374.061,762.901 369.555,782.565 368.176,800.994 373.349,815.002 386.1,822.679 404.348,824.657 424.294,823.664 442.655,822.789 458.001,823.917 470.595,827.352 481.433,832.422 491.453,838.261 501.234,844.239 511.04,850.017 520.965,855.452 531.029,860.49 541.226,865.113 551.548,869.313 561.983,873.084 572.517,876.422 583.14,879.323 593.839,881.783 604.6,883.8 615.412,885.371 626.263,886.495 637.138,887.169 648.027,887.394 658.915,887.169 669.79,886.495 680.641,885.371 691.453,883.8 702.214,881.783 712.913,879.323 723.536,876.422 734.07,873.084 744.505,869.313 754.827,865.113 765.024,860.49 775.088,855.452 785.013,850.017 794.82,844.239 804.6,838.261 814.62,832.422 825.459,827.352 838.052,823.917 853.399,822.789 871.759,823.664 891.705,824.657 909.953,822.679 922.704,815.002 927.877,800.994 926.499,782.565 921.992,762.901 918.022,744.622 916.701,728.778 918.265,715.076 921.857,702.677 926.448,690.831 931.31,679.087 936.064,667.246 940.55,655.243 944.713,643.067 948.533,630.728 952.004,618.239 955.121,605.613 957.879,592.866 960.277,580.012 962.31,567.067 963.977,554.046 965.275,540.963 966.204,527.834 966.761,514.675 966.947,501.5"
       id="polyline14"
       style="fill:none;stroke:#000000;stroke-width:5;stroke-miterlimit:4;stroke-dasharray:none;stroke-opacity:1" />
  </g>
</svg>
