<?xml version="1.0" encoding="UTF-8" standalone="no"?>
<svg
   xmlns:dc="http://purl.org/dc/elements/1.1/"
   xmlns:cc="http://creativecommons.org/ns#"
   xmlns:rdf="http://www.w3.org/1999/02/22-rdf-syntax-ns#"
   xmlns:svg="http://www.w3.org/2000/svg"
   xmlns="http://www.w3.org/2000/svg"
   xmlns:sodipodi="http://sodipodi.sourceforge.net/DTD/sodipodi-0.dtd"
   xmlns:inkscape="http://www.inkscape.org/namespaces/inkscape"
   width="701.12195"
   height="705.95148"
   viewBox="0 0 701.12195 705.95148"
   id="svg2"
   version="1.1"
   inkscape:version="0.91 r13725"
   sodipodi:docname="3.svg">
  <metadata
     id="metadata62">
    <rdf:RDF>
      <cc:Work
         rdf:about="">
        <dc:format>image/svg+xml</dc:format>
        <dc:type
           rdf:resource="http://purl.org/dc/dcmitype/StillImage" />
        <dc:title>VTK GL2PS Export</dc:title>
      </cc:Work>
    </rdf:RDF>
  </metadata>
  <sodipodi:namedview
     pagecolor="#ffffff"
     bordercolor="#666666"
     borderopacity="1"
     objecttolerance="10"
     gridtolerance="10"
     guidetolerance="10"
     inkscape:pageopacity="0"
     inkscape:pageshadow="2"
     inkscape:window-width="1920"
     inkscape:window-height="1021"
     id="namedview60"
     showgrid="false"
     inkscape:zoom="0.94117647"
     inkscape:cx="371.49133"
     inkscape:cy="312.6542"
     inkscape:window-x="0"
     inkscape:window-y="27"
     inkscape:window-maximized="1"
     inkscape:current-layer="g10"
     fit-margin-top="0"
     fit-margin-left="0"
     fit-margin-right="0"
     fit-margin-bottom="0" />
  <title
     id="title4">VTK GL2PS Export</title>
  <desc
     id="desc6">
Creator: GL2PS 1.3.8, (C) 1999-2012 C. Geuzaine
For: VTK
CreationDate: Fri Aug 14 09:28:30 2015
</desc>
  <defs
     id="defs8" />
  <g
     id="g10"
     style="shape-rendering:crispEdges"
     transform="translate(-297.43056,-148.90085)">
    <polyline
       points="971.726,509.257 972.179,498.881 972.456,488.475 972.584,478.038 972.589,467.564 972.506,457.044 972.373,446.463 972.244,435.799 972.214,425.013 972.452,414.034 973.245,402.736 974.995,390.917 978.086,378.327 982.609,364.77 988.023,350.292 993.054,335.335 996.046,320.696 995.701,307.223 991.742,295.401 985.018,285.103 976.96,275.714 968.821,266.525 961.199,257.089 954.047,247.353 946.971,237.547 939.553,228 931.516,218.995 922.748,210.718 913.261,203.265 903.136,196.665 892.49,190.898 881.451,185.914 870.147,181.637 858.696,177.978 847.199,174.839 835.74,172.121 824.38,169.731 813.161,167.588 802.105,165.623 791.215,163.787 780.484,162.046 769.894,160.385 759.422,158.803 749.043,157.31 738.734,155.927 728.472,154.681 718.24,153.598 708.024,152.706 697.816,152.031 687.611,151.592 677.406,151.401 667.201,151.465 656.996,151.781 646.79,152.34 636.579,153.127 626.356,154.117 616.111,155.285 605.828,156.603 595.487,158.044 585.065,159.583 574.537,161.206 563.879,162.905 553.07,164.69 542.096,166.584 530.956,168.629 519.661,170.884 508.243,173.423 496.751,176.333 485.258,179.71 473.855,183.652 462.65,188.252 451.763,193.59 441.321,199.729 431.446,206.706 422.251,214.53 413.827,223.178 406.238,232.598 399.517,242.709 393.655,253.408 388.61,264.575 384.3,276.083 380.613,287.804 377.411,299.617 374.542,311.418 371.843,323.12 369.142,334.657 366.25,345.974 362.93,357.023 358.846,367.747 353.557,378.091 346.596,388.047 337.74,397.722 327.375,407.392 316.724,417.464 307.62,428.305 301.776,440.058 299.954,452.55 301.614,465.401 305.306,478.236 309.507,490.838 313.28,503.173 316.443,515.297 319.302,527.265 322.281,539.091 325.685,550.751 329.63,562.212 334.083,573.447 338.922,584.45 343.991,595.235 349.125,605.836 354.176,616.301 359.022,626.689 363.572,637.062 367.78,647.481 371.639,657.999 375.185,668.654 378.492,679.463 381.668,690.419 384.848,701.492 388.178,712.621 391.815,723.726 395.906,734.702 400.586,745.43 405.964,755.786 412.118,765.642 419.088,774.883 426.877,783.407 435.453,791.137 444.746,798.024 454.663,804.05 465.089,809.227 475.899,813.598 486.966,817.23 498.167,820.208 509.392,822.632 520.55,824.606 531.568,826.231 542.396,827.602 553.003,828.803 563.379,829.899 573.528,830.943 583.465,831.969 593.214,832.997 602.803,834.035 612.264,835.082 621.625,836.132 630.917,837.175 640.164,838.204 649.392,839.211 658.624,840.195 667.881,841.158 677.187,842.105 686.565,843.047 696.042,843.993 705.643,844.953 715.399,845.935 725.338,846.937 735.491,847.953 745.882,848.963 756.534,849.935 767.46,850.826 778.665,851.576 790.14,852.112 801.862,852.352 813.789,852.201 825.866,851.56 838.015,850.327 850.146,848.402 862.151,845.691 873.911,842.115 885.303,837.608 896.198,832.127 906.472,825.653 916.014,818.194 924.726,809.782 932.534,800.479 939.39,790.369 945.276,779.555 950.202,768.156 954.211,756.299 957.373,744.114 959.777,731.726 961.534,719.252 962.761,706.793 963.581,694.432 964.11,682.235 964.458,670.244 964.718,658.485 964.964,646.965 965.255,635.676 965.625,624.601 966.093,613.714 966.66,602.985 967.313,592.383 968.031,581.878 968.785,571.443 969.542,561.053 970.271,550.69 970.942,540.338 971.53,529.987 972.015,519.628 971.726,509.257"
       id="polyline12"
       style="fill:none;stroke:#000000;stroke-width:5;stroke-miterlimit:4;stroke-dasharray:none;stroke-opacity:1" />
  </g>
</svg>
