<?xml version="1.0" encoding="UTF-8" standalone="no"?>
<svg
   xmlns:dc="http://purl.org/dc/elements/1.1/"
   xmlns:cc="http://creativecommons.org/ns#"
   xmlns:rdf="http://www.w3.org/1999/02/22-rdf-syntax-ns#"
   xmlns:svg="http://www.w3.org/2000/svg"
   xmlns="http://www.w3.org/2000/svg"
   xmlns:sodipodi="http://sodipodi.sourceforge.net/DTD/sodipodi-0.dtd"
   xmlns:inkscape="http://www.inkscape.org/namespaces/inkscape"
   width="621.78802"
   height="727.13422"
   viewBox="0 0 621.78802 727.13422"
   id="svg2"
   version="1.1"
   inkscape:version="0.91 r13725"
   sodipodi:docname="4.svg">
  <metadata
     id="metadata62">
    <rdf:RDF>
      <cc:Work
         rdf:about="">
        <dc:format>image/svg+xml</dc:format>
        <dc:type
           rdf:resource="http://purl.org/dc/dcmitype/StillImage" />
        <dc:title>VTK GL2PS Export</dc:title>
      </cc:Work>
    </rdf:RDF>
  </metadata>
  <sodipodi:namedview
     pagecolor="#ffffff"
     bordercolor="#666666"
     borderopacity="1"
     objecttolerance="10"
     gridtolerance="10"
     guidetolerance="10"
     inkscape:pageopacity="0"
     inkscape:pageshadow="2"
     inkscape:window-width="1920"
     inkscape:window-height="1021"
     id="namedview60"
     showgrid="false"
     inkscape:zoom="0.94117647"
     inkscape:cx="20.728307"
     inkscape:cy="344.72032"
     inkscape:window-x="0"
     inkscape:window-y="27"
     inkscape:window-maximized="1"
     inkscape:current-layer="g10"
     fit-margin-top="0"
     fit-margin-left="0"
     fit-margin-right="0"
     fit-margin-bottom="0" />
  <title
     id="title4">VTK GL2PS Export</title>
  <desc
     id="desc6">
Creator: GL2PS 1.3.8, (C) 1999-2012 C. Geuzaine
For: VTK
CreationDate: Fri Aug 14 09:28:30 2015
</desc>
  <defs
     id="defs8" />
  <g
     id="g10"
     style="shape-rendering:crispEdges"
     transform="translate(-350.76302,-137.93188)">
    <polyline
       points="969.476,509.257 969.845,499.908 970.034,490.535 970.051,481.138 969.906,471.715 969.608,462.265 969.167,452.785 968.594,443.269 967.899,433.711 967.095,424.102 966.196,414.432 965.213,404.686 964.163,394.849 963.06,384.901 961.918,374.821 960.75,364.583 959.564,354.162 958.365,343.531 957.149,332.662 955.901,321.533 954.598,310.129 953.198,298.444 951.646,286.486 949.872,274.281 947.791,261.875 945.303,249.342 942.302,236.777 938.679,224.305 934.326,212.07 929.145,200.241 923.055,188.997 915.997,178.524 907.942,169.01 898.888,160.63 888.87,153.542 877.949,147.885 866.216,143.766 853.785,141.267 840.786,140.437 827.366,141.299 813.676,143.843 799.878,148.022 786.133,153.751 772.607,160.888 759.46,169.227 746.843,178.481 734.889,188.283 723.693,198.184 713.309,207.675 703.726,216.216 694.871,223.287 686.602,228.432 678.722,231.317 670.994,231.766 663.171,229.783 655.018,225.557 646.341,219.431 637.002,211.867 626.933,203.394 616.13,194.554 604.65,185.857 592.598,177.749 580.108,170.594 567.336,164.667 554.443,160.163 541.593,157.208 528.945,155.871 516.652,156.177 504.856,158.114 493.688,161.64 483.263,166.68 473.673,173.135 464.986,180.875 457.242,189.748 450.445,199.581 444.57,210.19 439.561,221.383 435.335,232.975 431.79,244.789 428.809,256.669 426.271,268.481 424.056,280.121 422.051,291.512 420.159,302.605 418.298,313.377 416.407,323.826 414.445,333.97 412.389,343.838 410.234,353.467 407.989,362.899 405.674,372.178 403.318,381.343 400.951,390.431 398.607,399.473 396.312,408.493 394.073,417.504 391.852,426.508 389.527,435.488 386.852,444.419 383.455,453.284 378.95,462.102 373.171,470.963 366.49,480.02 359.962,489.421 355.107,499.209 353.303,509.257 355.107,519.304 359.962,529.093 366.49,538.494 373.171,547.551 378.95,556.412 383.455,565.23 386.852,574.094 389.527,583.026 391.852,592.006 394.073,601.009 396.312,610.02 398.607,619.04 400.951,628.083 403.318,637.171 405.674,646.336 407.989,655.614 410.234,665.047 412.389,674.676 414.445,684.543 416.407,694.687 418.298,705.137 420.159,715.909 422.051,727.001 424.056,738.392 426.272,750.032 428.81,761.844 431.791,773.724 435.337,785.537 439.563,797.128 444.573,808.32 450.449,818.927 457.247,828.758 464.994,837.628 473.683,845.363 483.276,851.811 493.706,856.843 504.879,860.357 516.681,862.278 528.982,862.563 541.638,861.197 554.498,858.205 567.402,853.653 580.187,847.664 592.69,840.431 604.755,832.224 616.246,823.404 627.058,814.411 637.131,805.75 646.466,797.958 655.129,791.558 663.253,787.005 671.028,784.639 678.681,784.639 686.456,787.005 694.58,791.558 703.243,797.958 712.578,805.75 722.651,814.411 733.463,823.404 744.954,832.224 757.02,840.431 769.522,847.664 782.307,853.653 795.211,858.205 808.071,861.197 820.728,862.563 833.029,862.278 844.831,860.357 856.003,856.843 866.433,851.811 876.026,845.363 884.715,837.628 892.462,828.758 899.261,818.928 905.137,808.321 910.147,797.128 914.373,785.538 917.919,773.724 920.9,761.845 923.439,750.033 925.655,738.394 927.661,727.004 929.555,715.912 931.418,705.141 933.312,694.693 935.278,684.551 937.339,674.687 939.502,665.061 941.757,655.633 944.086,646.359 946.461,637.2 948.852,628.119 951.224,619.083 953.545,610.068 955.783,601.052 957.91,592.02 959.903,582.962 961.743,573.871 963.413,564.743 964.903,555.579 966.206,546.379 967.317,537.144 968.237,527.877 968.965,518.58 969.476,509.257"
       id="polyline14"
       style="fill:none;stroke:#000000;stroke-width:5;stroke-miterlimit:4;stroke-dasharray:none;stroke-opacity:1" />
  </g>
</svg>
