<?xml version="1.0" encoding="UTF-8" standalone="no"?>
<svg xmlns="http://www.w3.org/2000/svg" xmlns:xlink="http://www.w3.org/1999/xlink" width="640px" height="360px" viewBox="0 0 640 360">
<title>VTK GL2PS Export</title>
<desc>
Creator: GL2PS 1.3.8, (C) 1999-2012 C. Geuzaine
For: VTK
CreationDate: Mon Aug 17 19:27:24 2015
</desc>
<defs>
</defs>
<g shape-rendering="crispEdges">
<text fill="#000000" x="48.5759" y="323.398" font-size="30" text-anchor="end" baseline-shift="-15" font-family="Helvetica">0</text>
<text fill="#000000" x="48.5759" y="59.6658" font-size="30" text-anchor="end" baseline-shift="-15" font-family="Helvetica">0.5</text>
<text fill="#000000" x="55.5869" y="330.418" font-size="30" text-anchor="middle" baseline-shift="-30" font-family="Helvetica">0</text>
<text fill="#000000" x="196.807" y="330.418" font-size="30" text-anchor="middle" baseline-shift="-30" font-family="Helvetica">90</text>
<text fill="#000000" x="338.028" y="330.418" font-size="30" text-anchor="middle" baseline-shift="-30" font-family="Helvetica">180</text>
<text fill="#000000" x="479.249" y="330.418" font-size="30" text-anchor="middle" baseline-shift="-30" font-family="Helvetica">270</text>
<text fill="#000000" x="620.469" y="330.418" font-size="30" text-anchor="middle" baseline-shift="-30" font-family="Helvetica">360</text>
<polyline fill="none" stroke="#000000" stroke-width="5.0" points="57.156,323.324 60.2942,323.169 63.4324,323.151 66.5707,323.196 69.7089,323.204 72.8472,323.347 75.9854,323.321 79.1236,323.217 82.2619,323.466 85.4001,323.531 88.5383,323.507 91.6766,323.42 94.8148,323.25 97.953,323.342 101.091,323.494 104.23,323.55 107.368,323.476 110.506,323.47 113.644,323.576 116.782,323.716 119.921,323.536 123.059,323.56 126.197,323.249 129.335,320.401 132.474,323.553 135.612,324.131 138.75,324.211 141.888,324.054 145.027,324.144 148.165,323.729 151.303,323.651 154.441,323.42 157.58,323.347 160.718,323.176 163.856,323.172 166.994,323.9 170.133,323.616 173.271,324.092 176.409,321.33 179.547,323.701 182.685,323.419 185.824,323.335 188.962,323.462 192.1,323.117 195.238,323.263 198.377,323.348 201.515,323.055 204.653,323.26 207.791,322.881 210.93,323.071 214.068,323.31 217.206,322.89 220.344,320.694 223.483,323.098 226.621,323.2 229.759,321.129 232.897,323.204 236.035,321.41 239.174,320.008 242.312,323.174 245.45,323.424 248.588,323.92 251.727,323.917 254.865,324.025 258.003,323.927 261.141,324.406 264.28,324.412 267.418,322.564 270.556,322.852 273.694,323.731 276.833,324.17 279.971,323.786 283.109,324.162 286.247,324.049 289.385,324.307 292.524,322.964 295.662,324.018 298.8,323.146 301.938,323.018 305.077,323.274 308.215,323.449 311.353,323.637 314.491,323.374 317.63,323.453 320.768,323.503 323.906,323.539 327.044,323.525 330.183,323.558 333.321,323.328 336.459,323.632 339.597,323.011 342.736,323.36 345.874,323.466 349.012,323.832 352.15,324.205 355.288,324.403 358.427,323.631 361.565,322.977 364.703,323.222 367.841,323.153 370.98,323.087 374.118,323.045 377.256,323.204 380.394,323.372 383.533,323.283 386.671,323.03 389.809,323.255 392.947,323.215 396.086,323.312 399.224,323.179 402.362,323.745 405.5,323.799 408.639,323.511 411.777,323.771 414.915,323.909 418.053,323.34 421.191,323.219 424.33,318.769 427.468,310.314 430.606,294.665 433.744,267.129 436.883,233.291 440.021,200.642 443.159,164.961 446.297,125.722 449.436,68.9947 452.574,58.6564 455.712,53.8327 458.85,52.9084 461.989,63.6621 465.127,93.023 468.265,130.426 471.403,158.859 474.541,154.762 477.68,139.912 480.818,127.98 483.956,108.627 487.094,81.1722 490.233,60.8852 493.371,50.495 496.509,47.1765 499.647,55.4372 502.786,79.0376 505.924,110.333 509.062,149.265 512.2,192.687 515.339,238.364 518.477,280.483 521.615,307.726 524.753,317.023 527.892,320.379 531.03,322.324 534.168,322.391 537.306,322.427 540.444,323.274 543.583,323.449 546.721,323.383 549.859,324.309 552.997,323.65 556.136,322.16 559.274,323.969 562.412,323.637 565.55,323.265 568.689,323.882 571.827,323.702 574.965,323.803 578.103,322.888 581.242,322.074 584.38,324.174 587.518,324.174 590.656,324.174 593.794,324.174 596.933,324.174 600.071,324.174 603.209,324.174 606.347,324.174 609.486,324.174 612.624,324.174 615.762,324.174 618.9,323.408"/>
<polyline fill="none" stroke="#000000" stroke-width="5.0" points="55.5869,323.398 55.5869,19.5543"/>
<polyline fill="none" stroke="#000000" stroke-width="5.0" points="50.579,323.398 55.5869,323.398"/>
<polyline fill="none" stroke="#000000" stroke-width="5.0" points="50.579,59.6658 55.5869,59.6658"/>
<polyline fill="none" stroke="#000000" stroke-width="5.0" points="55.5869,323.398 620.469,323.398"/>
<polyline fill="none" stroke="#000000" stroke-width="5.0" points="55.5869,328.412 55.5869,323.398"/>
<polyline fill="none" stroke="#000000" stroke-width="5.0" points="196.807,328.412 196.807,323.398"/>
<polyline fill="none" stroke="#000000" stroke-width="5.0" points="338.028,328.412 338.028,323.398"/>
<polyline fill="none" stroke="#000000" stroke-width="5.0" points="479.249,328.412 479.249,323.398"/>
<polyline fill="none" stroke="#000000" stroke-width="5.0" points="620.469,328.412 620.469,323.398"/>
</g>
</svg>
