<?xml version="1.0" encoding="UTF-8" standalone="no"?>
<svg xmlns:dc="http://purl.org/dc/elements/1.1/" xmlns:cc="http://creativecommons.org/ns#" xmlns:rdf="http://www.w3.org/1999/02/22-rdf-syntax-ns#" xmlns:svg="http://www.w3.org/2000/svg" xmlns="http://www.w3.org/2000/svg" xmlns:sodipodi="http://sodipodi.sourceforge.net/DTD/sodipodi-0.dtd" xmlns:inkscape="http://www.inkscape.org/namespaces/inkscape" width="667.61127" height="751.31708" viewbox="0 0 1296 998" id="svg2" version="1.1" inkscape:version="0.91 r13725" sodipodi:docname="shifter-characteristic.svg">
  <metadata id="metadata62">
    <rdf:RDF>
      <cc:Work rdf:about="">
        <dc:format>image/svg+xml</dc:format>
        <dc:type rdf:resource="http://purl.org/dc/dcmitype/StillImage"/>
        <dc:title>VTK GL2PS Export</dc:title>
      </cc:Work>
    </rdf:RDF>
  </metadata>
  <sodipodi:namedview pagecolor="#ffffff" bordercolor="#666666" borderopacity="1" objecttolerance="10" gridtolerance="10" guidetolerance="10" inkscape:pageopacity="0" inkscape:pageshadow="2" inkscape:window-width="1920" inkscape:window-height="1016" id="namedview60" showgrid="false" fit-margin-top="0" fit-margin-left="0" fit-margin-right="0" fit-margin-bottom="0" inkscape:zoom="0.23647295" inkscape:cx="342.27089" inkscape:cy="375.65685" inkscape:window-x="0" inkscape:window-y="32" inkscape:window-maximized="1" inkscape:current-layer="g10"/>
  <title id="title4">VTK GL2PS Export</title>
  <desc id="desc6">
Creator: GL2PS 1.3.8, (C) 1999-2012 C. Geuzaine
For: VTK
CreationDate: Sun Aug 16 14:49:45 2015
</desc>
  <defs id="defs8"/>
  <g id="g10" style="shape-rendering:crispEdges" transform="translate(-314.18673,-123.33976)">
    <polyline points="978.368,506.293 978.926,496.282 979.297,486.222 979.298,476.125 978.828,466.003 978.229,455.842 978.364,445.728 977.707,435.513 976.506,425 975.573,414.842 974.378,404.326 972.992,393.501 971.986,383.036 970.633,372.075 969.201,360.93 968.196,349.758 966.397,338.029 964.66,326.414 963.438,313.95 961.602,301.24 959.789,288.663 958.221,275.322 955.919,261.605 952.998,248.139 950.487,234.266 945.956,220.022 941.532,206.593 936.144,193.509 929.632,180.333 921.278,168.194 912.753,157.856 902.946,147.777 891.884,140.233 879.652,133.642 866.616,128.659 853.22,126.819 838.658,125.938 823.649,127.667 808.122,130.8 792.779,136.179 777.484,142.345 762.725,152.117 748.088,161.666 734.275,173.138 721.132,184.203 709.083,195.577 697.787,206.133 687.417,214.615 677.756,221.635 668.67,225.398 659.828,227.167 650.928,224.699 641.655,220.467 631.86,213.852 621.343,204.421 609.966,194.581 597.66,184.344 584.646,174.383 571.217,165.64 557.137,157.557 542.636,151.052 528.558,146.136 514.328,143.802 500.497,143.327 487.074,143.605 474.107,146.438 461.73,151.402 450.687,157.756 441.001,165.892 431.556,174.886 423.778,185.649 416.488,197.397 410.58,209.199 405.596,222.146 401.304,235.173 397.667,248.502 394.198,261.491 391.882,274.099 389.505,286.309 387.042,298.848 385.182,310.996 383.046,321.667 380.868,332.883 378.132,343.378 376.102,353.821 373.402,364.002 370.746,373.765 367.851,383.871 365.214,393.406 362.546,403.139 360.326,412.999 357.953,422.574 354.987,432.199 352.179,441.638 347.837,451.193 342.35,460.559 335.744,470.089 327.977,479.862 321.012,490.148 317.737,500.853 317.505,511.743 321.217,522.444 328.092,532.742 335.162,542.513 342.548,552.023 348.48,561.381 352.522,570.77 354.798,580.26 358.018,589.966 360.431,599.597 362.505,609.414 365.513,619.091 367.719,628.802 370.653,638.755 373.141,648.583 375.695,658.992 377.863,669.33 380.563,679.743 382.794,690.659 385.065,702.136 387.276,714.321 389.162,726.102 392.293,738.579 394.152,751.36 397.621,764.15 401.314,777.701 405.547,790.034 410.73,803.367 416.38,815.459 423.729,826.614 431.667,837.964 440.697,847.197 450.897,855.161 461.981,861.066 474.063,865.749 487.097,869.118 500.41,869.095 514.525,868.803 528.813,865.839 543.021,860.566 557.646,854.266 571.467,846.029 585.078,837.408 597.951,827.224 610.107,816.623 621.411,806.793 631.941,798.397 641.776,790.52 650.971,786.36 659.848,784.163 668.639,785.058 677.613,788.098 687.078,793.709 697.206,801.862 708.072,811.821 719.871,821.392 732.507,831.224 745.654,841.392 759.366,850.628 773.69,856.94 788.159,863.394 802.391,866.983 816.423,869.414 830.474,869.237 843.345,867.756 855.944,863.94 867.786,857.808 878.302,851.145 887.961,842.066 896.442,832.485 903.859,820.921 910.208,809.468 915.812,796.355 920.643,783.492 924.475,770.539 927.201,757.293 930.271,744.441 933.066,731.786 934.941,719.573 937.138,707.197 939.547,695.938 941.596,685.161 944.293,674.207 946.108,663.491 949.629,653.356 951.948,643.398 954.457,633.689 957.502,623.935 959.631,614.087 963.476,604.418 965.207,594.791 967.277,585.269 969.862,575.429 971.463,565.531 972.841,555.765 974.588,546.114 976.266,536.137 977.925,526.23 977.565,516.268 978.368,506.293" id="polyline12" style="fill:none;stroke:#ff0000;stroke-width:5"/>
    <polyline points="978.812,506.293 979.166,496.295 979.092,486.237 978.847,476.183 978.602,466.062 978.932,455.823 977.843,445.57 977.203,435.478 976.455,425.116 975.416,414.637 974.504,404.273 973.195,393.794 971.74,383.073 970.148,372.267 968.767,360.728 967.925,349.569 966.091,337.973 964.549,326.323 962.737,313.882 961.464,301.416 959.777,289.063 957.546,275.668 955.225,261.755 952.72,247.919 949.689,234.072 945.678,219.958 941.373,206.675 935.542,193.29 929.46,180.497 921.674,168.404 913.171,157.426 902.932,148.137 892.016,139.905 879.825,133.879 866.5,129.183 852.918,126.781 838.205,125.848 823.334,127.398 807.781,131.001 792.535,136.689 777.308,143.584 762.334,152.365 747.949,162.367 734.054,173.065 721.058,184.514 708.934,196.009 697.769,205.694 687.395,214.814 677.77,221.805 668.688,225.473 659.831,226.816 650.949,225.078 641.708,221.124 631.936,213.484 621.293,204.723 610.073,195.347 597.812,185.601 584.826,175.645 571.435,165.948 557.34,157.785 542.906,151.854 528.593,146.685 514.606,143.492 500.346,142.967 486.706,144.012 473.862,146.272 462.04,151.76 450.555,157.853 440.672,165.245 431.785,175.001 423.732,185.474 416.673,197.379 410.567,209.479 405.791,221.954 401.163,235.109 398.031,248.396 394.727,261.699 392.223,274.334 390.318,286.512 387.926,298.966 385.611,310.59 382.928,322.098 380.754,332.747 378.516,343.38 375.833,353.916 373.565,363.859 369.988,374.054 367.705,383.666 365.732,393.559 362.746,403.147 360.861,413.054 357.81,422.529 354.587,432.258 351.795,441.91 348.084,451.245 342.668,460.633 335.941,470.134 327.794,479.912 320.92,490.127 316.702,500.84 317.052,511.747 321.246,522.442 328.177,532.707 335.354,542.52 342.373,551.927 348.133,561.33 352.015,570.913 356.049,580.356 357.876,590.062 360.201,599.688 362.687,609.342 365.176,619.127 368.133,628.706 370.368,638.769 373.527,648.481 375.876,658.581 378.34,669.289 380.704,679.683 383.001,690.479 385.746,701.933 387.237,714.089 389.576,726.287 392.052,738.494 395.132,752.161 397.979,764.272 401.715,777.506 405.255,790.99 410.979,803.319 416.313,815.897 423.628,826.776 431.412,837.713 440.723,846.76 450.845,854.685 461.772,861.509 473.852,866.901 486.111,870.486 499.385,871.714 512.957,872.152 526.905,870.471 540.646,867.21 554.681,862.903 568.527,857.944 581.719,851.104 594.764,842.913 607.224,834.092 618.949,825.427 630.155,815.488 640.627,806.747 650.484,798.467 659.774,792.18 668.701,787.659 677.497,785.899 686.401,786.078 695.781,790.013 705.859,796.553 716.63,804.194 728.374,813.453 741.327,823.388 754.772,833.125 769.036,842.881 783.659,851.142 798.484,857.484 813.412,861.471 827.569,863.767 841.542,863.761 854.804,860.894 866.666,856.374 877.575,849.597 887.502,841.183 896.311,831.578 903.968,820.954 910.327,808.406 915.396,796.279 920.212,783.244 924.447,770.393 927.425,756.931 930.46,744.15 933.061,732.034 935.03,719.805 937.159,707.546 939.889,696.227 941.838,684.717 944.378,673.981 946.461,663.732 949.447,653.332 952.058,643.449 954.81,633.589 957.636,623.921 959.754,614.159 962.053,604.5 964.925,594.808 966.612,585.186 969.538,575.464 971.651,565.617 973.257,555.736 975.038,546.037 976.022,536.12 977.336,526.255 978.249,516.272 978.812,506.293" id="polyline14" style="fill:none;stroke:#00ff00;stroke-width:5"/>
  </g>
</svg>
